<svg xmlns="http://www.w3.org/2000/svg" width="24" height="24" viewBox="0 0 24 24" fill="none">
    <path fill-rule="evenodd" clip-rule="evenodd" d="M19.916 4.626C20.0815 4.73634 20.1964 4.90789 20.2354 5.10293C20.2744 5.29796 20.2343 5.5005 20.124 5.666L11.124 19.166C11.0624 19.2582 10.9811 19.3357 10.886 19.3927C10.7909 19.4498 10.6843 19.485 10.574 19.4959C10.4636 19.5068 10.3522 19.4931 10.2477 19.4558C10.1433 19.4185 10.0484 19.3584 9.97 19.28L3.97 13.28C3.83752 13.1378 3.7654 12.9498 3.76882 12.7555C3.77225 12.5612 3.85096 12.3758 3.98838 12.2384C4.12579 12.101 4.31118 12.0223 4.50548 12.0188C4.69978 12.0154 4.88782 12.0875 5.03 12.22L10.383 17.573L18.876 4.834C18.9863 4.66852 19.1579 4.55364 19.3529 4.51463C19.548 4.47562 19.7505 4.51568 19.916 4.626Z" fill="white"/>
</svg>