<svg xmlns="http://www.w3.org/2000/svg" width="24" height="25" viewBox="0 0 24 25" fill="none">
    <path fill-rule="evenodd" clip-rule="evenodd" d="M19.9158 5.126C20.0813 5.23634 20.1962 5.40789 20.2352 5.60293C20.2742 5.79796 20.2342 6.0005 20.1238 6.166L11.1238 19.666C11.0623 19.7582 10.981 19.8357 10.8859 19.8927C10.7908 19.9498 10.6842 19.985 10.5738 19.9959C10.4634 20.0068 10.352 19.9931 10.2476 19.9558C10.1431 19.9184 10.0483 19.8584 9.96985 19.78L3.96985 13.78C3.83737 13.6378 3.76524 13.4498 3.76867 13.2555C3.7721 13.0612 3.85081 12.8758 3.98822 12.7384C4.12564 12.601 4.31102 12.5223 4.50532 12.5188C4.69963 12.5154 4.88767 12.5875 5.02985 12.72L10.3828 18.073L18.8758 5.334C18.9862 5.16851 19.1577 5.05363 19.3528 5.01463C19.5478 4.97562 19.7503 5.01568 19.9158 5.126Z" fill="white"/>
</svg>