 <svg xmlns="http://www.w3.org/2000/svg" width="14" height="14" viewBox="0 0 14 14"
                                        fill="none">
                                        <path fill-rule="evenodd" clip-rule="evenodd"
                                            d="M13.5967 0.855011C13.7346 0.946959 13.8303 1.08992 13.8628 1.25245C13.8954 1.41498 13.862 1.58376 13.77 1.72168L6.27003 12.9717C6.21872 13.0485 6.15099 13.1131 6.07173 13.1606C5.99247 13.2082 5.90365 13.2375 5.81167 13.2466C5.71969 13.2557 5.62684 13.2443 5.53981 13.2132C5.45278 13.1821 5.37374 13.132 5.30837 13.0667L0.308368 8.06668C0.197968 7.9482 0.137866 7.79149 0.140722 7.62958C0.143579 7.46766 0.209173 7.31317 0.323683 7.19866C0.438194 7.08415 0.592682 7.01855 0.754599 7.0157C0.916517 7.01284 1.07322 7.07294 1.1917 7.18334L5.65253 11.6442L12.73 1.02834C12.822 0.89044 12.9649 0.794706 13.1275 0.762201C13.29 0.729695 13.4588 0.763079 13.5967 0.855011Z"
                                            fill="#0091E2" />
                                    </svg>