<svg width="36" height="37" viewBox="0 0 36 37" fill="none" xmlns="http://www.w3.org/2000/svg">
<path fill-rule="evenodd" clip-rule="evenodd" d="M11.4698 11.9699C11.6105 11.8295 11.8011 11.7506 11.9998 11.7506C12.1986 11.7506 12.3892 11.8295 12.5298 11.9699L17.9998 17.4399L23.4698 11.9699C23.5385 11.8962 23.6213 11.8371 23.7133 11.7961C23.8053 11.7551 23.9046 11.7331 24.0053 11.7313C24.106 11.7295 24.206 11.7481 24.2994 11.7858C24.3928 11.8235 24.4776 11.8797 24.5489 11.9509C24.6201 12.0221 24.6762 12.1069 24.714 12.2003C24.7517 12.2937 24.7702 12.3937 24.7684 12.4944C24.7666 12.5951 24.7446 12.6944 24.7036 12.7864C24.6626 12.8784 24.6035 12.9612 24.5298 13.0299L19.0598 18.4999L24.5298 23.9699C24.6035 24.0386 24.6626 24.1214 24.7036 24.2134C24.7446 24.3054 24.7666 24.4047 24.7684 24.5054C24.7702 24.6061 24.7517 24.7061 24.714 24.7995C24.6762 24.8929 24.6201 24.9777 24.5489 25.0489C24.4776 25.1202 24.3928 25.1763 24.2994 25.214C24.206 25.2518 24.106 25.2703 24.0053 25.2685C23.9046 25.2667 23.8053 25.2447 23.7133 25.2037C23.6213 25.1627 23.5385 25.1036 23.4698 25.0299L17.9998 19.5599L12.5298 25.0299C12.3877 25.1624 12.1996 25.2345 12.0053 25.2311C11.811 25.2277 11.6256 25.1489 11.4882 25.0115C11.3508 24.8741 11.2721 24.6887 11.2687 24.4944C11.2652 24.3001 11.3373 24.1121 11.4698 23.9699L16.9398 18.4999L11.4698 13.0299C11.3294 12.8893 11.2505 12.6987 11.2505 12.4999C11.2505 12.3012 11.3294 12.1105 11.4698 11.9699Z" fill="#1E1A26" fill-opacity="0.8"/>
</svg>
