<svg xmlns="http://www.w3.org/2000/svg" width="20" height="20" viewBox="0 0 20 20" fill="none">
    <path fill-rule="evenodd" clip-rule="evenodd" d="M16.5967 3.85495C16.7346 3.9469 16.8303 4.08986 16.8628 4.25239C16.8954 4.41492 16.862 4.5837 16.77 4.72162L9.27003 15.9716C9.21872 16.0485 9.15099 16.113 9.07173 16.1606C8.99247 16.2081 8.90365 16.2375 8.81167 16.2466C8.71969 16.2557 8.62684 16.2442 8.53981 16.2131C8.45278 16.182 8.37374 16.132 8.30837 16.0666L3.30837 11.0666C3.19797 10.9481 3.13787 10.7914 3.14072 10.6295C3.14358 10.4676 3.20917 10.3131 3.32368 10.1986C3.43819 10.0841 3.59268 10.0185 3.7546 10.0156C3.91652 10.0128 4.07322 10.0729 4.1917 10.1833L8.65253 14.6441L15.73 4.02828C15.822 3.89038 15.9649 3.79465 16.1275 3.76214C16.29 3.72963 16.4588 3.76302 16.5967 3.85495Z" fill="white"/>
</svg>