<svg width="18" height="15" viewBox="0 0 18 15" fill="none" xmlns="http://www.w3.org/2000/svg">
    <path fill-rule="evenodd" clip-rule="evenodd"
          d="M16.9158 0.12594C17.0813 0.236278 17.1962 0.407831 17.2352 0.602865C17.2742 0.7979 17.2342 1.00044 17.1238 1.16594L8.12385 14.6659C8.06226 14.7582 7.98099 14.8356 7.88588 14.8927C7.79077 14.9497 7.68418 14.985 7.57381 14.9959C7.46344 15.0068 7.35202 14.9931 7.24758 14.9557C7.14314 14.9184 7.04829 14.8584 6.96985 14.7799L0.969847 8.77994C0.837366 8.63776 0.765243 8.44972 0.768672 8.25542C0.7721 8.06112 0.850812 7.87573 0.988225 7.73832C1.12564 7.60091 1.31102 7.52219 1.50532 7.51876C1.69963 7.51534 1.88767 7.58746 2.02985 7.71994L7.38285 13.0729L15.8758 0.33394C15.9862 0.168455 16.1577 0.0535744 16.3528 0.0145675C16.5478 -0.0244393 16.7503 0.015622 16.9158 0.12594Z"
          fill="white"/>
</svg>
