   <svg xmlns="http://www.w3.org/2000/svg" width="16" height="16" viewBox="0 0 16 16"
                                        fill="none">
                                        <path fill-rule="evenodd" clip-rule="evenodd"
                                            d="M13.2773 3.08396C13.3876 3.15752 13.4642 3.27189 13.4902 3.40191C13.5162 3.53193 13.4895 3.66696 13.416 3.77729L7.41598 12.7773C7.37492 12.8388 7.32074 12.8904 7.25733 12.9284C7.19393 12.9665 7.12287 12.99 7.04929 12.9973C6.97571 13.0045 6.90143 12.9954 6.8318 12.9705C6.76218 12.9456 6.69894 12.9056 6.64665 12.8533L2.64665 8.85329C2.55833 8.75851 2.51024 8.63315 2.51253 8.50361C2.51481 8.37408 2.56729 8.25049 2.6589 8.15888C2.75051 8.06727 2.8741 8.01479 3.00363 8.01251C3.13316 8.01022 3.25853 8.05831 3.35331 8.14663L6.92198 11.7153L12.584 3.22263C12.6575 3.1123 12.7719 3.03572 12.9019 3.00971C13.032 2.98371 13.167 3.01041 13.2773 3.08396Z"
                                            fill="#FF385C" />
                                    </svg>