<svg width="16" height="17" viewBox="0 0 16 17" fill="none" xmlns="http://www.w3.org/2000/svg">
    <path d="M14.4875 2.0127C14.1593 1.68458 13.7142 1.50024 13.2502 1.50024C12.7861 1.50024 12.341 1.68458 12.0128 2.0127L11.2415 2.78404L13.7162 5.2587L14.4875 4.48737C14.8156 4.15919 15 3.71412 15 3.25004C15 2.78596 14.8156 2.34088 14.4875 2.0127ZM13.0088 5.96604L10.5342 3.49137L2.43417 11.5914C2.02274 12.0026 1.72029 12.5099 1.55417 13.0674L1.02084 14.8574C0.995087 14.9437 0.993167 15.0355 1.01528 15.1229C1.03739 15.2102 1.08271 15.29 1.14645 15.3538C1.21018 15.4175 1.28996 15.4628 1.37734 15.4849C1.46472 15.507 1.55646 15.5051 1.64284 15.4794L3.43284 14.946C3.99032 14.7799 4.49761 14.4775 4.90884 14.066L13.0088 5.96604Z"
          fill="#FF385C"/>
</svg>
