<svg width="36" height="37" viewBox="0 0 36 37" fill="none" xmlns="http://www.w3.org/2000/svg">
<rect y="0.5" width="36" height="36" rx="8" fill="#FFE9EC" fill-opacity="0.4"/>
<path fill-rule="evenodd" clip-rule="evenodd" d="M15.315 14.084C18.195 10.383 22.695 8 27.75 8C27.9489 8 28.1397 8.07902 28.2803 8.21967C28.421 8.36032 28.5 8.55109 28.5 8.75C28.5 13.806 26.117 18.305 22.416 21.186C22.5699 22.1502 22.5128 23.1364 22.2486 24.0764C21.9844 25.0164 21.5194 25.888 20.8857 26.6308C20.2519 27.3737 19.4646 27.9702 18.5779 28.3792C17.6913 28.7883 16.7264 29.0001 15.75 29C15.5511 29 15.3603 28.921 15.2197 28.7803C15.079 28.6397 15 28.4489 15 28.25V24.119C14.0279 23.3514 13.1493 22.4724 12.382 21.5H8.25C8.05109 21.5 7.86032 21.421 7.71967 21.2803C7.57902 21.1397 7.5 20.9489 7.5 20.75C7.49992 19.7735 7.71173 18.8085 8.12082 17.9218C8.52991 17.0351 9.12653 16.2477 9.86951 15.6139C10.6125 14.9802 11.4841 14.5152 12.4243 14.2511C13.3644 13.9869 14.3507 13.9299 15.315 14.084ZM21 13.25C20.4033 13.25 19.831 13.4871 19.409 13.909C18.9871 14.331 18.75 14.9033 18.75 15.5C18.75 16.0967 18.9871 16.669 19.409 17.091C19.831 17.5129 20.4033 17.75 21 17.75C21.5967 17.75 22.169 17.5129 22.591 17.091C23.0129 16.669 23.25 16.0967 23.25 15.5C23.25 14.9033 23.0129 14.331 22.591 13.909C22.169 13.4871 21.5967 13.25 21 13.25Z" fill="white"/>
<path d="M11.2598 23.7419C11.3388 23.683 11.4054 23.6092 11.4558 23.5245C11.5063 23.4399 11.5395 23.3461 11.5538 23.2486C11.568 23.1511 11.5628 23.0518 11.5386 22.9563C11.5145 22.8607 11.4717 22.7709 11.4128 22.6919C11.3539 22.6129 11.28 22.5463 11.1954 22.4959C11.1107 22.4455 11.017 22.4122 10.9195 22.398C10.822 22.3838 10.7226 22.3889 10.6271 22.4131C10.5316 22.4373 10.4418 22.48 10.3628 22.5389C9.59568 23.1096 8.9992 23.8791 8.63788 24.7642C8.27655 25.6494 8.16413 26.6165 8.31279 27.5609C8.33697 27.7182 8.41056 27.8638 8.52291 27.9765C8.63527 28.0892 8.78057 28.1633 8.93779 28.1879C9.88232 28.3365 10.8495 28.2239 11.7347 27.8624C12.6198 27.5009 13.3893 26.9042 13.9598 26.1369C14.0206 26.0582 14.0651 25.9681 14.0907 25.8719C14.1164 25.7758 14.1226 25.6755 14.1091 25.5769C14.0956 25.4783 14.0626 25.3834 14.012 25.2977C13.9615 25.212 13.8943 25.1372 13.8146 25.0777C13.7348 25.0181 13.644 24.9751 13.5475 24.951C13.4509 24.9269 13.3506 24.9223 13.2522 24.9374C13.1538 24.9525 13.0595 24.9871 12.9746 25.039C12.8897 25.0909 12.816 25.1592 12.7578 25.2399C12.4091 25.7089 11.9554 26.0898 11.433 26.352C10.9107 26.6142 10.3342 26.7505 9.74979 26.7499C9.74979 25.5199 10.3418 24.4269 11.2598 23.7419Z" fill="white"/>
</svg>
