<svg width="51" height="25" viewBox="0 0 51 25" fill="none" xmlns="http://www.w3.org/2000/svg">
<path d="M37.156 8.18465C37.6969 7.64252 36.8599 6.80361 36.3189 7.34574L30.9491 12.7275C28.0984 15.5845 25.2477 18.4416 22.397 21.2986C21.7455 21.9516 21.094 22.6045 20.4425 23.2574C19.9016 23.7996 20.7386 24.6385 21.2796 24.0963C23.0682 22.3038 24.8568 20.5112 26.6494 18.7146C29.5001 15.8576 32.3508 13.0005 35.2015 10.1434C35.853 9.49051 36.5045 8.83758 37.156 8.18465Z" fill="#FF385C"/>
<path d="M44.3107 15.3551C44.8517 14.8129 44.0146 13.974 43.4737 14.5161L35.8691 22.1376L34.7872 23.2219C34.2463 23.764 35.0834 24.6029 35.6243 24.0608C38.1592 21.5203 40.694 18.9798 43.2289 16.4393C43.5882 16.0792 43.9514 15.7152 44.3107 15.3551Z" fill="#FF385C"/>
<path d="M50.3361 0.685783H40.8797C40.323 0.654126 39.7663 0.665997 39.2056 0.725354C36.6391 1.00631 34.2662 2.19741 32.5131 4.08497C30.6258 5.97649 28.7424 7.86405 26.8551 9.75557L17.3632 19.2686L15.4285 21.2076C13.3872 23.1149 10.1969 23.0714 8.23453 21.0611C8.20689 21.0334 8.1753 21.0097 8.14766 20.986C6.29982 19.134 4.45198 17.2821 2.60414 15.4301C2.31986 15.1452 2.03163 14.8563 1.74734 14.5714C1.20642 14.0293 0.369362 14.8682 0.910289 15.4103C1.77104 16.273 2.80551 17.7411 6.94341 21.4569C7.42511 21.8882 7.8081 22.2443 8.045 22.4659C10.339 24.2466 13.5925 24.215 15.8746 22.3907C15.9931 22.2839 16.1747 22.1177 16.3919 21.9198C19.0689 19.4704 20.7746 17.5274 22.0025 16.2967L31.4944 6.78375L32.9829 5.2919C33.0303 5.2642 33.0738 5.22859 33.1172 5.17715C33.2396 5.03469 33.3699 4.9041 33.5002 4.77352L33.6581 4.61523C33.6581 4.61523 33.6739 4.59545 33.6818 4.58753C35.4625 2.86617 37.8355 1.89667 40.2559 1.86106C40.2795 1.86106 40.2993 1.86897 40.3269 1.86897C42.1906 1.87688 44.0502 2.44671 45.602 3.47953C45.8112 3.61803 46.0086 3.77236 46.2061 3.92669C46.2771 3.98605 46.3522 4.04144 46.4232 4.10476C46.5772 4.2393 46.7272 4.3778 46.8733 4.52026C46.972 4.61523 47.0668 4.71416 47.1616 4.81309C47.2958 4.9595 47.4301 5.10592 47.5564 5.26025C47.5959 5.30773 47.6314 5.35522 47.667 5.39875C48.583 6.5661 49.2226 7.95111 49.5385 9.42317C49.6727 10.0484 49.7478 10.6855 49.7517 11.3266C49.7517 11.374 49.7556 11.4176 49.7675 11.4611C49.732 13.871 48.7646 16.1622 47.1102 17.8994C47.0708 17.9231 47.0313 17.9548 46.9918 17.9904C45.4559 19.5297 43.9199 21.0691 42.384 22.6084C42.1669 22.826 41.9458 23.0476 41.7286 23.2653C41.1877 23.8074 42.0247 24.6463 42.5657 24.1042C44.1016 22.5649 45.6375 21.0255 47.1734 19.4862C47.3511 19.3081 47.5327 19.1261 47.7104 18.948C47.7578 18.9203 47.8012 18.8887 47.8446 18.8451C49.807 16.8428 50.8651 14.1717 50.9165 11.469C50.9283 11.4255 50.9323 11.378 50.9323 11.3226V1.26748C50.9323 0.946955 50.6598 0.673912 50.34 0.673912L50.3361 0.685783ZM49.0726 1.87293H49.7438V6.41969C49.7004 6.33659 49.6648 6.25349 49.6214 6.17435C48.5988 4.31449 47.0273 2.83056 45.1874 1.87689H49.0726V1.87293Z" fill="#FF385C"/>
<path d="M44.3219 8.25179C44.8629 7.70966 44.0258 6.87075 43.4849 7.41287C41.6963 9.20546 39.9076 10.998 38.119 12.7906C35.2683 15.6477 32.4215 18.5008 29.5708 21.3579C28.9193 22.0108 28.2678 22.6637 27.6163 23.3167C27.0754 23.8588 27.9125 24.6977 28.4534 24.1556L33.8192 18.7778L42.3675 10.2106L44.3219 8.25179Z" fill="#FF385C"/>
<path d="M17.3587 10.5708L18.7091 11.9241C19.25 12.4662 20.087 11.6273 19.5461 11.0852L10.0108 1.52867L8.66043 0.175326C8.1195 -0.366803 7.28245 0.472113 7.82337 1.01424L17.3587 10.5708Z" fill="#FF385C"/>
<path d="M11.4245 18.9639C11.9654 19.5061 12.8024 18.6671 12.2615 18.125L2.83674 8.67929L1.50613 7.34574C0.965205 6.80361 0.128151 7.64252 0.669078 8.18465C3.81199 11.3345 6.95094 14.4805 10.0939 17.6304C10.5361 18.0736 10.9822 18.5207 11.4245 18.9639Z" fill="#FF385C"/>
<path d="M21.2563 7.40097L22.1447 8.29132C22.6856 8.83345 23.5226 7.99454 22.9817 7.45241L16.7314 1.18824C16.4353 0.891457 16.1392 0.594671 15.843 0.297885C15.3021 -0.244245 14.4651 0.594672 15.006 1.1368L21.2563 7.40097Z" fill="#FF385C"/>
<path d="M5.55729 5.99244L13.3751 13.8276L15.1795 15.636C15.7204 16.1781 16.5575 15.3392 16.0165 14.7971C14.3819 13.1588 12.7512 11.5245 11.1166 9.88628C8.51068 7.27456 5.90475 4.66284 3.29882 2.05113L1.49441 0.242709C0.953486 -0.29942 0.116432 0.539496 0.65736 1.08163L5.55729 5.99244Z" fill="#FF385C"/>
</svg>
