<svg width="82" height="42" viewBox="0 0 82 42" fill="none" xmlns="http://www.w3.org/2000/svg">
<path d="M0.0868632 41.6917C0.0276376 41.6307 0 41.5574 0 41.4639L0.0276385 41.3296L3.54959 31.582C3.6483 31.3297 3.82203 31.2036 4.07867 31.2036H5.69356C5.94625 31.2036 6.12393 31.3297 6.22264 31.582L9.74459 41.3296L9.77223 41.4639C9.77223 41.5534 9.74064 41.6307 9.67747 41.6917C9.61429 41.7527 9.54322 41.7812 9.46426 41.7812H8.15734C7.95203 41.7812 7.80989 41.6876 7.73092 41.4924L7.05575 39.6616H2.71253L2.03736 41.4924C1.95839 41.6836 1.81625 41.7812 1.61094 41.7812H0.304024C0.217159 41.7812 0.142141 41.7527 0.0829155 41.6917H0.0868632ZM3.22582 37.9122H6.54246L4.88414 33.2581L3.22582 37.9122Z" fill="black"/>
<path d="M11.5569 41.0256C11.0396 40.4194 10.7791 39.5895 10.7791 38.5318V34.2844C10.7791 34.1746 10.8146 34.0851 10.8817 34.02C10.9488 33.9549 11.0317 33.9224 11.1305 33.9224H12.4492C12.5479 33.9224 12.6308 33.959 12.698 34.0281C12.7651 34.0973 12.8006 34.1827 12.8006 34.2844V38.4423C12.8006 39.6831 13.3218 40.3015 14.3721 40.3015C14.8814 40.3015 15.2842 40.1347 15.5803 39.8011C15.8804 39.4675 16.0264 39.0159 16.0264 38.4423V34.2844C16.0264 34.1746 16.062 34.0851 16.1291 34.02C16.1962 33.9549 16.2791 33.9224 16.3779 33.9224H17.6848C17.7914 33.9224 17.8782 33.9549 17.9414 34.02C18.0046 34.0851 18.0362 34.1746 18.0362 34.2844V41.4203C18.0362 41.522 18.0046 41.6074 17.9414 41.6766C17.8782 41.7457 17.7914 41.7823 17.6848 41.7823H16.4687C16.37 41.7823 16.287 41.7457 16.2199 41.6766C16.1528 41.6074 16.1173 41.522 16.1173 41.4203V40.8019C15.5803 41.5586 14.7669 41.9369 13.6811 41.9369C12.7809 41.9369 12.0741 41.6359 11.5529 41.0297L11.5569 41.0256Z" fill="black"/>
<path d="M21.4279 41.0629C20.9778 40.5828 20.7527 39.8831 20.7527 38.9555V35.5381H19.5919C19.4932 35.5381 19.4103 35.5015 19.3431 35.4323C19.276 35.3632 19.2405 35.2777 19.2405 35.176V34.2851C19.2405 34.1834 19.276 34.0979 19.3431 34.0288C19.4103 33.9596 19.4932 33.923 19.5919 33.923H20.7527V31.4129C20.7527 31.303 20.7882 31.2135 20.8554 31.1484C20.9225 31.0833 21.0054 31.0508 21.1041 31.0508H22.3202C22.4268 31.0508 22.5137 31.0833 22.5769 31.1484C22.64 31.2135 22.6716 31.303 22.6716 31.4129V33.923H24.5037C24.6024 33.923 24.6853 33.9596 24.7524 34.0288C24.8195 34.0979 24.8551 34.1834 24.8551 34.2851V35.176C24.8551 35.2777 24.8195 35.3632 24.7524 35.4323C24.6853 35.5015 24.6024 35.5381 24.5037 35.5381H22.6716V38.7887C22.6716 39.224 22.7466 39.5495 22.8927 39.7732C23.0388 39.9929 23.2797 40.1068 23.6113 40.1068H24.6379C24.7445 40.1068 24.8314 40.1394 24.8946 40.2045C24.9577 40.2696 24.9893 40.3591 24.9893 40.4689V41.4209C24.9893 41.5226 24.9577 41.608 24.8946 41.6772C24.8314 41.7464 24.7445 41.783 24.6379 41.783H23.4337C22.5453 41.783 21.874 41.5429 21.4239 41.0669L21.4279 41.0629Z" fill="black"/>
<path d="M26.4147 41.6731C26.3475 41.604 26.312 41.5185 26.312 41.4168V31.4129C26.312 31.303 26.3475 31.2135 26.4147 31.1484C26.4818 31.0833 26.5647 31.0508 26.6634 31.0508H27.998C28.1046 31.0508 28.1914 31.0833 28.2546 31.1484C28.3178 31.2135 28.3494 31.303 28.3494 31.4129V34.8587C28.9377 34.1346 29.7234 33.7725 30.7105 33.7725C31.6107 33.7725 32.3293 34.0776 32.8663 34.6878C33.4033 35.2981 33.6718 36.128 33.6718 37.1736V41.4209C33.6718 41.5226 33.6402 41.608 33.577 41.6772C33.5139 41.7464 33.427 41.783 33.3204 41.783H31.9858C31.8792 41.783 31.7884 41.7464 31.7213 41.6772C31.6542 41.608 31.6186 41.5226 31.6186 41.4209V37.2631C31.6186 36.6772 31.4804 36.2216 31.2001 35.8961C30.9198 35.5707 30.521 35.4039 30.0037 35.4039C29.4865 35.4039 29.1035 35.5707 28.7995 35.9043C28.4955 36.2379 28.3454 36.6894 28.3454 37.2631V41.4209C28.3454 41.5226 28.3138 41.608 28.2507 41.6772C28.1875 41.7464 28.1006 41.783 27.994 41.783H26.6595C26.5608 41.783 26.4778 41.7464 26.4107 41.6772L26.4147 41.6731Z" fill="black"/>
<path d="M36.258 41.0243C35.6302 40.4181 35.2946 39.5841 35.2472 38.5142L35.2314 37.851L35.2472 37.1879C35.2946 36.1301 35.6381 35.2961 36.2738 34.6859C36.9095 34.0756 37.7939 33.7705 38.9271 33.7705C40.0603 33.7705 40.9329 34.0756 41.5686 34.6859C42.2043 35.2961 42.5478 36.1301 42.5952 37.1879C42.6031 37.3099 42.611 37.5296 42.611 37.851C42.611 38.1724 42.607 38.3962 42.5952 38.5142C42.5478 39.5841 42.2082 40.4181 41.5844 41.0243C40.9566 41.6305 40.0722 41.9315 38.9311 41.9315C37.79 41.9315 36.8858 41.6305 36.262 41.0243H36.258ZM40.1235 39.9055C40.4038 39.5719 40.5499 39.0837 40.5697 38.4409C40.5775 38.3392 40.5854 38.1439 40.5854 37.851C40.5854 37.5581 40.5815 37.3628 40.5697 37.2611C40.5499 36.6183 40.3999 36.1261 40.1156 35.7884C39.8313 35.4507 39.4365 35.2839 38.9271 35.2839C38.4178 35.2839 38.0072 35.4548 37.7229 35.7884C37.4386 36.1261 37.2886 36.6183 37.2688 37.2611L37.253 37.851L37.2688 38.4409C37.2886 39.0878 37.4386 39.576 37.7229 39.9055C38.0072 40.2391 38.4059 40.4059 38.9271 40.4059C39.4483 40.4059 39.8431 40.2391 40.1235 39.9055Z" fill="black"/>
<path d="M44.3402 41.6726C44.2731 41.6035 44.2375 41.518 44.2375 41.4163V34.2968C44.2375 34.187 44.2731 34.0934 44.3402 34.0242C44.4073 33.9551 44.4902 33.9185 44.589 33.9185H45.7932C45.8998 33.9185 45.9906 33.9551 46.0578 34.0242C46.1249 34.0934 46.1604 34.187 46.1604 34.2968V34.9152C46.65 34.2521 47.3528 33.9185 48.2728 33.9185H48.8887C48.9953 33.9185 49.0822 33.951 49.1454 34.0161C49.2086 34.0812 49.2401 34.1707 49.2401 34.2805V35.383C49.2401 35.4848 49.2086 35.5702 49.1454 35.6393C49.0822 35.7085 48.9953 35.7451 48.8887 35.7451H47.7279C47.2699 35.7451 46.9067 35.8794 46.6421 36.152C46.3776 36.4245 46.2473 36.7988 46.2473 37.2707V41.4123C46.2473 41.514 46.2117 41.5994 46.1446 41.6686C46.0775 41.7377 45.9946 41.7743 45.8959 41.7743H44.589C44.4902 41.7743 44.4073 41.7377 44.3402 41.6686V41.6726Z" fill="black"/>
<path d="M50.6617 41.6746C50.5946 41.6055 50.5591 41.52 50.5591 41.4183V31.5771C50.5591 31.4672 50.5907 31.3737 50.6538 31.3045C50.717 31.2353 50.8039 31.1987 50.9105 31.1987H54.8431C56.0276 31.1987 56.9554 31.4876 57.6306 32.0612C58.3058 32.6348 58.6414 33.4729 58.6414 34.5714C58.6414 35.6698 58.3058 36.4835 57.6306 37.0408C56.9554 37.5982 56.0276 37.8789 54.8431 37.8789H52.6873V41.4142C52.6873 41.5241 52.6517 41.6136 52.5846 41.6787C52.5175 41.7438 52.4267 41.7763 52.3201 41.7763H50.9105C50.8118 41.7763 50.7289 41.7397 50.6617 41.6705V41.6746ZM54.768 36.1865C55.3366 36.1865 55.767 36.0482 56.0671 35.7715C56.3632 35.4949 56.5132 35.088 56.5132 34.5551C56.5132 34.0221 56.3671 33.6234 56.0789 33.3305C55.7907 33.0376 55.3524 32.8911 54.7641 32.8911H52.6517V36.1865H54.7641H54.768Z" fill="black"/>
<path d="M60.11 32.5326C60.0429 32.4634 60.0073 32.378 60.0073 32.2763V31.1738C60.0073 31.0639 60.0429 30.9703 60.11 30.9012C60.1771 30.832 60.26 30.7954 60.3587 30.7954H61.7091C61.8157 30.7954 61.9065 30.832 61.9736 30.9012C62.0407 30.9703 62.0763 31.0639 62.0763 31.1738V32.2763C62.0763 32.378 62.0407 32.4634 61.9657 32.5326C61.8907 32.6017 61.8078 32.6384 61.7091 32.6384H60.3587C60.26 32.6384 60.1771 32.6017 60.11 32.5326ZM60.1692 41.6781C60.1021 41.609 60.0666 41.5235 60.0666 41.4218V34.286C60.0666 34.1762 60.1021 34.0867 60.1692 34.0216C60.2363 33.9565 60.3192 33.9239 60.418 33.9239H61.6656C61.7644 33.9239 61.8473 33.9605 61.9144 34.0297C61.9815 34.0989 62.017 34.1843 62.017 34.286V41.4218C62.017 41.5235 61.9815 41.609 61.9144 41.6781C61.8473 41.7473 61.7644 41.7839 61.6656 41.7839H60.418C60.3192 41.7839 60.2363 41.7473 60.1692 41.6781Z" fill="black"/>
<path d="M64.0702 41.6731C64.0031 41.604 63.9675 41.5185 63.9675 41.4168V31.4129C63.9675 31.303 64.0031 31.2135 64.0702 31.1484C64.1373 31.0833 64.2202 31.0508 64.3189 31.0508H65.5508C65.6574 31.0508 65.7443 31.0833 65.8075 31.1484C65.8706 31.2135 65.9022 31.303 65.9022 31.4129V41.4168C65.9022 41.5185 65.8706 41.604 65.8075 41.6731C65.7443 41.7423 65.6574 41.7789 65.5508 41.7789H64.3189C64.2202 41.7789 64.1373 41.7423 64.0702 41.6731Z" fill="black"/>
<path d="M68.5715 41.0243C67.9437 40.4181 67.6081 39.5841 67.5607 38.5142L67.5449 37.851L67.5607 37.1879C67.6081 36.1301 67.9516 35.2961 68.5873 34.6859C69.223 34.0756 70.1074 33.7705 71.2406 33.7705C72.3738 33.7705 73.2464 34.0756 73.8821 34.6859C74.5178 35.2961 74.8613 36.1301 74.9086 37.1879C74.9165 37.3099 74.9244 37.5296 74.9244 37.851C74.9244 38.1724 74.9205 38.3962 74.9086 38.5142C74.8613 39.5841 74.5217 40.4181 73.8979 41.0243C73.2701 41.6305 72.3856 41.9315 71.2446 41.9315C70.1035 41.9315 69.1993 41.6305 68.5754 41.0243H68.5715ZM72.437 39.9055C72.7173 39.5719 72.8634 39.0837 72.8831 38.4409C72.891 38.3392 72.8989 38.1439 72.8989 37.851C72.8989 37.5581 72.895 37.3628 72.8831 37.2611C72.8634 36.6183 72.7134 36.1261 72.4291 35.7884C72.1448 35.4507 71.7499 35.2839 71.2406 35.2839C70.7313 35.2839 70.3206 35.4548 70.0364 35.7884C69.7521 36.1261 69.602 36.6183 69.5823 37.2611L69.5665 37.851L69.5823 38.4409C69.602 39.0878 69.7521 39.576 70.0364 39.9055C70.3206 40.2391 70.7194 40.4059 71.2406 40.4059C71.7618 40.4059 72.1566 40.2391 72.437 39.9055Z" fill="black"/>
<path d="M77.945 41.0629C77.4949 40.5828 77.2698 39.8831 77.2698 38.9555V35.5381H76.109C76.0103 35.5381 75.9274 35.5015 75.8602 35.4323C75.7931 35.3632 75.7576 35.2777 75.7576 35.176V34.2851C75.7576 34.1834 75.7931 34.0979 75.8602 34.0288C75.9274 33.9596 76.0103 33.923 76.109 33.923H77.2698V31.4129C77.2698 31.303 77.3053 31.2135 77.3725 31.1484C77.4396 31.0833 77.5225 31.0508 77.6212 31.0508H78.8373C78.9439 31.0508 79.0308 31.0833 79.0939 31.1484C79.1571 31.2135 79.1887 31.303 79.1887 31.4129V33.923H81.0208C81.1195 33.923 81.2024 33.9596 81.2695 34.0288C81.3366 34.0979 81.3722 34.1834 81.3722 34.2851V35.176C81.3722 35.2777 81.3366 35.3632 81.2695 35.4323C81.2024 35.5015 81.1195 35.5381 81.0208 35.5381H79.1887V38.7887C79.1887 39.224 79.2637 39.5495 79.4098 39.7732C79.5559 39.9929 79.7968 40.1068 80.1284 40.1068H81.155C81.2616 40.1068 81.3485 40.1394 81.4116 40.2045C81.4748 40.2696 81.5064 40.3591 81.5064 40.4689V41.4209C81.5064 41.5226 81.4748 41.608 81.4116 41.6772C81.3485 41.7464 81.2616 41.783 81.155 41.783H79.9507C79.0624 41.783 78.3911 41.5429 77.941 41.0669L77.945 41.0629Z" fill="black"/>
<path d="M54.1557 9.2273C54.6967 8.66994 53.8596 7.80746 53.3187 8.36482L47.9489 13.8977C45.0982 16.835 42.2474 19.7723 39.3967 22.7097C38.7452 23.3809 38.0938 24.0522 37.4423 24.7235C36.9013 25.2808 37.7384 26.1433 38.2793 25.5859C40.0679 23.743 41.8566 21.9001 43.6491 20.0531C46.4998 17.1157 49.3506 14.1784 52.2013 11.2411C52.8528 10.5698 53.5043 9.89857 54.1557 9.2273Z" fill="#FF385C"/>
<path d="M61.3102 16.5979C61.8512 16.0406 61.0141 15.1781 60.4732 15.7354L52.8686 23.571L51.7868 24.6857C51.2458 25.2431 52.0829 26.1055 52.6238 25.5482C55.1587 22.9363 57.6935 20.3245 60.2284 17.7126C60.5877 17.3424 60.9509 16.9681 61.3102 16.5979Z" fill="#FF385C"/>
<path d="M67.3356 1.52098H57.8792C57.3225 1.48843 56.7658 1.50064 56.2051 1.56166C53.6387 1.85051 51.2657 3.07507 49.5126 5.01565C47.6253 6.9603 45.7419 8.90088 43.8546 10.8455L34.3627 20.6257L32.428 22.6192C30.3867 24.5801 27.1964 24.5354 25.234 22.4687C25.2064 22.4402 25.1748 22.4158 25.1472 22.3914C23.2993 20.4874 21.4515 18.5834 19.6037 16.6795C19.3194 16.3866 19.0311 16.0896 18.7469 15.7967C18.2059 15.2393 17.3689 16.1018 17.9098 16.6591C18.7705 17.546 19.805 19.0554 23.9429 22.8755C24.4246 23.319 24.8076 23.6851 25.0445 23.9129C27.3385 25.7437 30.592 25.7111 32.8741 23.8356C32.9926 23.7258 33.1742 23.5549 33.3914 23.3515C36.0684 20.8332 37.7741 18.8357 39.002 17.5704L48.4939 7.79023L49.9825 6.25649C50.0298 6.22801 50.0733 6.19139 50.1167 6.1385C50.2391 5.99204 50.3694 5.85779 50.4997 5.72354L50.6576 5.56081C50.6576 5.56081 50.6734 5.54046 50.6813 5.53233C52.462 3.76262 54.835 2.76588 57.2554 2.72927C57.2791 2.72927 57.2988 2.7374 57.3264 2.7374C59.1901 2.74554 61.0498 3.33137 62.6015 4.3932C62.8107 4.53559 63.0082 4.69426 63.2056 4.85292C63.2766 4.91395 63.3517 4.9709 63.4227 5.03599C63.5767 5.17432 63.7268 5.31671 63.8728 5.46317C63.9716 5.56081 64.0663 5.66251 64.1611 5.76422C64.2953 5.91475 64.4296 6.06527 64.5559 6.22394C64.5954 6.27276 64.6309 6.32158 64.6665 6.36633C65.5825 7.56648 66.2221 8.99039 66.538 10.5038C66.6722 11.1466 66.7473 11.8016 66.7512 12.4606C66.7512 12.5095 66.7552 12.5542 66.767 12.599C66.7315 15.0766 65.7641 17.4321 64.1097 19.2181C64.0703 19.2425 64.0308 19.2751 63.9913 19.3117C62.4554 20.8942 60.9195 22.4768 59.3835 24.0594C59.1664 24.2831 58.9453 24.511 58.7281 24.7347C58.1872 25.2921 59.0242 26.1546 59.5652 25.5972C61.1011 24.0146 62.637 22.4321 64.1729 20.8495C64.3506 20.6664 64.5322 20.4793 64.7099 20.2962C64.7573 20.2677 64.8007 20.2352 64.8441 20.1904C66.8065 18.1319 67.8647 15.3858 67.916 12.6071C67.9278 12.5624 67.9318 12.5135 67.9318 12.4566V2.11902C67.9318 1.78949 67.6593 1.50878 67.3395 1.50878L67.3356 1.52098ZM66.0721 2.74147H66.7433V7.41595C66.6999 7.33052 66.6643 7.24508 66.6209 7.16372C65.5983 5.25162 64.0268 3.726 62.1869 2.74554H66.0721V2.74147Z" fill="#FF385C"/>
<path d="M61.3222 9.29957C61.8631 8.74221 61.026 7.87973 60.4851 8.43709C58.6965 10.28 56.9079 12.123 55.1193 13.9659C52.2685 16.9032 49.4218 19.8365 46.571 22.7738C45.9196 23.4451 45.2681 24.1163 44.6166 24.7876C44.0757 25.345 44.9127 26.2074 45.4536 25.6501L50.8195 20.1213L59.3677 11.3134L61.3222 9.29957Z" fill="#FF385C"/>
<path d="M34.3587 11.6831L35.7091 13.0745C36.25 13.6318 37.087 12.7694 36.5461 12.212L27.0108 2.38704L25.6604 0.995681C25.1195 0.438323 24.2824 1.3008 24.8234 1.85816L34.3587 11.6831Z" fill="#FF385C"/>
<path d="M28.4245 20.3094C28.9654 20.8667 29.8024 20.0042 29.2615 19.4469L19.8367 9.73584L18.5061 8.36482C17.9652 7.80746 17.1282 8.66994 17.6691 9.2273C20.812 12.4657 23.9509 15.7 27.0939 18.9383C27.5361 19.394 27.9822 19.8537 28.4245 20.3094Z" fill="#FF385C"/>
<path d="M38.2558 8.42036L39.1442 9.33572C39.6851 9.89308 40.5222 9.0306 39.9812 8.47324L33.7309 2.03312C33.4348 1.728 33.1387 1.42287 32.8426 1.11775C32.3016 0.560393 31.4646 1.42287 32.0055 1.98023L38.2558 8.42036Z" fill="#FF385C"/>
<path d="M22.557 6.97236L30.3748 15.0276L32.1792 16.8868C32.7202 17.4442 33.5572 16.5817 33.0163 16.0243C31.3817 14.3401 29.751 12.6598 28.1164 10.9756C25.5104 8.29049 22.9045 5.60541 20.2986 2.92033L18.4942 1.06111C17.9532 0.503752 17.1162 1.36623 17.6571 1.92359L22.557 6.97236Z" fill="#FF385C"/>
</svg>
