<svg width="294" height="152" viewBox="0 0 294 152" fill="none" xmlns="http://www.w3.org/2000/svg">
<path d="M207.901 101.805L176.939 97.918C176.739 97.918 176.673 98.0753 176.673 98.2257V120.357C176.673 122.476 159.081 127.982 158.909 127.702L158.888 130.044C158.887 130.48 159.343 130.868 159.925 130.868H160.311C160.314 130.868 160.316 130.868 160.32 130.868L186.28 134.917C187.484 134.917 188.674 134.691 189.765 134.307L204.037 129.257C206.607 128.349 208.227 126.396 208.227 124.267V102.113C208.227 101.962 208.102 101.805 207.901 101.805Z" fill="#231F20"/>
<path d="M173.537 96.6289V118.765C173.537 120.948 171.865 122.936 169.239 123.878L159.611 127.331C158.981 127.557 159.196 128.265 159.893 128.265L186.349 132.314C187.537 132.314 188.712 132.117 189.788 131.737L200.456 127.963C203.102 127.027 204.791 125.03 204.791 122.837V100.679C204.791 100.588 204.693 100.515 204.572 100.515L173.755 96.4646C173.634 96.4646 173.537 96.5383 173.537 96.6289Z" fill="white"/>
<path d="M173.799 96.6935V118.765C173.799 121.024 172.049 123.11 169.342 124.081L159.713 127.534C159.553 127.591 159.476 127.696 159.505 127.817C159.531 127.921 159.648 128.044 159.892 128.044C159.909 128.044 159.924 128.045 159.94 128.048L186.371 132.094C187.511 132.091 188.656 131.898 189.686 131.533L200.354 127.76C202.889 126.863 204.527 124.931 204.527 122.837V100.732L173.799 96.6935ZM186.348 132.535C186.331 132.535 186.316 132.533 186.3 132.531L159.867 128.485C159.431 128.476 159.072 128.24 158.991 127.904C158.912 127.58 159.119 127.267 159.507 127.128L169.135 123.675C171.649 122.774 173.273 120.847 173.273 118.765V96.6288C173.273 96.4166 173.489 96.2444 173.755 96.2444C173.769 96.2444 173.782 96.2454 173.796 96.2464L204.595 100.295C204.85 100.305 205.052 100.473 205.052 100.679V122.837C205.052 125.109 203.289 127.2 200.558 128.166L189.89 131.94C188.788 132.329 187.564 132.535 186.348 132.535Z" fill="#231F20"/>
<path d="M256.034 119.545L252.58 122.254L124.504 103.634L125.877 33.978L130.021 32.1094C130.782 31.7683 131.657 31.6529 132.505 31.7819L254.066 50.2069C255.89 50.4838 257.218 51.8179 257.218 53.3753L257.244 117.196C257.244 118.086 256.805 118.937 256.034 119.545Z" fill="#231F20"/>
<path d="M249.612 122.638L127.016 104.04C125.492 103.808 124.384 102.693 124.384 101.393V36.6366C124.384 34.9598 126.19 33.6903 128.154 33.989L250.75 52.5871C252.273 52.8182 253.382 53.9327 253.382 55.2337V119.991C253.382 121.666 251.576 122.935 249.612 122.638Z" fill="white"/>
<path d="M249.659 122.421C250.517 122.551 251.394 122.356 252.064 121.885C252.735 121.415 253.119 120.723 253.119 119.991V55.2338C253.119 54.0383 252.103 53.0165 250.703 52.804L128.107 34.2063C127.248 34.0757 126.371 34.2708 125.7 34.7409C125.03 35.211 124.646 35.9018 124.646 36.6366V101.393C124.646 102.588 125.662 103.609 127.063 103.823L249.659 122.421ZM250.184 122.901C249.978 122.901 249.77 122.886 249.564 122.854L126.969 104.256C125.319 104.006 124.121 102.802 124.121 101.393V36.6366C124.121 35.7711 124.574 34.9582 125.364 34.4032C126.154 33.8482 127.187 33.6191 128.2 33.7719L250.796 52.3702C252.446 52.6206 253.644 53.8249 253.644 55.2338V119.991C253.644 120.855 253.192 121.669 252.402 122.223C251.774 122.664 250.988 122.901 250.184 122.901Z" fill="#231F20"/>
<path d="M230.102 107.931L145.447 95.0888C144.94 95.0121 144.571 94.6408 144.571 94.2075V48.7832C144.571 48.225 145.172 47.8029 145.826 47.9022L230.481 60.7444C230.989 60.8215 231.357 61.1925 231.357 61.6256V107.05C231.357 107.608 230.756 108.03 230.102 107.931Z" fill="white"/>
<path d="M230.15 107.713C230.385 107.749 230.624 107.696 230.807 107.568C230.99 107.439 231.096 107.25 231.096 107.05V61.6253C231.096 61.2985 230.817 61.0193 230.434 60.9612L145.779 48.1189C145.545 48.0831 145.305 48.1365 145.122 48.265C144.938 48.3938 144.833 48.5824 144.833 48.783V94.2072C144.833 94.5339 145.111 94.8138 145.494 94.8715L230.15 107.713ZM230.293 108.165C230.215 108.165 230.135 108.16 230.056 108.147L145.401 95.3058C144.768 95.2092 144.309 94.7479 144.309 94.2072V48.783C144.309 48.4515 144.482 48.1392 144.785 47.9268C145.088 47.7143 145.483 47.6259 145.873 47.6849L230.528 60.5273C231.161 60.6234 231.62 61.085 231.62 61.6253V107.05C231.62 107.382 231.446 107.693 231.143 107.905C230.902 108.075 230.601 108.165 230.293 108.165Z" fill="#231F20"/>
<path d="M224.268 71.0306C224.253 71.0306 224.237 71.0296 224.221 71.0276L151.452 59.9882C151.309 59.9665 151.215 59.8518 151.241 59.732C151.266 59.6125 151.402 59.5327 151.545 59.5543L224.315 70.5935C224.457 70.6154 224.551 70.7299 224.527 70.8494C224.503 70.956 224.393 71.0306 224.268 71.0306Z" fill="#231F20"/>
<path d="M215.066 74.0294C215.051 74.0294 215.036 74.0284 215.019 74.0263L151.452 64.383C151.309 64.3613 151.215 64.2466 151.241 64.1268C151.266 64.007 151.402 63.9275 151.545 63.9491L215.113 73.5922C215.255 73.6141 215.35 73.7287 215.325 73.8481C215.301 73.9547 215.191 74.0294 215.066 74.0294Z" fill="#231F20"/>
<path d="M224.268 79.8184C224.253 79.8184 224.237 79.8173 224.221 79.8145L151.663 68.8299C151.521 68.8081 151.426 68.6935 151.451 68.574C151.477 68.4544 151.613 68.3748 151.756 68.3957L224.315 79.3812C224.457 79.4021 224.551 79.5166 224.527 79.6371C224.503 79.7437 224.393 79.8184 224.268 79.8184Z" fill="#231F20"/>
<path d="M224.268 84.2127C224.253 84.2127 224.237 84.2117 224.221 84.2088L203.674 81.0917C203.532 81.0706 203.437 80.9552 203.463 80.8358C203.489 80.7161 203.623 80.6365 203.768 80.6584L224.315 83.7755C224.457 83.7964 224.552 83.911 224.527 84.0315C224.503 84.138 224.393 84.2127 224.268 84.2127Z" fill="#231F20"/>
<path d="M181.058 77.658C181.042 77.658 181.027 77.6559 181.012 77.6539L151.452 73.1696C151.309 73.1485 151.215 73.0331 151.241 72.9136C151.266 72.794 151.402 72.7144 151.545 72.7363L181.104 77.2198C181.248 77.2417 181.341 77.3562 181.316 77.4767C181.293 77.5833 181.182 77.658 181.058 77.658Z" fill="#231F20"/>
<path d="M224.268 88.6066C224.253 88.6066 224.238 88.6047 224.221 88.6027L209.761 86.4088C209.619 86.3879 209.524 86.2724 209.549 86.1529C209.575 86.0334 209.71 85.9537 209.855 85.9755L224.315 88.1684C224.457 88.1905 224.552 88.3048 224.527 88.4255C224.503 88.5319 224.393 88.6066 224.268 88.6066Z" fill="#231F20"/>
<path d="M196.536 84.3984C196.521 84.3984 196.504 84.3974 196.489 84.3955L151.452 77.5627C151.309 77.5408 151.215 77.4263 151.241 77.3068C151.266 77.1873 151.402 77.1077 151.545 77.1296L196.582 83.9612C196.725 83.9831 196.819 84.0977 196.793 84.2172C196.771 84.3237 196.66 84.3984 196.536 84.3984Z" fill="#231F20"/>
<path d="M224.268 92.9996C224.252 92.9996 224.236 92.9986 224.221 92.9967L151.193 81.8647C151.05 81.8428 150.955 81.7282 150.981 81.6088C151.007 81.4893 151.143 81.4097 151.286 81.4316L224.314 92.5624C224.456 92.5843 224.551 92.6988 224.526 92.8194C224.503 92.9249 224.392 92.9996 224.268 92.9996Z" fill="#231F20"/>
<path d="M208.91 95.0639C208.894 95.0639 208.878 95.0629 208.862 95.0598L151.452 86.3508C151.309 86.3291 151.215 86.2145 151.241 86.0949C151.266 85.9754 151.402 85.8948 151.545 85.9167L208.956 94.6257C209.098 94.6476 209.193 94.7621 209.167 94.8826C209.145 94.9892 209.034 95.0639 208.91 95.0639Z" fill="#231F20"/>
<path d="M234.959 137.775C234.044 134.898 228.548 133.632 222.685 134.947C216.82 136.262 212.807 139.661 213.721 142.539C214.635 145.416 220.131 146.682 225.995 145.366C231.86 144.051 235.873 140.652 234.959 137.775Z" fill="white"/>
<path d="M227.257 134.644C225.836 134.644 224.307 134.81 222.752 135.158C219.96 135.785 217.507 136.904 215.846 138.311C214.222 139.687 213.558 141.167 213.975 142.48C214.851 145.236 220.213 146.435 225.928 145.153C231.642 143.87 235.58 140.586 234.705 137.83C234.068 135.826 231.053 134.644 227.257 134.644ZM221.467 146.101C217.412 146.101 214.167 144.795 213.467 142.594C213 141.124 213.713 139.492 215.474 138C217.199 136.54 219.736 135.378 222.616 134.733C228.61 133.388 234.262 134.726 235.211 137.717C236.162 140.707 232.058 144.234 226.063 145.578C224.48 145.934 222.922 146.101 221.467 146.101Z" fill="#231F20"/>
<path d="M216.156 143.365C216.826 142.925 217.626 142.642 218.472 142.55C221.076 142.266 221.492 142.033 226.715 139.855C230.624 138.224 235.146 140.197 237.452 137.426C238.791 135.815 232.686 129.551 223.153 131.364C217.726 132.395 218.495 134.704 211.372 138.247C211.372 138.247 182.01 153.653 175.87 148.605C169.055 143.006 163.047 134.229 163.047 134.229L145.304 152.267C145.304 152.267 167.735 165.169 181.156 164.69C189.012 164.41 216.156 143.365 216.156 143.365Z" fill="white"/>
<path d="M145.691 152.22C148.09 153.568 167.918 164.482 180.42 164.483C180.665 164.483 180.907 164.479 181.146 164.47C188.817 164.196 215.707 143.413 215.979 143.203C215.983 143.199 215.989 143.195 215.994 143.191C216.703 142.726 217.548 142.428 218.438 142.331C220.822 142.071 221.273 141.882 225.594 140.077L226.599 139.657C228.333 138.933 230.132 138.899 231.87 138.866C234.086 138.824 236 138.787 237.237 137.299C237.545 136.929 237.316 136.155 236.654 135.327C235.141 133.435 230.382 130.216 223.212 131.579C220.327 132.127 219.226 133.055 217.705 134.338C216.398 135.44 214.773 136.811 211.505 138.436C210.481 138.974 189.651 149.833 179.699 149.834C177.987 149.834 176.598 149.513 175.687 148.764C169.598 143.759 164.092 136.144 163.012 134.612L145.691 152.22ZM180.428 164.923C167.002 164.923 145.378 152.577 145.157 152.45C145.096 152.415 145.055 152.36 145.045 152.298C145.035 152.237 145.056 152.175 145.103 152.127L162.846 134.088C162.9 134.033 162.983 134.003 163.07 134.01C163.155 134.016 163.232 134.057 163.275 134.119C163.335 134.207 169.344 142.934 176.053 148.448C181.977 153.317 210.941 138.213 211.232 138.06C214.448 136.461 216.047 135.111 217.332 134.028C218.917 132.691 220.062 131.725 223.096 131.149C230.543 129.732 235.506 133.103 237.09 135.081C237.898 136.091 238.114 137.015 237.667 137.552C236.277 139.222 234.143 139.263 231.882 139.307C230.201 139.339 228.463 139.373 226.833 140.052L225.828 140.472C221.528 142.269 220.976 142.499 218.506 142.769C217.713 142.854 216.959 143.119 216.326 143.533C215.105 144.479 189.011 164.63 181.169 164.91C180.925 164.919 180.677 164.923 180.428 164.923Z" fill="#231F20"/>
<path d="M133.685 106.739C123.569 103.988 107.009 101.93 100.376 102.617C93.0121 103.379 84.6867 110.283 90.1558 137.946C91.2272 143.366 92.0239 148.261 93.1578 152.598C99.9999 160.946 109.075 168.082 121.114 173.269C126.436 175.562 148.223 180.86 174.126 182.246C162.582 172.079 158.979 163.838 158.063 161.235C157.934 160.868 158.35 160.53 158.784 160.65L160.062 161.007C161.13 161.304 162.301 160.96 162.911 160.166C166.062 156.072 174.835 143.457 170.658 134.834C169.355 132.146 151.164 111.493 133.685 106.739Z" fill="#83CAF4"/>
<path d="M134.153 75.6169C134.153 75.6169 136.577 78.6684 136.725 81.1919C136.764 81.8581 137.095 83.9913 139.049 86.3226C139.238 86.5487 139.196 86.8535 138.948 87.0397L137.081 88.439C136.952 88.5355 136.878 88.6699 136.877 88.8123C136.87 89.7026 136.838 92.993 136.71 93.6066C136.562 94.3166 135.883 94.9449 135.545 95.0983C134.654 95.5026 130.791 95.0893 130.791 95.0893C130.791 95.0893 129.754 95.172 127.723 99.7919C125.529 104.781 130.079 106.666 130.079 106.666C131.788 107.416 131.82 108.142 129.971 108.637C123.595 110.343 110.413 111.591 103.757 105.315C103.377 104.956 103.567 104.383 104.123 104.245C121.036 100.054 112.976 87.9768 113.333 87.8971C114.247 87.6939 119.5 83.0433 122.578 81.7207C124.677 80.8185 127.221 82.1231 128.928 80.7587L134.153 75.6169Z" fill="white"/>
<path d="M113.625 88.0293C113.663 88.1239 113.722 88.2564 113.779 88.3859C114.443 89.8846 116.461 94.4459 114.042 98.5069C112.414 101.24 109.102 103.241 104.197 104.457C104.021 104.5 103.891 104.61 103.841 104.758C103.792 104.902 103.833 105.057 103.952 105.169C110.618 111.454 123.835 110.049 129.891 108.428C130.945 108.145 131.085 107.865 131.096 107.758C131.107 107.644 131.02 107.329 129.957 106.862C129.915 106.845 125.226 104.833 127.476 99.7159C129.414 95.3092 130.484 94.8929 130.766 94.871C130.785 94.8691 130.804 94.8691 130.823 94.871C132.285 95.0273 134.825 95.1748 135.42 94.9049C135.711 94.7734 136.321 94.1977 136.451 93.5694C136.549 93.0983 136.599 90.8038 136.614 88.8121C136.615 88.6089 136.722 88.4127 136.906 88.2754L138.774 86.8751C138.922 86.7646 138.948 86.5852 138.834 86.4508C136.722 83.9303 136.488 81.6378 136.463 81.2036C136.344 79.1779 134.686 76.758 134.121 75.9882L129.128 80.9029C129.122 80.9088 129.115 80.9138 129.109 80.9189C128.095 81.7304 126.814 81.6746 125.577 81.6208C124.598 81.579 123.587 81.5353 122.697 81.9176C120.915 82.6835 118.402 84.5757 116.383 86.0965C114.965 87.165 114.107 87.8033 113.625 88.0293ZM118.988 110.241C113.404 110.241 107.426 109.107 103.561 105.462C103.321 105.236 103.238 104.928 103.337 104.637C103.436 104.346 103.702 104.12 104.049 104.034C108.808 102.855 112.013 100.929 113.572 98.3097C115.89 94.4199 113.931 89.9943 113.287 88.5403C113.062 88.0314 113.016 87.9258 113.092 87.8023C113.125 87.7474 113.194 87.7008 113.265 87.6848C113.581 87.6151 114.827 86.6759 116.033 85.7677C118.075 84.2301 120.615 82.317 122.458 81.5252C123.473 81.088 124.556 81.1359 125.604 81.1807C126.778 81.2314 127.888 81.2793 128.738 80.6071L133.953 75.4743C134.006 75.4215 134.083 75.3937 134.168 75.3976C134.25 75.4016 134.325 75.4374 134.371 75.4951C134.471 75.6217 136.836 78.6272 136.987 81.1817C137.011 81.594 137.235 83.776 139.263 86.1969C139.528 86.5126 139.468 86.9459 139.123 87.2047L137.255 88.604C137.18 88.6596 137.139 88.7345 137.138 88.8151C137.132 89.7901 137.099 93.0198 136.968 93.6452C136.812 94.397 136.101 95.0971 135.67 95.2922C134.768 95.7016 131.437 95.3799 130.819 95.3151C130.645 95.3918 129.683 95.9685 127.968 99.8694C125.886 104.605 130.018 106.396 130.195 106.47C131.201 106.911 131.665 107.344 131.618 107.796C131.573 108.233 131.06 108.577 130.05 108.847C127.365 109.566 123.294 110.241 118.988 110.241Z" fill="#231F20"/>
<path d="M138.885 86.1736C138.749 86.1736 138.634 86.0851 138.624 85.9685C138.614 85.8469 138.722 85.7414 138.867 85.7324C139.444 85.6976 139.886 85.5024 140.218 85.1358C141.195 84.0544 140.872 81.8565 140.742 81.1734L127.504 82.9191C127.362 82.9381 127.227 82.8554 127.204 82.7359C127.182 82.6155 127.28 82.5029 127.423 82.4839L140.915 80.7043C141.055 80.6853 141.185 80.762 141.213 80.8776C141.243 81.0032 141.94 83.9589 140.636 85.4018C140.214 85.8689 139.631 86.1288 138.905 86.1726C138.898 86.1726 138.892 86.1736 138.885 86.1736Z" fill="#231F20"/>
<path d="M127.414 87.5032C126.299 87.5032 124.551 87.1585 123.602 85.2007C123.019 83.9976 123.21 82.9312 124.112 82.3465C125.049 81.7401 126.492 81.8127 127.621 82.5249C128.044 82.7927 128.601 83.5377 128.662 83.6212C128.739 83.7249 128.701 83.8603 128.578 83.925C128.455 83.9888 128.293 83.9569 128.216 83.8534C128.062 83.6441 127.598 83.0615 127.306 82.8774C126.365 82.2839 125.183 82.209 124.432 82.6961C123.717 83.1591 123.592 84.0107 124.088 85.0344C125.363 87.6665 128.171 87.0084 128.289 86.9783C128.428 86.9445 128.574 87.0112 128.615 87.1277C128.656 87.2443 128.577 87.3668 128.438 87.4016C128.427 87.4046 128.012 87.5032 127.414 87.5032Z" fill="#231F20"/>
<path d="M139.128 68.0583C137.888 66.3126 136.554 64.8122 132.48 64.1381C129.689 63.6765 125.139 65.4067 122.9 67.404C122.713 67.5704 122.415 67.5753 122.259 67.41C121.778 66.9002 120.635 65.7466 119.623 65.6455C116.692 65.3529 113.691 68.5423 112.624 70.1826C111.845 71.3806 110.532 74.0894 109.869 77.2373C109.828 77.4334 109.614 77.5799 109.384 77.5619C108.501 77.4903 106.731 77.4942 105.159 78.4712C102.357 80.213 102.66 82.7655 102.693 83.0772C103.074 86.713 107.472 89.3991 110.807 90.8559C113.07 91.8438 113.919 91.9853 115.251 92.2441C115.328 92.2591 115.408 92.2552 115.484 92.2333C116.662 92.3787 118.663 92.4532 120.892 91.8041C124.433 90.7714 124.166 85.8358 124.166 85.8358L123.72 84.9045C123.45 84.3409 123.411 83.7045 123.685 83.1419C124.521 81.4249 127.606 82.7146 127.72 82.6947C133.523 81.6819 135.573 80.2547 136.627 79.2828C140.404 75.7993 142.129 72.2877 139.128 68.0583Z" fill="#231F20"/>
<path d="M139.856 143.214C139.842 143.213 139.828 143.212 139.814 143.21L127.178 142.373C115.596 141.605 104.425 138.419 94.6928 133.091C94.6174 133.051 94.5417 133.009 94.4657 132.968C92.9402 132.141 91.0745 131.883 89.3135 132.254L87.5975 132.616C86.5154 132.844 85.5145 133.296 84.7022 133.938C84.5142 134.086 84.3924 134.2 84.3926 134.239L86.0219 142.13C93.2614 154.975 104.298 166.023 121.115 173.269C124.587 174.765 135.07 177.541 149.132 179.674C149.109 176.82 149.076 172.887 149.076 172.882V152.67C149.076 148.077 145.218 144.122 139.856 143.214Z" fill="#231F20"/>
<path d="M86.2732 142.062C94.1596 156.041 105.922 166.475 121.233 173.073C124.3 174.393 134.174 177.163 148.867 179.409L148.823 174.173C148.816 173.391 148.812 172.883 148.812 172.881V152.67C148.812 148.201 145.027 144.318 139.811 143.431L139.776 143.427L127.156 142.592C115.553 141.824 104.278 138.602 94.5485 133.276L94.3223 133.153C92.8626 132.362 91.06 132.112 89.3763 132.468L87.6601 132.829C86.6117 133.05 85.6506 133.489 84.8808 134.098C84.7636 134.191 84.6998 134.248 84.6662 134.28L86.2732 142.062ZM149.131 179.894C149.116 179.894 149.1 179.892 149.085 179.89C135.733 177.865 124.847 175.124 120.994 173.464C112.924 169.987 105.788 165.44 99.7823 159.948C94.2918 154.927 89.5821 148.963 85.7837 142.224C85.7736 142.206 85.7663 142.187 85.7623 142.167L84.1328 134.276C84.1301 134.263 84.1289 134.251 84.1289 134.238C84.1285 134.134 84.1851 134.042 84.5212 133.776C85.3561 133.117 86.3972 132.641 87.5322 132.402L89.2484 132.04C91.0723 131.655 93.0252 131.925 94.6067 132.782L94.8347 132.907C104.491 138.193 115.682 141.39 127.197 142.153L139.89 142.996C139.896 142.996 139.901 142.997 139.907 142.998C145.371 143.923 149.337 147.99 149.337 152.67V172.881L149.394 179.672C149.394 179.738 149.36 179.8 149.3 179.843C149.253 179.875 149.193 179.894 149.131 179.894Z" fill="white"/>
<path d="M122.471 179.407C103.278 176.193 95.1153 172.329 89.2365 169.431C85.4848 167.582 83.1826 164.202 83.1826 160.549V136.516C83.1826 133.98 86.4425 132.387 89.0693 133.64C90.0373 134.102 90.9624 134.583 91.8575 135.075C101.539 140.389 112.668 143.551 124.199 144.315L136.934 145.159C142.307 146.059 146.175 150.018 146.175 154.617C146.175 154.617 146.075 181.064 145.69 181.279C143.936 182.261 122.471 179.407 122.471 179.407Z" fill="white"/>
<path d="M137.172 177.78C137.151 177.78 137.13 177.778 137.11 177.773C133.409 177.019 129.912 176.2 126.996 175.407C124.342 174.684 122.267 174.013 120.994 173.464C118.921 172.571 116.888 171.598 114.951 170.572C102.507 163.98 92.713 154.477 85.8418 142.329C85.7798 142.219 85.8353 142.087 85.9662 142.036C86.0971 141.983 86.2536 142.03 86.3157 142.14C93.1437 154.211 102.872 163.652 115.23 170.199C117.154 171.219 119.174 172.185 121.234 173.073C122.464 173.603 124.568 174.282 127.157 174.987C130.061 175.777 133.546 176.592 137.233 177.344C137.374 177.373 137.461 177.493 137.427 177.61C137.397 177.712 137.29 177.78 137.172 177.78Z" fill="#231F20"/>
<path d="M288.168 107.837C288.168 120.045 276.466 129.942 262.035 129.942C247.602 129.942 235.902 120.045 235.902 107.837C235.902 95.6301 247.602 85.7329 262.035 85.7329C276.466 85.7329 288.168 95.6301 288.168 107.837Z" fill="white"/>
<path d="M255.123 87.5126C255.016 87.646 255.335 88.094 255.97 88.094C256.604 88.094 256.923 88.0044 257.188 88.586C257.45 89.1676 257.081 91.1365 257.45 91.8525C257.822 92.5685 258.456 93.0157 258.933 92.6133C259.41 92.2101 259.355 91.1365 259.937 90.8676C260.521 90.5997 262.636 89.5262 262.741 88.6308C262.846 87.7356 262.107 87.0644 260.256 86.886C258.404 86.7068 255.917 86.5276 255.123 87.5126Z" fill="#231F20"/>
<path d="M248.287 107.56C248.041 107.677 247.891 107.902 247.903 108.14C247.942 108.89 247.605 110.761 246.9 111.358C246.001 112.119 246.332 113.489 246.318 114.043C246.29 115.166 246.417 115.666 247.845 116.203C249.275 116.74 249.835 116.771 249.94 117.844C250.045 118.919 250.21 123.067 250.633 124.14C251.057 125.215 251.956 126.96 252.432 127.362C252.907 127.765 254.018 127.988 253.331 126.468C252.642 124.946 252.22 124.23 253.012 123.38C253.808 122.53 255.129 120.561 255.236 119.8C255.341 119.04 255.818 118.592 256.24 118.503C256.664 118.414 257.561 118.145 257.826 117.876C258.092 117.608 257.561 116.847 257.404 116.176C257.246 115.505 257.246 115.103 258.567 114.566C259.89 114.028 259.254 112.508 257.456 112.104C255.658 111.702 254.547 110.851 254.759 110.002C254.971 109.151 253.543 109.241 252.697 108.839C251.851 108.435 251.875 107.803 250.933 107.501C249.659 107.094 248.766 107.335 248.287 107.56Z" fill="#231F20"/>
<path d="M281.062 106.622C280.615 106.056 280.672 105.161 281.785 103.936C282.66 102.973 281.405 102.011 280.825 101.642C280.718 101.575 280.767 101.433 280.898 101.421C281.617 101.353 283.282 101.556 284.015 104.69C284.96 108.743 285.35 107.329 285.853 106.858C286.354 106.387 285.417 105.507 286.354 104.595C286.946 104.022 287.247 103.184 287.399 102.501C285.514 96.0726 280.304 90.7536 273.4 87.9292C273.412 88.6344 273.21 91.0932 269.806 90.0793C269.806 90.0793 267.689 89.2309 268.19 92.6717C268.691 96.1125 270.418 92.4356 270.752 92.2942C271.087 92.1529 271.98 91.9646 271.588 94.2739C271.588 94.2739 271.533 95.0746 269.806 94.9333C268.079 94.7919 267.744 95.4989 267.744 95.8764C267.744 96.2538 267.912 97.2427 266.964 97.9498C266.017 98.6568 266.296 100.495 267.576 99.8828C268.859 99.2693 269.75 97.3373 270.919 97.149C272.091 96.9598 273.149 98.2327 274.264 97.9029C275.377 97.5733 274.877 95.9711 275.434 95.9711C275.992 95.9711 277.161 96.913 276.993 97.6202C276.826 98.3272 275.099 98.6568 275.545 99.5054C275.992 100.354 276.937 100.071 277.216 100.637C277.494 101.202 275.824 101.862 274.487 101.154C273.149 100.448 272.927 101.485 272.259 101.013C271.588 100.542 271.533 99.5522 270.586 99.8828C269.639 100.212 269.081 100.872 267.855 101.344C266.631 101.815 265.627 102.427 265.627 103.087C265.627 103.747 266.073 104.454 265.849 105.491C265.627 106.528 265.237 109.356 269.249 108.79C273.261 108.224 272.76 109.968 272.76 110.157C272.76 110.345 272.703 112.796 273.093 113.221C273.483 113.645 274.376 114.87 273.093 116.472C271.812 118.074 272.313 121.657 273.483 121.186C274.654 120.715 275.824 118.876 277.272 117.933C278.721 116.991 280.726 112.891 279.892 111.618C279.054 110.345 281.062 109.309 281.341 108.46C281.619 107.612 281.506 107.188 281.062 106.622Z" fill="#231F20"/>
<path d="M243.167 92.5439C243.189 93.3298 243.023 94.1842 242.482 94.9849C240.842 97.4009 240.894 98.609 240.734 101.025C240.577 103.442 244.185 107.7 245.086 108.148C245.985 108.596 246.124 107.531 246.124 106.682C246.124 105.831 245.74 104.811 245.211 103.827C244.682 102.842 244.682 102.216 244.839 101.814C244.999 101.41 245.635 101.277 246.055 101.679C246.481 102.081 247.497 102.439 247.986 102.187C248.586 101.878 248.352 100.667 248.564 100.264C248.776 99.8618 249.94 99.5938 250.416 98.7433C250.893 97.8929 251.685 97.5353 252.636 97.1319C253.59 96.7297 254.436 96.5503 254.596 96.2825C254.753 96.0137 254.541 95.3873 254.806 94.6713C255.07 93.9563 255.707 93.1056 255.442 92.7472C255.176 92.3896 254.384 91.808 252.901 92.7033C251.42 93.5976 251.051 93.5976 250.628 92.9264C250.204 92.2552 251.103 90.5104 252.956 90.5104C254.806 90.5104 255.176 89.9736 255.23 89.5703C255.283 89.168 254.701 88.7208 254.064 88.6311C253.432 88.5415 253.325 88.8554 250.681 89.7496C248.916 90.3471 247.364 90.2068 246.526 90.0473C245.324 90.7982 244.201 91.6337 243.167 92.5439Z" fill="#231F20"/>
<path d="M283.559 117.905C283.514 118.906 282.417 119.871 281.759 120.205C281.1 120.54 280.092 121.058 280.092 121.912C280.092 122.462 280.076 123.164 280.226 123.704C283.708 120.847 284.397 120.295 286.391 115.985C286.29 115.438 283.601 116.903 283.559 117.905Z" fill="#231F20"/>
<path d="M262.036 85.9543C247.771 85.9543 236.165 95.7707 236.165 107.838C236.165 119.905 247.771 129.721 262.036 129.721C276.301 129.721 287.904 119.905 287.904 107.838C287.904 95.7707 276.301 85.9543 262.036 85.9543ZM262.036 130.162C247.482 130.162 235.641 120.148 235.641 107.838C235.641 95.5276 247.482 85.5132 262.036 85.5132C276.59 85.5132 288.429 95.5276 288.429 107.838C288.429 120.148 276.59 130.162 262.036 130.162Z" fill="#231F20"/>
<path d="M244.972 128.832C244.386 129.555 244.643 130.543 245.531 130.998C250.349 133.458 255.995 134.875 262.035 134.875C279.688 134.875 293.999 122.77 293.999 107.837C293.999 99.1285 289.131 91.3806 281.57 86.436C280.746 85.8973 279.552 86.0526 278.958 86.7745C278.411 87.4408 278.581 88.3481 279.34 88.845C286.057 93.2299 290.381 100.106 290.381 107.837C290.381 121.081 277.692 131.816 262.035 131.816C256.686 131.816 251.684 130.563 247.416 128.386C246.59 127.964 245.515 128.16 244.972 128.832Z" fill="#231F20"/>
<path d="M260.274 143.372H263.865V133.236H260.274V143.372Z" fill="#231F20"/>
<path d="M273.093 142.565C273.093 144.092 268.152 145.331 262.058 145.331C255.961 145.331 251.019 144.092 251.019 142.565C251.019 141.037 255.961 139.798 262.058 139.798C268.152 139.798 273.093 141.037 273.093 142.565Z" fill="#231F20"/>
<path d="M212.39 35.2262L190.633 32.2919L201.715 7.63086L223.471 10.5669L212.39 35.2262Z" fill="#231F20"/>
<path d="M187.691 31.5148L170.229 25.6478L180.543 2.65674L197.9 8.77829L187.691 31.5148Z" fill="#231F20"/>
<path d="M190.675 32.2986C189.66 32.6889 188.226 32.3376 187.692 31.5145L197.966 8.45898C198.465 9.30246 199.889 9.6894 200.924 9.32623L190.675 32.2986Z" fill="#231F20"/>
<path d="M191.204 31.0682C190.188 31.4585 188.755 31.1073 188.221 30.2841L198.389 7.48486C198.888 8.32664 200.311 8.71528 201.346 8.35208L191.204 31.0682Z" fill="#231F20"/>
<path d="M188.511 30.2614C188.991 30.8826 190.14 31.1779 190.998 30.9012L200.919 8.67895C200.026 8.79946 199.037 8.50923 198.457 7.95768L188.511 30.2614ZM190.301 31.446C189.369 31.446 188.416 31.0455 187.991 30.3887C187.954 30.3327 187.948 30.2665 187.975 30.2054L198.143 7.4061C198.18 7.32463 198.271 7.26862 198.376 7.26354C198.486 7.25846 198.577 7.30767 198.623 7.38575C199.048 8.10193 200.322 8.47191 201.244 8.14775C201.341 8.11382 201.453 8.13079 201.529 8.19187C201.603 8.25296 201.628 8.34632 201.591 8.42779L191.45 31.1456C191.426 31.1999 191.376 31.244 191.313 31.2695C190.998 31.39 190.651 31.446 190.301 31.446Z" fill="#231F20"/>
<path d="M171.716 24.8561L188.205 30.4193L189.357 29.5996L198.652 8.76054L196.699 8.11564L181.488 1.18115L171.216 21.6961L171.716 24.8561Z" fill="white"/>
<path d="M171.957 24.7008L188.156 30.1656L189.135 29.4697L198.315 8.88689L196.602 8.32173C196.593 8.31834 196.583 8.31496 196.574 8.30985L181.618 1.49077L171.485 21.7274L171.957 24.7008ZM188.204 30.6407C188.171 30.6407 188.139 30.6356 188.107 30.6255L171.619 25.0623C171.531 25.0317 171.469 24.9655 171.457 24.8857L170.956 21.7274C170.949 21.6883 170.956 21.6476 170.974 21.612L181.246 1.09536C181.276 1.03935 181.332 0.993505 181.402 0.973151C181.472 0.952798 181.549 0.957879 181.614 0.988424L196.81 7.91613L198.748 8.55595C198.881 8.60008 198.948 8.72564 198.897 8.83935L189.603 29.6768C189.586 29.7124 189.56 29.7446 189.526 29.7684L188.374 30.5881C188.326 30.6221 188.266 30.6407 188.204 30.6407Z" fill="#231F20"/>
<path d="M171.237 21.611C171.203 21.6891 171.248 21.774 171.34 21.8011C172.777 22.2288 183.137 25.3566 186.798 27.8548L189.356 29.5994L199.063 7.83879L197.016 6.38945C193.769 4.08812 184.703 1.17245 181.791 0.269588C181.288 0.11345 180.729 0.328983 180.541 0.75158L171.237 21.611Z" fill="white"/>
<path d="M171.514 21.6207C173.06 22.0823 183.322 25.2016 186.963 27.6845L189.239 29.2357L198.753 7.90784L196.847 6.55863C193.619 4.27088 184.439 1.32637 181.702 0.477785C181.334 0.364076 180.925 0.52191 180.788 0.830798L171.514 21.6207ZM189.357 29.8212C189.297 29.8212 189.239 29.8043 189.192 29.772L186.633 28.0274C182.983 25.5377 172.443 22.364 171.253 22.0093C171.143 21.9771 171.054 21.9092 171.004 21.821C170.954 21.7293 170.949 21.6292 170.991 21.5358L180.296 0.676354C180.534 0.14177 181.247 -0.133187 181.883 0.0636864C184.64 0.919043 193.892 3.88733 197.186 6.2209L199.232 7.67195C199.317 7.73135 199.348 7.82978 199.309 7.91803L189.603 29.677C189.572 29.7449 189.507 29.7941 189.425 29.8127C189.403 29.8178 189.38 29.8212 189.357 29.8212Z" fill="#231F20"/>
<path d="M189.356 29.6002L191.355 31.0394L211.327 33.7938L221.192 11.2949L219.754 9.21084C219.716 9.15483 219.643 9.12426 219.567 9.13106C218.752 9.21253 214.13 9.64699 212.212 9.22611C209.27 8.57948 206.176 8.59817 203.201 9.12426L199.382 9.79974L189.356 29.6002Z" fill="white"/>
<path d="M191.47 30.8321L211.154 33.5458L220.903 11.3151L219.55 9.35491C218.546 9.45334 214.067 9.86064 212.145 9.43977C209.386 8.83387 206.311 8.79825 203.255 9.33964L199.57 9.99132L189.673 29.5372L191.47 30.8321ZM211.326 34.0142C211.312 34.0142 211.298 34.0125 211.284 34.0108L191.312 31.2564C191.264 31.2496 191.221 31.2326 191.184 31.2072L189.186 29.7663C189.099 29.7052 189.07 29.6017 189.115 29.5134L199.14 9.713C199.174 9.6468 199.244 9.59929 199.328 9.58402L203.146 8.90854C206.282 8.35358 209.439 8.38923 212.278 9.01209C214.178 9.42958 218.993 8.96624 219.536 8.91196C219.716 8.89496 219.89 8.96796 219.982 9.10033L221.42 11.1844C221.459 11.2404 221.466 11.31 221.438 11.3711L211.572 33.87C211.534 33.9582 211.434 34.0142 211.326 34.0142Z" fill="#231F20"/>
<path d="M198.408 28.5944C199.707 28.6436 201.001 28.7947 202.274 29.0475C206.463 29.8809 210.039 30.7939 210.039 30.7939L219.65 9.2471C219.702 9.1317 219.628 9.00441 219.487 8.96878C218.589 8.74475 215.479 7.98103 211.933 7.27504C208.924 6.67595 205.794 6.6471 202.767 7.18338L199.06 7.84017L189.353 29.5991L193.243 28.9338C194.947 28.6419 196.681 28.5282 198.408 28.5944Z" fill="white"/>
<path d="M210.039 31.0138C210.015 31.0138 209.989 31.0104 209.964 31.0036C209.963 31.0036 209.37 30.8525 208.386 30.6166C204.639 29.7222 200.752 29.2674 196.836 29.264L193.728 29.2623C193.584 29.2623 193.466 29.1639 193.466 29.0417C193.466 28.9195 193.584 28.821 193.729 28.821L196.836 28.8227C200.802 28.8262 204.736 29.2861 208.529 30.194C209.153 30.3417 209.619 30.4571 209.881 30.5233L219.405 9.16996C218.541 8.9612 215.422 8.19578 211.878 7.48979C208.931 6.90258 205.799 6.87032 202.822 7.39813L199.254 8.02948L189.599 29.6764C189.549 29.7901 189.396 29.8478 189.262 29.8054C189.125 29.763 189.057 29.6357 189.108 29.522L198.814 7.76133C198.845 7.69005 198.918 7.63912 199.005 7.62385L202.714 6.96706C205.766 6.42567 208.977 6.45794 211.999 7.06042C215.557 7.76983 218.688 8.5386 219.561 8.75586C219.698 8.78979 219.813 8.87126 219.875 8.97816C219.94 9.0851 219.947 9.21238 219.897 9.32437L210.285 30.8695C210.246 30.9577 210.146 31.0138 210.039 31.0138Z" fill="#231F20"/>
<path d="M214.87 11.6444C214.846 11.6444 214.822 11.641 214.797 11.6359L214.204 11.4916C213.108 11.2269 212.317 11.0351 210.171 10.6074C207.228 10.0219 204.099 9.99136 201.12 10.5175C200.979 10.5429 200.84 10.4666 200.809 10.3478C200.78 10.229 200.871 10.1119 201.012 10.0864C204.066 9.54672 207.274 9.57896 210.292 10.1797C212.449 10.6091 213.246 10.8026 214.348 11.0691L214.942 11.2116C215.081 11.2455 215.163 11.3661 215.122 11.4832C215.089 11.5816 214.985 11.6444 214.87 11.6444Z" fill="#231F20"/>
<path d="M214.061 14.3774C214.037 14.3774 214.013 14.374 213.988 14.3689C212.589 14.0329 211.592 13.8105 209.041 13.3014C206.096 12.7159 202.967 12.6853 199.989 13.2114C199.848 13.2369 199.71 13.1605 199.679 13.0417C199.649 12.9229 199.741 12.8058 199.882 12.7804C202.935 12.2407 206.144 12.2712 209.162 12.8737C211.722 13.3828 212.725 13.6069 214.133 13.9446C214.272 13.9769 214.353 14.099 214.313 14.2161C214.28 14.3129 214.176 14.3774 214.061 14.3774Z" fill="#231F20"/>
<path d="M212.435 16.8986C212.411 16.8986 212.387 16.8952 212.362 16.8901C211.255 16.6236 210.621 16.4998 209.233 16.2265C208.822 16.1451 208.345 16.05 207.77 15.9363C206.216 15.6274 204.615 15.4696 203.012 15.4696C202.861 15.4713 202.745 15.3729 202.745 15.249C202.745 15.1268 202.868 15.03 203.012 15.0283C204.657 15.0283 206.298 15.1896 207.892 15.5069C208.466 15.6223 208.943 15.7157 209.353 15.7971C210.749 16.0721 211.387 16.1976 212.507 16.4658C212.646 16.4998 212.726 16.6202 212.687 16.7373C212.654 16.8341 212.548 16.8986 212.435 16.8986Z" fill="#231F20"/>
<path d="M211.638 19.7329C211.614 19.7329 211.589 19.7312 211.565 19.7244C211.242 19.6463 210.935 19.5717 210.627 19.4953C209.572 19.2356 208.481 18.9658 206.531 18.5788C203.588 17.9916 200.459 17.9611 197.481 18.4872C197.339 18.5127 197.2 18.4363 197.17 18.3175C197.14 18.1987 197.231 18.0816 197.373 18.0561C200.426 17.5164 203.634 17.5487 206.652 18.1495C208.615 18.5398 209.713 18.8114 210.774 19.0727C211.082 19.1474 211.386 19.2237 211.71 19.3001C211.849 19.3341 211.929 19.4563 211.89 19.5734C211.857 19.6701 211.751 19.7329 211.638 19.7329Z" fill="#231F20"/>
<path d="M208.898 21.6354C208.876 21.6354 208.855 21.632 208.831 21.6269C207.625 21.3588 206.446 21.1093 205.327 20.8869C202.384 20.2997 199.255 20.2692 196.277 20.797C196.136 20.8207 195.996 20.7444 195.966 20.6256C195.936 20.5068 196.027 20.3897 196.169 20.3642C199.221 19.8246 202.43 19.8568 205.448 20.4576C206.572 20.6816 207.756 20.9311 208.966 21.2009C209.106 21.2332 209.189 21.3537 209.152 21.4708C209.121 21.5692 209.015 21.6354 208.898 21.6354Z" fill="#231F20"/>
<path d="M203.984 23.2977C203.967 23.2977 203.948 23.296 203.93 23.2927C201.086 22.7835 198.194 22.7818 195.334 23.2892C195.193 23.313 195.053 23.2366 195.022 23.1178C194.993 22.999 195.084 22.8819 195.225 22.8565C198.159 22.3372 201.123 22.3389 204.039 22.8616C204.181 22.887 204.272 23.0041 204.241 23.1229C204.215 23.2265 204.105 23.2977 203.984 23.2977Z" fill="#231F20"/>
<path d="M207.463 27.0115C207.439 27.0115 207.414 27.0081 207.39 27.003C206.058 26.684 205.427 26.5584 203.341 26.1426L202.827 26.0408C199.885 25.4552 196.754 25.423 193.777 25.9508C193.636 25.9746 193.496 25.8999 193.466 25.7794C193.436 25.6606 193.527 25.5435 193.669 25.5181C196.721 24.9784 199.931 25.0106 202.949 25.6114L203.462 25.7132C205.558 26.1307 206.19 26.2563 207.534 26.5788C207.674 26.6127 207.754 26.7349 207.714 26.852C207.681 26.9487 207.576 27.0115 207.463 27.0115Z" fill="#231F20"/>
<path d="M189.369 6.95143C189.324 6.95143 189.279 6.94124 189.238 6.92258C186.642 5.6582 183.964 4.6569 182.46 4.18341C182.325 4.13928 182.256 4.012 182.307 3.89829C182.358 3.78458 182.508 3.72688 182.645 3.76931C184.168 4.24961 186.878 5.26279 189.501 6.54072C189.626 6.60184 189.669 6.7359 189.597 6.84111C189.548 6.91239 189.459 6.95143 189.369 6.95143Z" fill="#231F20"/>
<path d="M193.033 13.9081C192.956 13.9081 192.879 13.8793 192.828 13.825C190.952 11.8444 187.83 10.451 185.051 9.29871C184.921 9.2444 184.867 9.11203 184.931 9.00341C184.995 8.89478 185.153 8.84896 185.282 8.90327C188.113 10.076 191.296 11.4982 193.238 13.55C193.328 13.6451 193.309 13.7842 193.197 13.8606C193.148 13.8929 193.09 13.9081 193.033 13.9081Z" fill="#231F20"/>
<path d="M191.493 17.6164C191.426 17.6164 191.361 17.5961 191.31 17.5536C188.878 15.5833 186.639 14.5786 183.965 13.4703C182.166 12.7253 181.121 12.3486 180.111 11.9837C179.816 11.8767 179.523 11.7715 179.215 11.6578C179.082 11.6086 179.022 11.4796 179.08 11.3676C179.138 11.2556 179.293 11.2064 179.426 11.2539C179.733 11.3676 180.025 11.4728 180.317 11.578C181.334 11.9446 182.386 12.3248 184.196 13.0749C186.912 14.2001 189.188 15.2218 191.675 17.2363C191.779 17.3211 191.782 17.462 191.681 17.5486C191.63 17.5927 191.561 17.6164 191.493 17.6164Z" fill="#231F20"/>
<path d="M190.552 20.2722C190.486 20.2722 190.42 20.2519 190.368 20.2095C188.274 18.4818 186.443 17.7367 184.124 16.7948C183.788 16.6574 183.442 16.5182 183.086 16.3705C182.054 15.9429 180.956 15.5033 179.824 15.0654C179.693 15.0145 179.636 14.8838 179.696 14.7735C179.757 14.6615 179.912 14.614 180.043 14.6649C181.18 15.1045 182.281 15.5457 183.318 15.9751C183.673 16.1211 184.017 16.2619 184.352 16.3977C186.622 17.3209 188.581 18.1169 190.736 19.8955C190.84 19.9803 190.841 20.1195 190.739 20.2077C190.688 20.2519 190.62 20.2722 190.552 20.2722Z" fill="#231F20"/>
<path d="M189.398 22.7862C189.33 22.7862 189.264 22.7659 189.213 22.7218C187.39 21.1909 185.381 20.3475 183.253 19.4531C182.782 19.2545 182.309 19.056 181.835 18.8489C181.706 18.7912 181.656 18.6588 181.724 18.5502C181.792 18.4433 181.949 18.4009 182.078 18.4569C182.549 18.6639 183.02 18.8625 183.488 19.0593C185.655 19.969 187.7 20.8278 189.583 22.4112C189.686 22.4961 189.686 22.6369 189.583 22.7218C189.532 22.7659 189.465 22.7862 189.398 22.7862Z" fill="#231F20"/>
<path d="M188.401 25.6019C188.324 25.6019 188.247 25.573 188.196 25.5187C186.24 23.455 179.299 20.9789 176.189 20.171C176.05 20.1337 175.973 20.0115 176.016 19.8944C176.058 19.779 176.205 19.7128 176.344 19.7484C179.506 20.5698 186.58 23.1054 188.606 25.2438C188.696 25.3388 188.677 25.478 188.565 25.5526C188.516 25.5849 188.458 25.6019 188.401 25.6019Z" fill="#231F20"/>
<path d="M211.327 34.0149C211.22 34.0149 211.12 33.9606 211.08 33.8724L209.775 30.9448C209.724 30.8311 209.793 30.7038 209.928 30.6614C210.063 30.619 210.215 30.6767 210.266 30.7904L211.572 33.7162C211.623 33.8317 211.554 33.9572 211.418 34.0014C211.388 34.0098 211.358 34.0149 211.327 34.0149Z" fill="#231F20"/>
<path d="M249.253 58.3641C249.578 60.2371 252.214 72.1869 267.362 77.7588C267.417 77.7788 267.477 77.7827 267.534 77.7698C268.81 77.48 283.544 73.8082 292.64 56.9983C292.711 56.8674 292.62 56.7143 292.454 56.6872C290.364 56.3464 278.781 54.2703 274.002 49.4082C273.889 49.2936 273.681 49.2994 273.582 49.4235C272.442 50.856 266.045 57.845 249.509 58.1109C249.352 58.1135 249.23 58.2314 249.253 58.3641Z" fill="white"/>
<path d="M273.8 49.5491C272.671 50.9664 266.191 58.0636 249.516 58.3319L249.514 58.3329C249.677 59.2859 250.415 62.6959 252.978 66.5678C256.263 71.5322 261.139 75.2289 267.467 77.5572C269.071 77.1926 283.417 73.5119 292.402 56.9077C290.142 56.5353 278.616 54.4479 273.8 49.5491ZM267.467 77.9985C267.397 77.9985 267.324 77.9854 267.255 77.9606C252.136 72.3986 249.39 60.6877 248.995 58.3964C248.972 58.2713 249.015 58.1442 249.112 58.0476C249.211 57.9505 249.354 57.8935 249.506 57.8912C265.922 57.6271 272.259 50.6895 273.364 49.3015C273.457 49.1849 273.604 49.1139 273.77 49.107C273.938 49.1003 274.095 49.1584 274.204 49.2684C278.905 54.0511 290.273 56.1076 292.505 56.4713C292.661 56.497 292.794 56.5806 292.867 56.701C292.944 56.8231 292.948 56.965 292.879 57.0903C283.795 73.8785 269.233 77.613 267.603 77.9835C267.558 77.9934 267.514 77.9985 267.467 77.9985Z" fill="#231F20"/>
<path d="M287.136 58.7146C287.118 58.7146 287.097 58.7127 287.079 58.7092C279.886 57.374 273.262 53.1877 273.196 53.1456C273.081 53.0721 273.058 52.9336 273.145 52.8369C273.232 52.74 273.398 52.7205 273.513 52.7945C273.578 52.8359 280.116 56.9647 287.192 58.2788C287.334 58.3051 287.423 58.4227 287.392 58.5416C287.364 58.6445 287.255 58.7146 287.136 58.7146Z" fill="#231F20"/>
<path d="M285.326 62.0307C285.304 62.0307 285.282 62.0283 285.259 62.0234C281.92 61.2938 278.606 59.9242 275.404 57.9529C275.289 57.8809 275.262 57.7429 275.347 57.6448C275.434 57.5467 275.598 57.5253 275.715 57.5973C278.862 59.5356 282.118 60.8813 285.391 61.5969C285.532 61.6275 285.615 61.7478 285.581 61.8656C285.548 61.9649 285.443 62.0307 285.326 62.0307Z" fill="#231F20"/>
<path d="M273.408 56.5581C273.347 56.5581 273.284 56.5406 273.236 56.5048C271.778 55.4508 270.968 54.6917 270.935 54.6598C270.838 54.569 270.846 54.4297 270.955 54.3487C271.064 54.2678 271.228 54.2754 271.325 54.3664C271.335 54.374 272.149 55.1374 273.577 56.1706C273.688 56.25 273.701 56.3892 273.606 56.4815C273.555 56.5321 273.48 56.5581 273.408 56.5581Z" fill="#231F20"/>
<path d="M282.16 65.1271C282.124 65.1271 282.09 65.1212 282.055 65.1091C273.012 61.8299 268.483 56.301 268.441 56.2457C268.358 56.1449 268.39 56.0077 268.509 55.9395C268.631 55.8713 268.792 55.8977 268.873 55.9984C268.917 56.0529 273.367 61.4786 282.264 64.7042C282.397 64.7525 282.457 64.8822 282.401 64.9939C282.358 65.0772 282.261 65.1271 282.16 65.1271Z" fill="#231F20"/>
<path d="M279.26 67.9076C279.217 67.9076 279.175 67.8986 279.137 67.8818C269.752 63.6855 265.671 57.4302 265.631 57.3676C265.562 57.2603 265.611 57.1266 265.738 57.069C265.865 57.0115 266.025 57.0514 266.093 57.1586C266.134 57.2202 270.146 63.3622 279.383 67.4923C279.51 67.5492 279.559 67.6826 279.492 67.7902C279.444 67.8648 279.353 67.9076 279.26 67.9076Z" fill="#231F20"/>
<path d="M275.532 70.4733C275.489 70.4733 275.449 70.4653 275.41 70.4484C273.73 69.7115 272.106 68.7723 270.579 67.6561C270.47 67.5763 270.457 67.437 270.552 67.3453C270.649 67.2537 270.815 67.2437 270.924 67.3233C272.419 68.4169 274.011 69.3371 275.653 70.058C275.782 70.1139 275.831 70.2473 275.764 70.3549C275.717 70.4305 275.627 70.4733 275.532 70.4733Z" fill="#231F20"/>
<path d="M268.406 65.7897C268.338 65.7897 268.265 65.7655 268.214 65.7182C264.372 62.2036 262.524 58.5717 262.506 58.5354C262.449 58.4233 262.514 58.2941 262.645 58.2467C262.781 58.1992 262.932 58.2518 262.989 58.3642C263.007 58.3997 264.823 61.9645 268.6 65.42C268.699 65.5098 268.691 65.6491 268.584 65.7316C268.536 65.7705 268.471 65.7897 268.406 65.7897Z" fill="#231F20"/>
<path d="M266.986 72.7151C266.984 72.7151 266.982 72.7151 266.982 72.7151C266.837 72.713 266.722 72.6126 266.724 72.4911L266.752 70.8996C266.754 70.8448 266.728 70.7949 266.681 70.7581C266.635 70.7223 266.578 70.7053 266.516 70.7094L263.866 70.8946C263.611 70.9125 263.369 70.8219 263.213 70.6526C263.06 70.4813 263.015 70.2581 263.104 70.0541L263.231 69.7524C263.274 69.6548 263.215 69.585 263.187 69.5601C263.161 69.5352 263.088 69.4814 262.973 69.5053C262.629 69.5771 262.29 69.4455 262.13 69.1796C261.969 68.9098 262.046 68.5992 262.324 68.4059L262.841 68.0473C262.957 67.9667 262.922 67.8621 262.91 67.8322C262.898 67.8044 262.845 67.7107 262.704 67.7107C262.702 67.7107 262.702 67.7107 262.7 67.7107L259.933 67.7416C259.933 67.7416 259.931 67.7416 259.929 67.7416C259.785 67.7416 259.668 67.6451 259.668 67.5246C259.666 67.403 259.781 67.3024 259.927 67.3014L262.694 67.2705C262.698 67.2705 262.7 67.2705 262.704 67.2705C263.019 67.2705 263.292 67.4309 263.403 67.6809C263.514 67.9368 263.425 68.2136 263.175 68.3879L262.658 68.7465C262.528 68.8371 262.579 68.9486 262.599 68.9805C262.617 69.0114 262.69 69.11 262.845 69.0771C263.114 69.0213 263.393 69.0931 263.577 69.2643C263.763 69.4376 263.819 69.6806 263.726 69.9007L263.597 70.2025C263.559 70.2921 263.607 70.3588 263.629 70.3837C263.651 70.4077 263.712 70.4623 263.821 70.4553L266.471 70.2702C266.679 70.2563 266.887 70.316 267.041 70.4365C267.195 70.557 267.279 70.7282 267.277 70.9066L267.249 72.498C267.247 72.6185 267.13 72.7151 266.986 72.7151Z" fill="#231F20"/>
<path d="M262.665 24.3868C263.499 24.9333 264.358 25.4543 265.235 25.9516L265.782 26.2588C266.402 26.7 266.481 27.4807 265.952 28L262.801 31.1245L264.827 32.4058C265.738 33.1101 265.59 34.3507 264.536 34.8921L263.764 35.1586C260.164 36.3992 256.844 38.1489 253.947 40.3331C253.22 40.7065 252.29 40.6539 251.63 40.2007L247.392 37.8994C243.649 35.8645 240.181 33.492 237.055 30.8207L234.196 28.3768C233.601 27.9729 233.51 27.2465 233.976 26.7492L236.181 24.0457C239.081 20.4054 242.495 17.0739 246.352 14.126C246.871 13.5948 247.804 13.5235 248.428 13.9664L251.931 16.95C253.345 18.1533 254.852 19.2785 256.44 20.3188L262.665 24.3868Z" fill="white"/>
<path d="M247.488 13.8969C247.451 13.8969 247.413 13.8969 247.375 13.9003C247.051 13.9258 246.76 14.0547 246.554 14.2652C246.546 14.2737 246.538 14.2822 246.53 14.2889C242.692 17.2233 239.285 20.5463 236.399 24.1679L234.192 26.8749C233.805 27.2907 233.884 27.8813 234.361 28.2054C234.369 28.2105 234.376 28.2156 234.383 28.2224L237.243 30.6663C240.351 33.3206 243.813 35.6932 247.536 37.7145L251.772 40.0141C251.78 40.0192 251.788 40.0243 251.796 40.0294C252.364 40.4197 253.164 40.4689 253.79 40.155C256.713 37.9555 260.036 36.2057 263.664 34.9549L264.417 34.6953C264.839 34.473 265.11 34.1064 265.159 33.6889C265.207 33.2663 265.023 32.8573 264.65 32.5688L262.644 31.2993C262.585 31.2637 262.549 31.2094 262.539 31.1483C262.531 31.0889 262.555 31.0278 262.599 30.982L265.753 27.8575C265.963 27.6505 266.064 27.3874 266.037 27.1176C266.011 26.8511 265.864 26.6101 265.623 26.4353L265.09 26.1332C264.211 25.6377 263.341 25.1082 262.504 24.5617L256.281 20.492C254.687 19.4516 253.162 18.3111 251.744 17.1045L248.243 14.1209C248.039 13.9784 247.77 13.8969 247.488 13.8969ZM252.901 40.8015C252.394 40.8015 251.889 40.659 251.475 40.379L247.251 38.0845C243.496 36.0445 240.004 33.6532 236.869 30.9751L234.019 28.5398C233.332 28.0646 233.218 27.2024 233.77 26.6135L235.964 23.9202C238.868 20.2764 242.3 16.928 246.163 13.9733C246.457 13.678 246.87 13.4964 247.328 13.4607C247.791 13.4251 248.243 13.5456 248.599 13.7968L252.118 16.7939C253.517 17.987 255.026 19.1139 256.602 20.1441L262.828 24.2138C263.654 24.7535 264.514 25.2762 265.383 25.7683L265.93 26.0772C265.936 26.0806 265.944 26.0857 265.953 26.0908C266.306 26.342 266.522 26.6933 266.56 27.0819C266.599 27.4706 266.453 27.8473 266.152 28.1426L263.179 31.0889L264.985 32.231C265.5 32.6282 265.746 33.1695 265.682 33.733C265.615 34.2947 265.247 34.7869 264.674 35.0805C264.662 35.0873 264.65 35.0924 264.637 35.0975L263.864 35.3639C260.282 36.5977 257.006 38.3237 254.123 40.4978C254.111 40.5062 254.099 40.5147 254.085 40.5215C253.721 40.7082 253.311 40.8015 252.901 40.8015Z" fill="#231F20"/>
<path d="M262.801 31.3445C262.745 31.3445 262.69 31.3292 262.644 31.2987L260.383 29.8697C257.224 27.8705 254.337 25.5624 251.81 23.0082L250.19 21.3721C249.74 21.0293 249.235 20.9801 248.338 21.1905L246.423 21.7133C243.427 22.5313 240.585 23.6972 237.976 25.1788L233.914 27.6651C233.798 27.7381 233.633 27.716 233.547 27.6176C233.462 27.5191 233.488 27.3817 233.605 27.3087L237.675 24.8173C240.333 23.3086 243.219 22.1257 246.259 21.2941L248.186 20.768C248.988 20.5796 249.821 20.4879 250.558 21.0582C250.566 21.065 250.574 21.0717 250.582 21.0785L252.212 22.7247C254.717 25.2535 257.571 27.5395 260.698 29.5167L262.959 30.9473C263.074 31.0203 263.096 31.1578 263.009 31.2562C262.959 31.3139 262.88 31.3445 262.801 31.3445Z" fill="#231F20"/>
<path d="M266.98 12.8969L264.098 10.8162C263.397 10.3105 262.354 10.3325 261.684 10.8637L260.229 12.0178C258.07 13.7336 256.244 15.7209 254.816 17.9102L253.032 20.646C252.846 20.9294 252.911 21.2824 253.192 21.5047C254.494 22.5366 257.969 25.9122 261.09 27.4532C261.621 27.7163 262.306 27.5567 262.613 27.1087L264.681 24.0946C265.893 22.3279 267.368 20.6986 269.071 19.2476L270.988 17.6132C271.763 16.953 271.65 15.8669 270.753 15.3289L269.808 14.7604C268.832 14.1749 267.889 13.5537 266.98 12.8969Z" fill="white"/>
<path d="M262.922 10.6696C262.543 10.6696 262.161 10.7884 261.864 11.0243L260.411 12.1784C258.268 13.8789 256.462 15.8442 255.046 18.0165L253.263 20.7506C253.133 20.9474 253.18 21.1918 253.372 21.3429C253.673 21.5822 254.095 21.9488 254.582 22.3747C256.28 23.8529 258.846 26.0881 261.223 27.2625C261.417 27.3575 261.644 27.3847 261.862 27.3354C262.084 27.2862 262.272 27.1657 262.387 26.9977L264.453 23.9853C265.676 22.2033 267.166 20.5571 268.885 19.0925L270.802 17.4581C271.117 17.19 271.275 16.82 271.237 16.4433C271.198 16.0682 270.968 15.727 270.6 15.5064L269.655 14.9396C268.679 14.3524 267.72 13.721 266.809 13.0643L263.924 10.9836C263.635 10.7731 263.278 10.6696 262.922 10.6696ZM261.644 27.8005C261.403 27.8005 261.169 27.7478 260.959 27.6426C258.519 26.4377 255.923 24.1771 254.204 22.6802C253.721 22.2593 253.305 21.8961 253.012 21.6653C252.644 21.3734 252.56 20.9118 252.802 20.5401L254.586 17.8043C256.028 15.5913 257.866 13.5904 260.05 11.8576L261.504 10.7035C262.276 10.0909 263.464 10.0688 264.268 10.6492L267.15 12.7299C268.051 13.3782 268.996 14.0011 269.96 14.5815L270.907 15.1483C271.396 15.4436 271.707 15.9019 271.76 16.4059C271.81 16.9099 271.598 17.4072 271.176 17.767L269.259 19.4013C267.57 20.8388 266.108 22.4562 264.908 24.2042L262.841 27.2183C262.656 27.4882 262.355 27.6816 261.995 27.7614C261.88 27.7869 261.761 27.8005 261.644 27.8005Z" fill="#231F20"/>
<path d="M269.071 19.4683C269.016 19.4683 268.962 19.4531 268.913 19.4242L266.679 18.0156C266.243 17.7406 265.968 17.3418 265.901 16.8887C265.833 16.4372 265.984 15.9926 266.326 15.6379L267.972 13.9238C268.063 13.8304 268.228 13.8152 268.342 13.8916C268.455 13.9679 268.471 14.1071 268.38 14.2021L266.734 15.9145C266.483 16.1759 266.372 16.5017 266.421 16.8344C266.471 17.167 266.673 17.4606 266.992 17.6626L269.228 19.0712C269.346 19.1442 269.37 19.2817 269.281 19.3801C269.23 19.4378 269.152 19.4683 269.071 19.4683Z" fill="#231F20"/>
<path d="M265.8 19.5757C265.752 19.5757 265.699 19.5638 265.655 19.5383C263.354 18.2435 260.112 14.9833 259.975 14.8458C259.882 14.7524 259.898 14.6133 260.009 14.5352C260.12 14.4571 260.286 14.4707 260.379 14.5641C260.411 14.5963 263.71 17.9125 265.948 19.1718C266.067 19.2397 266.099 19.3771 266.018 19.479C265.968 19.5418 265.885 19.5757 265.8 19.5757Z" fill="#231F20"/>
<path d="M263.738 21.4417C263.682 21.4417 263.627 21.4281 263.579 21.3976C259.848 18.9894 258.214 17.0869 258.145 17.0071C258.062 16.9087 258.088 16.7695 258.205 16.6999C258.325 16.6287 258.488 16.6524 258.571 16.7508C258.589 16.7695 260.236 18.6839 263.9 21.048C264.013 21.121 264.035 21.2601 263.946 21.3569C263.896 21.4129 263.817 21.4417 263.738 21.4417Z" fill="#231F20"/>
<path d="M54.8491 100.293C50.7396 100.293 46.9924 99.2908 43.985 97.342C37.2686 92.9906 35.2118 84.7615 38.6182 75.8659C38.6813 75.7013 38.8907 75.6107 39.0869 75.664C39.2828 75.7168 39.3907 75.8932 39.3279 76.0576C36.0202 84.6947 37.9791 92.6604 44.4402 96.8455C48.4806 99.4633 53.9389 100.296 59.8065 99.1888C65.6544 98.0872 71.5225 95.1469 76.3306 90.9112C77.2777 90.0769 82.3737 91.5814 85.4267 92.5893C83.629 90.2771 80.7983 86.389 81.3508 85.5004C81.3548 85.4939 81.3703 85.471 81.3752 85.4647C89.2247 74.9742 88.7631 62.9314 80.3026 57.4509C76.0658 54.7059 70.333 53.9298 64.1587 55.265C57.979 56.6002 51.9165 59.9188 47.0876 64.6112C46.9531 64.7413 46.7178 64.7558 46.5621 64.6425C46.4066 64.5293 46.3894 64.3316 46.5239 64.2015C51.451 59.4151 57.6476 56.0266 63.9731 54.6577C70.374 53.2743 76.3351 54.0889 80.7576 56.9545C89.5239 62.6326 90.0612 75.0325 82.0074 85.7956C81.7777 86.36 84.2656 90.019 86.7058 93.0793C86.7971 93.1938 86.7887 93.3449 86.6849 93.4514C86.5813 93.5582 86.4072 93.5958 86.2552 93.5432C81.6331 91.9529 77.334 90.9457 76.8695 91.3431C71.9611 95.6677 65.9593 98.6713 59.9694 99.7998C58.2208 100.131 56.5051 100.293 54.8491 100.293Z" fill="#231F20"/>
<path d="M55.5806 82.8546L52.9372 84.5093C52.5683 84.7405 52.0457 84.6829 51.7542 84.379L37.5337 69.5492C37.2267 69.2291 37.2947 68.7608 37.6834 68.5174L41.6951 66.0059C42.0843 65.7625 42.6391 65.842 42.9171 66.1818L55.7696 81.8672C56.0324 82.188 55.9489 82.624 55.5806 82.8546Z" fill="#683DE4"/>
<path d="M55.3104 89.2194C54.8712 87.9526 55.6704 86.6891 57.0958 86.3977C58.5209 86.1061 60.0323 86.8968 60.4715 88.1637C60.911 89.4305 60.1118 90.6938 58.6864 90.9855C57.2613 91.2768 55.7496 90.4863 55.3104 89.2194Z" fill="#683DE4"/>
<path d="M67.6525 84.341C67.0948 82.9405 67.824 81.6482 69.394 81.2164C70.9631 80.7849 72.4312 81.4733 72.9888 82.8735C73.5164 84.1983 72.8919 85.5041 71.2324 85.9601C69.663 86.3919 68.18 85.6658 67.6525 84.341ZM66.5291 78.7706L66.0478 77.8112C64.9652 75.8412 64.8832 73.3861 66.221 70.4983C67.4405 67.9372 67.974 66.1537 67.2959 64.4498C66.5274 62.5194 64.5564 61.9506 61.7163 62.6905C60.1016 63.1339 58.6604 64.3848 57.8256 65.4138L55.6519 62.6953C56.77 61.3818 59.0849 60.0732 61.4618 59.4176C66.6186 58.0005 70.0207 60.0466 71.1662 62.9243C72.1908 65.4982 71.225 67.8215 69.9312 70.5702C68.7419 73.081 68.6875 74.9437 69.5905 76.837L70.0273 77.8088L66.5291 78.7706Z" fill="#683DE4"/>
<path d="M31.7228 116.437C35.4388 122.952 32.2036 130.764 24.4963 133.884C16.789 137.003 7.52825 134.249 3.81205 127.732C0.0958471 121.216 3.33131 113.404 11.0386 110.285C18.7457 107.166 28.0064 109.92 31.7228 116.437Z" fill="#231F20"/>
<path d="M29.7094 116.752C33.4255 123.269 30.1903 131.081 22.483 134.199C14.7759 137.318 5.51517 134.565 1.799 128.048C-1.9174 121.531 1.31801 113.721 9.02533 110.602C16.7325 107.482 25.9932 110.235 29.7094 116.752Z" fill="white"/>
<path d="M15.6989 109.532C13.4534 109.532 11.2201 109.956 9.13911 110.8C1.57419 113.861 -1.61254 121.556 2.03538 127.953C3.80913 131.062 6.91145 133.402 10.7703 134.541C14.5996 135.67 18.7188 135.478 22.3691 134C29.934 130.938 33.1206 123.245 29.4727 116.847C27.6989 113.737 24.5966 111.397 20.7376 110.258C19.0917 109.775 17.3918 109.532 15.6989 109.532ZM15.8096 135.709C14.0578 135.709 12.2998 135.459 10.5967 134.957C6.60523 133.779 3.39665 131.359 1.56229 128.143C-2.21069 121.527 1.08618 113.569 8.91127 110.403C12.6882 108.873 16.9501 108.675 20.9115 109.843C24.903 111.02 28.1114 113.44 29.9459 116.657C33.7187 123.272 30.4219 131.232 22.5968 134.398C20.4439 135.269 18.1324 135.709 15.8096 135.709Z" fill="#231F20"/>
<path d="M23.7538 127.086C23.7039 127.086 23.6534 127.074 23.6087 127.049L15.6087 122.583C15.5532 122.553 15.5138 122.505 15.4984 122.451L13.8137 116.44C13.7804 116.321 13.8679 116.202 14.0089 116.175C14.1487 116.148 14.2911 116.221 14.3244 116.34L15.9852 122.264L23.899 126.682C24.0198 126.75 24.0527 126.886 23.9725 126.988C23.922 127.052 23.8386 127.086 23.7538 127.086Z" fill="#231F20"/>
<path d="M11.2205 112.69C11.4577 113.106 11.2512 113.605 10.7589 113.805C10.2668 114.004 9.67563 113.827 9.43828 113.412C9.20092 112.996 9.40756 112.497 9.89963 112.298C10.3919 112.1 10.9832 112.274 11.2205 112.69Z" fill="#231F20"/>
<path d="M6.08482 115.892C6.53631 116.153 6.65307 116.672 6.34539 117.053C6.03795 117.434 5.42247 117.531 4.97098 117.27C4.51953 117.008 4.40277 116.489 4.71021 116.109C5.01786 115.729 5.63314 115.632 6.08482 115.892Z" fill="#231F20"/>
<path d="M3.64785 120.748C4.19265 120.783 4.60129 121.184 4.56087 121.644C4.52028 122.104 4.04578 122.448 3.50079 122.413C2.956 122.377 2.54715 121.975 2.58774 121.515C2.62833 121.055 3.10283 120.712 3.64785 120.748Z" fill="#231F20"/>
<path d="M4.26751 126.199C4.75938 126.001 5.35084 126.175 5.58819 126.591C5.82555 127.007 5.6189 127.506 5.12663 127.706C4.63455 127.905 4.0433 127.73 3.80595 127.312C3.5686 126.897 3.77523 126.398 4.26751 126.199Z" fill="#231F20"/>
<path d="M8.18008 130.455C8.48755 130.075 9.10304 129.978 9.55469 130.239C10.0062 130.499 10.1229 131.02 9.81529 131.4C9.50785 131.78 8.89233 131.877 8.44088 131.617C7.9892 131.356 7.87244 130.837 8.18008 130.455Z" fill="#231F20"/>
<path d="M14.0428 132.619C14.0834 132.159 14.5579 131.815 15.1029 131.85C15.6477 131.886 16.0565 132.288 16.0158 132.748C15.9754 133.208 15.5009 133.551 14.9559 133.517C14.4111 133.481 14.0022 133.079 14.0428 132.619Z" fill="#231F20"/>
<path d="M20.3934 132.019C20.156 131.604 20.3626 131.105 20.8547 130.904C21.347 130.706 21.9382 130.882 22.1754 131.298C22.4127 131.714 22.2061 132.213 21.7142 132.411C21.222 132.612 20.6307 132.435 20.3934 132.019Z" fill="#231F20"/>
<path d="M25.5292 128.818C25.0776 128.557 24.9608 128.038 25.2685 127.658C25.5759 127.277 26.1914 127.179 26.6431 127.44C27.0946 127.702 27.2113 128.221 26.9036 128.601C26.5962 128.981 25.9807 129.08 25.5292 128.818Z" fill="#231F20"/>
<path d="M27.9671 123.965C27.4223 123.929 27.0136 123.527 27.054 123.067C27.0946 122.607 27.5691 122.263 28.1139 122.298C28.6587 122.334 29.0676 122.736 29.0272 123.196C28.9866 123.656 28.5119 123.999 27.9671 123.965Z" fill="#231F20"/>
<path d="M27.24 118.6C26.748 118.799 26.1565 118.624 25.9191 118.208C25.682 117.792 25.8884 117.294 26.3807 117.093C26.8728 116.895 27.464 117.071 27.7014 117.487C27.9387 117.903 27.7321 118.402 27.24 118.6Z" fill="#231F20"/>
<path d="M23.4333 114.256C23.1259 114.636 22.5104 114.733 22.0589 114.472C21.6074 114.212 21.4907 113.693 21.7981 113.311C22.1058 112.931 22.721 112.834 23.1727 113.095C23.6242 113.355 23.7409 113.876 23.4333 114.256Z" fill="#231F20"/>
<path d="M17.5705 112.092C17.5301 112.552 17.0553 112.896 16.5106 112.861C15.9658 112.825 15.5569 112.423 15.5975 111.963C15.6381 111.503 16.1126 111.16 16.6574 111.196C17.2024 111.232 17.6111 111.632 17.5705 112.092Z" fill="#231F20"/>
<path d="M98.1842 33.9449C98.042 33.9449 97.9252 33.8499 97.922 33.7294L97.8824 32.2257C97.8792 32.1035 97.9941 32.0034 98.1389 32C98.2791 31.9983 98.404 32.0934 98.407 32.2156L98.4466 33.7209C98.4498 33.8414 98.3349 33.9432 98.19 33.9449C98.1882 33.9449 98.186 33.9449 98.1842 33.9449Z" fill="#231F20"/>
<path d="M98.3229 39.2137C98.1807 39.2137 98.0637 39.1187 98.0607 38.9982L98.0211 37.4928C98.0178 37.3706 98.1328 37.2705 98.2774 37.2671C98.4233 37.2654 98.5422 37.3621 98.5455 37.4826L98.5852 38.988C98.5883 39.1102 98.4735 39.2103 98.3287 39.2137C98.3267 39.2137 98.3247 39.2137 98.3229 39.2137Z" fill="#231F20"/>
<path d="M94.2624 35.8509C94.1184 35.8509 94.001 35.7542 94 35.632C93.999 35.5098 94.1156 35.4114 94.2604 35.4097L96.0255 35.3995C96.1671 35.3961 96.2887 35.4962 96.2899 35.6184C96.2909 35.7406 96.1741 35.8391 96.0293 35.8408L94.2642 35.8509C94.2636 35.8509 94.263 35.8509 94.2624 35.8509Z" fill="#231F20"/>
<path d="M100.44 35.8142C100.296 35.8142 100.178 35.7158 100.177 35.5953C100.176 35.4731 100.293 35.3747 100.438 35.373L102.203 35.3628C102.204 35.3628 102.204 35.3628 102.205 35.3628C102.349 35.3628 102.466 35.4595 102.467 35.5817C102.468 35.7022 102.352 35.8024 102.207 35.8024L100.442 35.8142C100.441 35.8142 100.44 35.8142 100.44 35.8142Z" fill="#231F20"/>
<path d="M18.1842 88.9449C18.042 88.9449 17.9252 88.8499 17.922 88.7294L17.8824 87.2257C17.8792 87.1035 17.9941 87.0034 18.1389 87C18.2791 86.9983 18.404 87.0934 18.407 87.2156L18.4466 88.7209C18.4498 88.8414 18.3349 88.9432 18.19 88.9449C18.1882 88.9449 18.186 88.9449 18.1842 88.9449Z" fill="#231F20"/>
<path d="M18.3229 94.2137C18.1807 94.2137 18.0637 94.1187 18.0607 93.9982L18.0211 92.4928C18.0178 92.3706 18.1328 92.2705 18.2774 92.2671C18.4233 92.2654 18.5422 92.3621 18.5455 92.4826L18.5852 93.988C18.5883 94.1102 18.4735 94.2103 18.3287 94.2137C18.3267 94.2137 18.3247 94.2137 18.3229 94.2137Z" fill="#231F20"/>
<path d="M14.2624 90.8509C14.1184 90.8509 14.001 90.7542 14 90.632C13.999 90.5098 14.1156 90.4114 14.2604 90.4097L16.0255 90.3995C16.1671 90.3961 16.2887 90.4962 16.2899 90.6184C16.2909 90.7406 16.1741 90.8391 16.0293 90.8408L14.2642 90.8509C14.2636 90.8509 14.263 90.8509 14.2624 90.8509Z" fill="#231F20"/>
<path d="M20.4397 90.8142C20.2956 90.8142 20.1783 90.7158 20.1773 90.5953C20.1764 90.4731 20.2928 90.3747 20.4377 90.373L22.2029 90.3628C22.2035 90.3628 22.2043 90.3628 22.2049 90.3628C22.3488 90.3628 22.4661 90.4595 22.4673 90.5817C22.4681 90.7022 22.3516 90.8024 22.2068 90.8024L20.4417 90.8142C20.4409 90.8142 20.4403 90.8142 20.4397 90.8142Z" fill="#231F20"/>
<path d="M282.118 37.3568C281.13 37.3568 280.328 38.0305 280.328 38.8587C280.328 39.6886 281.13 40.3624 282.118 40.3624C283.104 40.3624 283.906 39.6886 283.906 38.8587C283.906 38.0305 283.104 37.3568 282.118 37.3568ZM282.118 40.8036C280.842 40.8036 279.803 39.9313 279.803 38.8587C279.803 37.7878 280.842 36.9155 282.118 36.9155C283.393 36.9155 284.431 37.7878 284.431 38.8587C284.431 39.9313 283.393 40.8036 282.118 40.8036Z" fill="#231F20"/>
<path d="M280.039 26.6502C280.039 25.8441 280.817 25.1924 281.774 25.1924C282.734 25.1924 283.511 25.8441 283.511 26.6502C283.511 27.4547 282.734 28.108 281.774 28.108C280.817 28.108 280.039 27.4547 280.039 26.6502Z" fill="#231F20"/>
</svg>
