<svg width="528" height="463" viewBox="0 0 528 463" fill="none" xmlns="http://www.w3.org/2000/svg">
<path d="M147.972 399.356C147.972 399.356 212.173 429.53 285.621 400.102C359.069 370.674 405.676 301.747 444.963 246.739C484.249 191.732 477.971 130.882 431.583 98.5245C385.196 66.1673 343.408 102.194 271.32 96.5265C199.232 90.859 181.648 79.1175 115.347 111.125C49.0467 143.132 22.3069 232.481 57.4497 304.411C92.5901 376.341 147.972 399.356 147.972 399.356Z" fill="#F5F3FF"/>
<path d="M240.784 418.215C362.755 418.215 461.632 412.822 461.632 406.169C461.632 399.516 362.755 394.123 240.784 394.123C118.813 394.123 19.9355 399.516 19.9355 406.169C19.9355 412.822 118.813 418.215 240.784 418.215Z" fill="#E1D7FF"/>
<path d="M371.294 224.567C371.231 224.573 372.07 220.419 372.152 220.163C373.113 217.201 376.711 212.039 380.199 212.046C382.712 212.05 384.414 214.337 384.166 216.736C383.913 219.186 381.713 221.274 379.723 222.48C377.386 223.894 371.299 224.567 371.294 224.567Z" fill="#BDB5D6"/>
<path d="M364.54 196.625C367.823 197.804 369.456 203.879 369.354 206.993C369.345 207.262 368.723 211.454 368.665 211.426C368.665 211.426 368.612 211.399 368.599 211.393C368.863 212.349 369.137 213.38 369.413 214.51C369.906 216.601 370.444 218.97 370.855 221.586C371.273 224.2 371.654 227.052 371.783 230.091C371.917 233.138 371.903 236.35 371.46 239.658C371.456 239.694 371.446 239.733 371.44 239.771C371.87 238.844 373.159 236.291 373.28 236.107C374.989 233.502 379.821 229.474 383.185 230.402C385.608 231.07 386.645 233.726 385.773 235.973C384.882 238.269 382.209 239.702 379.972 240.338C377.449 241.057 371.823 240.208 371.374 240.139C370.924 243.285 370.205 246.477 369.302 249.667C368.787 251.491 368.212 253.312 367.611 255.131C368.008 254.341 368.369 253.638 368.431 253.546C370.139 250.942 374.972 246.914 378.335 247.841C380.758 248.509 381.795 251.164 380.924 253.412C380.034 255.709 377.359 257.142 375.121 257.779C372.851 258.425 368.04 257.798 366.769 257.615C366.531 258.311 366.301 259.008 366.061 259.702C364.91 263.034 363.745 266.355 362.704 269.647C362.335 270.806 362.016 271.962 361.692 273.118C362.046 272.417 362.35 271.83 362.405 271.745C364.114 269.141 368.947 265.113 372.311 266.04C374.734 266.708 375.772 269.364 374.9 271.613C374.01 273.908 371.335 275.342 369.097 275.978C366.93 276.595 362.484 276.056 360.973 275.846C360.677 277.038 360.378 278.233 360.145 279.402C360.004 280.205 359.812 280.967 359.715 281.78C359.603 282.583 359.491 283.378 359.381 284.166C359.224 285.691 359.051 287.263 358.934 288.754C358.845 289.791 358.781 290.78 358.712 291.777C359.065 290.617 359.802 288.364 359.886 288.182C360.746 286.3 362.876 283.594 365.224 282.105C365.35 281.827 365.499 281.56 365.675 281.308C367.058 279.333 369.842 278.719 371.745 280.361C374.386 282.641 373.726 288.898 372.511 291.766C372.44 291.935 371.457 293.683 370.819 294.777C371.292 294.191 371.744 293.617 372.239 293.02C373.208 291.833 374.209 290.678 375.282 289.429C375.822 288.845 376.367 288.256 376.918 287.659C377.451 287.056 378.09 286.488 378.68 285.893C380.076 284.544 381.556 283.245 383.075 281.969C382.039 281.118 378.397 278.043 377.351 275.953C376.308 273.872 375.558 270.933 376.65 268.726C377.718 266.564 380.377 265.535 382.506 266.87C385.462 268.723 385.758 275.008 384.991 278.027C384.943 278.215 384.15 280.32 383.693 281.468C384.613 280.709 385.526 279.945 386.482 279.208C389.24 277.076 392.097 275.004 394.938 272.924C395.809 272.288 396.668 271.643 397.532 271.001C397.16 270.702 392.754 267.141 391.582 264.8C390.539 262.721 389.789 259.78 390.881 257.573C391.949 255.412 394.608 254.383 396.737 255.718C399.693 257.571 399.989 263.855 399.222 266.875C399.164 267.103 398.018 270.129 397.69 270.885C399.59 269.47 401.472 268.043 403.269 266.56C405.752 264.517 408.075 262.377 410.172 260.135C409.999 259.996 405.383 256.3 404.182 253.903C403.139 251.823 402.389 248.884 403.481 246.675C404.549 244.514 407.208 243.485 409.337 244.82C412.293 246.673 412.588 252.957 411.822 255.977C411.772 256.175 410.901 258.484 410.462 259.571C410.554 259.629 410.537 259.619 410.63 259.677C412.848 257.249 414.69 254.618 416.293 252.071C417.224 250.597 418.033 249.136 418.786 247.698C417.856 247.098 413.636 244.307 412.316 242.269C411.052 240.316 409.984 237.476 410.825 235.162C411.65 232.896 414.18 231.581 416.442 232.675C419.584 234.192 420.567 240.405 420.138 243.491C420.115 243.659 419.689 245.338 419.362 246.557C419.692 245.903 420.045 245.233 420.348 244.599C421.496 242.224 422.4 239.978 423.185 237.983C423.622 236.845 423.995 235.807 424.333 234.833C423.728 233.767 421.342 229.444 421.114 227.071C420.891 224.755 421.253 221.743 423.066 220.077C424.843 218.446 427.693 218.445 429.198 220.457C431.286 223.252 429.296 229.219 427.494 231.76C427.338 231.979 424.507 235.133 424.475 235.077C424.475 235.077 424.445 235.026 424.438 235.013C424.131 235.957 423.79 236.967 423.398 238.061C422.655 240.078 421.797 242.35 420.697 244.76C419.603 247.17 418.348 249.759 416.778 252.366C415.21 254.981 413.425 257.652 411.231 260.166C411.207 260.195 411.177 260.221 411.152 260.25C412.022 259.714 414.506 258.296 414.708 258.209C417.57 256.98 423.823 256.287 426.117 258.915C427.769 260.808 427.169 263.596 425.202 264.99C423.193 266.414 420.173 266.134 417.954 265.431C415.453 264.637 411.228 260.826 410.893 260.521C408.782 262.896 406.422 265.163 403.908 267.324C402.472 268.562 400.987 269.764 399.482 270.95C400.25 270.51 400.939 270.123 401.041 270.08C403.904 268.85 410.157 268.157 412.45 270.786C414.102 272.68 413.502 275.468 411.535 276.862C409.526 278.286 406.505 278.005 404.287 277.302C402.037 276.588 398.37 273.412 397.411 272.557C396.829 273.007 396.254 273.461 395.67 273.908C392.871 276.052 390.067 278.179 387.383 280.349C386.436 281.113 385.532 281.901 384.624 282.687C385.306 282.297 385.883 281.975 385.977 281.934C388.839 280.705 395.093 280.012 397.385 282.64C399.037 284.533 398.438 287.321 396.47 288.715C394.461 290.138 391.44 289.859 389.222 289.156C387.075 288.475 383.664 285.572 382.519 284.563C381.615 285.395 380.706 286.226 379.867 287.073C379.307 287.665 378.727 288.194 378.197 288.82C377.66 289.427 377.128 290.029 376.601 290.625C375.628 291.81 374.617 293.027 373.698 294.206C373.052 295.022 372.452 295.811 371.845 296.604C372.778 295.832 374.637 294.359 374.806 294.253C377.449 292.604 383.525 290.971 386.19 293.223C388.111 294.845 387.94 297.691 386.206 299.366C384.435 301.078 381.408 301.258 379.108 300.9C376.577 300.504 371.996 297.52 371.427 297.144C370.426 298.461 369.466 299.75 368.58 300.981C365.496 305.243 363.091 308.909 361.445 311.494C361.386 311.587 361.335 311.669 361.278 311.758L359.144 310.722C359.254 310.555 359.361 310.393 359.48 310.215C361.202 307.635 363.71 303.987 366.918 299.752C367.928 298.412 369.034 297 370.183 295.56C369.887 295.236 368.215 293.385 366.871 291.46C364.42 292.42 359.317 292.458 358.657 292.459C358.55 294.108 358.461 295.713 358.4 297.229C358.18 302.484 358.196 306.87 358.249 309.934C358.251 310.059 358.254 310.171 358.257 310.292L355.911 309.154C355.934 306.109 356.026 301.99 356.337 297.122C356.439 295.447 356.583 293.659 356.747 291.824C356.096 291.661 350.79 290.298 348.786 288.697C346.969 287.245 345.056 284.89 345.122 282.428C345.186 280.018 347.17 277.97 349.662 278.29C353.122 278.734 356.023 284.317 356.593 287.379C356.626 287.559 356.772 289.561 356.843 290.824C356.914 290.076 356.975 289.347 357.058 288.576C357.211 287.052 357.409 285.534 357.616 283.901C357.744 283.117 357.872 282.324 358.003 281.523C358.116 280.726 358.335 279.899 358.498 279.078C358.919 277.183 359.436 275.283 360 273.379C358.665 273.241 353.933 272.685 351.907 271.52C349.89 270.36 347.643 268.322 347.336 265.879C347.034 263.487 348.684 261.162 351.197 261.1C354.685 261.015 358.398 266.094 359.425 269.034C359.49 269.218 359.989 271.41 360.241 272.621C360.589 271.479 360.929 270.339 361.32 269.196C362.443 265.898 363.684 262.593 364.906 259.291C365.281 258.28 365.643 257.267 366.009 256.256C365.534 256.213 359.893 255.672 357.625 254.367C355.608 253.208 353.361 251.169 353.054 248.726C352.752 246.334 354.402 244.007 356.915 243.947C360.403 243.863 364.116 248.941 365.143 251.882C365.22 252.103 365.935 255.259 366.078 256.071C366.882 253.843 367.664 251.615 368.345 249.386C369.289 246.314 370.045 243.245 370.559 240.221C370.337 240.201 364.449 239.664 362.124 238.327C360.107 237.167 357.86 235.129 357.553 232.686C357.251 230.294 358.901 227.969 361.414 227.908C364.902 227.823 368.615 232.901 369.642 235.842C369.71 236.034 370.256 238.438 370.49 239.589C370.6 239.585 370.58 239.586 370.689 239.583C371.2 236.336 371.284 233.125 371.216 230.116C371.181 228.373 371.048 226.708 370.884 225.093C369.777 225.105 364.717 225.106 362.492 224.134C360.361 223.203 357.903 221.424 357.328 219.029C356.766 216.684 358.15 214.192 360.641 213.855C364.098 213.387 368.346 218.027 369.69 220.838C369.763 220.99 370.334 222.627 370.734 223.824C370.648 223.096 370.573 222.343 370.478 221.646C370.124 219.032 369.64 216.66 369.194 214.563C368.93 213.373 368.669 212.302 368.413 211.301C367.32 210.746 362.945 208.457 361.445 206.603C359.982 204.794 358.622 202.083 359.216 199.693C359.797 197.351 362.174 195.777 364.54 196.625Z" fill="#BDB5D6"/>
<path d="M427.601 250.395C424.872 250.286 419.423 247.488 419.419 247.487C419.362 247.458 422.352 244.456 422.563 244.288C424.999 242.346 430.846 240.027 433.753 241.956C435.847 243.346 436.005 246.193 434.475 248.057C432.913 249.96 429.926 250.488 427.601 250.395Z" fill="#BDB5D6"/>
<g opacity="0.5">
<path d="M371.294 224.567C371.231 224.573 372.07 220.419 372.152 220.163C373.113 217.201 376.711 212.039 380.199 212.046C382.712 212.05 384.414 214.337 384.166 216.736C383.913 219.186 381.713 221.274 379.723 222.48C377.386 223.894 371.299 224.567 371.294 224.567Z" fill="#BDB5D6"/>
<path d="M364.54 196.625C367.823 197.804 369.456 203.879 369.354 206.993C369.345 207.262 368.723 211.454 368.665 211.426C368.665 211.426 368.612 211.399 368.599 211.393C368.863 212.349 369.137 213.38 369.413 214.51C369.906 216.601 370.444 218.97 370.855 221.586C371.273 224.2 371.654 227.052 371.783 230.091C371.917 233.138 371.903 236.35 371.46 239.658C371.456 239.694 371.446 239.733 371.44 239.771C371.87 238.844 373.159 236.291 373.28 236.107C374.989 233.502 379.821 229.474 383.185 230.402C385.608 231.07 386.645 233.726 385.773 235.973C384.882 238.269 382.209 239.702 379.972 240.338C377.449 241.057 371.823 240.208 371.374 240.139C370.924 243.285 370.205 246.477 369.302 249.667C368.787 251.491 368.212 253.312 367.611 255.131C368.008 254.341 368.369 253.638 368.431 253.546C370.139 250.942 374.972 246.914 378.335 247.841C380.758 248.509 381.795 251.164 380.924 253.412C380.034 255.709 377.359 257.142 375.121 257.779C372.851 258.425 368.04 257.798 366.769 257.615C366.531 258.311 366.301 259.008 366.061 259.702C364.91 263.034 363.745 266.355 362.704 269.647C362.335 270.806 362.016 271.962 361.692 273.118C362.046 272.417 362.35 271.83 362.405 271.745C364.114 269.141 368.947 265.113 372.311 266.04C374.734 266.708 375.772 269.364 374.9 271.613C374.01 273.908 371.335 275.342 369.097 275.978C366.93 276.595 362.484 276.056 360.973 275.846C360.677 277.038 360.378 278.233 360.145 279.402C360.004 280.205 359.812 280.967 359.715 281.78C359.603 282.583 359.491 283.378 359.381 284.166C359.224 285.691 359.051 287.263 358.934 288.754C358.845 289.791 358.781 290.78 358.712 291.777C359.065 290.617 359.802 288.364 359.886 288.182C360.746 286.3 362.876 283.594 365.224 282.105C365.35 281.827 365.499 281.56 365.675 281.308C367.058 279.333 369.842 278.719 371.745 280.361C374.386 282.641 373.726 288.898 372.511 291.766C372.44 291.935 371.457 293.683 370.819 294.777C371.292 294.191 371.744 293.617 372.239 293.02C373.208 291.833 374.209 290.678 375.282 289.429C375.822 288.845 376.367 288.256 376.918 287.659C377.451 287.056 378.09 286.488 378.68 285.893C380.076 284.544 381.556 283.245 383.075 281.969C382.039 281.118 378.397 278.043 377.351 275.953C376.308 273.872 375.558 270.933 376.65 268.726C377.718 266.564 380.377 265.535 382.506 266.87C385.462 268.723 385.758 275.008 384.991 278.027C384.943 278.215 384.15 280.32 383.693 281.468C384.613 280.709 385.526 279.945 386.482 279.208C389.24 277.076 392.097 275.004 394.938 272.924C395.809 272.288 396.668 271.643 397.532 271.001C397.16 270.702 392.754 267.141 391.582 264.8C390.539 262.721 389.789 259.78 390.881 257.573C391.949 255.412 394.608 254.383 396.737 255.718C399.693 257.571 399.989 263.855 399.222 266.875C399.164 267.103 398.018 270.129 397.69 270.885C399.59 269.47 401.472 268.043 403.269 266.56C405.752 264.517 408.075 262.377 410.172 260.135C409.999 259.996 405.383 256.3 404.182 253.903C403.139 251.823 402.389 248.884 403.481 246.675C404.549 244.514 407.208 243.485 409.337 244.82C412.293 246.673 412.588 252.957 411.822 255.977C411.772 256.175 410.901 258.484 410.462 259.571C410.554 259.629 410.537 259.619 410.63 259.677C412.848 257.249 414.69 254.618 416.293 252.071C417.224 250.597 418.033 249.136 418.786 247.698C417.856 247.098 413.636 244.307 412.316 242.269C411.052 240.316 409.984 237.476 410.825 235.162C411.65 232.896 414.18 231.581 416.442 232.675C419.584 234.192 420.567 240.405 420.138 243.491C420.115 243.659 419.689 245.338 419.362 246.557C419.692 245.903 420.045 245.233 420.348 244.599C421.496 242.224 422.4 239.978 423.185 237.983C423.622 236.845 423.995 235.807 424.333 234.833C423.728 233.767 421.342 229.444 421.114 227.071C420.891 224.755 421.253 221.743 423.066 220.077C424.843 218.446 427.693 218.445 429.198 220.457C431.286 223.252 429.296 229.219 427.494 231.76C427.338 231.979 424.507 235.133 424.475 235.077C424.475 235.077 424.445 235.026 424.438 235.013C424.131 235.957 423.79 236.967 423.398 238.061C422.655 240.078 421.797 242.35 420.697 244.76C419.603 247.17 418.348 249.759 416.778 252.366C415.21 254.981 413.425 257.652 411.231 260.166C411.207 260.195 411.177 260.221 411.152 260.25C412.022 259.714 414.506 258.296 414.708 258.209C417.57 256.98 423.823 256.287 426.117 258.915C427.769 260.808 427.169 263.596 425.202 264.99C423.193 266.414 420.173 266.134 417.954 265.431C415.453 264.637 411.228 260.826 410.893 260.521C408.782 262.896 406.422 265.163 403.908 267.324C402.472 268.562 400.987 269.764 399.482 270.95C400.25 270.51 400.939 270.123 401.041 270.08C403.904 268.85 410.157 268.157 412.45 270.786C414.102 272.68 413.502 275.468 411.535 276.862C409.526 278.286 406.505 278.005 404.287 277.302C402.037 276.588 398.37 273.412 397.411 272.557C396.829 273.007 396.254 273.461 395.67 273.908C392.871 276.052 390.067 278.179 387.383 280.349C386.436 281.113 385.532 281.901 384.624 282.687C385.306 282.297 385.883 281.975 385.977 281.934C388.839 280.705 395.093 280.012 397.385 282.64C399.037 284.533 398.438 287.321 396.47 288.715C394.461 290.138 391.44 289.859 389.222 289.156C387.075 288.475 383.664 285.572 382.519 284.563C381.615 285.395 380.706 286.226 379.867 287.073C379.307 287.665 378.727 288.194 378.197 288.82C377.66 289.427 377.128 290.029 376.601 290.625C375.628 291.81 374.617 293.027 373.698 294.206C373.052 295.022 372.452 295.811 371.845 296.604C372.778 295.832 374.637 294.359 374.806 294.253C377.449 292.604 383.525 290.971 386.19 293.223C388.111 294.845 387.94 297.691 386.206 299.366C384.435 301.078 381.408 301.258 379.108 300.9C376.577 300.504 371.996 297.52 371.427 297.144C370.426 298.461 369.466 299.75 368.58 300.981C365.496 305.243 363.091 308.909 361.445 311.494C361.386 311.587 361.335 311.669 361.278 311.758L359.144 310.722C359.254 310.555 359.361 310.393 359.48 310.215C361.202 307.635 363.71 303.987 366.918 299.752C367.928 298.412 369.034 297 370.183 295.56C369.887 295.236 368.215 293.385 366.871 291.46C364.42 292.42 359.317 292.458 358.657 292.459C358.55 294.108 358.461 295.713 358.4 297.229C358.18 302.484 358.196 306.87 358.249 309.934C358.251 310.059 358.254 310.171 358.257 310.292L355.911 309.154C355.934 306.109 356.026 301.99 356.337 297.122C356.439 295.447 356.583 293.659 356.747 291.824C356.096 291.661 350.79 290.298 348.786 288.697C346.969 287.245 345.056 284.89 345.122 282.428C345.186 280.018 347.17 277.97 349.662 278.29C353.122 278.734 356.023 284.317 356.593 287.379C356.626 287.559 356.772 289.561 356.843 290.824C356.914 290.076 356.975 289.347 357.058 288.576C357.211 287.052 357.409 285.534 357.616 283.901C357.744 283.117 357.872 282.324 358.003 281.523C358.116 280.726 358.335 279.899 358.498 279.078C358.919 277.183 359.436 275.283 360 273.379C358.665 273.241 353.933 272.685 351.907 271.52C349.89 270.36 347.643 268.322 347.336 265.879C347.034 263.487 348.684 261.162 351.197 261.1C354.685 261.015 358.398 266.094 359.425 269.034C359.49 269.218 359.989 271.41 360.241 272.621C360.589 271.479 360.929 270.339 361.32 269.196C362.443 265.898 363.684 262.593 364.906 259.291C365.281 258.28 365.643 257.267 366.009 256.256C365.534 256.213 359.893 255.672 357.625 254.367C355.608 253.208 353.361 251.169 353.054 248.726C352.752 246.334 354.402 244.007 356.915 243.947C360.403 243.863 364.116 248.941 365.143 251.882C365.22 252.103 365.935 255.259 366.078 256.071C366.882 253.843 367.664 251.615 368.345 249.386C369.289 246.314 370.045 243.245 370.559 240.221C370.337 240.201 364.449 239.664 362.124 238.327C360.107 237.167 357.86 235.129 357.553 232.686C357.251 230.294 358.901 227.969 361.414 227.908C364.902 227.823 368.615 232.901 369.642 235.842C369.71 236.034 370.256 238.438 370.49 239.589C370.6 239.585 370.58 239.586 370.689 239.583C371.2 236.336 371.284 233.125 371.216 230.116C371.181 228.373 371.048 226.708 370.884 225.093C369.777 225.105 364.717 225.106 362.492 224.134C360.361 223.203 357.903 221.424 357.328 219.029C356.766 216.684 358.15 214.192 360.641 213.855C364.098 213.387 368.346 218.027 369.69 220.838C369.763 220.99 370.334 222.627 370.734 223.824C370.648 223.096 370.573 222.343 370.478 221.646C370.124 219.032 369.64 216.66 369.194 214.563C368.93 213.373 368.669 212.302 368.413 211.301C367.32 210.746 362.945 208.457 361.445 206.603C359.982 204.794 358.622 202.083 359.216 199.693C359.797 197.351 362.174 195.777 364.54 196.625Z" fill="#BDB5D6"/>
<path d="M427.601 250.395C424.872 250.286 419.423 247.488 419.419 247.487C419.362 247.458 422.352 244.456 422.563 244.288C424.999 242.346 430.846 240.027 433.753 241.956C435.847 243.346 436.005 246.193 434.475 248.057C432.913 249.96 429.926 250.488 427.601 250.395Z" fill="#BDB5D6"/>
</g>
<path d="M395.77 318.654C395.77 318.654 379.233 278.78 369.971 280.514C360.71 282.247 385.848 344.081 385.848 344.081C385.848 344.081 356.742 289.182 336.897 289.182C317.053 289.182 344.174 349.861 369.311 370.086C369.311 370.086 329.62 327.322 306.468 336.569C283.315 345.815 352.773 389.156 352.773 389.156C352.773 389.156 312.422 376.443 317.053 386.267C321.683 396.091 334.252 397.825 334.252 397.825L288.608 400.136H447.37L411.649 396.669C411.649 396.669 448.692 378.177 438.77 370.664C428.848 363.152 407.017 379.333 407.017 379.333C407.017 379.333 444.723 337.725 437.446 322.122C430.169 306.519 397.756 350.438 397.756 350.438C397.756 350.438 424.216 294.383 418.924 284.56C413.631 274.734 395.77 318.654 395.77 318.654Z" fill="#BDB5D6"/>
<path opacity="0.4" d="M395.77 318.654C395.77 318.654 379.233 278.78 369.971 280.514C360.71 282.247 385.848 344.081 385.848 344.081C385.848 344.081 356.742 289.182 336.897 289.182C317.053 289.182 344.174 349.861 369.311 370.086C369.311 370.086 329.62 327.322 306.468 336.569C283.315 345.815 352.773 389.156 352.773 389.156C352.773 389.156 312.422 376.443 317.053 386.267C321.683 396.091 334.252 397.825 334.252 397.825L288.608 400.136H447.37L411.649 396.669C411.649 396.669 448.692 378.177 438.77 370.664C428.848 363.152 407.017 379.333 407.017 379.333C407.017 379.333 444.723 337.725 437.446 322.122C430.169 306.519 397.756 350.438 397.756 350.438C397.756 350.438 424.216 294.383 418.924 284.56C413.631 274.734 395.77 318.654 395.77 318.654Z" fill="#BDB5D6"/>
<path d="M401.062 320.756C386.51 363.754 386.51 394.184 386.51 394.184C386.51 394.184 403.709 394.845 421.57 381.615" stroke="#263238" stroke-miterlimit="10" stroke-linecap="round" stroke-linejoin="round"/>
<path d="M393.785 343.908C393.785 343.908 390.477 328.032 381.878 306.203" stroke="#263238" stroke-miterlimit="10" stroke-linecap="round" stroke-linejoin="round"/>
<path d="M350.787 318.771L387.831 373.676C387.831 373.676 412.967 352.508 421.567 340.601" stroke="#263238" stroke-miterlimit="10" stroke-linecap="round" stroke-linejoin="round"/>
<path d="M387.17 386.906C387.17 386.906 348.142 368.384 332.266 357.8" stroke="#263238" stroke-miterlimit="10" stroke-linecap="round" stroke-linejoin="round"/>
<path d="M352.144 400.134H233.281C228.417 400.134 224.474 396.191 224.474 391.327V99.6484C224.474 94.7846 228.416 90.8408 233.281 90.8408H352.143C357.007 90.8408 360.951 94.7835 360.951 99.6484V391.327C360.951 396.19 357.008 400.134 352.144 400.134Z" fill="white" stroke="#263238" stroke-miterlimit="10" stroke-linecap="round" stroke-linejoin="round"/>
<path d="M356.393 144.986C355.389 144.986 354.576 144.173 354.576 143.17V118.864C354.576 117.861 355.391 117.047 356.393 117.047C357.395 117.047 358.21 117.861 358.21 118.864V143.169C358.21 144.172 357.396 144.986 356.393 144.986Z" fill="#263238"/>
<path d="M356.393 167.503C355.389 167.503 354.576 166.69 354.576 165.686V152.104C354.576 151.101 355.391 150.287 356.393 150.287C357.395 150.287 358.21 151.101 358.21 152.104V165.686C358.21 166.69 357.396 167.503 356.393 167.503Z" fill="#263238"/>
<path d="M341.848 400.134H222.985C218.122 400.134 214.178 396.191 214.178 391.327V99.6484C214.178 94.7846 218.12 90.8408 222.985 90.8408H341.847C346.711 90.8408 350.655 94.7835 350.655 99.6484V391.327C350.655 396.19 346.712 400.134 341.848 400.134Z" fill="#263238" stroke="#263238" stroke-miterlimit="10" stroke-linecap="round" stroke-linejoin="round"/>
<path d="M341.568 111.433H223.265V376.714H341.568V111.433Z" fill="#C7EAFF"/>
<path d="M264.852 102.953H296.347" stroke="white" stroke-width="3" stroke-miterlimit="10" stroke-linecap="round" stroke-linejoin="round"/>
<path d="M278.177 386.103C278.177 388.276 276.821 390.04 275.149 390.04C273.477 390.04 272.121 388.278 272.121 386.103C272.121 383.929 273.477 382.166 275.149 382.166C276.821 382.166 278.177 383.929 278.177 386.103Z" fill="white"/>
<path d="M282.417 177.451C293.748 177.451 302.933 166.74 302.933 153.527C302.933 140.314 293.748 129.603 282.417 129.603C271.086 129.603 261.9 140.314 261.9 153.527C261.9 166.74 271.086 177.451 282.417 177.451Z" fill="white"/>
<path d="M282.417 153.224C286.719 153.224 290.207 149.157 290.207 144.139C290.207 139.122 286.719 135.055 282.417 135.055C278.114 135.055 274.626 139.122 274.626 144.139C274.626 149.157 278.114 153.224 282.417 153.224Z" fill="#FF385C" stroke="#263238" stroke-miterlimit="10" stroke-linecap="round" stroke-linejoin="round"/>
<path d="M282.417 155.647C274.599 155.647 268.263 161.612 268.263 168.971C268.263 169.666 268.336 170.345 268.446 171.012C272.111 174.995 277.012 177.45 282.417 177.45C287.821 177.45 292.723 174.995 296.388 171.012C296.497 170.345 296.571 169.667 296.571 168.971C296.571 161.613 290.233 155.647 282.417 155.647Z" fill="#FF385C" stroke="#263238" stroke-miterlimit="10" stroke-linecap="round" stroke-linejoin="round"/>
<path d="M307.361 257.692H257.473C254.836 257.692 252.696 255.375 252.696 252.518V221.75C252.696 204.002 266.028 189.564 282.416 189.564C298.805 189.564 312.137 204.003 312.137 221.75V252.518C312.137 255.375 309.998 257.692 307.361 257.692ZM262.249 247.345H302.584V221.75C302.584 209.708 293.537 199.909 282.416 199.909C271.296 199.909 262.249 209.706 262.249 221.75V247.345Z" fill="#263238"/>
<path d="M317.046 236.695H247.787V302.218H317.046V236.695Z" fill="white"/>
<path d="M292.509 281.815L287.373 269.456C289.551 267.853 290.982 265.15 290.982 262.083C290.982 257.162 287.298 253.174 282.756 253.174C278.214 253.174 274.53 257.162 274.53 262.083C274.53 265.15 275.962 267.853 278.139 269.456L273.003 281.815H292.509Z" fill="#FF385C"/>
<path d="M261.319 361.11C261.427 361.189 261.552 361.227 261.677 361.227C261.863 361.227 262.047 361.141 262.166 360.98L341.568 252.965V250.919L261.189 360.263C260.992 360.532 261.05 360.912 261.319 361.11Z" fill="white"/>
<path d="M252.1 374.258C252.286 374.258 252.47 374.172 252.589 374.011L258.111 366.499C258.308 366.23 258.25 365.851 257.981 365.653C257.715 365.456 257.335 365.513 257.134 365.783L251.612 373.294C251.415 373.564 251.473 373.943 251.742 374.141C251.849 374.22 251.975 374.258 252.1 374.258Z" fill="white"/>
<path d="M341.568 274.59L276.384 363.263C276.186 363.533 276.244 363.911 276.514 364.109C276.622 364.188 276.748 364.226 276.873 364.226C277.058 364.226 277.242 364.141 277.361 363.979L341.568 276.635V274.59Z" fill="white"/>
<path d="M149.785 335.993L151.128 334.454L152.421 335.582L162.949 323.513L161.656 322.385L148.94 311.293L147.647 310.165L137.119 322.234L138.412 323.362L137.069 324.901L135.774 323.771L133.33 326.573L138.295 330.904L139.116 329.963L144.492 334.652L143.671 335.594L148.637 339.925L151.081 337.123L149.785 335.993Z" fill="#FF385C" stroke="#263238" stroke-miterlimit="10" stroke-linecap="round" stroke-linejoin="round"/>
<path d="M166.632 329.856L77.8898 252.445L82.5898 247.057L171.332 324.468C172.075 325.115 172.151 326.243 171.504 326.985L169.149 329.684C168.501 330.427 167.375 330.504 166.632 329.856Z" fill="#FF385C" stroke="#263238" stroke-miterlimit="10" stroke-linecap="round" stroke-linejoin="round"/>
<path d="M140.886 308.821L135.477 304.103C135.066 303.745 135.024 303.121 135.382 302.71L140.194 297.194C140.552 296.784 141.176 296.741 141.587 297.099L146.995 301.817C147.406 302.175 147.448 302.799 147.09 303.21L142.278 308.726C141.921 309.137 141.297 309.18 140.886 308.821Z" fill="#FF385C" stroke="#263238" stroke-miterlimit="10" stroke-linecap="round" stroke-linejoin="round"/>
<path d="M81.0539 254.448C88.9648 247.903 90.0721 236.185 83.5271 228.274C76.9821 220.363 65.2633 219.255 57.3523 225.8C49.4414 232.345 48.3341 244.064 54.8791 251.975C61.4241 259.886 73.1429 260.993 81.0539 254.448Z" fill="#FF385C" stroke="#263238" stroke-miterlimit="10" stroke-linecap="round" stroke-linejoin="round"/>
<path d="M72.0735 242.628C74.4917 243.209 76.9962 242.592 78.5883 240.767C80.9889 238.015 80.4026 233.574 77.2782 230.849C74.1539 228.123 69.6747 228.145 67.274 230.897C65.6825 232.722 65.411 235.288 66.3146 237.605C63.8965 237.024 61.392 237.641 59.7999 239.466C57.3992 242.218 57.9856 246.659 61.1099 249.384C64.2343 252.109 68.7135 252.087 71.1141 249.335C72.7056 247.511 72.9765 244.946 72.0735 242.628Z" fill="white" stroke="#263238" stroke-miterlimit="10" stroke-linecap="round" stroke-linejoin="round"/>
</svg>
