<svg width="20" height="20" viewBox="0 0 20 20" fill="none" xmlns="http://www.w3.org/2000/svg">
<path d="M10 3.75C10 3.21957 9.78929 2.71086 9.41421 2.33579C9.03914 1.96071 8.53043 1.75 8 1.75C7.46957 1.75 6.96086 1.96071 6.58579 2.33579C6.21071 2.71086 6 3.21957 6 3.75C6 4.28043 6.21071 4.78914 6.58579 5.16421C6.96086 5.53929 7.46957 5.75 8 5.75C8.53043 5.75 9.03914 5.53929 9.41421 5.16421C9.78929 4.78914 10 4.28043 10 3.75ZM17.25 4.5C17.4489 4.5 17.6397 4.42098 17.7803 4.28033C17.921 4.13968 18 3.94891 18 3.75C18 3.55109 17.921 3.36032 17.7803 3.21967C17.6397 3.07902 17.4489 3 17.25 3H11.75C11.5511 3 11.3603 3.07902 11.2197 3.21967C11.079 3.36032 11 3.55109 11 3.75C11 3.94891 11.079 4.13968 11.2197 4.28033C11.3603 4.42098 11.5511 4.5 11.75 4.5H17.25ZM5 3.75C5 3.94891 4.92098 4.13968 4.78033 4.28033C4.63968 4.42098 4.44891 4.5 4.25 4.5H2.75C2.55109 4.5 2.36032 4.42098 2.21967 4.28033C2.07902 4.13968 2 3.94891 2 3.75C2 3.55109 2.07902 3.36032 2.21967 3.21967C2.36032 3.07902 2.55109 3 2.75 3H4.25C4.44891 3 4.63968 3.07902 4.78033 3.21967C4.92098 3.36032 5 3.55109 5 3.75ZM4.25 17C4.44891 17 4.63968 16.921 4.78033 16.7803C4.92098 16.6397 5 16.4489 5 16.25C5 16.0511 4.92098 15.8603 4.78033 15.7197C4.63968 15.579 4.44891 15.5 4.25 15.5H2.75C2.55109 15.5 2.36032 15.579 2.21967 15.7197C2.07902 15.8603 2 16.0511 2 16.25C2 16.4489 2.07902 16.6397 2.21967 16.7803C2.36032 16.921 2.55109 17 2.75 17H4.25ZM17.25 17C17.4489 17 17.6397 16.921 17.7803 16.7803C17.921 16.6397 18 16.4489 18 16.25C18 16.0511 17.921 15.8603 17.7803 15.7197C17.6397 15.579 17.4489 15.5 17.25 15.5H11.75C11.5511 15.5 11.3603 15.579 11.2197 15.7197C11.079 15.8603 11 16.0511 11 16.25C11 16.4489 11.079 16.6397 11.2197 16.7803C11.3603 16.921 11.5511 17 11.75 17H17.25ZM9 10C9 10.1989 8.92098 10.3897 8.78033 10.5303C8.63968 10.671 8.44891 10.75 8.25 10.75H2.75C2.55109 10.75 2.36032 10.671 2.21967 10.5303C2.07902 10.3897 2 10.1989 2 10C2 9.80109 2.07902 9.61032 2.21967 9.46967C2.36032 9.32902 2.55109 9.25 2.75 9.25H8.25C8.44891 9.25 8.63968 9.32902 8.78033 9.46967C8.92098 9.61032 9 9.80109 9 10ZM17.25 10.75C17.4489 10.75 17.6397 10.671 17.7803 10.5303C17.921 10.3897 18 10.1989 18 10C18 9.80109 17.921 9.61032 17.7803 9.46967C17.6397 9.32902 17.4489 9.25 17.25 9.25H15.75C15.5511 9.25 15.3603 9.32902 15.2197 9.46967C15.079 9.61032 15 9.80109 15 10C15 10.1989 15.079 10.3897 15.2197 10.5303C15.3603 10.671 15.5511 10.75 15.75 10.75H17.25ZM14 10C14 9.46957 13.7893 8.96086 13.4142 8.58579C13.0391 8.21071 12.5304 8 12 8C11.4696 8 10.9609 8.21071 10.5858 8.58579C10.2107 8.96086 10 9.46957 10 10C10 10.5304 10.2107 11.0391 10.5858 11.4142C10.9609 11.7893 11.4696 12 12 12C12.5304 12 13.0391 11.7893 13.4142 11.4142C13.7893 11.0391 14 10.5304 14 10ZM10 16.25C10 15.7196 9.78929 15.2109 9.41421 14.8358C9.03914 14.4607 8.53043 14.25 8 14.25C7.46957 14.25 6.96086 14.4607 6.58579 14.8358C6.21071 15.2109 6 15.7196 6 16.25C6 16.7804 6.21071 17.2891 6.58579 17.6642C6.96086 18.0393 7.46957 18.25 8 18.25C8.53043 18.25 9.03914 18.0393 9.41421 17.6642C9.78929 17.2891 10 16.7804 10 16.25Z" fill="current"/>
</svg>
