<svg width="492" height="415" viewBox="0 0 492 415" fill="none" xmlns="http://www.w3.org/2000/svg">
<path d="M208.403 308.705C192.118 308.192 175.797 309.33 159.561 307.75C153.282 307.068 146.139 308.976 140.456 305.672C134.525 305.807 137.016 292.622 136.983 288.711C137.586 278.61 138.494 268.522 140.088 258.526V258.527C140.099 258.456 140.109 258.384 140.12 258.311C140.117 258.328 140.115 258.345 140.112 258.36C140.153 258.077 140.195 257.795 140.239 257.511C140.239 257.502 140.239 257.494 140.242 257.484C140.241 257.487 140.241 257.491 140.241 257.494C140.248 257.437 140.258 257.378 140.266 257.32C140.266 257.321 140.266 257.321 140.266 257.323C140.875 250.712 142.649 244.352 144.079 237.896C145.022 231.305 146.844 224.902 147.862 218.334C148.446 210.64 151.327 203.446 153.928 196.258C156.336 189.82 158.285 183.149 162.283 177.462C165.295 172.199 168.629 166.999 173.082 162.831C173.004 162.908 172.928 162.983 172.851 163.059C179.441 155.56 187.424 149.416 195.975 144.291C199.569 142.448 205.24 135.872 205.994 143.825C206.834 158.368 210.539 172.639 210.648 187.262C213.101 186.128 215.546 184.964 217.762 183.402C219.535 181.958 221.52 184.019 220.778 185.948C220.495 195.693 221.482 205.585 221.254 215.393C221.635 226.405 221.583 237.448 222.499 248.436C223.779 258.428 225.491 268.351 226.841 278.333C226.923 278.603 226.949 278.889 226.924 279.169C235.401 277.844 243.936 277.847 252.493 277.824C254.887 278.13 263.783 276.684 264.145 279.33C264.192 279.302 264.24 279.274 264.287 279.247C264.277 278.921 264.343 278.598 264.468 278.304C257.154 272.214 256.105 265.512 256.138 256.451C256.016 249.898 255.702 243.35 255.638 236.796C255.462 215.537 256.087 194.205 259.621 173.203C259.607 173.293 259.594 173.385 259.58 173.477C260.523 164.173 263.39 155.213 264.34 145.91C264.426 141.221 264.443 134.412 270.913 138.799C272.664 139.777 274.85 139.454 276.676 140.414C296.843 147.736 303.505 163.863 312.064 181.795C318.146 195.991 327.236 208.835 331.063 223.977C331.617 223.269 332.163 222.558 332.713 221.849C332.673 221.901 332.631 221.954 332.591 222.007C340.842 210.449 348.643 198.534 357.972 187.797C359.517 185.779 361.292 183.96 362.948 182.034C364.523 179.732 366.326 180.753 367.788 182.531C367.728 182.476 367.668 182.42 367.608 182.364C371.919 186.371 377.308 189.233 380.808 194.099C383.759 196.963 381.295 199.8 379.239 202.253C375.865 206.943 373.356 212.143 369.887 216.773C369.89 216.767 369.894 216.76 369.897 216.755C362.513 228.382 353.568 238.904 345.938 250.384C343.103 254.653 339.65 258.452 336.724 262.653C332.556 267.604 328.333 276.665 320.553 274.561C312.276 271.675 310.405 262.406 306.743 255.438C302.32 245.855 298.611 235.928 292.936 226.979C292.937 226.982 292.939 226.983 292.939 226.986C292.842 226.817 292.749 226.649 292.657 226.479C290.813 229.8 287.34 231.989 285.65 235.404C285.691 242.831 286.174 250.271 285.968 257.707C285.97 257.615 285.971 257.524 285.973 257.433C285.449 264.157 286.154 271.163 284.865 277.736C283.988 279.01 282.226 278.431 280.916 278.644C275.686 279.466 270.368 279.998 265.196 281.034C265.058 282.225 264.754 283.394 264.609 284.588C264.62 284.514 264.631 284.44 264.642 284.366C263.597 288.312 265.483 306.948 259.689 306.166C251.862 306.004 244.131 307.345 236.338 307.814C227.035 308.364 217.716 308.514 208.403 308.705ZM186.359 230.687C183.256 246.122 182.325 261.914 179.32 277.334C183.43 277.352 187.527 276.47 191.568 275.804C191.423 266.885 189.476 258.166 188.547 249.326C188.555 249.403 188.563 249.478 188.573 249.554C187.697 242.4 187.504 235.198 186.855 228.017C186.692 228.906 186.525 229.796 186.359 230.687Z" fill="#FF8FA3"/>
<path d="M326.334 302.228C325.477 302.354 324.748 301.546 325.103 300.718C325.516 299.876 326.484 299.493 327.153 298.872C327.143 298.88 327.133 298.887 327.124 298.895C338.606 289.78 348.847 278.993 361.436 271.283C361.45 270.849 361.983 270.797 362.315 270.722C363.238 270.121 364.44 269.483 365.513 270.084C372.723 268.849 380.035 268.45 387.325 268.081C397.159 267.211 406.976 266.133 416.799 265.164C419.573 264.673 422.368 264.417 425.16 264.06C426.399 263.633 427.805 264.025 427.162 265.604C425.825 266.797 424.036 267.607 422.692 268.918C418.387 276.808 410.018 281.681 403.975 288.202C401.242 291.031 398.66 293.999 396.008 296.904C394.779 297.99 393.932 299.786 392.328 300.316C391.414 300.459 390.833 299.398 391.109 298.602C384.57 298.209 378.069 298.359 371.533 298.863C371.574 298.86 371.612 298.857 371.652 298.853C371.589 298.857 371.528 298.864 371.465 298.867C371.468 298.867 371.469 298.867 371.472 298.867C359.571 299.703 347.673 300.013 335.803 301.344C335.805 301.344 335.808 301.343 335.811 301.343C335.57 301.361 335.33 301.379 335.089 301.396C335.138 301.393 335.185 301.389 335.234 301.386C332.254 301.519 329.307 302.081 326.334 302.228Z" fill="#683DE4"/>
<path d="M363.159 272.853C359.007 266.127 396.282 266.793 400.541 266.082C405.904 265.901 411.233 265.295 416.595 265.094C417.256 265.073 417.653 265.754 417.604 266.346C417.173 268.459 414.121 267.456 412.547 267.86C412.579 267.858 412.61 267.856 412.642 267.853C412.019 267.902 411.397 267.959 410.773 268.005C410.829 268.001 410.883 267.997 410.939 267.993C406.877 268.422 402.801 268.637 398.728 268.925C398.747 268.923 398.766 268.922 398.785 268.92C398.726 268.925 398.667 268.93 398.608 268.934C398.618 268.933 398.628 268.932 398.638 268.932C387.006 269.75 375.232 269.968 363.685 271.391C363.588 271.661 363.451 272.066 363.634 272.313C363.933 272.599 363.45 273.184 363.159 272.853Z" fill="#683DE4"/>
<path d="M253.238 104.391C251.827 104.215 251.244 102.892 250.595 101.811C249.476 101.298 250.772 99.6447 251.506 101.088C252.349 103.187 255.515 104.054 256.945 102.12C258.372 99.6357 258.62 105.233 253.238 104.391Z" fill="#231F20"/>
<path d="M238.056 86.5126C236.403 86.6026 229.736 83.279 231.443 81.3224C231.412 81.0676 231.666 80.781 231.927 80.8836C234.527 78.9923 237.627 78.0072 240.848 78.4611C243.123 78.5882 245.176 79.596 247.188 80.5773C248.581 81.2571 247.618 83.1015 246.681 83.7641C246.706 83.7446 246.733 83.7251 246.759 83.7055C244.211 85.5007 241.2 86.6755 238.056 86.5126ZM238.771 84.8868C241.468 84.7955 244.758 84.0107 246.552 81.9109C244.508 80.8965 242.448 79.7986 240.111 79.7348C240.14 79.7374 240.168 79.7403 240.196 79.7432C238.724 79.6354 237.237 79.6779 235.803 80.0467C235.828 80.0412 235.853 80.0356 235.878 80.0301C234.69 80.3394 233.602 80.9323 232.492 81.4425C233.654 82.9633 235.373 84.1822 237.227 84.6853C237.22 84.6833 237.212 84.6812 237.205 84.6789C237.72 84.799 238.241 84.9179 238.771 84.8868Z" fill="#231F20"/>
<path d="M240.549 84.2352C238.401 83.0456 239.978 79.176 242.312 79.8453C245.079 81.2483 243.613 85.7275 240.549 84.2352ZM241.454 82.5392C241.55 82.4549 241.643 82.3608 241.699 82.2456C241.658 82.2573 241.619 82.2739 241.581 82.2937C241.56 82.3844 241.51 82.4678 241.437 82.5264C241.442 82.5304 241.449 82.5348 241.454 82.5392Z" fill="#231F20"/>
<path d="M265.749 84.7261C264.294 84.6719 262.697 84.4739 261.631 83.3769C261.189 82.7755 260.484 82.3552 260.148 81.6966C259.913 81.0311 260.523 80.1417 261.261 80.3434C262.063 78.8264 263.878 78.38 265.416 77.9804C265.39 77.9859 265.363 77.9929 265.337 77.9984C268.011 77.3437 272.903 77.1312 274.112 80.0227C272.612 83.1248 269.225 85.1671 265.749 84.7261ZM265.973 82.9496C268.693 83.2178 271.079 82.2493 272.816 80.1195C270.379 78.5955 267.445 78.8083 264.743 79.4024C264.749 79.4009 264.755 79.3995 264.761 79.398C264.735 79.4047 264.709 79.4103 264.683 79.4161C264.697 79.4132 264.711 79.41 264.725 79.4068C263.715 79.6936 262.514 79.907 261.914 80.8626C262.826 82.2945 264.256 83.0816 265.973 82.9496Z" fill="#231F20"/>
<path d="M268.61 83.3998C265.532 83.2479 265.612 79.4107 268.77 79.6238C271.404 79.6217 271.102 83.4852 268.61 83.3998ZM268.818 81.7294C268.821 81.7291 268.823 81.7288 268.826 81.7285C268.808 81.6912 268.795 81.6516 268.786 81.6105C268.667 81.5936 268.548 81.5703 268.427 81.5726C268.417 81.6055 268.405 81.6382 268.392 81.6702C268.534 81.6956 268.674 81.7347 268.818 81.7294Z" fill="#231F20"/>
<path d="M260.357 82.042C259.059 81.447 262.754 78.029 263.185 79.6472C263.229 80.6868 261.698 80.5932 261.195 81.3605C261.308 81.838 260.751 82.0703 260.357 82.042Z" fill="#231F20"/>
<path d="M228.074 78.5608C227.622 77.023 229.809 77.2857 230.669 76.7493C234.534 74.7807 238.896 74.7221 243.135 74.7879C245.374 75.0092 248.635 74.3594 250.131 76.3636C250.395 77.3259 249.347 77.8792 248.588 77.3049C243.558 76.763 238.256 77.0568 233.225 77.7037C231.832 77.8457 229.154 79.5178 228.074 78.5608Z" fill="#231F20"/>
<path d="M259.812 76.9765C255.911 73.1366 274.538 73.2168 274.705 75.8276C274.419 77.1006 272.881 75.9182 272.086 75.8311C268.187 75.1932 264.163 75.9599 260.427 77.0695C260.442 77.0662 260.456 77.0627 260.47 77.0595C260.244 77.1071 260.021 77.0936 259.812 76.9765Z" fill="#231F20"/>
<path d="M229.676 85.1595C229.549 84.2961 230.62 84.3074 231.177 84.0317C231.173 84.0331 231.17 84.0346 231.167 84.0357C231.451 83.922 231.729 83.799 231.996 83.6495C231.992 83.6515 231.989 83.6536 231.986 83.6553C232.03 83.6302 232.074 83.6057 232.118 83.5804C232.097 83.5915 232.077 83.6025 232.058 83.6139C233.82 82.2062 234.359 84.1203 233.164 84.0506C232.307 84.4106 230.331 86.4335 229.676 85.1595Z" fill="#231F20"/>
<path d="M231.67 86.5226C231.251 85.6078 232.682 85.435 233.147 84.9239C233.143 84.9269 233.139 84.9295 233.136 84.9327C233.151 84.9204 233.167 84.9085 233.183 84.8965C233.174 84.9029 233.166 84.9094 233.158 84.9155C233.529 84.6508 234.729 83.343 234.599 84.5222C234.011 85.1 232.511 87.1704 231.67 86.5226Z" fill="#231F20"/>
<path d="M234.101 87.5112C233.946 87.1853 234.097 86.8087 234.388 86.6247C234.387 86.6256 234.386 86.6262 234.384 86.6271C234.851 86.3755 235.145 85.9023 235.225 85.3852C235.221 85.4103 235.217 85.4353 235.214 85.4619C235.101 84.8975 235.891 84.3908 236.145 85.0497C236.334 85.9758 235.169 88.5432 234.101 87.5112Z" fill="#231F20"/>
<path d="M270.185 86.1774C269.863 85.6165 268.852 84.7338 269.412 84.1056C270.008 83.9126 270.396 85.0685 270.894 85.3737C271.315 85.804 270.657 86.654 270.185 86.1774Z" fill="#231F20"/>
<path d="M272.426 85.171C271.799 84.676 269.866 83.7746 270.745 82.8569C271.516 82.6459 272.152 83.742 272.916 83.9443C272.91 83.9414 272.903 83.9385 272.897 83.9356C273.568 84.2274 273.116 85.4147 272.426 85.171Z" fill="#231F20"/>
<path d="M273.247 83.4955C272.665 83.0775 271.567 81.0812 273.054 81.4628C273.036 81.4502 273.018 81.4377 273 81.4266C273.128 81.4916 273.203 81.6132 273.226 81.7461C273.459 82.0295 273.768 82.2283 274.065 82.4388C274.704 82.9244 273.873 84.1138 273.247 83.4955Z" fill="#231F20"/>
<path d="M396.077 201.87C393.979 201.558 391.888 200.926 389.793 200.694C387.643 200.14 382.551 200.828 381.945 198.188C383.231 188.461 386.396 179.358 389.731 170.138C386.506 170.224 391.098 165.409 391.772 164.378C393.813 161.765 399.633 161.136 399.075 156.869L399.072 156.87C397.243 156.013 391.786 159.012 389.746 159.999C385.324 162.355 381.419 164.698 377.897 168.49L377.936 168.446C376.384 170.021 374.871 171.606 373.293 173.174L373.315 173.147C373.307 173.155 373.299 173.163 373.29 173.172C373.3 173.16 373.312 173.151 373.321 173.14C370.917 175.458 368.668 177.937 366.441 180.442C365.417 181.249 364.87 182.866 363.621 183.284C359.499 182.467 376.518 166.092 378.306 164.683C380.572 162.668 383.548 160.901 386.104 159.218C387.92 157.901 389.736 156.938 391.907 155.939C392.423 155.693 392.946 155.451 393.468 155.217C393.913 154.977 394.447 154.557 394.935 154.889C394.958 154.88 395.004 154.862 395.027 154.853C396.066 149.286 398.295 143.653 399.448 138.169C400.182 136.174 400.223 132.248 401.637 130.9C402.467 130.401 403.59 130.704 404.516 130.745C404.62 129.873 404.813 129.009 404.981 128.147H404.977C405.641 124.859 406.485 121.785 407.115 118.403C407.997 116.107 412.215 117.203 413.9 118.145C415.73 120.456 412.057 128.737 411.883 131.99C416.172 132.615 414.929 135.267 414.192 138.429C412.89 143.15 412.06 148.562 410.549 153.363C416.393 152.022 415.664 156.568 412.394 159.523C417.849 159.567 415.884 164.4 412.634 166.351C415.577 168.355 412.429 171.34 410.53 172.654C409.389 173.486 406.418 176.316 406.444 173.169C407.536 171.117 410.426 170.464 411.831 168.584C406.096 165.226 413.008 165.409 414.125 162.093H414.121L414.118 162.05L414.116 162.051C412.953 161.149 411.082 162.026 409.852 161.347C408.304 159.234 412.887 157.354 413.214 155.299C412.296 154.665 411.071 154.874 410.043 155.166C408.873 159.882 408.232 164.721 406.881 169.381C404.82 176.566 402.607 183.684 400.756 190.935L400.769 190.881C400.721 191.061 400.618 191.433 400.564 191.615L400.58 191.556C400.163 193.159 399.638 194.778 399.112 196.399C398.495 198.318 398.687 202.179 396.077 201.87Z" fill="#231F20"/>
<path d="M415.604 120.918C413.528 120.674 411.443 120.781 409.361 120.718C409.46 120.726 409.557 120.736 409.656 120.744C407.877 120.421 404.97 120.089 404.662 117.906C395.524 115.462 386.998 109.759 381.403 102.107C375.504 94.091 370.519 85.2078 368.153 75.4781C368.174 75.5604 368.193 75.6426 368.214 75.7233C355.175 25.5727 408.41 -14.6028 454.328 5.12013C454.305 5.10993 454.283 5.09972 454.26 5.08952C468.079 10.8674 479.076 22.4482 485.131 36.0461C487.74 41.3689 490.178 46.9406 490.737 52.9016C493.448 77.0188 478.657 101.008 458.192 113.021C445.405 120.717 430.194 122.024 415.604 120.918ZM425.849 117.002C441.977 118.096 458.133 111.562 469.461 100.116C469.449 100.127 469.438 100.139 469.426 100.151C475.783 93.9397 480.568 86.32 484.062 78.1826C484.027 78.2648 483.991 78.3481 483.956 78.4304C486.126 72.9898 487.529 67.1702 487.85 61.3142C487.849 61.3501 487.848 61.3862 487.848 61.4218C487.849 61.3364 487.851 61.2509 487.853 61.1655C487.852 61.1947 487.851 61.2238 487.851 61.2533C487.857 60.939 487.863 60.6251 487.87 60.3108C487.868 60.3569 487.867 60.4026 487.866 60.4487C488.255 52.0944 485.912 44.0132 481.969 36.7014C479.301 30.8824 475.887 25.4555 471.365 20.8915C451.527 -1.62646 414.737 -1.93838 391.876 16.1718C371.003 31.471 363.03 61.9491 375.559 84.9466C383.022 99.9373 389.971 108.608 405.645 115.431C407.159 114.125 408.859 115.71 410.379 116.165C415.531 116.586 420.668 117.145 425.849 117.002Z" fill="#231F20"/>
<path d="M419.138 111.881C417.621 111.756 405.864 110.316 406.349 108.889C395.009 104.997 388.017 94.739 383.482 84.1496C379.69 75.0816 376.59 65.3727 377.337 55.4415C377.337 55.4544 377.337 55.4672 377.337 55.4803C377.871 34.4558 394.932 16.7598 414.242 10.465C432.392 4.53995 455.008 11.4606 466.91 26.3758C466.902 26.365 466.894 26.3542 466.886 26.3431C473.782 34.4957 477.953 45.2183 477.618 55.9508C477.618 55.9173 477.619 55.8841 477.619 55.8505C477.616 56.0216 477.614 56.1931 477.609 56.3642C477.611 56.3307 477.611 56.2974 477.612 56.2639C477.412 62.0998 476.507 68.0106 474.333 73.4547C474.336 73.4492 474.338 73.4439 474.341 73.4384C474.326 73.4722 474.312 73.506 474.297 73.5401C474.302 73.5299 474.306 73.5197 474.31 73.5095C474.283 73.5727 474.256 73.6357 474.23 73.699C474.233 73.692 474.236 73.685 474.239 73.678C474.224 73.7118 474.21 73.7456 474.196 73.7797C474.197 73.7751 474.2 73.7707 474.201 73.766C469.243 85.6314 462.424 98.1512 450.461 104.095C440.662 108.531 430.035 112.32 419.138 111.881ZM420.036 110.17C423.986 110.176 427.964 109.962 431.808 108.996C431.784 109.002 431.759 109.007 431.734 109.013C436.657 107.835 441.453 106.23 446.23 104.569C446.202 104.58 446.173 104.591 446.145 104.602C446.332 104.531 446.51 104.455 446.699 104.384C446.683 104.39 446.668 104.396 446.652 104.402C446.73 104.372 446.808 104.341 446.886 104.31C446.872 104.315 446.859 104.32 446.846 104.325C448.68 103.571 450.468 102.705 452.205 101.749C452.2 101.752 452.195 101.755 452.19 101.758C464.429 94.3929 473.076 77.1514 475.692 63.4279C475.687 63.4626 475.682 63.4962 475.678 63.5308C476.053 61.0051 476.333 58.4608 476.352 55.905C476.352 55.9386 476.35 55.9718 476.35 56.0053C476.612 46.6392 473.247 37.1806 467.556 29.7825C467.558 29.7848 467.56 29.7868 467.562 29.7892C467.54 29.762 467.519 29.7344 467.498 29.707C467.504 29.7154 467.51 29.7239 467.517 29.7323C458.557 17.407 443.711 10.8592 428.756 9.95956C428.788 9.96364 428.82 9.96655 428.853 9.96918C426.873 9.83858 424.884 9.76861 422.904 9.91962C422.907 9.91933 422.91 9.91933 422.914 9.91904C418.847 10.263 414.908 11.4883 411.099 12.9042C411.116 12.8972 411.135 12.8896 411.153 12.8823C406.304 14.7985 401.774 17.5571 397.566 20.6189C397.572 20.6142 397.579 20.6099 397.585 20.6052C391.862 24.9552 387.275 30.7016 383.571 36.8261C383.572 36.8238 383.573 36.8211 383.575 36.8188C380.572 42.6308 378.615 49.1695 378.517 55.7363C378.518 55.7056 378.518 55.6736 378.519 55.643C377.782 64.5031 380.553 73.0466 383.588 81.2633C383.588 81.2612 383.587 81.2595 383.586 81.2574C384.976 84.4869 386.451 87.6907 388.116 90.7886C388.11 90.779 388.105 90.7697 388.099 90.76C388.114 90.7848 388.128 90.8102 388.142 90.8352C388.134 90.8218 388.127 90.8084 388.119 90.7947C392.452 97.9719 396.984 103.377 404.92 106.658C405.966 107.363 409.649 107.716 409.684 108.935C413.117 109.453 416.564 110.028 420.036 110.17Z" fill="#231F20"/>
<path d="M295.205 306.429C292.913 306.19 291.103 304.461 289.009 303.608C284.035 302.664 278.831 303.831 273.791 303.878C273.794 303.878 273.797 303.877 273.799 303.877C272.217 303.998 270.641 304.182 269.059 304.299C269.118 304.294 269.177 304.29 269.235 304.286C269.068 304.299 268.9 304.311 268.733 304.324C268.792 304.32 268.851 304.315 268.91 304.311C266.96 304.311 259.56 306.376 262.116 302.206C262.381 301.975 262.796 301.795 263.154 301.887C265.537 302.196 267.931 301.466 270.327 301.466C270.269 301.471 270.21 301.475 270.152 301.479C276.414 301.059 282.789 300.649 289.04 301.249C291.597 301.833 293.493 304.744 296.185 304.519C296.752 302.562 292.205 299.056 291.733 297.075C292.146 293.019 299.679 300.324 301.715 300.663C301.678 300.647 301.642 300.63 301.606 300.613C302.662 300.989 304.096 301.773 305.092 300.911C303.911 299.002 302.26 297.256 300.508 295.847C299.5 295.109 298.097 294.626 297.542 293.437C297.173 288.095 309.147 297.934 311.714 297.467C309.956 293.733 305.401 292.445 302.874 289.526C302.535 284.341 314.811 293.76 317.738 292.289C315.572 287.923 310.959 284.773 306.658 282.641C306.705 282.663 306.754 282.684 306.801 282.706C292.392 276.319 276.591 281.995 261.663 281.303C261.46 281.547 261.1 281.511 260.854 281.348C253.584 281.411 246.213 280.871 238.947 281.492C234.59 281.963 230.054 281.667 225.752 280.862C224.059 280.79 224.715 278.753 224.3 277.615C221.563 258.659 221.158 239.43 219.84 220.333C219.397 208.675 217.595 197.139 216.627 185.533C214.062 187.037 207.817 193.217 208.107 186.463C208.108 182.301 207.826 178.145 207.429 174.002C206.148 163.837 203.031 153.916 203.343 143.583C175.896 153.865 161.306 178.045 152.402 204.655C151.587 207.091 150.803 209.544 150.232 212.052C150.005 215.972 146.798 215.928 143.827 214.798C134.462 211.371 133.31 201.479 137.508 193.43C139.068 190.464 141.305 187.898 142.796 184.89C143.601 182.986 142.905 180.897 143.098 178.91C143.645 176.294 144.049 173.148 146.129 171.283C148.831 162.494 162.54 161.783 160.701 152.97C160.708 153.025 160.714 153.081 160.721 153.137C157.663 138.381 169.535 130.527 180.008 123.135C181.503 121.394 181.487 118.935 181.979 116.801C182.54 114.135 183.395 111.523 184.669 109.109C188.151 102.243 195.114 97.7788 198.049 90.62C198.035 90.6536 198.02 90.6853 198.006 90.7188C200.606 83.907 201.422 76.4674 205.195 70.1057C215.848 48.7861 234.878 40.3566 257.807 46.9443C257.787 46.9358 257.769 46.9277 257.749 46.9192C257.75 46.9184 257.739 46.9166 257.733 46.9151C257.911 46.9708 258.016 47.1449 258.018 47.3314C266.246 51.0873 276.826 56.2554 277.699 66.4034C278.15 67.4228 277.528 68.6452 277.444 69.713C278.975 70.0097 281.037 69.2527 282.256 70.3435C283.192 70.559 283.047 71.7842 283.077 72.5308C283.077 72.5168 283.079 72.5031 283.079 72.4906C283.079 72.5267 283.077 72.5617 283.077 72.5978C283.077 72.5923 283.077 72.5868 283.077 72.5827C283.03 74.6577 283.222 76.7505 282.881 78.8077C282.888 78.7617 282.895 78.7145 282.902 78.6684C282.872 83.3408 280.566 88.0733 275.828 89.4991C275.009 94.2748 274.344 99.1052 274.749 103.963C275.631 106.66 277.111 109.34 276.652 112.32C275.795 116.378 272.881 119.699 271.963 123.747C270.422 128.869 282.383 127.875 284.226 138.238C285.137 139.421 285.692 140.829 286.291 142.184C286.902 143.493 288.86 146.279 286.405 146.751C284.528 146.053 282.737 144.942 280.858 144.162C275.766 142.24 270.485 140.816 265.127 139.845C268.786 151.209 268.84 163.204 270.352 174.93C272.096 189.22 272.009 186.725 261.271 179.655C263.261 187.759 263.118 196.12 263.005 204.407C263.006 204.327 263.009 204.249 263.01 204.17C263.006 204.408 263 204.649 262.996 204.888C262.996 204.873 262.998 204.859 262.998 204.844C262.312 217.673 263.187 230.456 263.778 243.265C264.033 255.199 264.111 267.16 265.405 279.036C270.637 277.902 276.016 277.908 281.336 277.724C286.776 277.482 292.271 276.752 297.672 277.74C315.148 278.596 330.418 300.775 309.817 292.397C311.578 293.808 315.432 297.186 312.555 299.206C309.486 300.013 306.617 297.466 303.84 296.463C304.868 297.832 306.588 298.976 306.731 300.808C306.59 302.938 303.958 303.434 302.285 302.795C302.312 302.802 302.338 302.809 302.364 302.817C299.868 302.183 297.763 300.661 295.55 299.413C297.36 301.477 299.939 306.423 295.205 306.429ZM210.386 187.054C210.392 186.724 210.398 186.391 210.403 186.057C210.398 186.385 210.389 186.712 210.383 187.04C210.383 187.036 210.383 187.031 210.383 187.027C210.382 187.037 210.384 187.045 210.386 187.054ZM208.491 84.4489C203.213 92.9291 213.679 91.9097 213.569 94.9817C214.081 102.663 214.06 110.358 214.272 118.052C214.158 124.876 215.319 132.376 212.732 138.772C215.267 141.664 218.44 143.923 220.852 146.916C227.375 155.575 233.133 164.817 240.279 172.99C241.733 167.384 243.947 162.011 246.002 156.606C248.008 149.903 250.598 143.473 253.452 137.095C252.526 135.931 253.462 133.995 253.297 132.564C253.407 125.759 253.695 118.909 253.25 112.119C253.255 112.172 253.261 112.224 253.266 112.276C252.985 111.163 253.538 109.792 254.876 110.029C274.602 110.258 270.207 107.103 273.905 90.1953C273.898 90.244 273.891 90.2927 273.884 90.3428C273.899 90.237 273.915 90.1297 273.929 90.0239C269.363 91.1934 263.455 90.999 260.372 86.9288C260.671 89.2744 261.584 91.5179 261.841 93.8471C260.554 97.0803 255.763 94.9919 253.754 93.4781C253.784 93.4991 253.815 93.5197 253.847 93.5422C252.597 93.1061 251.829 91.5182 253.235 90.7378C254.68 89.9084 257.854 95.7204 260.714 93.8302C260.259 91.8569 259.539 89.9539 259.177 87.9503C259.185 87.9838 259.194 88.0156 259.202 88.0491C258.841 86.6924 258.558 85.3202 258.254 83.9516C258.254 83.953 258.254 83.9545 258.254 83.9556C258.251 83.9475 258.253 83.9408 258.248 83.9335L258.25 83.9349C258.248 83.9309 258.247 83.9265 258.247 83.9239C258.247 83.9253 258.247 83.9268 258.247 83.928C258.244 83.9204 258.244 83.9078 258.24 83.9003C258.24 83.9003 258.24 83.9003 258.241 83.9003C258.237 83.8863 258.234 83.8705 258.23 83.8557C258.232 83.8653 258.234 83.8737 258.236 83.8833C257.697 81.8182 257.187 79.7161 256.245 77.7918C255.75 77.7081 255.248 77.5909 254.744 77.6137C255.399 87.3338 246.725 95.7775 237.053 95.0205C237.07 95.0219 237.088 95.0246 237.105 95.026C237.067 95.0231 237.029 95.0173 236.99 95.0161H236.992C236.978 95.0147 236.963 95.0135 236.949 95.012C236.952 95.012 236.954 95.012 236.957 95.012C230.167 93.8188 225.805 87.0422 224.281 80.7463C223.159 81.0373 222.023 81.2813 220.893 81.5372C220.947 81.5247 221.001 81.5121 221.055 81.4981C218.008 82.2541 214.937 82.9126 211.869 83.57C211.796 83.7128 211.598 83.7968 211.455 83.7009C211.411 83.7009 211.366 83.7038 211.322 83.7064C211.338 83.7049 211.355 83.7038 211.372 83.7023C210.533 83.7845 209.695 83.9049 208.863 84.0157C208.736 84.1565 208.612 84.3014 208.491 84.4489ZM239.786 71.9169C235.073 71.7457 230.555 72.6066 225.946 73.4205C226.369 81.5923 230.638 93.2781 240.466 92.7239C249.854 91.624 255.233 82.1675 252.419 73.3855C248.33 72.146 244.041 71.8364 239.786 71.9169ZM259.18 76.6117C259.11 77.0446 258.971 77.4889 258.623 77.7717C258.978 86.6122 266.238 89.83 274.159 88.015C274.447 84.2122 274.911 80.426 274.947 76.605C274.672 76.2701 274.706 75.7599 274.947 75.4145C274.941 74.4012 274.948 73.3934 274.963 72.3807C269.806 72.6311 264.594 73.0564 259.504 73.8998C259.478 74.1143 259.45 74.3286 259.42 74.5431C259.427 74.4985 259.433 74.4554 259.44 74.4122C259.408 74.6268 259.375 74.8411 259.343 75.0568C259.353 74.9956 259.361 74.9343 259.371 74.8731C259.29 75.4503 259.272 76.0351 259.18 76.6117ZM280.407 77.4889C279.233 77.9078 278.033 78.2597 276.818 78.5372C276.688 81.5661 276.198 84.5597 276.019 87.583C277.048 87.2518 277.937 86.6344 278.783 85.9791C278.754 86.0027 278.723 86.0251 278.693 86.0487C279.384 85.5902 279.835 84.9115 280.224 84.1941C281.426 82.0695 280.99 79.5237 281.241 77.1852C280.96 77.2773 280.686 77.3886 280.407 77.4889ZM229.788 65.5134C226.231 65.7801 223.913 68.939 220.554 69.8669C216.282 71.1056 215.208 75.7576 213.848 79.4575C217.068 78.4556 220.169 77.0691 223.485 76.3736C223.494 74.7568 222.032 71.8824 224.516 71.5087C226.094 70.3327 228.146 70.2628 230.037 70.1736C230.016 70.175 229.994 70.1777 229.973 70.1791C236.086 69.6302 242.71 69.2576 248.694 70.1887C253.556 71.1362 254.921 71.0056 254.766 76.5336C255.51 76.2272 256.308 76.1532 257.073 75.9223C256.827 71.56 258.528 71.1746 262.425 70.9951C266.573 70.6383 270.714 70.1316 274.861 69.7681C274.728 69.041 274.64 68.3061 274.547 67.5738C268.792 61.5662 259.446 64.6823 256.529 56.6163C253.01 59.4679 248.774 61.3164 244.56 62.8999C244.612 62.8804 244.663 62.8594 244.715 62.8402C240.009 64.9295 234.931 65.9716 229.788 65.5134ZM257.811 78.1139C257.814 78.0819 257.818 78.0498 257.821 78.018C257.8 78.0166 257.778 78.0151 257.756 78.0151C257.774 78.0486 257.793 78.0819 257.811 78.1139ZM276.902 72.734C276.911 73.4135 276.914 74.0916 276.914 74.7696C278.307 74.7239 279.806 73.9811 281.14 74.207C281.126 73.7141 281.109 73.2211 281.077 72.7284C279.68 72.6792 278.289 72.5416 276.896 72.4416C276.899 72.5392 276.9 72.6366 276.902 72.734Z" fill="#231F20"/>
<path d="M349.554 306.3C349.543 306.296 349.529 306.295 349.518 306.289C348.951 306.069 349.23 305.138 349.803 305.201C350.66 305.38 352.557 304.397 352.725 305.657C352.438 306.794 350.465 306.122 349.554 306.3Z" fill="#231F20"/>
<path d="M318.689 332.405C318.113 332.394 317.539 332.363 316.965 332.313C316.969 332.313 316.973 332.314 316.977 332.314C315.313 332.402 316.245 330.102 317.352 331.007C318.76 331.09 320.15 330.812 321.546 330.692C321.512 330.695 321.48 330.698 321.447 330.701C321.543 330.694 321.639 330.686 321.735 330.679C321.701 330.682 321.668 330.684 321.635 330.687C321.77 330.677 321.906 330.668 322.041 330.659C322.036 330.66 322.03 330.66 322.024 330.661C322.058 330.658 322.092 330.656 322.126 330.654C322.115 330.654 322.104 330.655 322.093 330.656C322.116 330.654 322.14 330.652 322.163 330.651C322.152 330.651 322.141 330.652 322.129 330.652C322.223 330.646 322.317 330.639 322.411 330.632C322.404 330.632 322.396 330.633 322.389 330.633C323.752 330.628 329.047 329.463 329.182 331.283C329.147 331.695 328.813 332.114 328.373 332.109C326.494 332.004 324.63 331.929 322.759 332.2C322.794 332.197 322.829 332.195 322.862 332.192C322.712 332.203 322.561 332.214 322.411 332.225C322.432 332.224 322.452 332.223 322.473 332.221C321.817 332.267 321.158 332.258 320.503 332.311C320.51 332.311 320.518 332.311 320.525 332.31C320.492 332.312 320.46 332.315 320.427 332.317C320.44 332.316 320.452 332.315 320.464 332.314C320.393 332.319 320.322 332.324 320.251 332.33C320.256 332.329 320.262 332.329 320.268 332.329C319.743 332.369 319.215 332.416 318.689 332.405Z" fill="#231F20"/>
<path d="M319.732 335.6C316.129 335.621 317.139 333.342 318.302 334.186C322.284 334.724 326.268 333.231 330.272 333.699C331.201 333.882 330.919 335.417 330.023 335.391C329.512 335.364 328.997 335.372 328.486 335.375C325.562 335.312 322.647 335.857 319.732 335.6Z" fill="#231F20"/>
<path d="M320.708 338.899C316.968 338.852 318.569 336.726 318.871 337.824C319.635 337.997 320.433 337.93 321.21 337.892C321.194 337.893 321.178 337.895 321.163 337.897C322.83 338.065 329.438 335.691 329.622 337.976C329.583 338.449 329.213 338.888 328.72 338.898C326.045 338.731 323.375 339.174 320.708 338.899Z" fill="#231F20"/>
<path d="M316.899 344.174C311.277 342.967 308.551 336.139 310.471 331.015C310.47 331.021 310.467 331.028 310.466 331.033C310.475 330.997 310.487 330.959 310.498 330.923C310.494 330.939 310.489 330.954 310.485 330.969C310.924 329.118 312.086 327.597 313.071 326.034C313.036 326.08 312.999 326.125 312.965 326.172C316.36 322.362 320.498 319.263 323.94 315.488C318.336 312.526 320.223 299.921 327.172 300.728C328.596 300.558 330.028 300.463 331.456 300.358C331.455 300.358 331.455 300.358 331.455 300.358C331.498 300.354 331.542 300.351 331.584 300.348C331.583 300.348 331.581 300.348 331.578 300.348C332.484 300.28 333.387 300.217 334.291 300.152C334.245 300.156 334.197 300.159 334.151 300.163C334.532 300.134 334.913 300.107 335.293 300.078C335.246 300.082 335.198 300.085 335.152 300.089C335.805 300.039 336.458 299.986 337.11 299.937C337.11 299.937 337.109 299.937 337.107 299.937C337.154 299.933 337.209 299.93 337.252 299.926C345.81 299.267 354.408 299.474 362.981 299.1C373.37 298.758 383.789 297.34 394.177 298.264C395.018 297.306 395.993 296.478 396.896 295.582C396.894 295.585 396.892 295.586 396.889 295.589C398.155 294.278 399.326 292.878 400.639 291.611L400.637 291.612C406.462 285.808 411.713 279.47 417.629 273.75C417.586 273.793 417.542 273.838 417.499 273.881C419.598 271.464 422.208 269.38 423.973 266.74C423.959 266.763 423.944 266.789 423.93 266.812C424.481 266.007 424.947 264.859 425.983 264.622C427.24 264.485 427.443 265.995 427.04 266.884C425.987 269.812 424.341 274.659 427.596 276.695C428.823 276.658 429.065 278.271 428.157 278.898C426.816 279.981 425.786 281.381 424.732 282.732C427.338 282.398 440.383 279.216 434.6 285.209C433.685 288.192 432.867 292.952 436.572 294.259C440.322 295.336 434.177 299.81 433.492 301.681C429.684 306.566 426.261 311.748 422.395 316.603C422.395 316.601 422.397 316.601 422.397 316.6C422.369 316.636 422.342 316.67 422.314 316.706C422.314 316.706 422.314 316.706 422.316 316.704C418.409 322.007 414.128 327.007 409.983 332.121C408.659 333.092 403.367 341.585 402.2 339.13C385.049 341.384 367.727 342.103 350.466 343.304C350.467 343.304 350.468 343.304 350.469 343.303C350.349 343.313 350.228 343.321 350.109 343.331C350.159 343.327 350.211 343.322 350.261 343.318C350.143 343.328 350.024 343.336 349.906 343.345C349.912 343.345 349.919 343.345 349.926 343.345C349.865 343.349 349.804 343.353 349.743 343.357C349.746 343.357 349.747 343.357 349.75 343.357C338.832 344.11 327.81 343.952 316.899 344.174ZM312.787 329.524C311.469 333.698 311.912 339.26 316.33 341.36C320.098 342.518 324.223 341.321 328.118 341.509C335.66 341.545 343.213 341.66 350.73 340.906C350.679 340.91 350.629 340.914 350.577 340.919C350.918 340.892 351.258 340.867 351.598 340.841C351.548 340.845 351.496 340.849 351.446 340.853C361.36 340.092 371.297 339.567 381.178 338.496C381.122 338.5 381.066 338.504 381.011 338.509C381.201 338.493 381.392 338.479 381.584 338.465C381.529 338.469 381.471 338.474 381.416 338.478C385.867 338.134 390.331 337.944 394.781 337.624C394.87 337.54 394.98 337.481 395.097 337.463C395.095 337.461 395.095 337.46 395.095 337.459C395.595 337.406 396.095 337.363 396.582 337.217C396.613 336.211 397.676 336.069 398.472 336.175C396.639 332.572 397.185 327.935 398.879 324.369C392.782 325.033 386.662 325.305 380.548 325.735C380.595 325.731 380.641 325.728 380.688 325.724C374.958 325.956 369.268 326.684 363.546 327.044C363.547 327.044 363.549 327.044 363.55 327.044C363.51 327.046 363.469 327.05 363.429 327.052C363.43 327.052 363.431 327.052 363.432 327.052C353.298 328.123 343.176 329.56 332.963 329.595C326.332 329.497 319.708 328.897 313.09 328.665C312.979 328.947 312.876 329.231 312.787 329.524ZM409.798 325.011C410.14 325.285 409.993 325.969 409.617 326.143C407.39 329.636 404.839 332.909 402.355 336.218C402.689 336.418 403.088 336.581 403.2 336.996C408.261 331.52 412.998 325.758 417.719 319.99C417.715 319.996 417.71 320.002 417.706 320.007C417.734 319.973 417.761 319.937 417.789 319.901C417.782 319.91 417.775 319.919 417.768 319.928C418.783 318.578 419.773 317.204 420.818 315.877C420.821 315.875 420.824 315.872 420.827 315.868C420.827 315.869 420.825 315.869 420.825 315.87C420.835 315.857 420.846 315.844 420.856 315.83C420.854 315.833 420.853 315.834 420.852 315.837C420.855 315.833 420.858 315.829 420.86 315.825C420.859 315.827 420.857 315.829 420.856 315.83C420.86 315.824 420.864 315.82 420.868 315.815C420.868 315.815 420.868 315.815 420.868 315.815C420.869 315.815 420.869 315.814 420.87 315.813L420.868 315.815C420.874 315.806 420.881 315.799 420.887 315.791C420.886 315.792 420.885 315.793 420.884 315.794C420.938 315.723 420.992 315.653 421.047 315.582C421.044 315.586 421.041 315.591 421.038 315.593C421.067 315.559 421.093 315.523 421.12 315.487C421.117 315.492 421.114 315.496 421.11 315.501C421.113 315.499 421.115 315.496 421.117 315.494C421.116 315.495 421.115 315.496 421.115 315.497C421.116 315.495 421.117 315.493 421.119 315.492C421.119 315.492 421.118 315.492 421.118 315.493C421.142 315.461 421.166 315.429 421.191 315.397C421.183 315.408 421.173 315.419 421.165 315.43C425.956 309.304 430.186 302.783 434.958 296.652C434.944 296.67 434.93 296.688 434.917 296.705C435.045 296.541 435.172 296.375 435.297 296.208C435.148 296.138 434.999 296.066 434.85 295.998C434.896 296.019 434.942 296.039 434.988 296.059C431.731 294.73 431.525 290.542 432.347 287.588C421.717 299.025 411.859 311.185 401.413 322.797C402.322 323.223 401.593 324.424 400.724 324.157C400.072 325.041 399.845 326.143 399.668 327.207C401.061 325.191 402.974 323.616 404.472 321.683C404.97 321.296 406.815 318.241 407.231 319.485C404.81 322.946 401.795 326.106 399.459 329.678C399.437 330.431 399.422 331.192 399.547 331.938C401.446 329.721 403.072 327.293 404.938 325.05C404.928 325.063 404.92 325.075 404.91 325.088C405.971 323.998 406.607 322.098 408.094 321.597C409.006 321.546 408.987 322.97 408.18 323.126C406.919 324.75 405.746 326.444 404.434 328.03C404.457 327.999 404.482 327.968 404.506 327.938C403.073 329.942 401.505 331.835 399.928 333.724C400.058 334.341 400.382 334.893 400.894 335.269C403.36 331.866 405.913 328.542 408.787 325.472C409.031 325.196 409.401 324.726 409.798 325.011ZM353.577 325.696C353.917 325.671 354.259 325.656 354.599 325.625C354.261 325.649 353.92 325.672 353.577 325.696ZM336.494 313.852C333.024 314.075 329.544 314.111 326.071 314.282C330.462 316.01 335.457 314.669 340.071 314.799C347.107 314.84 354.148 315.014 361.177 314.601C367.213 314.402 373.226 315.036 379.262 315.005C385.174 314.871 391.046 313.956 396.937 313.49C392.263 311.182 391.779 305.195 393.949 300.945C384.997 300.017 375.98 301.156 367.022 301.506C353.788 302.048 340.526 302.193 327.285 302.318C327.076 302.514 326.676 302.541 326.463 302.301C324.801 302.658 323.894 304.479 323.175 305.884C325.226 305.848 327.235 305.517 329.269 305.293C329.266 305.293 329.262 305.293 329.259 305.293C330.765 305.458 341.548 304.129 340.988 305.805C340.687 307.277 337.71 306.294 336.535 306.58C332.168 306.556 327.806 306.956 323.447 306.844C323.309 307.014 323.075 306.99 322.888 306.924C322.892 306.925 322.895 306.926 322.899 306.926C322.873 306.919 322.847 306.912 322.822 306.903C322.641 307.59 322.633 308.305 322.657 309.009C326.06 308.928 329.442 308.478 332.849 308.423C332.815 308.426 332.783 308.429 332.75 308.432C332.871 308.422 332.993 308.413 333.116 308.404C333.082 308.407 333.049 308.409 333.016 308.412C333.071 308.408 333.127 308.404 333.183 308.4C333.149 308.402 333.116 308.404 333.082 308.407C333.332 308.388 333.583 308.368 333.833 308.348C333.831 308.348 333.83 308.35 333.83 308.35C336.475 308.419 339.369 307.721 341.903 308.331C342.334 308.798 341.971 309.71 341.322 309.703C335.13 309.529 328.803 310.734 322.67 309.593C322.768 310.865 322.887 312.342 324.129 313.019C329.94 312.417 335.777 311.87 341.628 312.073C342.103 312.081 342.391 312.528 342.355 312.972C342.034 314.773 337.935 313.461 336.494 313.852ZM405.098 301.961C406.431 303.253 400.402 309.627 399.455 311.193C399.788 311.32 400.123 311.45 400.465 311.553C407.06 302.404 413.464 293.13 420.667 284.428C420.63 284.475 420.594 284.522 420.558 284.57C420.989 284.013 421.417 283.453 421.85 282.896C421.848 282.899 421.846 282.902 421.844 282.905C421.85 282.897 421.855 282.89 421.861 282.882C421.858 282.885 421.857 282.888 421.854 282.891C421.88 282.856 421.907 282.819 421.935 282.784C421.935 282.784 421.935 282.784 421.935 282.785C421.935 282.784 421.935 282.784 421.936 282.784C421.935 282.786 421.933 282.787 421.932 282.789C421.935 282.786 421.936 282.783 421.939 282.781C421.938 282.782 421.937 282.783 421.936 282.784C421.935 282.784 421.935 282.784 421.935 282.784C421.937 282.782 421.938 282.779 421.94 282.777C421.94 282.778 421.939 282.779 421.939 282.78C421.961 282.751 421.982 282.722 422.004 282.694C421.996 282.707 421.986 282.719 421.977 282.732C423.165 281.234 424.369 279.741 425.659 278.328C423.058 276.358 423.255 272.815 423.715 269.918C415.2 280.74 405.454 290.643 395.6 300.245C395.35 301.795 394.966 303.34 394.922 304.914C396.555 301.711 399.332 299.318 401.461 296.48C402.568 295.245 403.496 297.107 402.401 297.946C402.408 297.936 402.415 297.928 402.422 297.918C399.995 300.893 397.25 303.628 395.194 306.887C395.345 307.485 395.508 308.093 395.892 308.589C398.238 304.753 400.654 300.911 403.572 297.485C404.559 296.644 405.548 298.162 404.74 298.975C401.999 302.259 399.733 305.895 396.9 309.107C396.806 309.224 396.716 309.347 396.625 309.469C397.213 310.043 397.878 310.578 398.647 310.886C399.794 308.7 401.249 306.701 402.502 304.577C402.501 304.579 402.501 304.58 402.499 304.58C402.525 304.539 402.55 304.495 402.576 304.452C402.571 304.461 402.566 304.468 402.562 304.474C403.278 303.698 403.728 301.31 405.098 301.961Z" fill="#231F20"/>
<path d="M192.401 353.523C190.934 352.83 191.79 350.961 193.082 350.619C196.356 348.589 199.536 346.412 202.814 344.383C214.012 337.579 225.407 331.067 236.119 323.503C232.916 323.186 229.711 322.885 226.505 322.588C226.515 322.589 226.526 322.59 226.536 322.59C226.493 322.586 226.45 322.583 226.407 322.579C226.41 322.579 226.413 322.58 226.417 322.58C226.116 322.554 225.817 322.528 225.517 322.502C225.52 322.502 225.523 322.502 225.527 322.502C225.484 322.499 225.441 322.495 225.399 322.491C225.401 322.492 225.403 322.492 225.405 322.492C225.045 322.461 224.684 322.429 224.324 322.397C224.325 322.398 224.327 322.398 224.329 322.398C224.286 322.394 224.244 322.39 224.201 322.387C224.203 322.387 224.205 322.387 224.207 322.387C216.38 321.803 208.544 320.456 200.686 320.643C196.998 321.831 193.748 324.099 190.299 325.837C190.325 325.823 190.35 325.808 190.376 325.793C190.208 325.889 190.042 325.988 189.872 326.08C189.925 326.049 189.978 326.02 190.031 325.989C189.926 326.048 189.822 326.108 189.717 326.167C189.725 326.163 189.733 326.158 189.741 326.154C189.65 326.205 189.56 326.257 189.469 326.308C189.476 326.304 189.483 326.301 189.49 326.297C189.458 326.315 189.426 326.333 189.394 326.351L189.395 326.351C181.232 331.265 172.784 335.721 164.137 339.719C163.723 340.697 161.919 340.171 163.091 339.094C168.268 335.059 174.154 332.038 179.888 328.88C179.834 328.909 179.78 328.939 179.727 328.969C186.266 325.378 192.488 321.039 199.515 318.44C202.524 317.591 205.712 318.728 208.782 318.778C208.738 318.774 208.692 318.77 208.646 318.766C208.744 318.775 208.842 318.783 208.939 318.792C208.933 318.792 208.927 318.791 208.921 318.791C209.048 318.802 209.174 318.812 209.3 318.823C209.291 318.823 209.282 318.822 209.274 318.821C214.012 319.292 218.737 319.904 223.485 320.295C223.475 320.294 223.465 320.293 223.455 320.292C224.191 320.356 224.925 320.418 225.66 320.486C225.646 320.484 225.632 320.483 225.618 320.482C225.662 320.486 225.705 320.49 225.748 320.494C225.747 320.494 225.747 320.494 225.746 320.493C226.079 320.522 226.413 320.552 226.745 320.581C226.739 320.58 226.733 320.58 226.727 320.58C229.485 320.818 232.234 321.135 234.997 321.316C239.018 321.387 242.101 322.115 237.214 325.32C237.231 325.307 237.248 325.294 237.265 325.28C227.605 332.402 217.299 338.603 207.034 344.803C203.649 346.833 200.327 348.974 197.008 351.109C195.508 351.847 194.119 353.592 192.401 353.523Z" fill="#231F20"/>
<path d="M192.423 353.312C187.767 352.452 183.433 350.054 179.142 348.1C179.174 348.115 179.207 348.129 179.239 348.143C178.109 347.636 176.971 347.144 175.842 346.636C175.892 346.658 175.942 346.68 175.992 346.702C174.065 345.844 172.134 344.995 170.213 344.123C170.218 344.126 170.224 344.128 170.229 344.13C167.929 343.206 165.731 342.086 163.612 340.801C162.852 340.822 162.037 339.821 162.725 339.203C164.519 338.758 166.6 340.456 168.387 340.904C173.821 342.87 179.135 345.17 184.313 347.731C187.07 348.714 189.731 350.29 192.637 350.718C194.202 350.779 193.878 353.351 192.423 353.312Z" fill="#231F20"/>
<path d="M196.336 355.43C196.307 355.429 196.282 355.426 196.254 355.423C196.277 355.425 196.3 355.427 196.324 355.429C193.918 354.626 201.416 349.843 202.205 348.887C202.192 348.897 202.18 348.906 202.167 348.915C202.198 348.892 202.229 348.869 202.259 348.846C202.254 348.85 202.249 348.854 202.243 348.858C202.292 348.821 202.34 348.785 202.388 348.748C202.371 348.761 202.354 348.773 202.337 348.786C202.395 348.742 202.453 348.699 202.51 348.655C202.5 348.662 202.491 348.67 202.48 348.677C202.541 348.631 202.601 348.585 202.662 348.539C202.639 348.557 202.617 348.574 202.595 348.591C202.626 348.567 202.657 348.543 202.688 348.52C202.683 348.523 202.679 348.526 202.674 348.53C210.592 342.875 218.829 337.662 227.201 332.708C227.162 332.731 227.123 332.753 227.084 332.775C231.669 329.767 236.914 327.582 241.093 324.043C243.116 322.982 243.227 325.698 241.355 326.599C226.271 335.554 210.802 344.127 196.874 354.845C196.871 355.122 196.639 355.448 196.336 355.43Z" fill="#231F20"/>
<path d="M197.399 358.029C196.5 357.687 196.634 356.305 197.452 355.939C199.786 354.787 201.894 353.24 204.193 352.026C207.388 350.24 210.085 347.73 213.141 345.74C221.351 340.232 229.536 334.657 238.062 329.637C239.693 328.966 242.452 326.264 244.029 326.632C244.401 326.899 244.036 327.603 243.604 327.363C243.545 327.39 243.487 327.42 243.432 327.453C243.449 327.443 243.467 327.433 243.484 327.424C231.086 336.617 217.942 344.737 205.342 353.63C205.383 353.608 205.423 353.584 205.463 353.562C205.284 353.664 205.106 353.765 204.927 353.865C204.966 353.843 205.007 353.821 205.047 353.797C202.415 354.932 200.132 357.435 197.399 358.029Z" fill="#231F20"/>
<path d="M167.303 347.913C159.046 346.819 167.028 334.142 170.353 339.65C170.832 340.689 169.131 342.302 169.061 340.537C169.02 340.516 168.978 340.498 168.935 340.482C168.953 340.491 168.972 340.499 168.99 340.508C168.969 340.502 168.948 340.496 168.927 340.491C168.968 340.501 169.006 340.513 169.043 340.533C167.065 340.242 164.832 343.626 166.445 345.202C167.121 345.801 168.567 345.477 168.42 346.776C168.373 347.345 167.91 347.922 167.303 347.913Z" fill="#231F20"/>
<path d="M171.193 349.96C166.747 348.075 170.733 337.716 175.086 341.37C175.491 341.765 175.431 342.584 174.803 342.699C174.365 342.733 174.199 342.248 173.74 342.291C171.716 342.183 170.266 347.705 172.904 347.302C175.559 347.675 173.567 350.896 171.193 349.96Z" fill="#231F20"/>
<path d="M178.619 352.81C172.222 352.733 178.077 339.919 181.046 343.86C181.259 344.599 180.441 345.761 180.04 344.629C178.541 345.573 176.668 349.887 179.336 350.262C180.677 350.751 179.996 353.034 178.619 352.81Z" fill="#231F20"/>
<path d="M183.775 355.221C177.672 352.815 183.994 342.783 186.982 345.974C187.272 346.617 186.459 347.585 186.155 346.622C184.473 347.285 183.093 350.114 183.754 351.769C184.621 352.529 186.22 353.573 185.357 354.877C185.025 355.399 184.289 355.623 183.775 355.221Z" fill="#231F20"/>
<path d="M189.442 357.209C185.482 355.097 187.478 346.556 191.308 348.004C191.933 348.33 191.473 349.564 190.882 348.919C189.167 349.429 188.77 352.64 190.084 353.789C190.08 353.785 190.075 353.781 190.071 353.777C192.702 355.206 191.632 358.216 189.442 357.209Z" fill="#231F20"/>
<path d="M228.022 373.243C227.161 372.272 227.784 370.686 227.817 369.504C228.015 365.961 230.574 363.427 232.277 360.497C232.258 360.53 232.239 360.562 232.22 360.595C232.695 359.784 233.183 358.983 233.66 358.175C233.658 358.178 233.656 358.181 233.654 358.185C236.051 353.902 238.792 349.803 241.653 345.822C241.648 345.829 241.642 345.836 241.636 345.843C241.904 345.501 242.161 345.15 242.436 344.813C242.401 344.859 242.366 344.903 242.331 344.949C242.477 344.76 242.624 344.57 242.77 344.382C242.735 344.427 242.699 344.473 242.664 344.517C244.637 341.998 246.352 339.293 248.338 336.784C248.324 336.801 248.311 336.819 248.297 336.837C249.44 335.565 250.173 333.822 251.61 332.862C252.99 330.605 255.805 332.739 255.88 334.795C255.878 335.767 255.271 336.628 254.883 337.492C249.608 346.757 243.383 355.429 238.182 364.729C238.208 364.684 238.234 364.641 238.259 364.596C236.831 366.581 236.345 369.605 234.037 370.754C232.21 371.28 229.791 373.851 228.022 373.243ZM229.65 370.724C230.993 369.869 232.429 369.19 233.863 368.5C235.856 365.114 237.885 361.745 239.804 358.315C244.69 350.771 249.383 343.073 253.576 335.114C253.446 334.891 253.265 334.705 253.077 334.531C252.853 334.65 252.598 334.701 252.364 334.653C252.232 334.792 252.035 334.891 251.854 334.899C246.425 343.507 239.874 351.346 234.739 360.144C232.785 363.624 229.439 366.458 229.65 370.724Z" fill="#231F20"/>
<path d="M228.704 372.239C224.285 371.218 235.857 357.587 237.102 355.128C237.092 355.14 237.083 355.152 237.073 355.164C237.117 355.108 237.161 355.051 237.204 354.994C237.196 355.005 237.188 355.016 237.18 355.027C237.3 354.871 237.42 354.716 237.54 354.561C237.529 354.574 237.519 354.588 237.508 354.601C240.589 351.076 242.645 346.843 245.454 343.109C246.832 341.273 248.377 339.535 249.386 337.454C250.389 336.048 251.668 331.596 253.834 332.522C256.584 334.828 251.653 339.397 250.462 341.663C249.256 343.921 247.948 346.125 246.686 348.352C246.695 348.337 246.703 348.322 246.712 348.308C246.648 348.418 246.583 348.527 246.518 348.638C246.557 348.574 246.595 348.508 246.632 348.444C243.011 354.338 239.054 360.022 235.404 365.9C237.229 366.757 235.457 368.521 234.402 369.191C233.549 369.662 232.861 371.408 231.757 370.554C230.833 371.208 229.947 372.359 228.704 372.239Z" fill="#231F20"/>
<path d="M248.382 352.383C246.759 350.463 254.877 341.874 255.829 339.274C255.472 338.803 255.048 338.394 254.554 338.07C254.584 338.089 254.615 338.11 254.646 338.13C253.784 337.764 252.735 336.816 254.075 336.246C254.966 336.259 255.865 336.719 256.55 337.273C259.779 339.636 254.45 344.366 253.142 346.759C251.857 347.764 249.929 353.598 248.382 352.383Z" fill="#231F20"/>
<path d="M43.7071 237.705C42.6043 236.384 42.4746 234.437 41.9694 232.825C41.9874 232.899 42.0055 232.973 42.0236 233.046C41.3481 230.449 40.6642 227.854 40.3925 225.176C39.3355 224.248 38.6837 221.541 40.2202 220.741C42.7771 219.804 45.5789 219.096 48.2708 218.802C49.3281 219.411 49.2182 220.999 49.5882 222.047C50.6884 225.822 51.6579 229.633 52.7683 233.406C53.1356 234.951 51.2723 235.241 50.2412 235.746C48.16 236.332 45.8605 238.431 43.7071 237.705ZM42.1839 223.608C43.6077 227.304 44.9571 231.071 45.5489 235.002C47.3613 234.62 49.0319 233.739 50.8332 233.288C49.766 229.129 48.4174 225.046 47.4881 220.852C45.5985 221.479 43.7634 222.229 41.8618 222.804C41.9387 223.08 42.0892 223.337 42.1839 223.608Z" fill="#231F20"/>
<path d="M59.2818 232.228C57.6172 230.921 57.7245 228.148 57.0441 226.227C56.2858 222.467 55.3326 218.733 54.9755 214.906C54.9825 214.966 54.9894 215.026 54.9964 215.086C54.9693 214.844 54.9425 214.601 54.9163 214.359C54.918 214.373 54.9195 214.387 54.9212 214.401C54.9145 214.342 54.9081 214.283 54.9017 214.224C54.9037 214.245 54.9058 214.266 54.9081 214.287C54.7463 211.62 53.7884 208.84 54.3376 206.199C53.6502 203.967 55.5448 203.409 57.3481 203.267C58.7716 203.153 60.1245 202.666 61.5346 202.503C63.7181 202.631 63.0068 206.279 63.5971 207.825C64.8016 213.844 66.2321 219.831 67.1591 225.909C67.1521 225.88 67.1449 225.851 67.1373 225.822C67.1481 225.865 67.1585 225.908 67.1693 225.952L67.169 225.951C68.1824 229.082 67.3743 229.87 64.3795 230.733C62.7467 231.289 61.0521 232.487 59.2818 232.228ZM60.4487 229.407C60.4688 229.481 60.4875 229.555 60.5061 229.63C62.2756 229.172 63.9446 228.413 65.7482 228.069C64.3058 220.345 62.3115 212.72 60.9061 204.993C59.4118 205.371 57.9 205.649 56.3814 205.912C56.4091 206.622 56.533 207.576 55.7544 207.929C57.8498 214.957 58.4882 222.339 60.4487 229.407Z" fill="#231F20"/>
<path d="M75.4836 226.622C73.9759 226.011 74.2866 223.711 73.5263 222.432C73.5392 222.464 73.552 222.496 73.5648 222.528C73.5427 222.473 73.5208 222.418 73.4992 222.363C73.4995 222.364 73.4998 222.365 73.5001 222.366C71.0738 213.981 70.364 205.175 68.4714 196.655C67.5619 195.9 67.6762 194.387 67.2972 193.323C66.7981 191.964 66.4116 189.644 68.3936 189.401C71.0432 189.363 73.8671 187.77 76.4258 188.519C78.004 190.879 77.6286 194.022 78.5658 196.643C80.774 203.991 81.994 211.653 83.2036 219.224C83.2033 219.22 83.2027 219.217 83.2024 219.213C83.1843 220.593 83.9979 222.234 83.1537 223.46C80.8656 224.905 78.1737 226.236 75.4836 226.622ZM76.4876 224.02C78.1781 223.466 79.7674 222.685 81.395 221.976C80.0706 211.485 77.1744 201.247 74.8822 190.961C74.4956 191.022 74.1129 191.1 73.7307 191.189C73.7459 191.185 73.761 191.181 73.7762 191.178C72.3113 191.416 70.9076 191.938 69.425 192.063C69.5739 192.848 69.6442 193.643 69.7235 194.437C69.718 194.384 69.7124 194.33 69.7069 194.277C73.4263 203.819 73.7044 214.225 76.4876 224.02Z" fill="#231F20"/>
<path d="M33.8688 215.809C32.8564 215.636 32.513 214.452 31.9501 213.735C30.5076 212.188 28.9731 210.749 28.1534 208.75C28.1563 208.754 28.1574 208.757 28.1604 208.761C27.4015 208.021 27.161 206.468 28.5991 206.515C32.4585 203.322 35.4611 199.131 39.2809 195.837C39.2739 195.844 39.2669 195.851 39.2599 195.86C48.0238 187.21 55.8574 177.411 61.7697 166.601H61.7682C60.6998 165.901 58.9688 165.71 58.4752 164.404C58.3514 163.759 58.8443 162.96 59.5515 162.978C60.631 163.078 61.7093 162.756 62.7066 162.365C65.2871 161.128 67.7948 159.737 70.3283 158.409C70.7394 158.067 71.3761 158.047 71.5577 158.639C72.3343 161.687 72.4156 164.888 73.0406 167.973C74.0793 170.441 73.1526 171.408 70.7099 170.168C70.7228 170.174 70.7353 170.18 70.7476 170.185C70.5502 170.098 70.354 170.002 70.1587 169.914C70.1642 169.917 70.1698 169.919 70.1753 169.922C69.6643 169.695 69.1229 169.551 68.6005 169.354C66.7103 173.596 64.1222 177.449 61.6096 181.338C58.9688 186.096 56.3157 190.896 52.9178 195.17C48.6619 200.21 44.8267 205.639 40.0374 210.178C37.7589 211.757 36.3336 214.666 33.8688 215.809Z" fill="#FF8FA3"/>
<path d="M89.7313 220.199C88.1877 220.289 88.1361 218.715 87.9131 217.587C87.5201 215.788 87.2808 213.981 86.9301 212.181C85.6521 203.701 83.3969 195.63 82.3993 187.007C82.0332 182.973 81.0531 179.05 80.5543 175.042C80.3176 172.066 78.5778 168.492 83.257 168.817C85.0344 168.945 88.1661 166.753 88.5853 169.62C90.9484 178.482 92.4823 187.594 93.6423 196.688C94.1976 201.894 95.5135 207.033 96.073 212.189C96.094 214.006 97.1044 216.291 96.2878 217.958C94.6238 219.514 91.9384 219.982 89.7313 220.199Z" fill="#FF8FA3"/>
<path d="M119.705 121.854C99.7838 118.475 101.171 91.3369 117.634 83.7944C117.926 85.9866 118.472 88.1459 118.941 90.3093C118.928 90.262 118.917 90.2131 118.905 90.1644C118.945 90.3288 118.986 90.4929 119.026 90.6573C119.025 90.6533 119.023 90.6477 119.022 90.6422C119.943 95.1595 121.295 99.56 122.59 103.978C122.581 103.938 122.571 103.897 122.561 103.857C122.895 104.601 122.719 105.772 123.459 106.225C123.511 106.809 124.586 107.093 124.682 106.368C130.125 101.603 134.75 95.9393 139.77 90.727C139.758 90.7381 139.748 90.7492 139.737 90.7591C140.453 90.0466 141.169 89.3216 141.865 88.5905C145.255 92.3522 146.323 97.6132 145.224 102.504C145.224 102.5 145.224 102.496 145.224 102.492C145.217 102.542 145.21 102.594 145.202 102.644C145.205 102.628 145.207 102.611 145.21 102.594C144.526 107.02 142.298 111.274 139.158 114.454C139.197 114.415 139.237 114.375 139.276 114.336C134.38 119.893 127.119 122.983 119.705 121.854Z" fill="#FF8FA3"/>
<path d="M110.445 92.1253C110.972 88.4583 114.983 86.2337 117.642 84.0039C117.699 84.5837 117.837 85.1332 117.96 85.6988C115.44 87.3555 112.673 88.9209 111.181 91.6562C111.485 92.1378 110.736 92.6832 110.445 92.1253Z" fill="#FF8FA3"/>
<path d="M124.305 123.335C117.371 123.097 110.896 119.397 107.898 113.022C106.019 112.61 105.332 108.782 104.712 107.125C104.726 107.184 104.742 107.244 104.756 107.302C101.712 96.6072 107.819 87.0157 117.554 82.6646C117.503 83.6586 117.756 84.7028 117.958 85.6966C113.115 87.4282 110.351 91.9126 108.386 96.4113C107.083 99.6661 107.787 103.357 108.082 106.755C110.896 106.047 109.731 110.357 111.106 111.758C116.032 121.247 129.331 122.54 137.045 115.665C137.021 115.684 136.996 115.703 136.973 115.721C137.024 115.682 137.076 115.643 137.127 115.604C137.125 115.605 137.123 115.607 137.122 115.608C144.841 109.577 146.905 97.5384 140.842 89.6455C141.593 88.8914 142.346 88.1177 142.841 87.1676C153.675 101.282 141.976 123.749 124.305 123.335Z" fill="#FF8FA3"/>
<path d="M124.146 106.812C123.849 106.762 123.475 106.546 123.459 106.224C122.719 105.77 122.895 104.6 122.561 103.856C122.571 103.896 122.58 103.936 122.59 103.977C121.294 99.559 119.942 95.1586 119.022 90.6412C119.023 90.6467 119.025 90.6523 119.026 90.6564C118.985 90.4922 118.945 90.3278 118.904 90.1634C118.917 90.2121 118.928 90.2608 118.941 90.3083C118.858 89.2055 115.948 80.1233 118.925 82.1455C120.154 81.6817 121.338 81.2468 122.647 81.3739L122.645 81.3709C129.3 79.4 136.922 80.706 141.85 85.793C141.83 85.8003 141.811 85.8081 141.793 85.8169C144.949 86.0927 140.613 89.8457 139.736 90.7578C139.747 90.7482 139.757 90.7368 139.77 90.7257C134.749 95.9378 130.124 101.602 124.681 106.367C124.644 106.63 124.413 106.843 124.146 106.812Z" fill="#231F20"/>
<path d="M141.424 86.5772C140.424 85.4438 139.291 84.3144 137.94 83.6116C137.959 83.6206 137.979 83.6296 137.998 83.6381C131.96 80.3868 124.971 81.1363 118.529 82.5778C118.479 82.6962 118.362 82.7784 118.226 82.763C118.227 82.7633 118.227 82.7633 118.228 82.7635C116.498 82.0181 121.246 80.4909 121.921 80.4285C121.907 80.4317 121.894 80.4349 121.881 80.4384C121.913 80.4311 121.944 80.4235 121.975 80.4162C121.974 80.4162 121.973 80.4165 121.973 80.4168C125.065 79.7845 128.262 79.7562 131.401 79.9903C131.369 79.9874 131.337 79.9833 131.305 79.9804C134.619 80.3241 138.132 81.6071 140.667 83.7978C141.296 84.5161 142.96 85.4382 142.285 86.527C142.069 86.7845 141.662 86.8361 141.424 86.5772Z" fill="#231F20"/>
<path d="M123.529 106.937C120.442 105.262 141.961 101.136 143.355 100.767C144.334 100.537 145.326 100.366 146.267 100.057C147.235 100.085 147.245 101.538 146.447 101.866C146.476 101.848 146.506 101.832 146.536 101.814C146.276 101.963 146.018 102.043 145.727 102.11C145.766 102.101 145.805 102.092 145.842 102.083C145.206 102.238 144.559 102.345 143.92 102.494C143.957 102.484 143.996 102.476 144.035 102.466C142.25 102.897 140.447 103.243 138.655 103.644C138.668 103.64 138.682 103.637 138.695 103.634C138.466 103.687 138.236 103.742 138.006 103.795C138.013 103.793 138.019 103.792 138.026 103.79C137.986 103.799 137.947 103.809 137.907 103.818C137.909 103.818 137.911 103.817 137.912 103.817C137.097 104.01 136.281 104.198 135.464 104.385C135.504 104.376 135.546 104.367 135.586 104.357C131.587 105.095 127.623 107.225 123.529 106.937Z" fill="#231F20"/>
<path d="M236.632 414.936C232.864 412.199 230.688 407.631 227.786 404.031C223.829 399.299 221.067 393.806 217.767 388.654C215.919 386.036 204.159 370.702 210.071 369.515C210.174 369.092 210.501 368.782 210.926 368.729C210.913 368.73 210.9 368.731 210.886 368.732C211.426 368.627 211.855 369.054 211.835 369.585C215.591 373.964 217.701 379.338 220.985 384.021C224.653 389.943 228.802 395.565 232.168 401.675C232.16 401.661 232.152 401.647 232.144 401.633C232.208 401.746 232.272 401.859 232.337 401.972C232.296 401.902 232.257 401.833 232.217 401.763C233.699 404.343 235.347 406.824 236.806 409.417C236.802 409.41 236.798 409.404 236.795 409.397C237.365 410.843 239.125 412.157 238.604 413.816C238.301 414.641 237.472 415.195 236.632 414.936Z" fill="#231F20"/>
<path d="M210.303 372.46C208.331 371.897 208.923 369.005 210.512 368.279C210.501 368.287 210.49 368.295 210.479 368.303C210.607 368.206 210.734 368.109 210.86 368.012C210.816 368.046 210.77 368.081 210.725 368.116C220.777 361.225 232.28 356.771 243.656 352.571C243.62 352.585 243.584 352.6 243.548 352.614C255.34 347.864 267.309 343.537 279.454 339.775C282.494 338.775 285.582 337.936 288.612 336.91C289.68 336.196 291.228 336.699 291.225 338.103C291.115 341.089 284.887 341.499 282.633 342.714C277.35 344.702 271.981 346.459 266.73 348.537C266.794 348.512 266.857 348.487 266.92 348.462C256.226 352.673 245.339 356.403 234.815 361.036C226.625 364.72 218.536 369.164 210.303 372.46Z" fill="#231F20"/>
<path d="M313.958 383.237C313.622 383.235 313.34 383.112 313.091 382.914C310.155 385.69 302.577 366.238 300.534 363.671C297.304 357.668 294.186 351.625 290.708 345.756C289.571 343.323 286.659 341.418 286.902 338.527C287.447 335.923 290.843 336.421 292.17 338.116C294.624 340.595 295.58 344.141 297.812 346.829C303.567 354.588 308.192 363.098 311.998 371.967C313.1 374.243 313.81 376.676 314.831 378.987C315.766 380.386 316.28 383.02 313.958 383.237Z" fill="#231F20"/>
<path d="M236.29 414.495C234.654 414.176 233.495 411.85 234.738 410.523C236.198 409.409 238.079 408.894 239.703 408.028C243.69 406.348 247.64 404.589 251.585 402.81C266.713 396.135 281.674 389.083 297.067 383.014C297.044 383.023 297.022 383.032 297 383.041C297.145 382.984 297.289 382.927 297.434 382.87C297.363 382.898 297.291 382.926 297.22 382.954C297.311 382.918 297.402 382.882 297.492 382.847C297.475 382.853 297.458 382.86 297.441 382.867C297.561 382.82 297.681 382.773 297.802 382.725C297.73 382.753 297.658 382.781 297.587 382.809C297.626 382.794 297.665 382.778 297.705 382.763L297.705 382.763C297.776 382.735 297.847 382.707 297.919 382.678C297.909 382.682 297.898 382.687 297.888 382.691C297.991 382.65 298.095 382.609 298.199 382.568C298.188 382.572 298.178 382.576 298.168 382.581C298.239 382.552 298.311 382.524 298.382 382.496C298.363 382.503 298.344 382.511 298.325 382.518C298.35 382.509 298.374 382.499 298.398 382.489C298.386 382.494 298.375 382.498 298.363 382.503C298.843 382.312 299.322 382.12 299.802 381.93C299.797 381.932 299.791 381.934 299.786 381.936C299.857 381.908 299.929 381.88 300 381.851C299.991 381.855 299.981 381.859 299.971 381.863C302.197 380.87 304.613 380.381 306.821 379.363C307.849 378.636 309.432 377.251 310.455 378.723C310.724 378.65 310.992 378.552 311.257 378.471C311.258 378.474 311.259 378.476 311.259 378.478C313.016 377.921 313.781 380.559 312.461 381.516C311.12 382.337 309.633 382.958 308.215 383.648C302.403 386.105 296.813 389.074 290.881 391.248C280.32 395.928 269.518 400.035 258.974 404.754C251.511 408.142 244.25 412.52 236.29 414.495Z" fill="#231F20"/>
<path d="M237.794 414.581C237.281 414.693 236.62 414.203 237.208 413.801C237.207 413.799 237.205 413.797 237.204 413.795C258.406 401.84 280.536 391.552 303.677 383.926C306.589 383.046 309.202 380.673 312.292 380.665C313.986 381.004 314.007 383.44 312.674 384.267C308.809 385.975 304.998 387.913 300.908 389.098C287.07 393.403 273.886 399.341 260.769 405.444C253.261 408.694 246.019 413.518 237.794 414.581Z" fill="#231F20"/>
<path d="M308.999 384.525C309.255 383.298 312.234 383.016 313.215 381.768C313.669 381.47 314.266 381.612 314.505 382.109C315.043 384.318 311.597 384.444 310.142 384.924C310.17 384.917 310.199 384.91 310.229 384.903C310.132 384.926 310.038 384.948 309.943 384.97C309.971 384.965 309.999 384.958 310.027 384.951C309.609 385.136 309.016 385.095 308.999 384.525Z" fill="#231F20"/>
<path d="M242.911 394.736C226.681 392.746 233.927 366.685 248.4 369.073C255.698 370.313 258.212 378.8 257.023 385.252C255.662 391.555 249.197 395.628 242.911 394.736Z" fill="#231F20"/>
<path d="M274.927 380.606C273.546 378.712 272.826 376.409 272.321 374.141C271.201 371.205 274.689 369.949 275.757 373.266C276.46 375.22 278.272 376.944 278.137 379.098C277.866 380.443 276.102 381.896 274.927 380.606Z" fill="#231F20"/>
<path d="M281.07 379.313C278.711 377.118 278.147 373.495 277.683 370.433C276.648 369.003 278.242 366.842 279.913 367.505C281.817 368.634 282.261 371.654 283.528 373.462C284.866 375.565 284.451 380.354 281.07 379.313Z" fill="#231F20"/>
<path d="M286.014 375.856C283.822 372.105 282.116 367.827 281.795 363.461C281.99 361.973 283.437 360.323 284.913 361.601C286.434 363.392 286.855 365.955 287.936 368.037C288.624 370.302 290.886 373.358 289.472 375.605C288.65 376.544 286.886 376.913 286.014 375.856Z" fill="#231F20"/>
<path d="M293.093 373.234C290.63 367.889 287.383 362.702 285.79 357.037C285.611 355.685 286.937 354.194 288.314 354.879C290.64 357.125 291.611 360.612 293.185 363.421C294.15 365.561 294.968 367.761 295.954 369.89C296.801 371.087 296.646 373.208 294.888 373.362C294.414 373.871 293.473 373.864 293.093 373.234Z" fill="#FF8FA3"/>
<path d="M243.361 383.564C242.931 383.481 242.731 383.045 242.757 382.641C242.433 378.838 241.899 375.039 241.906 371.209C241.809 369.505 243.408 369.651 243.138 371.349C243.135 371.317 243.131 371.287 243.128 371.255C243.64 374.328 243.8 377.44 244.238 380.524C245.245 379.301 246.138 377.992 246.97 376.646C246.95 376.68 246.929 376.715 246.91 376.75C247.411 375.83 247.989 374.961 248.67 374.164C248.659 374.178 248.648 374.193 248.636 374.208C248.652 374.188 248.667 374.167 248.683 374.147C248.68 374.151 248.677 374.155 248.674 374.158C249.707 373.391 249.993 370.718 251.344 370.916C252.074 371.206 251.876 372.097 251.48 372.59C251.502 372.552 251.523 372.516 251.545 372.48C250.828 374.23 249.372 375.47 248.411 377.068C248.411 377.067 248.412 377.066 248.413 377.065C247.298 378.644 245.013 383.054 243.361 383.564Z" fill="#FF8FA3"/>
<path d="M88.0954 362.097C82.6455 360.513 76.8941 360.414 71.3346 359.35C61.9842 357.54 52.6285 355.84 43.2346 354.315C37.9672 353.415 32.7036 352.417 27.3956 351.787C23.2771 351.219 18.8416 351.036 15.1431 348.984C13.1588 348.955 12.869 343.19 12.056 341.564C9.58449 332.645 7.45058 323.654 5.54318 314.601C3.73811 307.844 2.39363 300.97 1.20045 294.081C1.26079 291.866 -1.27337 287.417 0.848296 286.078C2.24175 283.42 12.9084 283.059 15.9868 282.85C26.8117 281.895 37.7153 282.326 48.5703 281.903C54.5613 281.743 60.5604 281.845 66.5479 281.604C68.8424 281.462 71.1425 281.468 73.4399 281.461C75.8814 281.057 77.2174 282.323 76.1286 284.751C76.7175 285.512 77.8229 285.752 76.9446 286.986C79.8516 295.774 81.1657 305.029 82.8647 314.111C84.5864 313.589 87.4593 310.103 88.86 312.524C100.569 314.298 112.609 316.641 123.814 319.966C123.842 319.973 123.87 319.98 123.899 319.987C123.888 319.984 123.877 319.982 123.867 319.978C123.882 319.98 123.899 319.988 123.914 319.991C123.912 319.991 123.91 319.99 123.908 319.99C123.915 319.992 123.921 319.994 123.928 319.995H123.927C123.949 320 123.971 320.007 123.993 320.013C123.961 320.003 123.928 319.995 123.895 319.985C129.558 321.374 135.185 322.936 140.88 324.18C143.257 325.005 152.665 325.822 149.901 329.803C137.662 338.015 123.725 343.626 110.892 350.921C110.894 350.92 110.896 350.919 110.898 350.917C106.061 353.63 101.114 356.145 96.2762 358.859C93.6325 359.93 91.0315 362.332 88.0954 362.097ZM89.418 316.157C89.3221 316.136 89.2259 316.115 89.1297 316.096C89.1224 316.101 89.116 316.106 89.1087 316.112C89.2166 316.122 89.3189 316.138 89.418 316.157Z" fill="#231F20"/>
<path d="M80.8454 315.585C80.8226 315.106 81.3937 314.848 81.7016 314.559C81.685 314.572 81.668 314.584 81.6514 314.597C83.0883 313.464 84.7567 312.686 86.3297 311.775C86.3233 311.78 86.3169 311.785 86.3105 311.79C86.6909 311.403 87.3972 311.527 87.4797 312.11C87.3515 313.831 83.2026 314.415 81.8645 315.45C81.8811 315.441 81.8981 315.431 81.9147 315.421C81.8179 315.477 81.722 315.535 81.6258 315.593C81.4987 315.873 80.9086 315.959 80.8454 315.585Z" fill="#231F20"/>
<path d="M100.237 316.079C99.8017 315.945 99.37 315.801 98.9301 315.684C98.9412 315.687 98.9525 315.689 98.9633 315.692C98.9295 315.684 98.8954 315.675 98.8616 315.666C98.8689 315.668 98.8762 315.67 98.8837 315.672C98.8765 315.67 98.8692 315.668 98.8619 315.666C98.8677 315.668 98.8738 315.669 98.8797 315.671C98.8453 315.662 98.8112 315.653 98.7765 315.645C98.7878 315.647 98.7989 315.65 98.8103 315.653C95.0197 315.017 91.339 314.074 87.6871 312.849C87.2155 313.582 85.6016 311.547 88.6629 312.009C92.0684 312.583 95.4543 313.284 98.838 313.944C99.6338 314.296 101.461 314.33 101.133 315.571C101.003 315.942 100.616 316.199 100.237 316.079Z" fill="#231F20"/>
<path d="M112.607 318.824C108.083 317.534 103.534 316.376 98.9424 315.343C98.9467 315.343 98.9508 315.345 98.9552 315.345C98.1906 315.142 97.4288 314.926 96.6607 314.736C96.6953 314.744 96.7318 314.754 96.7665 314.762C96.0202 314.578 95.2958 314.319 94.5582 314.105C94.5918 314.114 94.625 314.122 94.6585 314.13C92.2138 313.624 89.7053 313.235 87.275 312.773C86.5972 311.624 88.9684 312.053 89.578 312.076C89.5543 312.073 89.5319 312.072 89.5083 312.069C91.908 312.25 94.3472 312.216 96.6537 312.991C96.619 312.983 96.5825 312.973 96.5478 312.965C99.3044 313.684 102.116 314.163 104.861 314.927C104.84 314.921 104.819 314.915 104.797 314.91C107.653 315.459 110.347 316.542 113.139 317.316C113.992 317.634 113.474 319.106 112.607 318.824Z" fill="#231F20"/>
<path d="M77.425 298.004C76.437 293.139 75.9919 288.164 74.9104 283.319C73.7318 282.896 75.1879 281.549 75.7989 282.509C76.8414 283.268 81.3806 302.208 77.425 298.004Z" fill="#231F20"/>
<path d="M88.5699 358.197C87.9589 357.906 88.4125 356.89 88.1872 356.315C88.1898 356.335 88.1912 356.353 88.1941 356.372C87.9796 353.886 87.3007 351.471 87.1415 348.98C87.1426 348.991 87.1444 349.002 87.1459 349.013C87.0301 347.86 86.8001 346.723 86.6882 345.569C86.6885 345.571 86.6885 345.573 86.6888 345.575C86.6876 345.563 86.6861 345.552 86.685 345.54C86.6853 345.542 86.6853 345.544 86.6855 345.545C86.6736 345.435 86.6616 345.325 86.6488 345.216C86.6517 345.238 86.6544 345.259 86.6573 345.281C85.8804 340.606 84.9705 335.946 84.6997 331.202C84.7024 331.229 84.7053 331.256 84.7082 331.284C84.6892 331.11 84.6703 330.937 84.6513 330.764C84.6525 330.774 84.654 330.784 84.6554 330.794C84.654 330.782 84.6525 330.77 84.651 330.758C84.6516 330.763 84.6522 330.767 84.6525 330.771C84.6505 330.757 84.649 330.743 84.6476 330.729C84.6481 330.732 84.6484 330.736 84.649 330.74C84.6478 330.73 84.6467 330.721 84.6458 330.711C84.6461 330.713 84.6461 330.715 84.6464 330.718C84.6452 330.708 84.6441 330.699 84.6429 330.689C84.6446 330.706 84.647 330.724 84.6487 330.741C84.5009 329.485 84.2619 328.242 84.117 326.985C84.1193 327.004 84.1217 327.022 84.1237 327.04C84.1077 326.893 84.0905 326.746 84.0741 326.599C84.0753 326.607 84.0765 326.616 84.0776 326.625C83.9803 325.762 83.9121 324.894 83.8228 324.03C83.8258 324.056 83.8284 324.083 83.8328 324.109C83.9488 322.425 82.1137 316.811 83.1334 316.025C83.4378 315.982 83.5366 316.292 83.5558 316.537C84.1546 319.802 84.9108 323.047 85.1417 326.371C85.1417 326.371 85.1417 326.37 85.1414 326.37C85.2909 327.764 85.5647 329.137 85.7165 330.53C85.7151 330.517 85.7139 330.503 85.7125 330.49C85.7128 330.491 85.713 330.493 85.713 330.495C85.7113 330.479 85.7098 330.463 85.7081 330.446C85.7122 330.488 85.7177 330.53 85.7221 330.572C85.7209 330.56 85.7195 330.548 85.718 330.537C85.7343 330.698 85.7533 330.858 85.7708 331.02C85.7681 330.992 85.7652 330.964 85.7623 330.938C86.2025 337.583 87.5779 344.119 88.093 350.758C88.0915 350.738 88.0889 350.719 88.0875 350.699C88.0857 352.02 89.8631 357.825 88.5699 358.197Z" fill="white"/>
<path d="M90.0546 359.019C89.7777 358.672 90.1852 358.321 90.4765 358.158C93.7068 356.098 96.8406 353.879 100.214 352.054C100.193 352.065 100.173 352.078 100.152 352.089C101.068 351.566 102.014 351.097 102.933 350.579C102.93 350.581 102.926 350.583 102.922 350.585C104.46 349.7 105.941 348.714 107.503 347.872C107.489 347.88 107.474 347.888 107.46 347.896C107.755 347.729 108.054 347.562 108.35 347.394C108.346 347.396 108.343 347.398 108.339 347.4C108.427 347.351 108.514 347.301 108.602 347.25C108.599 347.252 108.595 347.255 108.592 347.257C108.612 347.245 108.632 347.234 108.652 347.222C108.651 347.223 108.65 347.224 108.649 347.224C108.658 347.22 108.666 347.215 108.674 347.21C108.672 347.211 108.669 347.213 108.666 347.215C108.846 347.112 109.026 347.009 109.206 346.908C109.185 346.919 109.166 346.93 109.145 346.941C109.197 346.912 109.247 346.884 109.298 346.855C109.278 346.866 109.258 346.877 109.238 346.889C109.274 346.868 109.311 346.848 109.348 346.827C109.343 346.829 109.339 346.832 109.334 346.834C109.343 346.829 109.352 346.825 109.361 346.82C109.357 346.821 109.354 346.823 109.351 346.825C110.371 346.229 111.441 345.727 112.476 345.16C112.463 345.167 112.449 345.175 112.436 345.182C112.545 345.121 112.652 345.059 112.761 344.998C112.74 345.009 112.721 345.02 112.701 345.032C119.033 341.084 125.955 338.209 132.493 334.631C137.467 332.025 142.545 329.602 147.717 327.42C147.986 327.151 148.432 326.946 148.699 327.337C149.499 328.806 143.673 330.184 142.59 330.884C142.614 330.874 142.639 330.865 142.663 330.855C133.367 335.009 124.462 339.978 115.379 344.571C115.381 344.57 115.383 344.569 115.386 344.568C113.192 345.94 110.865 347.076 108.627 348.372C108.63 348.37 108.634 348.368 108.637 348.366C106.639 349.427 104.737 350.643 102.791 351.793C102.794 351.791 102.796 351.79 102.799 351.788C102.734 351.825 102.67 351.861 102.606 351.898C102.606 351.898 102.607 351.898 102.608 351.897C102.592 351.907 102.576 351.916 102.561 351.924C102.566 351.922 102.571 351.919 102.575 351.916C102.555 351.928 102.535 351.939 102.514 351.951C102.515 351.951 102.515 351.951 102.516 351.951C101.869 352.318 101.215 352.674 100.564 353.037C100.578 353.029 100.591 353.022 100.604 353.014C100.466 353.092 100.329 353.171 100.191 353.248C100.193 353.247 100.196 353.245 100.199 353.243C100.177 353.256 100.156 353.268 100.134 353.28C100.138 353.278 100.142 353.276 100.146 353.274C99.7015 353.53 99.2508 353.774 98.8063 354.028C98.8191 354.021 98.8319 354.014 98.8445 354.006C98.6996 354.089 98.5544 354.173 98.4095 354.254C98.4305 354.243 98.4512 354.231 98.4722 354.219C95.9439 355.748 93.4461 357.338 90.8534 358.758C90.7863 359.06 90.287 359.24 90.0546 359.019Z" fill="white"/>
<path d="M109.099 326.823C108.275 325.533 116.192 321.749 117.409 320.516C112.958 319.29 108.338 318.734 103.832 317.718C103.843 317.719 103.853 317.719 103.863 317.72C103.842 317.719 103.821 317.717 103.799 317.714C103.809 317.716 103.818 317.717 103.828 317.717C101.138 317.247 98.9181 319.029 96.4965 319.932C96.2035 320.035 95.9085 320.229 95.5916 320.207C95.196 320.102 95.4552 319.517 95.7986 319.582C98.2695 318.555 100.512 316.452 103.302 316.688C108.15 317.426 113.072 318.225 117.827 319.439C120.993 319.749 118.206 321.287 116.999 322.104C114.813 323.604 112.564 325.008 110.37 326.493C110.381 326.484 110.393 326.476 110.404 326.467C110.379 326.486 110.353 326.505 110.329 326.524C110.336 326.518 110.343 326.513 110.35 326.507C109.993 326.772 109.496 327.356 109.099 326.823Z" fill="white"/>
<path d="M108.179 327.265C107.037 327.007 105.903 326.71 104.766 326.427C104.79 326.434 104.815 326.44 104.84 326.447C104.788 326.434 104.737 326.42 104.686 326.406C104.698 326.409 104.709 326.413 104.721 326.416C104.697 326.409 104.673 326.402 104.648 326.397C104.652 326.398 104.657 326.399 104.662 326.4C104.626 326.391 104.589 326.381 104.553 326.372C104.563 326.374 104.573 326.377 104.584 326.38C104.547 326.37 104.509 326.36 104.472 326.351H104.472C104.357 326.322 104.241 326.292 104.126 326.262C104.133 326.263 104.139 326.265 104.145 326.267C103.799 326.177 103.46 326.065 103.115 325.969C103.139 325.975 103.164 325.982 103.187 325.987C102.107 325.747 101.06 325.396 99.9919 325.108C100.004 325.111 100.015 325.114 100.027 325.117C100.004 325.111 99.9811 325.106 99.9584 325.099C99.9689 325.102 99.9791 325.105 99.9893 325.108C98.1043 324.611 96.2083 324.169 94.3543 323.566C94.356 323.567 94.358 323.567 94.3598 323.568C88.7554 322.485 95.0005 320.047 97.0108 318.938C97.8236 318.708 100.448 316.827 100.9 317.729C100.866 318.093 100.423 317.987 100.185 318.137C100.198 318.133 100.211 318.128 100.223 318.123C99.2287 318.529 98.3104 319.091 97.3718 319.608C97.3735 319.607 97.3755 319.605 97.3773 319.605C96.0054 320.4 94.6207 321.192 93.3468 322.14C95.3337 322.84 97.3828 323.356 99.4322 323.853C99.4293 323.852 99.4267 323.851 99.4237 323.85C100.464 324.09 101.498 324.364 102.523 324.662C102.5 324.655 102.477 324.649 102.453 324.642C103.07 324.773 103.685 324.911 104.289 325.091C104.265 325.085 104.24 325.078 104.215 325.073C105.449 325.368 106.681 325.672 107.92 325.944C107.904 325.94 107.888 325.935 107.871 325.931C108.129 326.003 108.381 326.085 108.65 326.104C108.644 326.104 108.639 326.103 108.633 326.103C108.658 326.105 108.683 326.107 108.708 326.11C108.692 326.108 108.676 326.106 108.66 326.105C109.058 326.124 109.491 325.582 109.809 326.068C110.264 326.983 108.871 327.412 108.179 327.265Z" fill="white"/>
<path d="M118.984 335.275C118.991 335.277 118.999 335.279 119.006 335.28C118.836 335.238 118.67 335.189 118.502 335.142C118.502 335.142 118.502 335.142 118.503 335.142C116.3 334.635 114.048 334.37 111.855 333.811C111.883 333.818 111.909 333.825 111.937 333.832C108.154 332.558 104.224 332.001 100.382 330.954C100.409 330.961 100.435 330.968 100.461 330.974C95.0269 330.088 89.7918 328.102 84.8867 325.644C83.3941 323.449 90.1066 327.031 90.8284 326.974C90.8162 326.971 90.8039 326.968 90.7917 326.965C90.8168 326.972 90.8418 326.978 90.8669 326.985C90.8617 326.983 90.8564 326.982 90.8512 326.981C93.1253 327.606 95.3018 328.565 97.5937 329.151C97.5806 329.147 97.5674 329.144 97.5543 329.14C98.9842 329.438 100.438 329.586 101.833 330.041C101.813 330.036 101.794 330.031 101.775 330.027C105.244 330.871 108.758 331.37 112.151 332.519C112.14 332.516 112.129 332.513 112.118 332.51C112.162 332.521 112.205 332.533 112.249 332.544C112.221 332.537 112.195 332.53 112.167 332.523C112.225 332.538 112.285 332.554 112.345 332.569C112.317 332.562 112.289 332.554 112.261 332.547C114.008 333.01 115.812 333.195 117.563 333.627C117.554 333.625 117.546 333.622 117.537 333.619C118.103 333.764 118.686 333.834 119.246 334.006C119.218 333.999 119.192 333.992 119.166 333.985C120.058 334.027 119.818 335.466 118.984 335.275Z" fill="white"/>
<path d="M112.941 338.813C112.678 338.731 112.416 338.649 112.149 338.58C112.16 338.582 112.17 338.585 112.181 338.588C112.171 338.585 112.161 338.583 112.151 338.58C112.153 338.581 112.155 338.581 112.157 338.582C103.715 335.936 94.9501 334.29 86.7206 330.991C86.7285 330.995 86.7363 330.998 86.7439 331.001C86.7005 330.982 86.6565 330.962 86.6122 330.942C86.6203 330.946 86.6285 330.95 86.6366 330.953C86.0303 330.662 85.342 330.386 84.8491 329.953C84.6692 329.396 85.3508 329.394 85.6872 329.596C88.0193 330.491 90.4882 330.862 92.8311 331.732C92.8019 331.723 92.7725 331.717 92.7448 331.708C93.9123 331.982 95.0408 332.394 96.2004 332.7C96.1698 332.693 96.1407 332.684 96.1112 332.677C96.3048 332.726 96.4969 332.776 96.6905 332.826C96.6599 332.819 96.6307 332.811 96.6013 332.804C97.8391 333.141 99.0833 333.445 100.326 333.761C100.323 333.761 100.32 333.76 100.317 333.759C100.341 333.765 100.365 333.771 100.388 333.778C100.375 333.774 100.361 333.771 100.348 333.768C100.376 333.775 100.404 333.782 100.432 333.789C100.42 333.786 100.409 333.783 100.398 333.78C100.402 333.781 100.406 333.782 100.409 333.783C100.409 333.783 100.408 333.782 100.407 333.782C100.517 333.812 100.628 333.839 100.738 333.869C100.707 333.861 100.677 333.853 100.646 333.844C102.597 334.367 104.564 334.832 106.536 335.259C106.52 335.254 106.504 335.25 106.488 335.246C108.516 335.874 110.506 336.609 112.577 337.092C112.545 337.084 112.513 337.076 112.48 337.067C112.548 337.085 112.617 337.103 112.686 337.121C112.665 337.116 112.645 337.111 112.624 337.105C112.63 337.107 112.636 337.108 112.643 337.11C112.631 337.107 112.62 337.104 112.609 337.102C113.237 337.23 114.139 337.472 113.834 338.305C113.708 338.675 113.319 338.936 112.941 338.813Z" fill="white"/>
<path d="M104.234 342.115C102.25 341.641 100.345 340.908 98.307 340.699C98.3376 340.707 98.3683 340.715 98.4003 340.724C98.3522 340.711 98.3041 340.699 98.2563 340.686C98.2729 340.691 98.2893 340.695 98.3056 340.699C94.3048 339.054 90.1072 338.129 86.0184 336.771C85.64 336.909 85.1666 336.534 85.2054 336.126C85.7336 334.761 88.2876 336.538 89.3948 336.453C94.217 337.365 98.7222 339.374 103.534 340.381C103.502 340.373 103.47 340.364 103.438 340.356C103.475 340.366 103.513 340.376 103.55 340.386C103.543 340.384 103.537 340.382 103.53 340.381C103.561 340.388 103.593 340.397 103.624 340.405C103.605 340.399 103.585 340.394 103.564 340.389C104.234 340.536 105.438 340.64 105.107 341.619C104.982 341.982 104.604 342.232 104.234 342.115Z" fill="white"/>
<path d="M95.9248 345.183C92.7691 344.192 89.4828 343.329 86.6006 341.673C86.2455 341.735 86.1753 341.169 86.4373 341.011C86.9291 340.852 87.4297 341.278 87.9244 341.338C87.9229 341.337 87.9217 341.337 87.9203 341.337C90.8425 342.178 94.148 342.66 96.781 344.062C97.0559 344.601 96.5443 345.382 95.9248 345.183Z" fill="white"/>
<path d="M89.5992 347.878C89.0718 347.645 88.6173 347.288 88.1428 346.966C88.1538 346.975 88.1664 346.983 88.1789 346.991C87.9302 346.762 86.8507 346.439 87.486 346.078C87.486 346.078 87.4857 346.077 87.4857 346.077C87.6055 346.093 87.7696 346.045 87.8539 346.149C88.6089 346.507 89.6464 346.674 90.209 347.265C90.3376 347.616 89.9592 348.069 89.5992 347.878Z" fill="white"/>
<path d="M186.666 224.239C186.349 224.23 186.323 223.87 186.336 223.627C186.336 220.423 186.106 217.222 186.144 214.017C186.144 214.026 186.144 214.036 186.144 214.045C186.146 213.98 186.146 213.915 186.148 213.85C186.147 213.872 186.146 213.895 186.146 213.918C186.148 213.85 186.149 213.783 186.151 213.715C186.149 213.747 186.149 213.78 186.148 213.812C186.4 212.789 185.723 210.763 186.992 210.405C188.234 210.492 187.008 215.131 187.314 216.317C187.314 216.312 187.314 216.306 187.314 216.301C187.296 217.31 187.273 218.319 187.253 219.328C187.253 219.316 187.253 219.305 187.253 219.294C187.253 219.298 187.253 219.301 187.253 219.305C187.253 219.294 187.253 219.283 187.253 219.272C187.253 219.299 187.252 219.326 187.251 219.352C187.252 219.339 187.252 219.326 187.253 219.314C187.252 219.363 187.251 219.412 187.25 219.46C187.25 219.456 187.25 219.451 187.25 219.446C187.248 219.565 187.245 219.685 187.243 219.805C187.243 219.802 187.243 219.799 187.243 219.796C187.243 219.811 187.242 219.825 187.242 219.84C187.242 219.836 187.242 219.832 187.242 219.828C187.242 219.843 187.242 219.859 187.241 219.874C187.241 219.871 187.241 219.867 187.241 219.864C187.026 220.969 187.559 223.649 186.666 224.239Z" fill="white"/>
<path d="M218.02 279.191C209.946 278.73 201.861 278.956 193.796 278.534C193.798 278.535 193.8 278.535 193.802 278.535C193.794 278.534 193.786 278.533 193.778 278.533C193.779 278.533 193.78 278.533 193.781 278.533C193.138 278.568 191.798 278.272 192.85 277.6C192.85 277.599 192.849 277.597 192.849 277.596C199.515 277.573 206.137 276.335 212.814 277.034C214.23 277.427 219.143 276.189 219.035 278.154C218.993 278.667 218.571 279.207 218.02 279.191Z" fill="white"/>
<path d="M293.209 221.794C291.376 221.01 293.847 217.388 293.543 215.773C293.543 215.789 293.542 215.804 293.542 215.819C293.491 209.829 291.738 203.872 288.709 198.719C286.757 195.082 287.14 190.893 287.39 186.921C287.489 186.416 287.245 184.667 288.127 185.193C288.344 187.422 288.284 189.75 288.541 192.005C288.538 191.982 288.536 191.958 288.533 191.934C288.765 194.792 289.935 197.396 291.546 199.729C293.016 203.262 294.596 206.882 295.044 210.713C295.262 213.203 295.734 215.78 295.009 218.226C294.48 219.34 294.833 221.75 293.209 221.794Z" fill="white"/>
<path d="M219.806 182.819C216.94 181.799 222.925 179.396 223.645 178.447C225.456 176.943 227.348 175.559 229.389 174.384C230.294 173.985 231.547 172.09 232.419 173.391C232.902 175.384 228.67 176.591 227.391 177.737C225.146 179.344 222.916 180.954 220.502 182.304C220.386 182.591 220.126 182.827 219.806 182.819Z" fill="white"/>
<path d="M257.16 176.692C253.606 175.311 249.955 174.18 246.355 172.912C245.645 173.217 245.32 171.942 246.033 171.748C247.096 171.83 248.146 172.325 249.199 172.561C252.043 173.727 255.427 173.963 258 175.593C258.269 176.114 257.763 176.9 257.16 176.692Z" fill="white"/>
<path d="M245.212 275.156C244.397 262.453 243.582 249.716 244.135 236.983C244.135 236.988 244.135 236.992 244.135 236.997C244.136 236.972 244.136 236.948 244.137 236.923C244.137 236.928 244.136 236.933 244.136 236.937C244.6 221.102 242.827 205.357 242.317 189.549C242.096 184.862 241.35 180.217 240.95 175.548C242.503 172.689 242.291 180.158 242.571 180.901C242.568 180.875 242.565 180.848 242.562 180.822C242.632 181.445 242.703 182.068 242.771 182.692C242.768 182.665 242.765 182.639 242.762 182.613C243.973 202.391 245.85 222.206 244.855 242.039C244.855 242.03 244.855 242.022 244.855 242.013C244.854 242.037 244.854 242.06 244.853 242.083C244.853 242.08 244.854 242.078 244.854 242.076C244.645 251.164 245.076 260.243 245.569 269.314C245.435 269.985 246.72 277.153 245.212 275.156Z" fill="white"/>
<path d="M331.381 230.817C330.677 229.641 329.332 227.052 331.109 226.297C332.191 226.463 331.242 227.712 331.694 228.358C331.953 229.202 333.269 230.266 332.289 231.056C331.976 231.264 331.553 231.17 331.381 230.817Z" fill="white"/>
<path d="M324.668 237.418C323.822 236.81 326.852 233.958 327.318 234.918C327.812 235.92 326.293 236.376 325.813 237.053C325.538 237.39 325.077 237.843 324.668 237.418Z" fill="white"/>
<path d="M171.456 211.745C171.118 211.321 169.533 210.66 170.656 210.25C171.188 210.41 172.407 210.909 172.03 211.62C171.91 211.797 171.636 211.904 171.456 211.745Z" fill="white"/>
<path d="M179.118 135.296C178.345 133.548 182.822 131.188 184.028 130.128C189.38 126.017 191.024 123.963 191.112 117.048C191.32 108.764 199.653 109.201 200.759 101.778C200.756 101.803 200.752 101.827 200.749 101.852C200.925 100.553 201.114 99.2501 201.485 97.9898C201.478 98.012 201.473 98.0344 201.466 98.0566C201.496 97.9482 201.527 97.8394 201.558 97.7295C201.552 97.7517 201.545 97.7741 201.54 97.7963C202.614 93.6783 205.007 96.1961 203.235 96.3098C203.174 96.3302 203.122 96.3725 203.071 96.4113C203.072 96.4107 203.072 96.4101 203.073 96.4095C203.067 96.4148 203.061 96.4186 203.056 96.4235C203.06 96.4209 203.063 96.4183 203.067 96.4156C203.055 96.4267 203.044 96.4381 203.033 96.4495C203.056 96.4267 203.078 96.4054 203.105 96.3874C202.183 97.4616 202.118 99.0364 201.823 100.372C201.825 100.359 201.827 100.346 201.828 100.332C201.825 100.355 201.822 100.378 201.819 100.402C201.82 100.396 201.821 100.39 201.821 100.384C201.603 103.62 200.332 107.004 197.641 108.972C197.65 108.965 197.658 108.959 197.667 108.953C197.58 109.019 197.493 109.086 197.407 109.151C197.411 109.148 197.415 109.145 197.419 109.143C197.373 109.177 197.327 109.212 197.281 109.247C197.305 109.229 197.327 109.212 197.349 109.194C188.87 113.81 196.085 123.9 188.107 128.913C185.771 131.171 182.682 132.404 180.354 134.65C180.009 134.962 179.649 135.663 179.118 135.296Z" fill="white"/>
<path d="M188.317 141.614C187.385 141.192 188.104 140.059 188.101 139.313C188.095 139.356 188.088 139.398 188.083 139.441C188.908 131.26 199.408 129.747 199.25 120.977C199.499 118.37 200.071 115.799 201.955 113.863C202.099 113.666 202.369 113.558 202.581 113.726C203.113 114.306 202.158 114.892 201.881 115.369C200.239 117.383 200.671 120.145 200.233 122.548C200.239 122.514 200.243 122.481 200.249 122.447C200.227 122.597 200.204 122.748 200.182 122.898C200.183 122.892 200.184 122.887 200.185 122.882C200.295 130.46 190.638 132.482 189.663 139.531C189.499 140.308 189.473 141.87 188.317 141.614Z" fill="white"/>
<path d="M177.437 151.981C175.992 151.679 177.568 148.4 177.514 147.297C177.864 145.267 178.268 143.079 179.829 141.599C179.824 141.603 179.82 141.607 179.816 141.611C179.83 141.598 179.843 141.584 179.857 141.571C179.854 141.574 179.85 141.578 179.847 141.581C180.314 141.284 181.054 140.095 181.594 140.675C181.76 141.029 181.424 141.263 181.163 141.427C177.268 143.698 179.634 150.812 177.437 151.981Z" fill="white"/>
<path d="M166.576 149.505C166.438 145.892 167.284 142.138 170.089 139.656C170.289 139.439 170.63 139.375 170.846 139.61C171.347 140.872 169.189 141.609 168.801 142.749C168.801 142.747 168.802 142.746 168.803 142.744C167.674 144.731 167.76 147.097 167.869 149.308C167.96 150.161 166.633 150.479 166.576 149.505Z" fill="white"/>
<path d="M152.017 181.232C150.351 180.776 152.053 178.048 152.372 176.991C154.44 172.644 158.903 170.71 162.345 167.727C162.321 167.75 162.296 167.775 162.273 167.799C162.328 167.743 162.384 167.687 162.44 167.633C162.435 167.638 162.431 167.642 162.426 167.646C162.485 167.588 162.543 167.53 162.601 167.472C162.593 167.48 162.585 167.488 162.577 167.496C162.604 167.469 162.631 167.442 162.658 167.415C162.635 167.438 162.611 167.462 162.586 167.486C163.784 166.355 164.2 164.718 164.667 163.194C164.666 163.197 164.666 163.2 164.665 163.203C164.672 163.177 164.68 163.152 164.687 163.126C164.683 163.139 164.679 163.153 164.675 163.166C165.265 162.182 164.873 158.931 165.82 158.742C166.591 159.789 165.372 164.174 165.022 165.612C163.077 171.654 154.709 172.679 153.157 179.124C152.867 179.851 153.063 181.161 152.017 181.232Z" fill="white"/>
<path d="M145.193 196.705C144.874 195.521 146.262 189.466 147.837 190.105C148.125 190.335 148.109 190.756 147.929 191.046C147.066 192.577 146.486 194.377 146.569 196.148C146.565 196.112 146.56 196.075 146.556 196.039C146.934 196.986 145.497 197.884 145.193 196.705Z" fill="white"/>
<path d="M259.242 127.668C258.993 125.225 259.942 122.778 260.827 120.539C261.634 118.769 263.503 117.448 263.369 115.33C263.424 114.825 263.322 113.997 264.022 113.958C264.347 113.959 264.537 114.271 264.515 114.569C264.763 117.605 262.239 119.571 261.499 122.302C261.081 123.89 260.608 125.526 260.796 127.182C261.024 128.177 259.494 128.833 259.242 127.668Z" fill="white"/>
<path d="M267.389 132.539C264.813 129.73 264.672 126.019 265.699 122.503C265.94 120.667 267.607 120.492 267.069 121.992C267.073 121.986 267.078 121.981 267.082 121.975C266.128 124.441 265.6 127.841 267.56 129.946C267.538 129.918 267.517 129.89 267.494 129.864C267.568 129.957 267.641 130.05 267.714 130.142C267.709 130.136 267.704 130.129 267.699 130.123C268.032 130.546 268.366 130.969 268.692 131.399C269.287 132.189 268.052 133.453 267.389 132.539Z" fill="white"/>
<path d="M273.425 134.779C273.403 134.722 273.379 134.666 273.357 134.609C273.365 134.628 273.373 134.649 273.382 134.67C273.372 134.645 273.362 134.621 273.353 134.597C273.356 134.603 273.358 134.609 273.361 134.616C273.353 134.596 273.344 134.576 273.337 134.556C273.338 134.559 273.339 134.561 273.34 134.564C273.312 134.495 273.284 134.425 273.252 134.357C272.673 133.974 273.496 133.144 273.887 133.752C274.608 134.213 274.143 135.566 273.425 134.779Z" fill="white"/>
<path d="M261.772 134.296C261.78 133.594 261.32 132.301 262.17 131.986C263.115 132.044 262.495 133.384 262.773 133.984C262.932 134.625 261.923 135.044 261.772 134.296Z" fill="white"/>
<path d="M223.514 60.704C223.409 58.1736 229.163 55.4395 231.303 54.6559C232.281 54.5069 233.584 52.759 234.388 53.7965C234.787 56.1403 227.804 56.5799 226.309 58.468C226.327 58.454 226.346 58.4401 226.364 58.4249C225.656 58.989 224.903 59.5184 224.298 60.1973C224.311 60.1807 224.323 60.1638 224.337 60.1472C224.295 60.1985 224.254 60.2492 224.223 60.3072C224.322 60.6906 223.77 61.09 223.514 60.704Z" fill="white"/>
<path d="M229.961 60.6775C229.329 59.6391 234.477 57.3359 235.387 56.67C235.748 56.4208 236.315 56.2625 236.49 56.8041C236.983 57.853 231.934 59.3666 230.997 60.1805C231.013 60.172 231.028 60.1639 231.043 60.1554C230.668 60.2709 230.366 60.8976 229.961 60.6775Z" fill="white"/>
<path d="M237.611 60.5076C238.188 59.3963 240.012 58.9608 240.969 58.0457C241.213 57.8816 241.538 57.9626 241.665 58.2299C241.933 59.317 240.2 59.5196 239.565 60.0971C239.016 60.2563 237.862 61.4961 237.611 60.5076Z" fill="white"/>
<path d="M264.855 56.3767C264.115 55.743 262.704 55.2873 262.634 54.1979C262.687 53.7682 263.338 53.6936 263.378 54.1679C263.914 54.9197 265.826 54.9975 265.524 56.119C265.415 56.3569 265.096 56.5231 264.855 56.3767Z" fill="white"/>
<path d="M261.619 59.7793C260.919 59.2563 259.58 57.7223 260.91 57.1865C261.591 57.1594 261.634 58.3042 262.404 58.6179C263.029 59.0922 262.291 60.2871 261.619 59.7793Z" fill="white"/>
</svg>
