<svg width="537" height="358" viewBox="0 0 537 358" fill="none" xmlns="http://www.w3.org/2000/svg">
<path opacity="0.7" d="M501.507 87.5391C488.298 69.0964 471.239 54.6346 452.06 44.8899C425.67 31.4813 383.941 13.2634 352.932 13.8191C304.023 14.6954 193.944 74.7664 136.438 86.1945C78.9319 97.6226 -5.63562 140.285 11.9544 227.136C29.5443 313.986 76.2261 339.888 165.53 328.46C254.834 317.033 286.631 305.605 359.022 320.08C431.412 334.555 514.627 324.651 523.422 221.041C529.861 145.183 520.344 113.838 501.507 87.5391Z" fill="#F1EEFF"/>
<path d="M65.2233 90.821L67.1501 114.35C67.1501 114.35 50.3806 111.601 45.9278 120.506C41.475 129.412 41.475 152.666 51.8649 165.034C59.3499 173.945 67.3477 170.273 71.2348 167.523L73.2504 193.234C73.2504 202.839 91.6967 220.52 114.45 220.52C137.205 220.52 155.651 202.839 155.651 193.234L163.678 90.8203L65.2233 90.821ZM57.802 154.644C51.3701 149.202 54.8334 125.454 57.802 122.485C60.0044 120.283 65.199 121.893 67.735 122.87L70.3892 156.737C67.0742 157.574 61.8509 158.069 57.802 154.644Z" fill="#263238" stroke="#263238" stroke-miterlimit="10"/>
<path d="M114.451 111.601C141.639 111.601 163.679 102.297 163.679 90.8208C163.679 79.3444 141.639 70.041 114.451 70.041C87.2634 70.041 65.2233 79.3444 65.2233 90.8208C65.2233 102.297 87.2634 111.601 114.451 111.601Z" fill="white" stroke="#263238" stroke-miterlimit="10"/>
<path d="M114.451 109.309C138.642 109.309 158.252 101.032 158.252 90.8206C158.252 80.6096 138.642 72.332 114.451 72.332C90.2608 72.332 70.6506 80.6096 70.6506 90.8206C70.6506 101.032 90.2608 109.309 114.451 109.309Z" fill="white" stroke="#263238" stroke-miterlimit="10"/>
<path d="M83.6754 103.972C91.5864 107.271 102.453 109.308 114.451 109.308C126.449 109.308 137.317 107.271 145.227 103.972C137.317 100.673 126.449 98.6357 114.451 98.6357C102.453 98.6357 91.5857 100.674 83.6754 103.972Z" fill="#FF8FA3" stroke="#263238" stroke-miterlimit="10"/>
<path d="M288.552 145.525C288.552 145.525 311.966 201.131 317.603 204.071C323.24 207.01 488.427 192.673 488.427 192.673L483.74 187.456L483.516 151.469L489.692 151.196L426.589 68.085L283.988 78.4985C283.988 78.4985 276.338 83.8004 275.318 88.3821C274.297 92.9638 274.527 99.8904 274.527 99.8904L288.552 145.525Z" fill="#263238" stroke="#263238" stroke-miterlimit="10"/>
<path d="M483.516 151.468L321.452 164.518C321.452 164.518 313.829 168.898 312.641 179.01C311.451 189.122 315.543 199.395 318.582 200.872C321.621 202.348 325.582 202.469 325.582 202.469L483.74 187.455L483.516 151.468Z" fill="#E0E0E0" stroke="#263238" stroke-miterlimit="10"/>
<path d="M318.621 25.8745L253.256 116.128C253.256 116.128 249.694 119.637 249.864 128.233C250.034 136.83 250.47 150.861 253.031 151.843C255.592 152.826 444.721 167.183 444.721 167.183L488.386 66.3199L484.976 64.8592L486.165 40.0255L489.001 31.9726L323.421 24.2119L318.621 25.8745Z" fill="#FF8FA3" stroke="#263238" stroke-miterlimit="10"/>
<path d="M259.136 118.696C259.136 118.696 253.218 116.867 251.541 122.549C249.865 128.232 253.991 148.837 253.991 148.837C253.991 148.837 257.522 150.307 259.146 150.356C260.77 150.405 442.782 162.423 442.782 162.423L484.976 64.8591L486.165 40.0254L445.798 127.45L259.136 118.696Z" fill="white" stroke="#263238" stroke-miterlimit="10"/>
<path d="M441.624 127.255L259.136 118.697C259.136 118.697 253.218 116.867 251.541 122.55C249.865 128.233 253.991 148.838 253.991 148.838C253.991 148.838 257.522 150.307 259.146 150.357C260.77 150.406 442.782 162.423 442.782 162.423L442.53 128.032L441.624 127.255Z" fill="#E0E0E0" stroke="#263238" stroke-miterlimit="10"/>
<path d="M283.648 303.607C283.648 303.607 290.335 313.253 297.326 313.097C343.912 312.062 424.241 334.359 433.569 334.359C442.897 334.359 449.82 333.532 449.82 331.554C449.82 329.575 417.031 199.832 417.031 199.832L410.529 197.854L432.86 324.487C432.86 324.487 405.159 320.53 349.191 311.202C293.223 301.874 295.52 293.997 288.736 295.411C281.952 296.823 283.648 303.607 283.648 303.607Z" fill="#683DE4" stroke="#263238" stroke-miterlimit="10"/>
<path d="M440.21 330.988C430.599 330.423 411.906 325.555 365.786 316.087C319.665 306.619 285.06 300.88 285.06 300.88L284.089 304.207C285.685 306.309 291.395 313.23 297.327 313.098C343.913 312.063 424.241 334.36 433.57 334.36C442.898 334.36 449.821 333.533 449.821 331.555C449.82 331.392 445.003 331.27 440.21 330.988Z" fill="#263238" stroke="#263238" stroke-miterlimit="10"/>
<path d="M132.705 194.78C132.705 194.78 129.313 195.911 128.748 198.455C128.182 200.999 95.6755 331.307 98.7851 331.59C101.895 331.873 273.19 333.003 275.168 331.024C277.146 329.046 283.648 303.606 283.648 303.606L269.232 323.11L120.55 319.435L138.358 197.889L132.705 194.78Z" fill="#683DE4" stroke="#263238" stroke-miterlimit="10"/>
<path d="M275.169 331.025C277.147 329.047 283.648 303.606 283.648 303.606L282.695 304.897L273.755 327.916L100.514 330.147L98.7858 331.591C101.895 331.873 273.19 333.004 275.169 331.025Z" fill="#263238" stroke="#263238" stroke-miterlimit="10"/>
<path d="M136.662 193.086L132.705 194.781L105.286 327.351L273.755 327.917L285.062 298.802L126.769 306.434L141.468 192.803L136.662 193.086Z" fill="white" stroke="#263238" stroke-miterlimit="10"/>
<path d="M116.593 310.674L108.913 323.449L105.286 327.351L273.755 327.916L285.062 298.802L126.769 306.434L116.593 310.674Z" fill="#E0E0E0" stroke="#263238" stroke-miterlimit="10"/>
<path d="M285.062 298.802V272.797L149.1 287.778L138.924 305.586L285.062 298.802Z" fill="#B8B8B8" stroke="#263238" stroke-miterlimit="10"/>
<path d="M142.881 178.669L138.924 179.235L116.593 310.674C116.593 310.674 134.967 309.261 159.841 303.325C184.716 297.389 235.313 288.343 252.273 290.887C269.232 293.431 283.648 303.607 283.648 303.607C283.648 303.607 304.813 307.809 328.557 312.614C352.301 317.419 387.634 324.769 411.095 328.727C434.556 332.684 440.21 330.988 440.21 330.988L411.095 195.591L408.268 194.743L423.815 317.419C423.815 317.419 325.765 290.321 312.762 290.321C299.76 290.321 292.693 276.471 266.688 271.382C240.683 266.294 211.568 276.47 186.976 280.71C162.384 284.95 141.467 292.017 141.467 292.017L147.969 178.668H142.881V178.669Z" fill="#E0E0E0" stroke="#263238" stroke-miterlimit="10"/>
<path d="M126.769 306.433L116.593 310.674L138.924 179.234L147.969 178.669L126.769 306.433Z" fill="white" stroke="#263238" stroke-miterlimit="10"/>
<path d="M281.669 161.144C281.669 161.144 284.213 156.621 307.392 162.557C330.57 168.494 354.844 183.437 374.631 186.263C394.417 189.09 407.42 191.917 407.42 191.917L434.273 328.162C434.273 328.162 390.46 322.226 349.191 311.202C307.922 300.178 290.432 292.866 285.062 298.802L281.669 161.144Z" fill="white" stroke="#263238" stroke-miterlimit="10"/>
<path d="M351.689 198.365C351.689 198.365 353.116 198.365 400.207 208.711" stroke="#263238" stroke-miterlimit="10"/>
<path d="M352.157 204.096C352.157 204.096 353.476 204.159 369.724 207.641C377.202 209.244 388.02 211.7 401.21 214.597" stroke="#263238" stroke-miterlimit="10"/>
<path d="M352.626 209.826C352.626 209.826 354.561 209.954 370.4 213.349C378.26 215.036 389.903 217.779 402.214 220.484" stroke="#263238" stroke-miterlimit="10"/>
<path d="M353.094 215.557C353.094 215.557 355.647 215.749 371.077 219.057C379.318 220.827 391.785 223.859 403.217 226.37" stroke="#263238" stroke-miterlimit="10"/>
<path d="M353.562 221.286C353.562 221.286 356.732 221.542 371.754 224.764C380.376 226.618 393.668 229.938 404.22 232.256" stroke="#263238" stroke-miterlimit="10"/>
<path d="M354.031 227.017C354.031 227.017 357.817 227.337 372.43 230.473C381.434 232.41 395.551 236.018 405.224 238.143" stroke="#263238" stroke-miterlimit="10"/>
<path d="M354.499 232.747C354.499 232.747 358.902 233.131 373.107 236.181C382.492 238.202 397.434 242.098 406.227 244.03" stroke="#263238" stroke-miterlimit="10"/>
<path d="M354.967 238.477C354.967 238.477 359.988 238.924 373.784 241.888C383.55 243.991 399.317 248.176 407.231 249.915" stroke="#263238" stroke-miterlimit="10"/>
<path d="M355.435 244.207C355.435 244.207 361.073 244.718 374.46 247.596C384.609 249.783 401.199 254.255 408.234 255.801" stroke="#263238" stroke-miterlimit="10"/>
<path d="M355.904 249.938C355.904 249.938 362.158 250.513 375.137 253.304C385.666 255.575 403.082 260.335 409.237 261.688" stroke="#263238" stroke-miterlimit="10"/>
<path d="M356.372 255.668C356.372 255.668 363.243 256.307 375.813 259.012C386.725 261.366 404.965 266.415 410.241 267.574" stroke="#263238" stroke-miterlimit="10"/>
<path d="M356.84 261.398C356.84 261.398 364.329 262.102 376.49 264.721C387.783 267.158 406.848 272.495 411.244 273.461" stroke="#263238" stroke-miterlimit="10"/>
<path d="M357.308 267.129C357.308 267.129 365.413 267.896 377.166 270.429C388.84 272.949 408.729 278.575 412.247 279.347" stroke="#263238" stroke-miterlimit="10"/>
<path d="M357.777 272.858C357.777 272.858 366.499 273.69 377.843 276.136C389.899 278.74 410.613 284.654 413.251 285.233" stroke="#263238" stroke-miterlimit="10"/>
<path d="M358.244 278.589C358.244 278.589 367.584 279.484 378.518 281.845C390.955 284.532 412.494 290.734 414.253 291.12" stroke="#263238" stroke-miterlimit="10"/>
<path d="M358.712 284.319C358.712 284.319 368.668 285.279 379.196 287.552C392.014 290.323 414.378 296.813 415.257 297.006" stroke="#263238" stroke-miterlimit="10"/>
<path d="M359.181 290.049C359.181 290.049 369.754 291.072 379.872 293.259C393.071 296.113 416.259 302.892 416.259 302.892" stroke="#263238" stroke-miterlimit="10"/>
<path d="M290.53 175.595C290.53 175.595 300.752 175.927 310.473 179.063C319.432 181.954 326.369 188.023 344.577 196.405" stroke="#263238" stroke-miterlimit="10"/>
<path d="M345.028 202.22C327.958 194.362 321.094 188.492 311.466 185.366C301.124 182.011 290.963 181.609 290.566 181.736" stroke="#263238" stroke-miterlimit="10"/>
<path d="M345.48 208.037C329.548 200.703 322.756 195.031 312.46 191.672C301.497 188.097 291.397 187.626 290.602 187.878" stroke="#263238" stroke-miterlimit="10"/>
<path d="M345.932 213.854C331.138 207.044 324.418 201.57 313.453 197.976C301.87 194.182 291.831 193.641 290.639 194.02" stroke="#263238" stroke-miterlimit="10"/>
<path d="M346.383 219.67C332.727 213.384 326.079 208.11 314.446 204.28C302.242 200.266 292.263 199.656 290.674 200.161" stroke="#263238" stroke-miterlimit="10"/>
<path d="M346.835 225.487C334.316 219.725 327.741 214.649 315.44 210.585C302.615 206.352 292.697 205.671 290.71 206.304" stroke="#263238" stroke-miterlimit="10"/>
<path d="M347.286 231.304C335.906 226.066 329.403 221.188 316.433 216.889C302.988 212.436 293.131 211.686 290.747 212.445" stroke="#263238" stroke-miterlimit="10"/>
<path d="M347.738 237.12C337.495 232.405 331.065 227.727 317.427 223.193C303.36 218.521 293.564 217.702 290.782 218.587" stroke="#263238" stroke-miterlimit="10"/>
<path d="M348.189 242.936C339.085 238.746 332.727 234.266 318.42 229.497C303.733 224.605 293.998 223.717 290.818 224.729" stroke="#263238" stroke-miterlimit="10"/>
<path d="M348.641 248.753C340.675 245.087 334.389 240.805 319.414 235.801C304.106 230.691 294.432 229.732 290.855 230.87" stroke="#263238" stroke-miterlimit="10"/>
<path d="M349.093 254.57C342.265 251.426 336.051 247.345 320.408 242.106C304.479 236.775 294.865 235.747 290.891 237.011" stroke="#263238" stroke-miterlimit="10"/>
<path d="M349.544 260.387C343.854 257.767 337.712 253.884 321.401 248.41C304.851 242.86 295.298 241.763 290.927 243.153" stroke="#263238" stroke-miterlimit="10"/>
<path d="M349.996 266.203C345.443 264.107 339.374 260.423 322.394 254.714C305.224 248.945 295.732 247.778 290.963 249.295" stroke="#263238" stroke-miterlimit="10"/>
<path d="M350.448 272.019C347.034 270.448 341.037 266.962 323.388 261.019C305.597 255.029 296.166 253.793 291 255.437" stroke="#263238" stroke-miterlimit="10"/>
<path d="M350.899 277.836C348.623 276.789 342.698 273.501 324.381 267.323C305.969 261.115 296.599 259.809 291.035 261.579" stroke="#263238" stroke-miterlimit="10"/>
<path d="M351.351 283.653C350.213 283.129 344.359 280.04 325.375 273.627C306.342 267.199 297.033 265.824 291.071 267.72" stroke="#263238" stroke-miterlimit="10"/>
<path d="M351.802 289.47C351.802 289.47 346.022 286.579 326.369 279.932C306.715 273.285 297.466 271.84 291.108 273.863" stroke="#263238" stroke-miterlimit="10"/>
<path d="M281.669 161.144L285.061 298.802C285.061 298.802 274.885 277.885 247.75 278.732C220.614 279.58 160.689 300.497 151.078 302.476C141.467 304.455 126.769 306.434 126.769 306.434L142.881 174.994C142.881 174.994 214.113 161.991 229.094 157.468C244.076 152.945 257.078 148.14 266.689 150.402C276.299 152.664 281.669 154.36 281.669 161.144Z" fill="white" stroke="#263238" stroke-miterlimit="10"/>
<path d="M158.388 190.845L211.186 179.072" stroke="#263238" stroke-miterlimit="10"/>
<path d="M157.808 196.731C157.808 196.731 191.33 189.174 192.11 188.928C192.827 188.703 211.052 184.646 211.052 184.646" stroke="#263238" stroke-miterlimit="10"/>
<path d="M157.229 202.618C157.229 202.618 190.252 195.088 191.813 194.598C193.248 194.147 210.919 190.221 210.919 190.221" stroke="#263238" stroke-miterlimit="10"/>
<path d="M156.649 208.504C156.649 208.504 189.174 201.002 191.514 200.267C193.667 199.59 210.785 195.795 210.785 195.795" stroke="#263238" stroke-miterlimit="10"/>
<path d="M156.069 214.39C156.069 214.39 188.095 206.917 191.216 205.937C194.087 205.034 210.651 201.369 210.651 201.369" stroke="#263238" stroke-miterlimit="10"/>
<path d="M155.489 220.276C155.489 220.276 187.017 212.831 190.919 211.605C194.506 210.477 210.517 206.942 210.517 206.942" stroke="#263238" stroke-miterlimit="10"/>
<path d="M154.909 226.163C154.909 226.163 185.938 218.747 190.621 217.275C194.926 215.921 210.384 212.518 210.384 212.518" stroke="#263238" stroke-miterlimit="10"/>
<path d="M154.33 232.05C154.33 232.05 184.86 224.661 190.322 222.944C195.345 221.365 210.249 218.092 210.249 218.092" stroke="#263238" stroke-miterlimit="10"/>
<path d="M153.75 237.935C153.75 237.935 183.782 230.574 190.025 228.613C195.765 226.808 210.116 223.665 210.116 223.665" stroke="#263238" stroke-miterlimit="10"/>
<path d="M153.17 243.821C153.17 243.821 182.703 236.489 189.726 234.282C196.185 232.252 209.982 229.239 209.982 229.239" stroke="#263238" stroke-miterlimit="10"/>
<path d="M152.59 249.708C152.59 249.708 181.625 242.404 189.429 239.952C196.604 237.696 209.848 234.814 209.848 234.814" stroke="#263238" stroke-miterlimit="10"/>
<path d="M152.011 255.594C152.011 255.594 180.547 248.318 189.131 245.62C197.024 243.139 209.714 240.388 209.714 240.388" stroke="#263238" stroke-miterlimit="10"/>
<path d="M151.431 261.481C151.431 261.481 179.468 254.234 188.833 251.291C197.443 248.584 209.581 245.963 209.581 245.963" stroke="#263238" stroke-miterlimit="10"/>
<path d="M150.851 267.367C150.851 267.367 178.389 260.147 188.534 256.959C197.862 254.027 209.446 251.536 209.446 251.536" stroke="#263238" stroke-miterlimit="10"/>
<path d="M150.272 273.254C150.272 273.254 177.312 266.062 188.237 262.629C198.283 259.471 209.313 257.111 209.313 257.111" stroke="#263238" stroke-miterlimit="10"/>
<path d="M149.692 279.14C149.692 279.14 176.233 271.977 187.939 268.297C198.702 264.915 209.179 262.685 209.179 262.685" stroke="#263238" stroke-miterlimit="10"/>
<path d="M149.113 285.026C149.113 285.026 175.155 277.891 187.641 273.967C199.122 270.359 209.046 268.259 209.046 268.259" stroke="#263238" stroke-miterlimit="10"/>
<path d="M218.678 176.932C218.678 176.932 267.909 161.235 275.044 169.083" stroke="#263238" stroke-miterlimit="10"/>
<path d="M218.522 182.64C218.522 182.64 235.229 177.256 250.264 174.426C261.733 172.292 272.238 171.837 275.066 174.947" stroke="#263238" stroke-miterlimit="10"/>
<path d="M218.366 188.348C218.366 188.348 235.376 182.81 250.204 180.063C261.978 177.929 272.449 177.908 275.089 180.811" stroke="#263238" stroke-miterlimit="10"/>
<path d="M218.21 194.056C218.21 194.056 235.515 188.326 250.143 185.7C262.217 183.533 272.66 183.98 275.11 186.675" stroke="#263238" stroke-miterlimit="10"/>
<path d="M218.053 199.764C218.053 199.764 235.661 193.872 250.083 191.338C262.462 189.162 272.87 190.051 275.133 192.54" stroke="#263238" stroke-miterlimit="10"/>
<path d="M217.897 205.471C217.897 205.471 235.806 199.421 250.023 196.974C262.706 194.792 273.082 196.122 275.155 198.403" stroke="#263238" stroke-miterlimit="10"/>
<path d="M217.741 211.18C217.741 211.18 235.953 204.972 249.962 202.612C262.95 200.424 273.292 202.194 275.177 204.268" stroke="#263238" stroke-miterlimit="10"/>
<path d="M217.585 216.887C217.585 216.887 236.099 210.524 249.902 208.248C263.195 206.056 273.503 208.264 275.2 210.13" stroke="#263238" stroke-miterlimit="10"/>
<path d="M217.429 222.595C217.429 222.595 236.246 216.079 249.841 213.886C263.44 211.691 273.713 214.336 275.222 215.995" stroke="#263238" stroke-miterlimit="10"/>
<path d="M217.273 228.302C217.273 228.302 236.393 221.636 249.781 219.522C263.686 217.327 273.924 220.407 275.244 221.858" stroke="#263238" stroke-miterlimit="10"/>
<path d="M217.117 234.011C217.117 234.011 236.541 227.194 249.72 225.16C263.931 222.966 274.135 226.479 275.266 227.724" stroke="#263238" stroke-miterlimit="10"/>
<path d="M216.961 239.719C216.961 239.719 236.688 232.754 249.66 230.798C264.177 228.607 274.346 232.55 275.288 233.588" stroke="#263238" stroke-miterlimit="10"/>
<path d="M216.805 245.427C216.805 245.427 236.836 238.315 249.6 236.434C264.424 234.249 274.557 238.622 275.311 239.452" stroke="#263238" stroke-miterlimit="10"/>
<path d="M216.649 251.135C216.649 251.135 236.985 243.878 249.539 242.072C264.67 239.894 274.768 244.693 275.333 245.315" stroke="#263238" stroke-miterlimit="10"/>
<path d="M216.493 256.842C216.493 256.842 237.136 249.464 249.479 247.708C264.921 245.569 274.979 250.764 275.356 251.179" stroke="#263238" stroke-miterlimit="10"/>
<path d="M216.337 262.551C216.337 262.551 237.282 255.019 249.419 253.346C265.166 251.206 275.19 256.836 275.379 257.043" stroke="#263238" stroke-miterlimit="10"/>
<path d="M216.18 268.258C216.18 268.258 237.429 260.573 249.358 258.983C265.411 256.842 275.4 262.907 275.4 262.907" stroke="#263238" stroke-miterlimit="10"/>
<path d="M334.359 310.501C337.86 311.234 340.046 311.78 340.046 311.78" stroke="#263238" stroke-miterlimit="10"/>
<path d="M279.995 298.785C282.383 301.555 283.648 303.607 283.648 303.607C283.648 303.607 296.416 298.454 311.853 298.908C320.72 299.169 325.079 308.655 331.786 309.977" stroke="#263238" stroke-miterlimit="10"/>
<path d="M272.359 291.566C274.591 293.259 276.518 295.05 278.118 296.719" stroke="#263238" stroke-miterlimit="10"/>
<path d="M229.671 285.287C234.665 283.925 249.649 281.201 262.816 286.195C266.425 287.564 269.621 289.49 272.358 291.565" stroke="#263238" stroke-miterlimit="10"/>
<path d="M264.532 290.329C260.194 288.746 253.711 287.113 245.136 286.909C227.987 286.501 187.97 295.484 187.97 295.484" stroke="#263238" stroke-miterlimit="10"/>
<path d="M271.065 293.441C271.065 293.441 269.94 292.657 267.708 291.63" stroke="#263238" stroke-miterlimit="10"/>
<path d="M268.551 305.037L160.357 310.239" stroke="#263238" stroke-miterlimit="10"/>
<path d="M278.729 304.548L272.822 304.831" stroke="#263238" stroke-miterlimit="10"/>
<path d="M187.816 315.331L194.123 315.171" stroke="#263238" stroke-miterlimit="10"/>
<path d="M134.178 316.689L184.195 315.423" stroke="#263238" stroke-miterlimit="10"/>
<path d="M258.376 318.389L263.933 318.206" stroke="#263238" stroke-miterlimit="10"/>
<path d="M183.5 320.862L253.919 318.537" stroke="#263238" stroke-miterlimit="10"/>
<path d="M233.919 313.147L219.163 313.653" stroke="#263238" stroke-miterlimit="10"/>
<path d="M274.556 311.757L237.96 313.01" stroke="#263238" stroke-miterlimit="10"/>
<path d="M165.494 321.38L170.6 321.241" stroke="#263238" stroke-miterlimit="10"/>
<path d="M114.828 322.758L162.309 321.467" stroke="#263238" stroke-miterlimit="10"/>
<path d="M199.851 164.891C199.851 164.891 210.376 151.05 217.007 145.283C223.64 139.516 235.03 130.433 239.643 130.433C244.257 130.433 245.41 133.316 245.698 134.326C245.987 135.335 249.88 149.896 249.88 150.617C249.88 151.338 245.843 152.492 245.554 151.627C245.266 150.762 243.536 138.363 242.815 136.056C242.094 133.749 242.238 132.452 236.76 134.759C231.281 137.066 215.133 154.367 211.817 158.404C208.501 162.441 205.329 166.622 205.329 166.622C205.329 166.622 201.437 164.891 199.851 164.891Z" fill="#263238" stroke="#263238" stroke-miterlimit="10"/>
<path d="M378.007 179C377.667 178.51 377.22 177.946 376.899 177.866C376.394 177.74 373.011 183.48 372.182 184.902C373.14 183.854 373.728 183.25 373.728 183.345C373.728 183.778 371.998 192.284 370.412 196.321C368.826 200.358 369.258 202.232 370.844 202.089C372.43 201.945 374.593 194.735 375.891 190.698C376.848 187.721 377.802 182.552 378.007 179Z" fill="white" stroke="#263238" stroke-miterlimit="10"/>
<path d="M377.909 175.992C377.332 173.397 373.584 176.713 371.998 179.02C370.412 181.327 363.203 189.112 359.166 193.005C355.13 196.898 339.991 209.874 338.405 211.028C336.819 212.181 334.945 214.199 333.791 214.343C332.638 214.487 329.61 214.343 328.169 213.478C326.727 212.614 326.006 211.028 319.085 207.279C312.165 203.53 282.176 194.88 280.013 194.735C277.851 194.591 276.12 196.753 273.093 198.051C270.065 199.348 265.02 199.637 262.856 197.762C260.693 195.888 258.099 191.13 256.657 187.67C255.215 184.211 252.908 183.345 250.889 182.191C248.871 181.038 224.649 170.369 220.179 168.927C215.71 167.485 211.24 166.476 209.222 166.331C207.203 166.187 205.329 166.62 205.329 166.62C205.329 166.62 205.04 167.052 203.887 166.187C202.733 165.322 198.985 163.737 197.832 166.043C196.678 168.35 194.948 173.685 195.957 175.704C196.966 177.722 196.966 177.722 196.966 177.722C196.966 177.722 195.957 190.698 196.389 195.167C196.822 199.637 200.282 205.404 203.166 208.865C206.049 212.325 217.583 218.813 226.09 220.831C234.596 222.849 239.787 221.696 242.093 220.11C244.4 218.524 251.465 210.594 253.195 208.72C254.925 206.845 254.781 205.692 260.403 207.423C266.026 209.152 268.045 213.19 269.054 216.217C270.064 219.245 273.812 231.356 276.84 235.248C279.868 239.141 284.193 243.755 291.546 246.927C298.899 250.099 303.801 252.55 310.721 251.685C317.641 250.82 321.39 247.648 323.553 243.899C325.716 240.15 327.158 232.653 327.879 230.347C328.6 228.04 330.907 226.598 330.907 226.598C330.907 226.598 333.79 225.301 334.655 223.283C335.52 221.264 342.296 215.064 342.296 215.064C342.296 215.064 353.254 206.414 357.434 201.656C361.616 196.898 373.726 182.913 373.726 183.346C373.726 183.778 371.996 192.285 370.41 196.322C368.824 200.358 369.257 202.233 370.843 202.089C372.429 201.945 374.592 194.736 375.889 190.699C377.188 186.661 378.486 178.587 377.909 175.992ZM255.359 199.781C255.359 199.781 255.07 200.935 254.205 202.232C253.34 203.53 247.573 212.757 243.968 215.641C240.364 218.524 236.183 220.976 231.857 220.542C227.532 220.11 216.43 215.929 208.212 209.441C199.994 202.953 198.84 194.446 199.705 186.228C200.57 178.01 203.454 172.387 207.779 171.522C212.104 170.657 226.378 174.262 236.182 179.452C245.986 184.642 254.348 190.986 254.925 193.149C255.503 195.312 255.359 199.781 255.359 199.781ZM324.42 229.338C323.555 236.835 321.824 241.16 319.229 244.621C316.635 248.081 313.607 249.667 305.532 248.946C297.458 248.225 291.403 245.197 285.78 241.16C280.157 237.124 278.283 231.789 276.12 226.742C273.958 221.696 270.209 211.604 272.371 205.26C274.534 198.916 280.877 200.502 280.877 200.502C280.877 200.502 286.212 201.656 286.645 201.8C287.077 201.944 318.941 211.315 320.382 213.478C321.824 215.641 325.285 221.841 324.42 229.338Z" fill="#263238" stroke="#263238" stroke-miterlimit="10"/>
<path d="M253.34 186.806C253.34 186.806 254.637 187.671 255.936 191.275C257.233 194.879 259.107 200.791 264.298 201.944C269.488 203.098 274.678 198.628 274.678 198.628" stroke="white" stroke-miterlimit="10"/>
<path d="M280.878 198.052C280.878 198.052 304.091 203.819 314.327 208.432C324.563 213.046 325.573 217.083 326.006 217.372C326.438 217.66 330.763 219.534 332.926 217.948" stroke="white" stroke-miterlimit="10"/>
<path d="M198.553 167.486C198.553 167.486 201.149 169.793 203.167 169.216C205.186 168.64 208.069 168.063 211.097 168.928C214.125 169.793 225.226 172.243 237.337 177.722C249.448 183.201 252.187 185.508 252.187 185.508" stroke="white" stroke-miterlimit="10"/>
<path d="M198.553 192.717C198.553 192.717 197.977 202.232 204.465 207.855" stroke="white" stroke-miterlimit="10"/>
</svg>
