<svg width="314" height="166" viewBox="0 0 314 166" fill="none" xmlns="http://www.w3.org/2000/svg">
<path d="M184.1 140.891C176.668 140.657 169.219 141.176 161.81 140.455C158.944 140.144 155.684 141.015 153.09 139.507C150.383 139.568 151.52 133.551 151.505 131.766C151.78 127.156 152.195 122.552 152.922 117.989V117.99C152.927 117.957 152.932 117.925 152.937 117.892C152.935 117.899 152.934 117.907 152.933 117.914C152.952 117.785 152.971 117.656 152.991 117.526C152.991 117.522 152.991 117.518 152.992 117.514C152.992 117.515 152.992 117.517 152.992 117.519C152.995 117.493 153 117.465 153.003 117.439C153.003 117.44 153.003 117.44 153.003 117.44C153.281 114.423 154.091 111.521 154.743 108.574C155.174 105.566 156.006 102.644 156.47 99.646C156.737 96.1349 158.052 92.8514 159.239 89.5709C160.338 86.6325 161.227 83.588 163.052 80.9924C164.426 78.5905 165.948 76.2172 167.98 74.3151C167.945 74.3501 167.91 74.3844 167.875 74.4192C170.883 70.9966 174.526 68.1923 178.428 65.8534C180.069 65.0123 182.657 62.0111 183.001 65.6407C183.385 72.278 185.075 78.7913 185.125 85.4653C186.245 84.9478 187.36 84.4164 188.372 83.7033C189.181 83.0445 190.087 83.9852 189.749 84.8655C189.619 89.3128 190.07 93.8278 189.966 98.3039C190.139 103.33 190.116 108.37 190.534 113.384C191.118 117.945 191.9 122.474 192.515 127.029C192.553 127.153 192.565 127.283 192.554 127.411C196.422 126.806 200.318 126.808 204.223 126.797C205.316 126.937 209.376 126.277 209.541 127.484C209.563 127.472 209.584 127.459 209.606 127.446C209.601 127.298 209.631 127.15 209.688 127.016C206.35 124.237 205.872 121.178 205.887 117.043C205.831 114.052 205.688 111.063 205.658 108.072C205.578 98.3698 205.863 88.634 207.476 79.0486C207.47 79.0899 207.464 79.1319 207.457 79.1738C207.888 74.9276 209.196 70.8383 209.63 66.5925C209.669 64.4522 209.677 61.3446 212.63 63.3468C213.429 63.7935 214.426 63.6457 215.26 64.0839C224.464 67.4258 227.505 74.7859 231.411 82.9702C234.187 89.4489 238.335 95.3108 240.082 102.221C240.335 101.899 240.584 101.574 240.835 101.251C240.817 101.274 240.798 101.298 240.779 101.322C244.545 96.0476 248.105 90.6097 252.363 85.7095C253.068 84.7881 253.878 83.9579 254.634 83.0793C255.353 82.0285 256.176 82.4944 256.843 83.3061C256.815 83.2807 256.788 83.2553 256.761 83.2299C258.728 85.0586 261.188 86.3647 262.785 88.5855C264.132 89.8926 263.007 91.1875 262.069 92.3067C260.529 94.4474 259.384 96.8209 257.801 98.9338C257.802 98.9312 257.804 98.928 257.805 98.9255C254.435 104.232 250.353 109.034 246.871 114.274C245.577 116.222 244.001 117.956 242.666 119.873C240.763 122.133 238.836 126.268 235.285 125.308C231.508 123.991 230.654 119.76 228.983 116.58C226.964 112.207 225.271 107.676 222.681 103.592C222.681 103.593 222.682 103.593 222.682 103.595C222.638 103.518 222.596 103.441 222.554 103.363C221.712 104.879 220.127 105.878 219.355 107.437C219.374 110.827 219.595 114.222 219.501 117.616C219.502 117.574 219.502 117.532 219.503 117.491C219.264 120.559 219.586 123.757 218.997 126.757C218.597 127.338 217.793 127.074 217.195 127.171C214.808 127.546 212.381 127.789 210.021 128.262C209.957 128.805 209.819 129.339 209.753 129.884C209.758 129.85 209.763 129.817 209.768 129.783C209.291 131.584 210.151 140.089 207.507 139.732C203.935 139.658 200.407 140.27 196.85 140.485C192.604 140.735 188.351 140.804 184.1 140.891ZM174.04 105.284C172.624 112.329 172.199 119.536 170.827 126.574C172.703 126.582 174.573 126.179 176.417 125.875C176.351 121.804 175.463 117.825 175.038 113.791C175.042 113.826 175.046 113.86 175.05 113.895C174.651 110.63 174.562 107.343 174.266 104.065C174.192 104.471 174.116 104.877 174.04 105.284Z" fill="#FF8FA3"/>
<path d="M237.924 137.935C237.533 137.992 237.2 137.624 237.362 137.246C237.551 136.861 237.992 136.686 238.298 136.403C238.293 136.407 238.289 136.41 238.284 136.414C243.525 132.254 248.199 127.331 253.944 123.812C253.951 123.613 254.194 123.59 254.345 123.556C254.767 123.281 255.315 122.99 255.805 123.265C259.095 122.701 262.433 122.519 265.76 122.35C270.248 121.953 274.729 121.461 279.212 121.019C280.478 120.795 281.753 120.678 283.028 120.515C283.593 120.32 284.235 120.499 283.941 121.22C283.331 121.764 282.514 122.134 281.901 122.732C279.936 126.333 276.117 128.557 273.359 131.533C272.111 132.825 270.933 134.179 269.723 135.505C269.162 136.001 268.775 136.82 268.043 137.062C267.626 137.127 267.361 136.643 267.487 136.28C264.502 136.101 261.535 136.169 258.553 136.399C258.571 136.397 258.589 136.396 258.607 136.394C258.578 136.396 258.55 136.4 258.521 136.401C258.523 136.401 258.523 136.401 258.525 136.401C253.093 136.782 247.663 136.924 242.246 137.531C242.247 137.531 242.248 137.531 242.249 137.531C242.139 137.539 242.03 137.547 241.92 137.555C241.942 137.554 241.964 137.552 241.986 137.55C240.626 137.611 239.281 137.868 237.924 137.935Z" fill="#683DE4"/>
<path d="M254.73 124.528C252.835 121.459 269.847 121.762 271.791 121.438C274.239 121.355 276.671 121.079 279.118 120.987C279.42 120.977 279.601 121.288 279.579 121.558C279.382 122.523 277.989 122.065 277.271 122.249C277.285 122.248 277.3 122.247 277.314 122.246C277.03 122.268 276.746 122.295 276.461 122.316C276.486 122.314 276.511 122.312 276.537 122.31C274.683 122.506 272.822 122.604 270.964 122.735C270.972 122.735 270.981 122.734 270.99 122.733C270.963 122.735 270.936 122.737 270.909 122.739C270.914 122.739 270.918 122.739 270.923 122.738C265.614 123.112 260.24 123.211 254.97 123.861C254.926 123.984 254.864 124.169 254.947 124.282C255.084 124.412 254.863 124.679 254.73 124.528Z" fill="#683DE4"/>
<path d="M204.563 47.643C203.919 47.5629 203.653 46.959 203.357 46.4658C202.846 46.2315 203.437 45.477 203.773 46.1358C204.157 47.0937 205.602 47.4895 206.255 46.6066C206.906 45.4729 207.019 48.0277 204.563 47.643Z" fill="#231F20"/>
<path d="M197.634 39.4834C196.88 39.5245 193.837 38.0077 194.616 37.1146C194.602 36.9984 194.718 36.8676 194.837 36.9144C196.024 36.0512 197.439 35.6016 198.908 35.8088C199.947 35.8668 200.884 36.3267 201.802 36.7746C202.438 37.0848 201.998 37.9266 201.571 38.229C201.582 38.2201 201.594 38.2112 201.606 38.2023C200.443 39.0216 199.069 39.5578 197.634 39.4834ZM197.961 38.7414C199.192 38.6998 200.693 38.3416 201.512 37.3833C200.579 36.9203 199.639 36.4192 198.572 36.3901C198.585 36.3913 198.598 36.3926 198.611 36.3939C197.939 36.3447 197.261 36.3641 196.606 36.5324C196.617 36.5299 196.629 36.5274 196.64 36.5249C196.098 36.666 195.602 36.9366 195.095 37.1695C195.625 37.8636 196.41 38.4198 197.256 38.6495C197.253 38.6485 197.249 38.6476 197.246 38.6465C197.481 38.7014 197.719 38.7556 197.961 38.7414Z" fill="#231F20"/>
<path d="M198.772 38.4445C197.792 37.9016 198.511 36.1355 199.576 36.441C200.839 37.0814 200.171 39.1256 198.772 38.4445ZM199.185 37.6705C199.229 37.632 199.271 37.5891 199.297 37.5365C199.278 37.5418 199.26 37.5494 199.243 37.5585C199.233 37.5998 199.211 37.6379 199.177 37.6646C199.18 37.6665 199.183 37.6685 199.185 37.6705Z" fill="#231F20"/>
<path d="M210.274 38.6682C209.609 38.6435 208.88 38.5531 208.394 38.0525C208.192 37.778 207.871 37.5861 207.717 37.2856C207.61 36.9818 207.888 36.5759 208.225 36.668C208.591 35.9756 209.419 35.7719 210.122 35.5895C210.11 35.592 210.097 35.5952 210.085 35.5978C211.306 35.2989 213.539 35.2019 214.09 36.5216C213.406 37.9374 211.86 38.8695 210.274 38.6682ZM210.376 37.8574C211.617 37.9798 212.706 37.5378 213.499 36.5658C212.387 35.8702 211.048 35.9674 209.814 36.2385C209.817 36.2378 209.82 36.2372 209.822 36.2365C209.81 36.2396 209.799 36.2421 209.787 36.2448C209.793 36.2434 209.8 36.242 209.806 36.2405C209.345 36.3714 208.797 36.4688 208.523 36.9049C208.94 37.5585 209.592 37.9177 210.376 37.8574Z" fill="#231F20"/>
<path d="M211.579 38.0632C210.174 37.9939 210.211 36.2426 211.652 36.3398C212.854 36.3389 212.716 38.1022 211.579 38.0632ZM211.674 37.3008C211.675 37.3007 211.676 37.3006 211.677 37.3004C211.669 37.2834 211.663 37.2653 211.66 37.2466C211.605 37.2388 211.551 37.2282 211.496 37.2293C211.491 37.2443 211.486 37.2592 211.48 37.2738C211.544 37.2854 211.608 37.3032 211.674 37.3008Z" fill="#231F20"/>
<path d="M207.812 37.4434C207.22 37.1719 208.906 35.6119 209.103 36.3505C209.123 36.8249 208.424 36.7822 208.195 37.1324C208.246 37.3503 207.992 37.4563 207.812 37.4434Z" fill="#231F20"/>
<path d="M193.079 35.8544C192.872 35.1526 193.871 35.2725 194.263 35.0277C196.027 34.1292 198.018 34.1025 199.952 34.1326C200.974 34.2335 202.463 33.937 203.146 34.8517C203.266 35.2909 202.787 35.5434 202.441 35.2813C200.146 35.0339 197.726 35.1681 195.429 35.4633C194.794 35.5281 193.571 36.2912 193.079 35.8544Z" fill="#231F20"/>
<path d="M207.563 35.1316C205.783 33.3791 214.284 33.4157 214.361 34.6073C214.23 35.1883 213.528 34.6487 213.165 34.6089C211.386 34.3178 209.549 34.6677 207.844 35.1741C207.851 35.1726 207.857 35.171 207.864 35.1695C207.761 35.1912 207.659 35.1851 207.563 35.1316Z" fill="#231F20"/>
<path d="M193.809 38.8662C193.751 38.4722 194.24 38.4773 194.494 38.3515C194.493 38.3521 194.491 38.3528 194.49 38.3533C194.62 38.3015 194.746 38.2453 194.868 38.1771C194.867 38.178 194.865 38.1789 194.864 38.1797C194.884 38.1683 194.904 38.1571 194.924 38.1455C194.915 38.1506 194.906 38.1556 194.897 38.1608C195.701 37.5183 195.947 38.3919 195.401 38.3601C195.01 38.5244 194.108 39.4476 193.809 38.8662Z" fill="#231F20"/>
<path d="M194.72 39.4884C194.529 39.0709 195.182 38.992 195.394 38.7587C195.393 38.7601 195.391 38.7613 195.389 38.7627C195.396 38.7572 195.404 38.7517 195.411 38.7462C195.407 38.7492 195.403 38.7521 195.399 38.7549C195.569 38.6341 196.116 38.0372 196.057 38.5754C195.788 38.8391 195.104 39.784 194.72 39.4884Z" fill="#231F20"/>
<path d="M195.829 39.9394C195.758 39.7906 195.827 39.6187 195.96 39.5348C195.959 39.5352 195.959 39.5355 195.958 39.5359C196.171 39.421 196.306 39.2051 196.342 38.9691C196.34 38.9805 196.338 38.992 196.337 39.0041C196.285 38.7465 196.646 38.5153 196.762 38.8159C196.848 39.2386 196.317 40.4104 195.829 39.9394Z" fill="#231F20"/>
<path d="M212.298 39.3309C212.151 39.0749 211.69 38.6721 211.945 38.3853C212.217 38.2973 212.394 38.8248 212.622 38.9641C212.814 39.1605 212.513 39.5484 212.298 39.3309Z" fill="#231F20"/>
<path d="M213.32 38.8716C213.034 38.6457 212.152 38.2343 212.553 37.8155C212.905 37.7192 213.195 38.2194 213.544 38.3117C213.541 38.3104 213.538 38.3091 213.535 38.3078C213.841 38.4409 213.635 38.9828 213.32 38.8716Z" fill="#231F20"/>
<path d="M213.694 38.1065C213.429 37.9157 212.928 37.0046 213.607 37.1787C213.598 37.173 213.59 37.1673 213.582 37.1622C213.64 37.1919 213.674 37.2474 213.685 37.3081C213.791 37.4374 213.932 37.5281 214.068 37.6242C214.359 37.8458 213.98 38.3887 213.694 38.1065Z" fill="#231F20"/>
<path d="M269.754 92.1323C268.796 91.9899 267.842 91.7011 266.886 91.5953C265.905 91.3427 263.581 91.6567 263.304 90.4517C263.891 86.0123 265.336 81.8579 266.858 77.6498C265.386 77.6893 267.482 75.4915 267.789 75.0209C268.721 73.8284 271.377 73.5415 271.122 71.5939L271.121 71.5945C270.286 71.2034 267.796 72.5722 266.865 73.0223C264.847 74.0977 263.064 75.167 261.457 76.8979L261.475 76.8776C260.766 77.5963 260.076 78.3199 259.356 79.0356L259.366 79.0229C259.362 79.0268 259.358 79.0305 259.354 79.0344C259.359 79.0291 259.364 79.0249 259.368 79.0198C258.271 80.0779 257.245 81.2094 256.229 82.3527C255.761 82.7208 255.511 83.4589 254.941 83.6498C253.06 83.2768 260.827 75.8035 261.644 75.1601C262.678 74.2407 264.036 73.4343 265.202 72.6661C266.031 72.0651 266.86 71.6253 267.851 71.1696C268.086 71.0574 268.325 70.9467 268.563 70.8398C268.767 70.7307 269.01 70.5387 269.233 70.6905C269.243 70.6862 269.265 70.6779 269.275 70.674C269.749 68.1332 270.766 65.5625 271.292 63.0595C271.628 62.1488 271.646 60.3573 272.292 59.7417C272.671 59.514 273.183 59.6523 273.606 59.6712C273.653 59.2731 273.741 58.8789 273.818 58.4855H273.816C274.119 56.985 274.504 55.5817 274.792 54.0385C275.195 52.9906 277.119 53.4906 277.888 53.9208C278.723 54.9753 277.047 58.7546 276.968 60.2391C278.925 60.5247 278.358 61.735 278.022 63.1781C277.428 65.3328 277.049 67.8026 276.359 69.9939C279.026 69.3818 278.693 71.4567 277.201 72.8051C279.691 72.8252 278.794 75.0311 277.311 75.9214C278.654 76.8361 277.217 78.1986 276.351 78.798C275.829 79.1781 274.474 80.4696 274.486 79.0331C274.984 78.0965 276.303 77.7985 276.944 76.9406C274.327 75.4082 277.481 75.4918 277.991 73.9782H277.989L277.988 73.9585L277.987 73.9592C277.456 73.5475 276.602 73.9477 276.041 73.6377C275.334 72.6734 277.426 71.8153 277.575 70.8773C277.156 70.5879 276.598 70.6834 276.128 70.8169C275.594 72.9692 275.301 75.1776 274.685 77.3042C273.744 80.5837 272.734 83.8322 271.89 87.1416L271.896 87.1168C271.873 87.1988 271.826 87.3687 271.802 87.4517L271.809 87.425C271.619 88.1563 271.379 88.8953 271.139 89.635C270.858 90.5109 270.945 92.2731 269.754 92.1323Z" fill="#231F20"/>
<path d="M278.666 55.1864C277.719 55.0748 276.767 55.1235 275.817 55.0949C275.862 55.0987 275.906 55.1031 275.952 55.107C275.139 54.9596 273.813 54.8078 273.672 53.8116C269.502 52.696 265.61 50.0935 263.057 46.6009C260.365 42.9425 258.089 38.8883 257.01 34.4477C257.019 34.4853 257.028 34.5228 257.037 34.5596C251.087 11.6712 275.383 -6.66461 296.339 2.33679C296.329 2.33214 296.319 2.32748 296.309 2.32283C302.615 4.95981 307.634 10.2452 310.398 16.4512C311.588 18.8805 312.701 21.4234 312.956 24.144C314.194 35.1509 307.443 46.0996 298.103 51.582C292.267 55.0946 285.325 55.6911 278.666 55.1864ZM283.342 53.3989C290.703 53.8981 298.076 50.9161 303.246 45.6923C303.241 45.6975 303.235 45.7028 303.23 45.7082C306.131 42.8735 308.315 39.3959 309.91 35.682C309.894 35.7195 309.877 35.7576 309.862 35.7951C310.852 33.3121 311.492 30.656 311.638 27.9834C311.638 27.9998 311.638 28.0163 311.638 28.0325C311.638 27.9935 311.639 27.9545 311.64 27.9156C311.64 27.9289 311.639 27.9422 311.639 27.9556C311.642 27.8122 311.644 27.6689 311.648 27.5255C311.647 27.5465 311.646 27.5674 311.646 27.5884C311.824 23.7755 310.754 20.0874 308.954 16.7503C307.737 14.0945 306.179 11.6177 304.115 9.53475C295.061 -0.742305 278.271 -0.884666 267.837 7.38073C258.311 14.3632 254.671 28.2732 260.39 38.7691C263.796 45.6108 266.967 49.5678 274.121 52.6818C274.812 52.0859 275.588 52.8091 276.282 53.0171C278.633 53.2089 280.977 53.4641 283.342 53.3989Z" fill="#231F20"/>
<path d="M280.279 51.0621C279.587 51.0051 274.221 50.3479 274.442 49.6965C269.266 47.9203 266.075 43.2387 264.006 38.4057C262.275 34.2672 260.86 29.8361 261.201 25.3036C261.201 25.3094 261.201 25.3153 261.201 25.3213C261.445 15.7258 269.231 7.64947 278.044 4.77659C286.328 2.07242 296.65 5.23095 302.082 12.0381C302.078 12.0332 302.074 12.0283 302.071 12.0232C305.218 15.744 307.122 20.6378 306.968 25.536C306.968 25.5207 306.969 25.5055 306.969 25.4902C306.968 25.5683 306.967 25.6466 306.965 25.7247C306.965 25.7094 306.965 25.6942 306.966 25.6789C306.875 28.3424 306.462 31.04 305.47 33.5247C305.471 33.5221 305.472 33.5197 305.473 33.5172C305.466 33.5326 305.46 33.5481 305.453 33.5636C305.455 33.559 305.457 33.5543 305.459 33.5497C305.447 33.5785 305.434 33.6073 305.422 33.6361C305.424 33.633 305.425 33.6298 305.426 33.6266C305.42 33.642 305.413 33.6574 305.407 33.673C305.408 33.6709 305.409 33.6689 305.409 33.6667C303.146 39.082 300.034 44.796 294.574 47.5087C290.102 49.5332 285.252 51.2624 280.279 51.0621ZM280.689 50.2812C282.491 50.2839 284.307 50.1862 286.061 49.7456C286.05 49.7481 286.039 49.7505 286.028 49.7532C288.274 49.2155 290.463 48.4831 292.643 47.7249C292.631 47.7299 292.617 47.735 292.605 47.7402C292.69 47.7076 292.771 47.6731 292.858 47.6404C292.85 47.6433 292.843 47.6461 292.836 47.649C292.872 47.6352 292.907 47.621 292.943 47.6067C292.937 47.6091 292.931 47.6114 292.925 47.6136C293.762 47.2694 294.578 46.8744 295.37 46.438C295.368 46.4394 295.366 46.4407 295.364 46.4419C300.949 43.0807 304.896 35.2118 306.089 28.9485C306.088 28.9643 306.085 28.9797 306.083 28.9955C306.254 27.8428 306.382 26.6815 306.391 25.5151C306.391 25.5304 306.39 25.5456 306.39 25.5609C306.509 21.2862 304.974 16.9694 302.377 13.5929C302.377 13.594 302.378 13.5949 302.379 13.596C302.369 13.5836 302.36 13.571 302.35 13.5585C302.353 13.5623 302.356 13.5662 302.359 13.57C298.269 7.94484 291.494 4.95647 284.668 4.54589C284.683 4.54775 284.698 4.54908 284.713 4.55028C283.809 4.49068 282.901 4.45874 281.997 4.52766C281.999 4.52753 282 4.52753 282.002 4.5274C280.146 4.68439 278.348 5.24359 276.61 5.88979C276.618 5.8866 276.626 5.88314 276.634 5.87981C274.421 6.75433 272.354 8.01335 270.433 9.41074C270.436 9.40861 270.439 9.40662 270.442 9.40449C267.83 11.3898 265.737 14.0124 264.046 16.8076C264.047 16.8065 264.047 16.8053 264.048 16.8043C262.678 19.4568 261.784 22.4411 261.739 25.4381C261.74 25.4241 261.74 25.4095 261.741 25.3955C261.404 29.4392 262.669 33.3384 264.054 37.0884C264.054 37.0875 264.053 37.0867 264.053 37.0858C264.687 38.5597 265.361 40.0219 266.12 41.4357C266.118 41.4314 266.115 41.4271 266.113 41.4227C266.119 41.434 266.126 41.4456 266.132 41.457C266.129 41.4509 266.126 41.4448 266.122 41.4385C268.1 44.7141 270.168 47.1811 273.79 48.6783C274.267 49.0004 275.948 49.1615 275.964 49.7175C277.531 49.9539 279.104 50.2164 280.689 50.2812Z" fill="#231F20"/>
<path d="M223.717 139.852C222.671 139.743 221.845 138.954 220.889 138.565C218.619 138.134 216.244 138.666 213.944 138.688C213.945 138.688 213.946 138.688 213.947 138.687C213.225 138.743 212.506 138.827 211.784 138.88C211.811 138.878 211.838 138.876 211.864 138.874C211.788 138.88 211.711 138.886 211.635 138.891C211.662 138.889 211.689 138.887 211.716 138.886C210.826 138.886 207.448 139.828 208.615 137.925C208.736 137.819 208.926 137.737 209.089 137.779C210.177 137.92 211.269 137.587 212.363 137.587C212.336 137.589 212.309 137.591 212.283 137.593C215.141 137.401 218.05 137.214 220.903 137.488C222.07 137.754 222.936 139.083 224.164 138.98C224.423 138.087 222.348 136.487 222.132 135.583C222.321 133.732 225.759 137.066 226.688 137.221C226.671 137.213 226.655 137.205 226.638 137.198C227.12 137.369 227.774 137.727 228.229 137.334C227.69 136.463 226.937 135.666 226.137 135.023C225.677 134.686 225.037 134.465 224.783 133.923C224.615 131.485 230.08 135.975 231.251 135.762C230.449 134.058 228.37 133.47 227.217 132.138C227.062 129.771 232.665 134.07 234 133.399C233.012 131.406 230.907 129.969 228.944 128.995C228.965 129.006 228.988 129.015 229.009 129.025C222.433 126.11 215.221 128.701 208.409 128.385C208.316 128.496 208.151 128.48 208.039 128.405C204.721 128.434 201.357 128.188 198.041 128.471C196.053 128.686 193.982 128.551 192.019 128.184C191.246 128.151 191.546 127.221 191.356 126.702C190.107 118.05 189.922 109.274 189.321 100.559C189.118 95.2377 188.296 89.973 187.854 84.6762C186.684 85.3624 183.834 88.1829 183.966 85.1006C183.966 83.201 183.838 81.3042 183.656 79.4134C183.072 74.7742 181.649 70.2462 181.791 65.5301C169.265 70.2228 162.606 81.2585 158.542 93.403C158.17 94.5147 157.812 95.6344 157.552 96.7789C157.448 98.5682 155.985 98.5479 154.629 98.0325C150.355 96.4682 149.829 91.9534 151.745 88.2803C152.457 86.9265 153.478 85.7554 154.158 84.3825C154.526 83.5137 154.208 82.5601 154.296 81.6534C154.546 80.4591 154.73 79.0234 155.68 78.1723C156.913 74.1611 163.169 73.8365 162.33 69.8143C162.333 69.8397 162.336 69.8652 162.339 69.8906C160.944 63.1561 166.362 59.5717 171.142 56.1981C171.824 55.4035 171.817 54.2813 172.041 53.3072C172.297 52.0904 172.687 50.8981 173.269 49.7964C174.858 46.6631 178.036 44.6255 179.375 41.3583C179.369 41.3736 179.362 41.3881 179.356 41.4034C180.542 38.2945 180.915 34.8991 182.637 31.9957C187.499 22.2656 196.184 18.4184 206.648 21.425C206.639 21.4211 206.631 21.4174 206.622 21.4135C206.622 21.4131 206.617 21.4123 206.615 21.4117C206.696 21.4371 206.744 21.5165 206.745 21.6017C210.5 23.3158 215.329 25.6745 215.727 30.306C215.933 30.7712 215.649 31.3291 215.611 31.8165C216.31 31.9519 217.251 31.6064 217.807 32.1042C218.234 32.2026 218.168 32.7618 218.182 33.1025C218.182 33.0961 218.182 33.0898 218.182 33.0841C218.182 33.1006 218.182 33.1166 218.182 33.1331C218.182 33.1306 218.182 33.128 218.182 33.1262C218.16 34.0732 218.248 35.0283 218.092 35.9672C218.095 35.9462 218.099 35.9247 218.102 35.9037C218.088 38.0361 217.035 40.196 214.873 40.8467C214.499 43.0263 214.196 45.2309 214.381 47.4478C214.783 48.6787 215.459 49.9018 215.249 51.2619C214.858 53.114 213.528 54.6296 213.109 56.4771C212.406 58.815 217.865 58.3614 218.706 63.0908C219.122 63.6306 219.375 64.2733 219.649 64.8916C219.927 65.4892 220.821 66.7606 219.701 66.9759C218.844 66.6574 218.026 66.1505 217.169 65.7946C214.845 64.9175 212.435 64.2672 209.989 63.824C211.659 69.0106 211.684 74.4851 212.374 79.8367C213.17 86.3587 213.13 85.2199 208.23 81.9934C209.138 85.6921 209.072 89.5079 209.021 93.2897C209.021 93.2536 209.023 93.2179 209.023 93.1817C209.021 93.2904 209.019 93.4003 209.017 93.5097C209.017 93.5028 209.018 93.4964 209.018 93.4893C208.705 99.3443 209.104 105.179 209.374 111.024C209.49 116.471 209.526 121.93 210.116 127.35C212.504 126.832 214.959 126.835 217.387 126.751C219.87 126.641 222.378 126.308 224.843 126.759C232.819 127.149 239.788 137.272 230.386 133.448C231.189 134.092 232.948 135.633 231.635 136.555C230.234 136.924 228.925 135.762 227.658 135.304C228.127 135.929 228.912 136.451 228.977 137.287C228.913 138.259 227.712 138.485 226.948 138.194C226.96 138.197 226.972 138.2 226.984 138.204C225.845 137.914 224.884 137.22 223.874 136.65C224.701 137.592 225.877 139.849 223.717 139.852ZM185.006 85.37C185.009 85.2194 185.011 85.0677 185.014 84.9151C185.011 85.0647 185.007 85.2142 185.005 85.3636C185.005 85.3618 185.005 85.3598 185.005 85.3579C185.004 85.3622 185.005 85.366 185.006 85.37ZM184.141 38.5418C181.732 42.4122 186.509 41.9469 186.459 43.3489C186.692 46.8547 186.683 50.3668 186.779 53.8779C186.728 56.9926 187.257 60.4155 186.077 63.3346C187.233 64.6544 188.682 65.6856 189.783 67.0512C192.76 71.0034 195.388 75.2212 198.649 78.9513C199.313 76.3931 200.323 73.9406 201.261 71.4739C202.177 68.4148 203.358 65.4801 204.661 62.5694C204.238 62.0377 204.665 61.1546 204.59 60.5011C204.641 57.3955 204.772 54.2691 204.569 51.1701C204.571 51.1943 204.574 51.2184 204.576 51.2419C204.448 50.734 204.7 50.1081 205.311 50.2164C214.314 50.3211 212.308 48.8812 213.996 41.1644C213.992 41.1867 213.989 41.2089 213.986 41.2318C213.993 41.1835 214 41.1345 214.006 41.0862C211.922 41.62 209.226 41.5313 207.819 39.6737C207.956 40.7442 208.372 41.7681 208.49 42.8311C207.902 44.3067 205.716 43.3536 204.799 42.6627C204.813 42.6723 204.827 42.6817 204.841 42.692C204.271 42.4929 203.92 41.7682 204.562 41.412C205.221 41.0335 206.67 43.6861 207.975 42.8234C207.768 41.9228 207.439 41.0543 207.274 40.1399C207.278 40.1552 207.281 40.1697 207.285 40.185C207.12 39.5658 206.991 38.9395 206.853 38.3149C206.853 38.3155 206.853 38.3162 206.853 38.3167C206.851 38.313 206.852 38.3099 206.85 38.3066L206.851 38.3073C206.85 38.3054 206.849 38.3034 206.849 38.3022C206.849 38.3029 206.849 38.3035 206.849 38.3041C206.848 38.3006 206.848 38.2949 206.846 38.2914C206.846 38.2914 206.846 38.2914 206.847 38.2914C206.845 38.2851 206.844 38.2779 206.842 38.2711C206.842 38.2755 206.844 38.2793 206.844 38.2837C206.598 37.3412 206.366 36.3818 205.936 35.5036C205.71 35.4654 205.481 35.4119 205.251 35.4223C205.55 39.8585 201.591 43.7122 197.177 43.3666C197.184 43.3673 197.192 43.3685 197.2 43.3692C197.183 43.3678 197.166 43.3652 197.148 43.3646H197.149C197.142 43.364 197.135 43.3634 197.129 43.3628C197.13 43.3628 197.132 43.3628 197.133 43.3628C194.034 42.8182 192.043 39.7254 191.348 36.852C190.835 36.9848 190.317 37.0961 189.801 37.213C189.826 37.2072 189.851 37.2015 189.875 37.1951C188.485 37.5401 187.083 37.8407 185.683 38.1407C185.649 38.2059 185.559 38.2442 185.494 38.2004C185.474 38.2004 185.453 38.2018 185.433 38.203C185.441 38.2023 185.448 38.2018 185.456 38.2011C185.073 38.2386 184.691 38.2936 184.311 38.3441C184.253 38.4084 184.196 38.4745 184.141 38.5418ZM198.424 32.8223C196.273 32.7442 194.211 33.1371 192.108 33.5085C192.3 37.2381 194.249 42.5714 198.734 42.3185C203.019 41.8165 205.474 37.5006 204.189 33.4926C202.323 32.9269 200.366 32.7856 198.424 32.8223ZM207.275 34.965C207.243 35.1626 207.18 35.3653 207.021 35.4944C207.183 39.5292 210.496 40.9977 214.111 40.1694C214.243 38.4338 214.455 36.7058 214.471 34.9619C214.345 34.8091 214.361 34.5762 214.471 34.4186C214.468 33.9561 214.472 33.4962 214.479 33.034C212.125 33.1483 209.746 33.3424 207.423 33.7273C207.411 33.8252 207.398 33.923 207.384 34.0209C207.388 34.0006 207.391 33.9809 207.394 33.9612C207.379 34.0591 207.364 34.1569 207.35 34.2553C207.354 34.2274 207.358 34.1995 207.362 34.1715C207.325 34.4349 207.317 34.7018 207.275 34.965ZM216.963 35.3653C216.427 35.5565 215.88 35.7171 215.325 35.8438C215.266 37.2261 215.042 38.5924 214.96 39.9722C215.43 39.8211 215.836 39.5393 216.222 39.2402C216.208 39.251 216.194 39.2612 216.181 39.272C216.496 39.0627 216.702 38.753 216.879 38.4255C217.428 37.4559 217.229 36.294 217.344 35.2267C217.215 35.2688 217.09 35.3196 216.963 35.3653ZM193.861 29.8998C192.237 30.0215 191.179 31.4632 189.646 31.8867C187.697 32.452 187.207 34.5752 186.586 36.2638C188.055 35.8065 189.471 35.1738 190.984 34.8563C190.988 34.1184 190.321 32.8066 191.455 32.636C192.175 32.0993 193.112 32.0674 193.974 32.0267C193.965 32.0273 193.955 32.0285 193.945 32.0292C196.735 31.7787 199.759 31.6086 202.489 32.0336C204.709 32.466 205.331 32.4064 205.261 34.9293C205.6 34.7895 205.965 34.7557 206.314 34.6503C206.201 32.6594 206.977 32.4835 208.756 32.4016C210.649 32.2387 212.539 32.0075 214.432 31.8416C214.371 31.5098 214.331 31.1744 214.289 30.8402C211.662 28.0983 207.396 29.5205 206.065 25.8392C204.459 27.1407 202.526 27.9843 200.603 28.707C200.626 28.6981 200.65 28.6885 200.673 28.6797C198.526 29.6333 196.208 30.1089 193.861 29.8998ZM206.65 35.6506C206.652 35.636 206.654 35.6213 206.655 35.6068C206.645 35.6062 206.635 35.6055 206.625 35.6055C206.633 35.6208 206.642 35.636 206.65 35.6506ZM215.363 33.1952C215.368 33.5053 215.369 33.8148 215.369 34.1243C216.005 34.1034 216.689 33.7644 217.297 33.8675C217.291 33.6425 217.283 33.4175 217.269 33.1927C216.631 33.1702 215.996 33.1074 215.361 33.0618C215.362 33.1063 215.363 33.1508 215.363 33.1952Z" fill="#231F20"/>
<path d="M248.521 139.793C248.516 139.792 248.51 139.791 248.505 139.788C248.246 139.688 248.374 139.263 248.635 139.292C249.026 139.374 249.892 138.925 249.968 139.5C249.838 140.019 248.937 139.712 248.521 139.793Z" fill="#231F20"/>
<path d="M234.435 151.708C234.172 151.703 233.91 151.689 233.648 151.666C233.65 151.666 233.651 151.666 233.653 151.666C232.894 151.707 233.319 150.657 233.824 151.07C234.467 151.108 235.101 150.981 235.738 150.926C235.723 150.928 235.709 150.929 235.693 150.93C235.737 150.927 235.781 150.923 235.825 150.92C235.81 150.921 235.794 150.923 235.779 150.924C235.841 150.919 235.903 150.915 235.965 150.911C235.962 150.911 235.96 150.912 235.957 150.912C235.972 150.911 235.988 150.91 236.003 150.909C235.998 150.909 235.993 150.909 235.988 150.909C235.999 150.909 236.01 150.908 236.02 150.907C236.015 150.907 236.01 150.908 236.005 150.908C236.048 150.905 236.09 150.902 236.133 150.899C236.13 150.899 236.127 150.899 236.123 150.899C236.745 150.897 239.162 150.365 239.224 151.196C239.208 151.384 239.055 151.575 238.854 151.573C237.997 151.525 237.146 151.491 236.292 151.614C236.308 151.613 236.324 151.612 236.339 151.611C236.271 151.616 236.202 151.621 236.134 151.626C236.143 151.625 236.152 151.625 236.161 151.624C235.862 151.645 235.562 151.641 235.263 151.665C235.266 151.665 235.269 151.665 235.272 151.665C235.258 151.666 235.243 151.667 235.228 151.668C235.234 151.667 235.239 151.667 235.245 151.666C235.212 151.669 235.18 151.671 235.147 151.674C235.15 151.673 235.153 151.673 235.155 151.673C234.915 151.692 234.675 151.713 234.435 151.708Z" fill="#231F20"/>
<path d="M234.911 153.166C233.266 153.176 233.727 152.135 234.258 152.521C236.075 152.766 237.894 152.085 239.721 152.298C240.145 152.382 240.016 153.082 239.608 153.071C239.374 153.058 239.139 153.062 238.906 153.063C237.572 153.034 236.241 153.283 234.911 153.166Z" fill="#231F20"/>
<path d="M235.356 154.671C233.649 154.649 234.38 153.679 234.518 154.18C234.867 154.259 235.231 154.228 235.585 154.211C235.578 154.212 235.571 154.213 235.564 154.213C236.325 154.29 239.341 153.206 239.425 154.249C239.407 154.465 239.238 154.666 239.013 154.67C237.792 154.594 236.573 154.796 235.356 154.671Z" fill="#231F20"/>
<path d="M233.618 157.079C231.052 156.528 229.808 153.412 230.684 151.073C230.684 151.076 230.683 151.079 230.682 151.081C230.686 151.065 230.692 151.048 230.697 151.031C230.695 151.038 230.693 151.045 230.691 151.052C230.891 150.207 231.422 149.513 231.871 148.8C231.855 148.821 231.838 148.842 231.823 148.863C233.372 147.124 235.261 145.71 236.832 143.987C234.274 142.635 235.135 136.882 238.307 137.25C238.957 137.173 239.61 137.129 240.262 137.081C240.261 137.081 240.261 137.081 240.261 137.081C240.281 137.08 240.301 137.078 240.32 137.077C240.32 137.077 240.319 137.077 240.318 137.077C240.731 137.046 241.143 137.017 241.556 136.987C241.535 136.989 241.513 136.991 241.492 136.992C241.665 136.979 241.84 136.967 242.013 136.954C241.991 136.956 241.97 136.957 241.949 136.959C242.247 136.936 242.545 136.912 242.842 136.889C242.842 136.889 242.842 136.889 242.841 136.889C242.862 136.887 242.887 136.886 242.907 136.884C246.813 136.584 250.737 136.678 254.65 136.508C259.391 136.351 264.146 135.704 268.887 136.126C269.271 135.689 269.716 135.311 270.128 134.902C270.127 134.903 270.127 134.904 270.125 134.905C270.703 134.307 271.237 133.668 271.836 133.089L271.836 133.09C274.494 130.441 276.891 127.549 279.591 124.938C279.571 124.958 279.551 124.978 279.531 124.998C280.489 123.895 281.681 122.943 282.486 121.738C282.48 121.749 282.473 121.761 282.466 121.771C282.718 121.404 282.931 120.88 283.404 120.772C283.977 120.709 284.07 121.398 283.886 121.804C283.405 123.14 282.654 125.353 284.139 126.282C284.7 126.265 284.81 127.001 284.395 127.287C283.784 127.782 283.313 128.421 282.832 129.037C284.022 128.884 289.976 127.433 287.336 130.167C286.919 131.529 286.545 133.701 288.236 134.298C289.947 134.79 287.143 136.831 286.831 137.685C285.093 139.915 283.53 142.28 281.766 144.495C281.766 144.495 281.767 144.495 281.767 144.494C281.754 144.511 281.742 144.526 281.729 144.542C281.729 144.542 281.729 144.542 281.73 144.542C279.947 146.962 277.993 149.244 276.101 151.578C275.497 152.021 273.081 155.897 272.549 154.777C264.722 155.806 256.816 156.134 248.938 156.682C248.938 156.682 248.939 156.682 248.939 156.681C248.884 156.686 248.829 156.689 248.775 156.694C248.798 156.692 248.821 156.69 248.844 156.688C248.79 156.693 248.736 156.696 248.682 156.701C248.685 156.7 248.688 156.7 248.692 156.7C248.664 156.702 248.636 156.704 248.608 156.706C248.609 156.706 248.61 156.706 248.611 156.706C243.628 157.05 238.598 156.977 233.618 157.079ZM231.741 150.393C231.14 152.297 231.342 154.836 233.359 155.794C235.078 156.323 236.961 155.777 238.738 155.863C242.181 155.879 245.627 155.932 249.058 155.587C249.035 155.589 249.012 155.591 248.989 155.593C249.144 155.581 249.299 155.57 249.454 155.558C249.432 155.559 249.408 155.561 249.385 155.563C253.91 155.216 258.445 154.976 262.954 154.487C262.929 154.489 262.904 154.491 262.878 154.493C262.965 154.486 263.052 154.48 263.14 154.473C263.115 154.475 263.089 154.477 263.063 154.479C265.095 154.322 267.132 154.235 269.163 154.09C269.203 154.051 269.254 154.024 269.307 154.016C269.306 154.015 269.306 154.015 269.306 154.014C269.534 153.99 269.763 153.971 269.985 153.903C269.999 153.444 270.484 153.38 270.847 153.428C270.011 151.784 270.26 149.668 271.033 148.04C268.251 148.343 265.457 148.467 262.667 148.663C262.689 148.662 262.71 148.66 262.731 148.658C260.116 148.764 257.519 149.097 254.907 149.261C254.908 149.261 254.909 149.261 254.909 149.261C254.891 149.262 254.873 149.263 254.854 149.265C254.854 149.265 254.855 149.265 254.855 149.265C250.23 149.753 245.611 150.409 240.95 150.425C237.923 150.381 234.9 150.107 231.88 150.001C231.829 150.129 231.782 150.259 231.741 150.393ZM276.017 148.333C276.173 148.458 276.106 148.77 275.934 148.85C274.918 150.444 273.753 151.937 272.62 153.448C272.772 153.539 272.954 153.614 273.005 153.803C275.315 151.304 277.477 148.674 279.632 146.042C279.63 146.044 279.628 146.047 279.626 146.049C279.638 146.034 279.651 146.017 279.663 146.001C279.66 146.005 279.657 146.009 279.654 146.013C280.117 145.397 280.569 144.77 281.046 144.164C281.047 144.163 281.049 144.162 281.05 144.16C281.05 144.161 281.049 144.161 281.049 144.161C281.054 144.155 281.059 144.149 281.063 144.143C281.063 144.144 281.062 144.145 281.061 144.146C281.063 144.144 281.064 144.142 281.065 144.141C281.065 144.141 281.064 144.142 281.063 144.143C281.065 144.14 281.067 144.138 281.069 144.136C281.069 144.136 281.069 144.136 281.069 144.136C281.069 144.136 281.069 144.135 281.07 144.135L281.069 144.136C281.072 144.132 281.075 144.129 281.078 144.125C281.077 144.125 281.077 144.126 281.076 144.126C281.101 144.094 281.126 144.062 281.15 144.03C281.149 144.032 281.148 144.034 281.147 144.035C281.16 144.019 281.171 144.003 281.184 143.986C281.183 143.989 281.181 143.991 281.18 143.992C281.18 143.992 281.182 143.99 281.182 143.989C281.182 143.99 281.182 143.99 281.182 143.991C281.182 143.99 281.183 143.989 281.183 143.988C281.183 143.988 281.183 143.989 281.183 143.989C281.194 143.974 281.205 143.96 281.216 143.945C281.213 143.95 281.208 143.955 281.204 143.96C283.391 141.164 285.322 138.188 287.5 135.39C287.493 135.398 287.487 135.407 287.481 135.414C287.539 135.339 287.597 135.264 287.654 135.187C287.586 135.156 287.518 135.123 287.45 135.091C287.471 135.101 287.492 135.111 287.513 135.119C286.027 134.513 285.933 132.602 286.308 131.253C281.456 136.473 276.957 142.023 272.19 147.323C272.604 147.517 272.272 148.065 271.875 147.943C271.578 148.347 271.474 148.85 271.393 149.335C272.029 148.415 272.902 147.696 273.586 146.814C273.813 146.638 274.655 145.243 274.845 145.811C273.74 147.39 272.364 148.833 271.298 150.463C271.288 150.807 271.281 151.154 271.338 151.494C272.205 150.483 272.947 149.374 273.798 148.351C273.794 148.357 273.79 148.362 273.786 148.368C274.27 147.871 274.56 147.004 275.239 146.775C275.655 146.751 275.647 147.401 275.278 147.473C274.703 148.214 274.167 148.987 273.568 149.711C273.579 149.697 273.591 149.683 273.601 149.669C272.947 150.583 272.232 151.447 271.512 152.31C271.571 152.591 271.719 152.843 271.953 153.014C273.078 151.462 274.243 149.944 275.555 148.543C275.666 148.418 275.835 148.203 276.017 148.333ZM250.358 148.645C250.513 148.634 250.669 148.628 250.824 148.613C250.67 148.624 250.514 148.635 250.358 148.645ZM242.561 143.24C240.978 143.342 239.389 143.358 237.804 143.436C239.808 144.225 242.088 143.613 244.194 143.672C247.405 143.691 250.618 143.771 253.826 143.582C256.581 143.491 259.325 143.78 262.08 143.766C264.778 143.705 267.458 143.288 270.147 143.075C268.014 142.021 267.793 139.289 268.783 137.349C264.697 136.926 260.582 137.446 256.494 137.605C250.454 137.853 244.401 137.919 238.358 137.976C238.263 138.066 238.08 138.078 237.983 137.968C237.225 138.131 236.81 138.962 236.482 139.603C237.418 139.587 238.335 139.436 239.264 139.334C239.262 139.334 239.26 139.334 239.259 139.334C239.947 139.409 244.868 138.803 244.612 139.568C244.475 140.239 243.116 139.791 242.58 139.921C240.587 139.91 238.596 140.093 236.607 140.042C236.543 140.119 236.437 140.108 236.351 140.078C236.353 140.079 236.355 140.079 236.356 140.079C236.345 140.076 236.333 140.073 236.322 140.068C236.239 140.382 236.235 140.708 236.246 141.03C237.799 140.993 239.343 140.787 240.897 140.762C240.882 140.764 240.868 140.765 240.852 140.766C240.908 140.762 240.964 140.758 241.019 140.754C241.004 140.755 240.989 140.756 240.974 140.757C240.999 140.756 241.024 140.754 241.05 140.752C241.035 140.753 241.019 140.754 241.004 140.755C241.118 140.746 241.233 140.737 241.347 140.728C241.346 140.728 241.345 140.729 241.345 140.729C242.553 140.76 243.873 140.442 245.03 140.72C245.227 140.934 245.061 141.35 244.765 141.346C241.939 141.267 239.051 141.817 236.252 141.296C236.297 141.877 236.351 142.551 236.918 142.86C239.57 142.585 242.234 142.335 244.904 142.428C245.121 142.432 245.252 142.636 245.236 142.838C245.09 143.66 243.219 143.062 242.561 143.24ZM273.871 137.813C274.48 138.403 271.728 141.312 271.296 142.026C271.448 142.085 271.601 142.144 271.757 142.191C274.767 138.015 277.69 133.782 280.977 129.811C280.96 129.833 280.944 129.854 280.927 129.876C281.124 129.622 281.319 129.366 281.517 129.112C281.516 129.113 281.515 129.115 281.514 129.116C281.517 129.112 281.519 129.109 281.522 129.106C281.521 129.107 281.52 129.108 281.519 129.109C281.531 129.094 281.543 129.077 281.556 129.061C281.556 129.061 281.556 129.061 281.556 129.061C281.556 129.061 281.556 129.061 281.556 129.061C281.556 129.062 281.555 129.062 281.554 129.063C281.556 129.062 281.556 129.06 281.558 129.059C281.557 129.06 281.557 129.06 281.556 129.061C281.556 129.061 281.556 129.061 281.556 129.061C281.557 129.06 281.557 129.059 281.558 129.058C281.558 129.058 281.558 129.058 281.558 129.059C281.568 129.046 281.577 129.033 281.587 129.02C281.584 129.026 281.579 129.031 281.575 129.037C282.117 128.353 282.667 127.672 283.256 127.027C282.068 126.128 282.158 124.511 282.368 123.189C278.482 128.128 274.034 132.648 269.537 137.03C269.423 137.737 269.247 138.442 269.227 139.161C269.973 137.699 271.24 136.607 272.212 135.311C272.717 134.748 273.14 135.598 272.64 135.981C272.644 135.976 272.647 135.972 272.65 135.968C271.543 137.326 270.29 138.574 269.351 140.061C269.42 140.334 269.495 140.612 269.67 140.838C270.741 139.087 271.844 137.334 273.175 135.77C273.626 135.386 274.077 136.079 273.708 136.45C272.457 137.949 271.423 139.608 270.13 141.074C270.087 141.128 270.046 141.184 270.005 141.24C270.273 141.502 270.577 141.746 270.927 141.886C271.451 140.889 272.115 139.976 272.687 139.007C272.686 139.008 272.686 139.009 272.686 139.009C272.697 138.989 272.708 138.97 272.721 138.95C272.718 138.954 272.716 138.957 272.714 138.96C273.041 138.606 273.246 137.516 273.871 137.813Z" fill="#231F20"/>
<path d="M121.409 152.242C120.999 152.086 121.06 151.455 121.433 151.288C122.499 150.762 123.461 150.056 124.51 149.502C125.968 148.687 127.199 147.542 128.594 146.633C132.34 144.119 136.076 141.575 139.967 139.284C140.712 138.978 141.971 137.745 142.691 137.912C142.86 138.035 142.694 138.355 142.497 138.246C142.47 138.258 142.443 138.272 142.418 138.287C142.426 138.283 142.434 138.278 142.442 138.274C136.783 142.469 130.785 146.175 125.034 150.234C125.053 150.224 125.071 150.213 125.09 150.203C125.008 150.25 124.926 150.296 124.845 150.342C124.863 150.331 124.881 150.321 124.9 150.311C123.698 150.828 122.656 151.971 121.409 152.242Z" fill="#231F20"/>
<path d="M119.128 150.185C118.459 149.869 118.849 149.016 119.439 148.86C120.933 147.933 122.385 146.94 123.88 146.014C128.991 142.908 134.192 139.936 139.081 136.484C137.619 136.34 136.156 136.202 134.693 136.066C134.698 136.067 134.702 136.067 134.707 136.068C134.688 136.066 134.668 136.064 134.648 136.063C134.65 136.063 134.651 136.063 134.653 136.063C134.516 136.051 134.379 136.039 134.242 136.027C134.244 136.027 134.245 136.028 134.246 136.028C134.227 136.026 134.207 136.024 134.188 136.022C134.189 136.023 134.19 136.023 134.191 136.023C134.027 136.009 133.862 135.994 133.697 135.98C133.698 135.98 133.699 135.98 133.7 135.98C133.68 135.978 133.661 135.976 133.642 135.975C133.642 135.975 133.643 135.975 133.644 135.975C130.072 135.708 126.496 135.094 122.91 135.179C121.226 135.721 119.743 136.756 118.169 137.55C118.181 137.543 118.192 137.536 118.204 137.529C118.127 137.573 118.052 137.618 117.974 137.66C117.998 137.646 118.022 137.633 118.046 137.619C117.999 137.646 117.951 137.673 117.903 137.7C117.907 137.698 117.91 137.696 117.914 137.694C117.873 137.717 117.831 137.741 117.79 137.764C117.793 137.763 117.796 137.761 117.8 137.759C117.785 137.767 117.77 137.776 117.756 137.784L117.756 137.784C114.031 140.027 110.175 142.061 106.229 143.885C106.04 144.331 105.216 144.091 105.751 143.6C108.114 141.758 110.8 140.379 113.417 138.938C113.393 138.951 113.368 138.965 113.344 138.979C116.328 137.34 119.168 135.36 122.375 134.173C123.748 133.786 125.203 134.305 126.605 134.328C126.584 134.326 126.563 134.324 126.542 134.322C126.587 134.326 126.632 134.33 126.676 134.334C126.673 134.334 126.671 134.334 126.668 134.334C126.726 134.338 126.783 134.343 126.841 134.348C126.837 134.348 126.833 134.348 126.829 134.348C128.991 134.562 131.148 134.842 133.315 135.02C133.31 135.02 133.305 135.019 133.301 135.019C133.637 135.048 133.972 135.076 134.308 135.107C134.301 135.107 134.295 135.106 134.288 135.106C134.308 135.107 134.328 135.109 134.347 135.111C134.347 135.111 134.347 135.111 134.347 135.111C134.499 135.124 134.651 135.137 134.803 135.151C134.8 135.15 134.797 135.15 134.794 135.15C136.053 135.259 137.308 135.403 138.569 135.486C140.404 135.519 141.811 135.851 139.58 137.314C139.588 137.307 139.596 137.301 139.604 137.295C135.195 140.546 130.491 143.376 125.807 146.206C124.261 147.132 122.746 148.109 121.231 149.084C120.546 149.42 119.912 150.217 119.128 150.185Z" fill="#231F20"/>
<path d="M119.139 150.089C117.014 149.697 115.036 148.602 113.077 147.711C113.092 147.718 113.107 147.724 113.122 147.731C112.606 147.499 112.087 147.274 111.571 147.042C111.594 147.053 111.617 147.063 111.64 147.073C110.76 146.681 109.879 146.294 109.002 145.896C109.005 145.897 109.007 145.898 109.01 145.899C107.96 145.477 106.957 144.966 105.989 144.38C105.643 144.389 105.271 143.932 105.585 143.65C106.403 143.447 107.353 144.222 108.169 144.427C110.649 145.324 113.074 146.374 115.437 147.543C116.696 147.991 117.91 148.71 119.236 148.905C119.951 148.934 119.803 150.108 119.139 150.089Z" fill="#231F20"/>
<path d="M120.924 151.056C120.911 151.055 120.899 151.054 120.887 151.053C120.897 151.053 120.908 151.055 120.918 151.055C119.821 150.689 123.243 148.506 123.603 148.07C123.597 148.074 123.591 148.078 123.585 148.083C123.599 148.072 123.613 148.061 123.627 148.051C123.625 148.053 123.623 148.054 123.62 148.056C123.642 148.04 123.664 148.023 123.686 148.006C123.679 148.012 123.671 148.018 123.663 148.024C123.689 148.004 123.716 147.984 123.742 147.964C123.737 147.967 123.733 147.971 123.728 147.974C123.756 147.953 123.783 147.932 123.811 147.911C123.801 147.919 123.791 147.927 123.78 147.935C123.795 147.924 123.809 147.913 123.823 147.902C123.821 147.904 123.819 147.905 123.817 147.907C127.43 145.326 131.19 142.947 135.011 140.686C134.993 140.696 134.975 140.706 134.957 140.716C137.05 139.343 139.443 138.346 141.351 136.731C142.274 136.247 142.325 137.486 141.471 137.897C134.586 141.984 127.526 145.897 121.17 150.789C121.168 150.915 121.062 151.064 120.924 151.056Z" fill="#231F20"/>
<path d="M107.674 147.626C103.905 147.126 107.548 141.341 109.066 143.854C109.285 144.329 108.508 145.065 108.476 144.259C108.458 144.25 108.439 144.241 108.419 144.234C108.427 144.238 108.436 144.242 108.444 144.246C108.434 144.243 108.425 144.241 108.415 144.238C108.434 144.243 108.451 144.248 108.468 144.257C107.566 144.124 106.546 145.669 107.282 146.388C107.591 146.661 108.251 146.514 108.184 147.107C108.162 147.366 107.951 147.63 107.674 147.626Z" fill="#231F20"/>
<path d="M109.449 148.559C107.42 147.699 109.239 142.971 111.226 144.639C111.411 144.819 111.384 145.193 111.097 145.246C110.897 145.261 110.821 145.04 110.612 145.059C109.688 145.01 109.026 147.53 110.23 147.346C111.442 147.517 110.533 148.987 109.449 148.559Z" fill="#231F20"/>
<path d="M112.838 149.86C109.919 149.825 112.591 143.976 113.946 145.775C114.043 146.113 113.67 146.643 113.487 146.126C112.803 146.557 111.948 148.526 113.165 148.697C113.778 148.92 113.467 149.962 112.838 149.86Z" fill="#231F20"/>
<path d="M115.191 150.96C112.406 149.862 115.291 145.283 116.655 146.74C116.787 147.033 116.416 147.475 116.277 147.036C115.51 147.338 114.88 148.629 115.182 149.385C115.577 149.731 116.307 150.208 115.913 150.803C115.762 151.041 115.426 151.143 115.191 150.96Z" fill="#231F20"/>
<path d="M117.778 151.868C115.971 150.904 116.882 147.006 118.63 147.667C118.915 147.816 118.705 148.379 118.435 148.084C117.653 148.317 117.471 149.782 118.071 150.307C118.069 150.305 118.067 150.303 118.065 150.301C119.266 150.954 118.778 152.327 117.778 151.868Z" fill="#231F20"/>
<path d="M90.8662 132.977C90.3628 132.374 90.3036 131.486 90.0731 130.75C90.0813 130.784 90.0896 130.817 90.0978 130.851C89.7895 129.666 89.4774 128.481 89.3534 127.259C88.871 126.836 88.5735 125.6 89.2748 125.235C90.4417 124.807 91.7204 124.484 92.949 124.35C93.4316 124.628 93.3814 125.353 93.5502 125.831C94.0524 127.554 94.4949 129.293 95.0016 131.015C95.1693 131.72 94.3188 131.853 93.8483 132.083C92.8984 132.351 91.849 133.309 90.8662 132.977ZM90.171 126.543C90.8208 128.23 91.4367 129.949 91.7067 131.744C92.5339 131.569 93.2964 131.167 94.1185 130.961C93.6314 129.063 93.0159 127.2 92.5918 125.286C91.7294 125.572 90.8918 125.914 90.024 126.177C90.0591 126.303 90.1277 126.42 90.171 126.543Z" fill="#231F20"/>
<path d="M97.9748 130.477C97.2151 129.881 97.2641 128.615 96.9536 127.739C96.6075 126.023 96.1724 124.318 96.0095 122.572C96.0127 122.599 96.0159 122.627 96.019 122.654C96.0067 122.544 95.9944 122.433 95.9825 122.322C95.9833 122.329 95.9839 122.335 95.9847 122.341C95.9817 122.314 95.9787 122.288 95.9758 122.261C95.9767 122.27 95.9777 122.28 95.9787 122.289C95.9049 121.072 95.4677 119.804 95.7184 118.598C95.4046 117.58 96.2693 117.324 97.0923 117.26C97.742 117.208 98.3595 116.985 99.003 116.911C99.9995 116.969 99.6749 118.634 99.9443 119.34C100.494 122.087 101.147 124.82 101.57 127.593C101.567 127.58 101.563 127.567 101.56 127.554C101.565 127.574 101.57 127.593 101.575 127.613L101.575 127.613C102.037 129.042 101.668 129.401 100.301 129.795C99.5562 130.049 98.7828 130.595 97.9748 130.477ZM98.5074 129.19C98.5166 129.224 98.5251 129.258 98.5336 129.292C99.3412 129.083 100.103 128.736 100.926 128.579C100.268 125.054 99.3576 121.574 98.7162 118.047C98.0342 118.22 97.3442 118.347 96.6511 118.467C96.6638 118.791 96.7203 119.226 96.365 119.388C97.3213 122.595 97.6127 125.964 98.5074 129.19Z" fill="#231F20"/>
<path d="M105.368 127.919C104.68 127.64 104.822 126.59 104.475 126.007C104.481 126.021 104.487 126.036 104.493 126.05C104.483 126.025 104.473 126 104.463 125.975C104.463 125.976 104.463 125.976 104.463 125.976C103.356 122.15 103.032 118.131 102.168 114.242C101.753 113.897 101.805 113.207 101.632 112.721C101.405 112.101 101.228 111.042 102.133 110.932C103.342 110.914 104.631 110.187 105.799 110.529C106.519 111.606 106.347 113.04 106.775 114.236C107.783 117.59 108.34 121.087 108.892 124.542C108.892 124.541 108.891 124.539 108.891 124.537C108.883 125.167 109.254 125.916 108.869 126.476C107.825 127.135 106.596 127.743 105.368 127.919ZM105.827 126.731C106.598 126.478 107.324 126.122 108.066 125.799C107.462 121.01 106.14 116.338 105.094 111.643C104.918 111.671 104.743 111.707 104.568 111.747C104.575 111.746 104.582 111.744 104.589 111.742C103.921 111.851 103.28 112.089 102.603 112.146C102.671 112.505 102.703 112.867 102.74 113.23C102.737 113.206 102.735 113.181 102.732 113.157C104.43 117.512 104.557 122.261 105.827 126.731Z" fill="#231F20"/>
<path d="M86.3761 122.984C85.914 122.905 85.7573 122.365 85.5004 122.037C84.8421 121.331 84.1417 120.675 83.7676 119.762C83.7689 119.764 83.7695 119.765 83.7708 119.767C83.4245 119.429 83.3147 118.721 83.971 118.742C85.7324 117.285 87.1028 115.372 88.8461 113.869C88.8429 113.872 88.8397 113.875 88.8365 113.879C92.8363 109.931 96.4115 105.459 99.1099 100.526H99.1092C98.6216 100.206 97.8316 100.119 97.6063 99.523C97.5498 99.2287 97.7747 98.864 98.0975 98.8723C98.5902 98.9179 99.0823 98.7706 99.5375 98.5921C100.715 98.0278 101.86 97.3931 103.016 96.7868C103.204 96.6306 103.494 96.6214 103.577 96.8916C103.931 98.2829 103.969 99.7439 104.254 101.152C104.728 102.278 104.305 102.72 103.19 102.154C103.196 102.156 103.202 102.159 103.207 102.161C103.117 102.121 103.028 102.078 102.939 102.037C102.941 102.039 102.944 102.04 102.946 102.041C102.713 101.938 102.466 101.872 102.227 101.782C101.365 103.718 100.184 105.477 99.0368 107.251C97.8316 109.423 96.6207 111.614 95.0699 113.564C93.1276 115.864 91.3772 118.342 89.1914 120.414C88.1515 121.135 87.501 122.462 86.3761 122.984Z" fill="#FF8FA3"/>
<path d="M111.871 124.988C111.167 125.029 111.143 124.31 111.041 123.796C110.862 122.975 110.753 122.15 110.593 121.328C110.009 117.458 108.98 113.774 108.525 109.839C108.358 107.998 107.911 106.208 107.683 104.378C107.575 103.02 106.781 101.389 108.916 101.537C109.728 101.596 111.157 100.595 111.348 101.904C112.427 105.948 113.127 110.107 113.656 114.258C113.91 116.633 114.51 118.979 114.765 121.332C114.775 122.161 115.236 123.204 114.864 123.965C114.104 124.675 112.878 124.889 111.871 124.988Z" fill="#FF8FA3"/>
<path d="M143.62 55.6137C134.528 54.0714 135.161 41.686 142.674 38.2437C142.807 39.2442 143.057 40.2296 143.271 41.217C143.265 41.1954 143.26 41.1731 143.254 41.1509C143.273 41.2259 143.291 41.3008 143.31 41.3758C143.309 41.374 143.308 41.3714 143.308 41.3689C143.728 43.4306 144.345 45.439 144.936 47.4553C144.932 47.4369 144.928 47.4184 144.923 47.3999C145.075 47.7395 144.995 48.2739 145.333 48.4808C145.357 48.7472 145.847 48.877 145.891 48.5463C148.375 46.3713 150.486 43.7865 152.777 41.4076C152.772 41.4127 152.767 41.4177 152.762 41.4223C153.089 41.0971 153.415 40.7662 153.733 40.4325C155.28 42.1494 155.768 44.5505 155.266 46.7826C155.266 46.7807 155.266 46.7789 155.266 46.7773C155.263 46.8 155.26 46.8236 155.256 46.8466C155.257 46.839 155.259 46.8313 155.26 46.8237C154.948 48.8436 153.931 50.7853 152.498 52.2364C152.515 52.2186 152.534 52.2003 152.552 52.1824C150.317 54.719 147.003 56.1293 143.62 55.6137Z" fill="#FF8FA3"/>
<path d="M139.394 42.0454C139.634 40.3718 141.465 39.3565 142.678 38.3389C142.704 38.6035 142.767 38.8543 142.823 39.1124C141.673 39.8685 140.41 40.583 139.729 41.8313C139.868 42.0511 139.526 42.3001 139.394 42.0454Z" fill="#FF8FA3"/>
<path d="M145.719 56.2891C142.555 56.1804 139.6 54.492 138.231 51.5824C137.374 51.3945 137.06 49.6475 136.777 48.8912C136.784 48.918 136.791 48.9452 136.797 48.972C135.408 44.0909 138.195 39.7134 142.638 37.7275C142.615 38.1812 142.731 38.6578 142.823 39.1114C140.612 39.9017 139.351 41.9483 138.454 44.0015C137.859 45.487 138.18 47.1715 138.315 48.7221C139.599 48.3992 139.068 50.366 139.696 51.0057C141.943 55.3363 148.013 55.9266 151.534 52.789C151.523 52.7972 151.512 52.8061 151.501 52.8144C151.524 52.7964 151.548 52.7787 151.571 52.7607C151.57 52.7614 151.57 52.7621 151.569 52.7627C155.092 50.0104 156.034 44.5158 153.267 40.9136C153.61 40.5694 153.953 40.2163 154.179 39.7827C159.124 46.2244 153.784 56.4782 145.719 56.2891Z" fill="#FF8FA3"/>
<path d="M145.646 48.7485C145.51 48.7258 145.34 48.6272 145.333 48.4803C144.995 48.2733 145.075 47.7391 144.923 47.3994C144.927 47.4179 144.932 47.4363 144.936 47.4548C144.345 45.4384 143.728 43.4301 143.307 41.3684C143.308 41.3709 143.309 41.3735 143.309 41.3753C143.291 41.3004 143.272 41.2254 143.254 41.1503C143.26 41.1726 143.265 41.1948 143.27 41.2165C143.233 40.7131 141.905 36.5681 143.263 37.491C143.824 37.2793 144.365 37.0808 144.962 37.1388L144.961 37.1375C147.998 36.238 151.477 36.834 153.726 39.1557C153.717 39.159 153.708 39.1626 153.7 39.1666C155.14 39.2925 153.161 41.0053 152.761 41.4216C152.766 41.4172 152.771 41.412 152.777 41.407C150.485 43.7857 148.374 46.3707 145.89 48.5456C145.873 48.6656 145.768 48.7629 145.646 48.7485Z" fill="#231F20"/>
<path d="M153.533 39.5131C153.076 38.9958 152.559 38.4803 151.942 38.1596C151.951 38.1637 151.96 38.1678 151.969 38.1717C149.213 36.6878 146.024 37.0299 143.083 37.6878C143.061 37.7418 143.007 37.7793 142.945 37.7723C142.945 37.7724 142.946 37.7724 142.946 37.7725C142.156 37.4323 144.323 36.7353 144.631 36.7068C144.625 36.7083 144.619 36.7098 144.613 36.7114C144.628 36.708 144.642 36.7046 144.656 36.7012C144.656 36.7012 144.655 36.7014 144.655 36.7015C146.066 36.4129 147.526 36.4 148.958 36.5069C148.943 36.5055 148.929 36.5037 148.914 36.5023C150.427 36.6592 152.03 37.2447 153.187 38.2446C153.474 38.5724 154.234 38.9932 153.925 39.4902C153.827 39.6077 153.641 39.6312 153.533 39.5131Z" fill="#231F20"/>
<path d="M145.365 48.8054C143.956 48.0411 153.777 46.1581 154.413 45.9896C154.86 45.8845 155.313 45.8066 155.742 45.6655C156.184 45.6783 156.188 46.3413 155.824 46.4909C155.838 46.4831 155.851 46.4754 155.865 46.4675C155.746 46.5355 155.628 46.5717 155.496 46.6023C155.513 46.5984 155.531 46.5941 155.548 46.5902C155.258 46.6607 154.962 46.7097 154.671 46.7777C154.688 46.7731 154.706 46.7694 154.723 46.7649C153.909 46.9617 153.086 47.1196 152.268 47.3025C152.274 47.3009 152.28 47.2995 152.286 47.298C152.182 47.3224 152.077 47.3471 151.972 47.3714C151.975 47.3708 151.978 47.37 151.981 47.3692C151.963 47.3734 151.945 47.3777 151.927 47.382C151.928 47.3818 151.928 47.3816 151.929 47.3814C151.557 47.4694 151.185 47.5556 150.812 47.6406C150.83 47.6367 150.849 47.6324 150.867 47.6278C149.042 47.965 147.233 48.9367 145.365 48.8054Z" fill="#231F20"/>
<path d="M189.944 162.871C189.551 162.427 189.836 161.704 189.851 161.164C189.941 159.547 191.109 158.391 191.886 157.054C191.878 157.069 191.869 157.083 191.86 157.098C192.077 156.728 192.3 156.363 192.518 155.994C192.517 155.995 192.516 155.997 192.515 155.998C193.609 154.044 194.86 152.173 196.166 150.356C196.163 150.359 196.16 150.363 196.158 150.366C196.28 150.209 196.398 150.049 196.523 149.895C196.507 149.916 196.491 149.937 196.475 149.958C196.542 149.871 196.609 149.785 196.675 149.699C196.659 149.719 196.643 149.74 196.627 149.761C197.527 148.611 198.31 147.376 199.217 146.231C199.21 146.239 199.204 146.247 199.198 146.255C199.719 145.675 200.054 144.879 200.71 144.441C201.34 143.411 202.624 144.385 202.658 145.323C202.657 145.767 202.38 146.16 202.204 146.554C199.796 150.783 196.955 154.741 194.581 158.985C194.593 158.964 194.605 158.945 194.616 158.924C193.965 159.83 193.743 161.211 192.69 161.735C191.856 161.975 190.752 163.148 189.944 162.871ZM190.688 161.721C191.3 161.331 191.956 161.021 192.61 160.706C193.52 159.161 194.446 157.623 195.322 156.057C197.552 152.615 199.693 149.101 201.607 145.469C201.548 145.367 201.465 145.282 201.379 145.203C201.277 145.257 201.161 145.28 201.054 145.259C200.994 145.322 200.904 145.367 200.821 145.371C198.343 149.299 195.353 152.877 193.01 156.892C192.118 158.481 190.591 159.774 190.688 161.721Z" fill="#231F20"/>
<path d="M190.256 162.413C188.239 161.947 193.52 155.726 194.088 154.603C194.084 154.609 194.08 154.615 194.075 154.62C194.095 154.594 194.115 154.568 194.135 154.543C194.131 154.547 194.128 154.553 194.124 154.557C194.179 154.487 194.234 154.416 194.288 154.345C194.283 154.351 194.279 154.357 194.274 154.363C195.68 152.754 196.618 150.823 197.9 149.118C198.529 148.28 199.234 147.487 199.695 146.537C200.153 145.896 200.736 143.864 201.725 144.286C202.98 145.339 200.729 147.424 200.186 148.458C199.635 149.489 199.039 150.495 198.462 151.511C198.466 151.504 198.47 151.498 198.475 151.491C198.445 151.541 198.416 151.591 198.386 151.642C198.404 151.612 198.421 151.583 198.438 151.553C196.785 154.243 194.979 156.837 193.314 159.52C194.146 159.911 193.338 160.716 192.856 161.022C192.467 161.237 192.153 162.034 191.649 161.644C191.227 161.942 190.823 162.468 190.256 162.413Z" fill="#231F20"/>
<path d="M199.237 153.351C198.496 152.474 202.201 148.555 202.635 147.368C202.473 147.153 202.279 146.966 202.054 146.818C202.068 146.827 202.082 146.837 202.095 146.846C201.702 146.679 201.223 146.246 201.835 145.986C202.242 145.992 202.652 146.202 202.965 146.455C204.438 147.533 202.006 149.692 201.409 150.784C200.823 151.243 199.943 153.905 199.237 153.351Z" fill="#231F20"/>
<path d="M193.874 181.899C192.154 180.65 191.161 178.565 189.837 176.923C188.031 174.763 186.77 172.256 185.264 169.904C184.421 168.71 179.054 161.711 181.752 161.169C181.799 160.977 181.948 160.835 182.142 160.811C182.136 160.811 182.13 160.812 182.124 160.812C182.37 160.764 182.566 160.959 182.557 161.201C184.271 163.2 185.234 165.653 186.733 167.79C188.407 170.493 190.3 173.059 191.837 175.847C191.833 175.841 191.829 175.834 191.826 175.828C191.855 175.88 191.884 175.931 191.914 175.983C191.895 175.951 191.878 175.919 191.859 175.887C192.535 177.065 193.288 178.197 193.954 179.381C193.952 179.378 193.95 179.375 193.948 179.372C194.209 180.031 195.012 180.631 194.774 181.388C194.636 181.765 194.258 182.017 193.874 181.899Z" fill="#231F20"/>
<path d="M181.858 162.513C180.957 162.257 181.228 160.937 181.953 160.605C181.948 160.609 181.943 160.612 181.938 160.616C181.996 160.572 182.054 160.528 182.112 160.483C182.091 160.499 182.07 160.515 182.05 160.531C186.638 157.386 191.888 155.353 197.08 153.436C197.063 153.443 197.047 153.449 197.03 153.456C202.412 151.288 207.874 149.313 213.418 147.596C214.805 147.14 216.214 146.757 217.597 146.289C218.085 145.963 218.791 146.192 218.79 146.833C218.739 148.196 215.897 148.383 214.869 148.937C212.457 149.845 210.007 150.646 207.61 151.595C207.64 151.584 207.668 151.572 207.697 151.561C202.816 153.483 197.847 155.185 193.045 157.3C189.307 158.981 185.615 161.009 181.858 162.513Z" fill="#231F20"/>
<path d="M229.165 167.432C229.012 167.431 228.883 167.374 228.769 167.284C227.429 168.551 223.971 159.673 223.039 158.502C221.564 155.762 220.141 153.004 218.554 150.326C218.035 149.215 216.706 148.346 216.817 147.026C217.066 145.838 218.615 146.065 219.221 146.839C220.341 147.97 220.778 149.588 221.796 150.815C224.423 154.356 226.534 158.24 228.271 162.288C228.773 163.327 229.097 164.437 229.564 165.492C229.99 166.13 230.225 167.332 229.165 167.432Z" fill="#231F20"/>
<path d="M193.718 181.698C192.971 181.552 192.442 180.491 193.009 179.885C193.676 179.377 194.534 179.142 195.275 178.746C197.095 177.979 198.898 177.177 200.698 176.365C207.602 173.319 214.431 170.1 221.456 167.33C221.446 167.334 221.435 167.338 221.425 167.343C221.491 167.316 221.557 167.29 221.623 167.264C221.591 167.277 221.558 167.29 221.526 167.302C221.567 167.286 221.609 167.27 221.65 167.254C221.642 167.257 221.635 167.26 221.627 167.263C221.681 167.242 221.736 167.22 221.791 167.198C221.758 167.211 221.726 167.224 221.693 167.236C221.711 167.229 221.729 167.222 221.747 167.215L221.747 167.215C221.78 167.203 221.812 167.19 221.845 167.177C221.84 167.179 221.835 167.181 221.831 167.182C221.878 167.164 221.925 167.145 221.972 167.127C221.968 167.128 221.963 167.13 221.958 167.132C221.991 167.119 222.024 167.106 222.056 167.094C222.048 167.097 222.039 167.1 222.03 167.104C222.041 167.099 222.052 167.095 222.064 167.091C222.058 167.093 222.053 167.095 222.047 167.097C222.266 167.01 222.485 166.922 222.704 166.835C222.702 166.836 222.699 166.837 222.697 166.838C222.729 166.825 222.762 166.812 222.795 166.799C222.79 166.801 222.786 166.803 222.782 166.805C223.797 166.352 224.9 166.128 225.908 165.664C226.377 165.332 227.099 164.7 227.566 165.372C227.689 165.338 227.811 165.293 227.932 165.257C227.933 165.258 227.933 165.259 227.933 165.26C228.735 165.006 229.084 166.21 228.482 166.646C227.87 167.021 227.191 167.304 226.544 167.619C223.891 168.741 221.34 170.096 218.633 171.088C213.813 173.224 208.883 175.098 204.07 177.252C200.665 178.798 197.351 180.796 193.718 181.698Z" fill="#231F20"/>
<path d="M196.739 172.68C189.332 171.772 192.639 159.878 199.244 160.968C202.575 161.534 203.723 165.407 203.18 168.352C202.559 171.229 199.608 173.088 196.739 172.68Z" fill="#231F20"/>
<path d="M211.351 166.231C210.721 165.367 210.392 164.316 210.162 163.281C209.651 161.941 211.243 161.367 211.73 162.881C212.051 163.773 212.878 164.56 212.816 165.543C212.692 166.157 211.887 166.82 211.351 166.231Z" fill="#231F20"/>
<path d="M214.155 165.641C213.079 164.639 212.821 162.986 212.61 161.588C212.137 160.935 212.864 159.949 213.627 160.252C214.496 160.767 214.699 162.145 215.277 162.971C215.888 163.93 215.698 166.116 214.155 165.641Z" fill="#231F20"/>
<path d="M216.411 164.063C215.411 162.351 214.632 160.399 214.486 158.406C214.575 157.727 215.235 156.974 215.909 157.557C216.603 158.375 216.795 159.545 217.288 160.495C217.603 161.529 218.635 162.923 217.989 163.949C217.615 164.377 216.809 164.546 216.411 164.063Z" fill="#231F20"/>
<path d="M219.642 162.867C218.518 160.427 217.036 158.06 216.309 155.475C216.228 154.858 216.833 154.177 217.461 154.489C218.523 155.515 218.966 157.106 219.684 158.388C220.125 159.365 220.498 160.369 220.948 161.34C221.335 161.887 221.264 162.855 220.462 162.925C220.245 163.157 219.816 163.154 219.642 162.867Z" fill="#FF8FA3"/>
<path d="M196.945 167.581C196.749 167.543 196.658 167.344 196.669 167.16C196.522 165.424 196.278 163.69 196.281 161.942C196.237 161.165 196.967 161.231 196.843 162.007C196.842 161.992 196.84 161.978 196.839 161.963C197.073 163.366 197.146 164.786 197.345 166.194C197.805 165.636 198.213 165.038 198.592 164.424C198.583 164.44 198.574 164.456 198.565 164.471C198.794 164.051 199.058 163.655 199.368 163.291C199.363 163.298 199.358 163.304 199.353 163.311C199.36 163.302 199.367 163.293 199.374 163.284C199.373 163.285 199.372 163.287 199.37 163.289C199.841 162.939 199.972 161.718 200.589 161.809C200.922 161.941 200.832 162.348 200.651 162.573C200.661 162.555 200.67 162.539 200.68 162.522C200.353 163.321 199.689 163.887 199.25 164.616C199.25 164.616 199.251 164.615 199.251 164.615C198.742 165.336 197.7 167.348 196.945 167.581Z" fill="#FF8FA3"/>
<path d="M40.2062 157.682C37.7189 156.959 35.094 156.914 32.5566 156.429C28.2892 155.603 24.0193 154.827 19.732 154.13C17.328 153.72 14.9257 153.264 12.5032 152.977C10.6235 152.718 8.5992 152.634 6.91123 151.698C6.00558 151.684 5.87334 149.053 5.50227 148.311C4.3743 144.241 3.4004 140.137 2.52987 136.005C1.70605 132.922 1.09244 129.784 0.547876 126.64C0.575417 125.629 -0.581157 123.599 0.387157 122.988C1.02312 121.775 5.8913 121.61 7.29627 121.514C12.2367 121.079 17.213 121.275 22.1672 121.082C24.9014 121.009 27.6394 121.056 30.372 120.946C31.4192 120.881 32.469 120.884 33.5175 120.881C34.6318 120.696 35.2415 121.274 34.7446 122.382C35.0134 122.729 35.5179 122.839 35.117 123.402C36.4437 127.413 37.0435 131.637 37.8189 135.782C38.6047 135.544 39.9159 133.953 40.5551 135.057C45.8992 135.867 51.3941 136.936 56.5081 138.454C56.5209 138.457 56.5335 138.46 56.5467 138.464C56.5419 138.462 56.5368 138.461 56.5322 138.46C56.5391 138.461 56.5466 138.464 56.5537 138.465C56.5528 138.465 56.5517 138.465 56.5508 138.465C56.5539 138.466 56.5569 138.467 56.56 138.467H56.5593C56.5694 138.47 56.5797 138.473 56.5898 138.475C56.5752 138.471 56.56 138.467 56.5447 138.463C59.1294 139.097 61.6975 139.809 64.2965 140.377C65.3815 140.754 69.6753 141.127 68.4137 142.944C62.8279 146.691 56.4671 149.252 50.6103 152.582C50.6113 152.581 50.6123 152.581 50.6133 152.58C48.4054 153.818 46.1476 154.966 43.9399 156.204C42.7333 156.693 41.5462 157.789 40.2062 157.682ZM40.8098 136.716C40.766 136.706 40.7221 136.696 40.6782 136.688C40.6749 136.69 40.672 136.692 40.6686 136.695C40.7179 136.7 40.7646 136.707 40.8098 136.716Z" fill="#231F20"/>
<path d="M36.8973 136.455C36.8869 136.236 37.1475 136.118 37.288 135.987C37.2804 135.992 37.2727 135.998 37.2651 136.004C37.9209 135.487 38.6824 135.132 39.4003 134.716C39.3974 134.718 39.3944 134.72 39.3915 134.723C39.5651 134.546 39.8875 134.603 39.9251 134.869C39.8666 135.654 37.9731 135.921 37.3624 136.393C37.37 136.389 37.3777 136.384 37.3853 136.38C37.3411 136.405 37.2973 136.432 37.2534 136.458C37.1954 136.586 36.9261 136.625 36.8973 136.455Z" fill="#231F20"/>
<path d="M45.7473 136.68C45.5485 136.619 45.3515 136.553 45.1507 136.499C45.1558 136.501 45.161 136.502 45.1659 136.503C45.1505 136.5 45.1349 136.495 45.1195 136.491C45.1228 136.492 45.1261 136.493 45.1296 136.494C45.1262 136.493 45.1229 136.492 45.1196 136.492C45.1223 136.492 45.1251 136.493 45.1277 136.494C45.112 136.49 45.0964 136.486 45.0806 136.482C45.0858 136.483 45.0909 136.484 45.096 136.485C43.366 136.195 41.6862 135.765 40.0195 135.206C39.8042 135.54 39.0677 134.612 40.4648 134.823C42.0191 135.084 43.5644 135.404 45.1087 135.706C45.4719 135.866 46.3057 135.882 46.1559 136.448C46.0968 136.617 45.92 136.735 45.7473 136.68Z" fill="#231F20"/>
<path d="M51.3933 137.933C49.3288 137.344 47.2526 136.816 45.1569 136.344C45.1589 136.344 45.1607 136.345 45.1627 136.345C44.8137 136.253 44.4661 136.154 44.1155 136.067C44.1313 136.071 44.148 136.075 44.1638 136.079C43.8232 135.995 43.4926 135.877 43.156 135.779C43.1713 135.783 43.1864 135.787 43.2017 135.791C42.086 135.56 40.9411 135.382 39.8319 135.171C39.5226 134.647 40.6048 134.843 40.883 134.853C40.8722 134.852 40.862 134.852 40.8512 134.85C41.9464 134.933 43.0596 134.917 44.1123 135.271C44.0965 135.267 44.0798 135.263 44.064 135.259C45.3221 135.587 46.6055 135.806 47.8581 136.154C47.8485 136.152 47.8388 136.149 47.8291 136.147C49.1326 136.397 50.3616 136.892 51.6361 137.245C52.0254 137.39 51.7888 138.062 51.3933 137.933Z" fill="#231F20"/>
<path d="M35.3365 128.431C34.8856 126.21 34.6825 123.94 34.1889 121.728C33.651 121.535 34.3155 120.92 34.5944 121.359C35.0702 121.705 37.1418 130.349 35.3365 128.431Z" fill="#231F20"/>
<path d="M40.4223 155.903C40.1435 155.77 40.3505 155.306 40.2476 155.044C40.2488 155.053 40.2495 155.061 40.2508 155.07C40.1529 153.935 39.843 152.833 39.7704 151.696C39.7709 151.701 39.7717 151.706 39.7724 151.711C39.7196 151.185 39.6146 150.666 39.5635 150.139C39.5636 150.14 39.5636 150.141 39.5638 150.142C39.5632 150.137 39.5626 150.131 39.562 150.126C39.5622 150.127 39.5622 150.128 39.5623 150.128C39.5569 150.078 39.5514 150.028 39.5455 149.978C39.5469 149.988 39.5481 149.998 39.5494 150.008C39.1948 147.874 38.7796 145.747 38.656 143.582C38.6572 143.595 38.6585 143.607 38.6599 143.62C38.6512 143.54 38.6426 143.461 38.6339 143.382C38.6344 143.387 38.6351 143.391 38.6358 143.396C38.6351 143.39 38.6344 143.385 38.6338 143.38C38.634 143.382 38.6343 143.384 38.6344 143.386C38.6335 143.379 38.6329 143.373 38.6322 143.366C38.6325 143.368 38.6326 143.37 38.6329 143.371C38.6323 143.367 38.6318 143.363 38.6314 143.358C38.6315 143.359 38.6315 143.36 38.6317 143.361C38.6311 143.357 38.6306 143.352 38.6301 143.348C38.6309 143.356 38.6319 143.364 38.6327 143.372C38.5653 142.799 38.4562 142.231 38.39 141.658C38.3911 141.666 38.3922 141.674 38.3931 141.683C38.3858 141.616 38.3779 141.548 38.3705 141.481C38.371 141.485 38.3715 141.489 38.3721 141.493C38.3276 141.099 38.2965 140.703 38.2558 140.309C38.2571 140.321 38.2583 140.333 38.2603 140.345C38.3133 139.577 37.4757 137.014 37.9411 136.655C38.08 136.636 38.1251 136.777 38.1339 136.889C38.4072 138.379 38.7523 139.86 38.8577 141.377C38.8577 141.377 38.8577 141.377 38.8576 141.377C38.9258 142.013 39.0507 142.64 39.1201 143.276C39.1194 143.269 39.1189 143.263 39.1182 143.257C39.1183 143.258 39.1185 143.259 39.1185 143.26C39.1177 143.252 39.117 143.245 39.1162 143.237C39.1181 143.256 39.1206 143.276 39.1226 143.295C39.1221 143.289 39.1214 143.284 39.1207 143.279C39.1282 143.352 39.1368 143.425 39.1448 143.499C39.1436 143.487 39.1423 143.474 39.141 143.462C39.3419 146.494 39.9696 149.478 40.2047 152.507C40.204 152.498 40.2028 152.489 40.2021 152.48C40.2013 153.083 41.0125 155.733 40.4223 155.903Z" fill="white"/>
<path d="M41.1002 156.278C40.9738 156.119 41.1598 155.959 41.2927 155.885C42.767 154.945 44.1973 153.932 45.737 153.099C45.7274 153.104 45.718 153.11 45.7084 153.115C46.1267 152.876 46.5586 152.662 46.9779 152.426C46.9763 152.427 46.9746 152.428 46.9729 152.428C47.6748 152.025 48.3504 151.574 49.0637 151.19C49.0571 151.194 49.0503 151.198 49.0439 151.201C49.1787 151.125 49.3148 151.049 49.4502 150.972C49.4485 150.973 49.4468 150.974 49.4452 150.975C49.4851 150.952 49.5251 150.93 49.565 150.907C49.5636 150.907 49.562 150.908 49.5604 150.909C49.5696 150.904 49.5787 150.899 49.588 150.894C49.5876 150.894 49.5871 150.894 49.5867 150.895C49.5906 150.892 49.5943 150.89 49.5982 150.888C49.5968 150.889 49.5956 150.89 49.5943 150.89C49.6765 150.843 49.7586 150.797 49.8408 150.75C49.8313 150.755 49.8225 150.76 49.8129 150.766C49.8364 150.752 49.8593 150.739 49.8827 150.726C49.8738 150.731 49.8644 150.736 49.8555 150.741C49.8718 150.732 49.8886 150.723 49.9054 150.713C49.9034 150.714 49.9014 150.716 49.8994 150.717C49.9034 150.714 49.9074 150.712 49.9113 150.71C49.9099 150.711 49.9084 150.712 49.907 150.712C50.3726 150.441 50.8609 150.211 51.3331 149.952C51.3271 149.956 51.321 149.959 51.3151 149.962C51.3646 149.935 51.4136 149.907 51.4632 149.879C51.4536 149.884 51.4448 149.889 51.4359 149.894C54.3258 148.092 57.4849 146.78 60.4689 145.147C62.7388 143.958 65.0563 142.852 67.4171 141.856C67.5398 141.733 67.7432 141.64 67.8649 141.818C68.2303 142.489 65.5715 143.117 65.0772 143.437C65.088 143.433 65.0994 143.428 65.1102 143.424C60.8675 145.32 56.8037 147.587 52.6581 149.684C52.6592 149.683 52.6601 149.683 52.6612 149.682C51.6601 150.309 50.5981 150.827 49.5767 151.418C49.5781 151.417 49.5795 151.417 49.5809 151.416C48.6691 151.9 47.8012 152.455 46.913 152.98C46.9142 152.979 46.9153 152.978 46.9165 152.978C46.8872 152.994 46.8578 153.011 46.8285 153.028C46.8288 153.028 46.8291 153.028 46.8293 153.027C46.8221 153.032 46.815 153.036 46.8079 153.04C46.8102 153.038 46.8124 153.037 46.8146 153.036C46.8052 153.041 46.7959 153.047 46.7866 153.052C46.7869 153.052 46.787 153.052 46.7873 153.052C46.492 153.219 46.1936 153.382 45.8968 153.548C45.9028 153.544 45.9088 153.54 45.9148 153.537C45.8521 153.573 45.7894 153.608 45.7262 153.644C45.7274 153.643 45.7286 153.642 45.7298 153.642C45.7201 153.647 45.7104 153.653 45.7006 153.658C45.7023 153.657 45.7039 153.657 45.7056 153.656C45.503 153.772 45.2973 153.884 45.0944 154C45.1002 153.997 45.1061 153.993 45.1118 153.99C45.0457 154.028 44.9794 154.066 44.9133 154.103C44.9229 154.098 44.9323 154.092 44.9419 154.087C43.788 154.785 42.6481 155.51 41.4647 156.158C41.4341 156.296 41.2062 156.379 41.1002 156.278Z" fill="white"/>
<path d="M49.7915 141.584C49.4158 140.995 53.0288 139.268 53.5844 138.705C51.5531 138.146 49.4443 137.892 47.3881 137.428C47.3928 137.429 47.3976 137.429 47.4023 137.429C47.3926 137.428 47.3827 137.428 47.373 137.427C47.3773 137.427 47.3817 137.428 47.3861 137.428C46.1584 137.213 45.1453 138.026 44.0401 138.439C43.9064 138.485 43.7717 138.574 43.6271 138.564C43.4465 138.516 43.5648 138.249 43.7216 138.279C44.8493 137.81 45.8727 136.85 47.1462 136.958C49.3585 137.295 51.605 137.659 53.775 138.214C55.22 138.355 53.9481 139.057 53.3971 139.43C52.3994 140.114 51.3731 140.755 50.3718 141.433C50.377 141.429 50.3821 141.425 50.3872 141.421C50.3757 141.43 50.3643 141.438 50.353 141.447C50.3563 141.445 50.3595 141.442 50.3627 141.439C50.1996 141.56 49.9729 141.827 49.7915 141.584Z" fill="white"/>
<path d="M49.3719 141.785C48.8508 141.667 48.3335 141.532 47.8145 141.403C47.8253 141.406 47.8367 141.408 47.8482 141.412C47.8246 141.406 47.8013 141.399 47.7778 141.393C47.7832 141.395 47.7885 141.396 47.7941 141.398C47.7828 141.395 47.7718 141.391 47.7605 141.389C47.7626 141.389 47.7649 141.39 47.767 141.39C47.7504 141.386 47.7339 141.382 47.7171 141.377C47.7218 141.379 47.7265 141.38 47.7312 141.381C47.7143 141.377 47.6973 141.372 47.6802 141.368H47.6804C47.6276 141.355 47.5747 141.341 47.5225 141.327C47.5254 141.328 47.5283 141.329 47.5311 141.33C47.3729 141.288 47.2184 141.237 47.0609 141.194C47.0717 141.196 47.0831 141.199 47.0939 141.202C46.6008 141.092 46.1232 140.932 45.6356 140.801C45.6409 140.802 45.6461 140.803 45.6514 140.805C45.641 140.802 45.6307 140.799 45.6203 140.797C45.6251 140.798 45.6297 140.799 45.6344 140.8C44.7741 140.574 43.9088 140.372 43.0626 140.097C43.0634 140.097 43.0643 140.097 43.0651 140.098C40.5073 139.604 43.3576 138.491 44.2751 137.985C44.646 137.88 45.8435 137.021 46.0499 137.433C46.0343 137.599 45.8324 137.55 45.7239 137.619C45.7297 137.617 45.7354 137.615 45.7411 137.613C45.2873 137.798 44.8682 138.055 44.4398 138.29C44.4406 138.29 44.4415 138.289 44.4423 138.289C43.8162 138.652 43.1842 139.013 42.6028 139.446C43.5096 139.765 44.4448 140.001 45.3801 140.228C45.3788 140.227 45.3776 140.227 45.3763 140.226C45.8511 140.336 46.3228 140.461 46.7908 140.597C46.7801 140.594 46.7698 140.591 46.759 140.588C47.0404 140.648 47.321 140.711 47.5966 140.793C47.5858 140.79 47.5743 140.787 47.5629 140.784C48.1264 140.919 48.6886 141.058 49.2538 141.182C49.2465 141.18 49.2392 141.178 49.2317 141.176C49.3495 141.209 49.4643 141.247 49.5871 141.255C49.5844 141.255 49.5819 141.255 49.5792 141.255C49.5907 141.255 49.6021 141.257 49.6135 141.258C49.6062 141.257 49.5989 141.256 49.5916 141.256C49.7735 141.264 49.9709 141.017 50.1162 141.239C50.3239 141.656 49.6881 141.852 49.3719 141.785Z" fill="white"/>
<path d="M54.3034 145.441C54.3067 145.442 54.31 145.442 54.3132 145.443C54.2359 145.424 54.1598 145.401 54.0832 145.38C54.0834 145.38 54.0836 145.38 54.0838 145.38C53.0784 145.149 52.0506 145.028 51.0496 144.773C51.0624 144.776 51.0743 144.779 51.0871 144.782C49.3606 144.201 47.5668 143.947 45.8135 143.469C45.8256 143.472 45.8377 143.475 45.8497 143.478C43.3695 143.073 40.9802 142.167 38.7416 141.045C38.0604 140.044 41.1239 141.678 41.4533 141.653C41.4477 141.651 41.4421 141.65 41.4366 141.648C41.448 141.651 41.4594 141.654 41.4709 141.657C41.4685 141.657 41.4661 141.656 41.4637 141.655C42.5016 141.941 43.4949 142.378 44.5409 142.646C44.5349 142.644 44.529 142.643 44.523 142.641C45.1756 142.777 45.8389 142.844 46.4757 143.052C46.4668 143.05 46.458 143.048 46.4491 143.046C48.0323 143.431 49.6362 143.659 51.185 144.183C51.18 144.182 51.1749 144.18 51.1697 144.179C51.1898 144.184 51.2096 144.189 51.2295 144.195C51.2167 144.191 51.2047 144.188 51.1919 144.185C51.2187 144.192 51.246 144.199 51.2732 144.206C51.2605 144.203 51.2478 144.199 51.2351 144.196C52.0325 144.407 52.8557 144.491 53.655 144.689C53.6509 144.688 53.6469 144.686 53.6428 144.685C53.9014 144.751 54.1675 144.783 54.4231 144.862C54.4103 144.859 54.3984 144.855 54.3863 144.852C54.7934 144.871 54.6839 145.528 54.3034 145.441Z" fill="white"/>
<path d="M51.546 147.056C51.4259 147.018 51.3064 146.981 51.1844 146.949C51.1893 146.95 51.1941 146.951 51.199 146.953C51.1945 146.952 51.19 146.95 51.1855 146.949C51.1864 146.949 51.1872 146.95 51.188 146.95C47.3352 145.742 43.3351 144.991 39.5791 143.486C39.5827 143.487 39.5863 143.489 39.5898 143.49C39.57 143.481 39.5499 143.472 39.5297 143.463C39.5334 143.465 39.5371 143.467 39.5408 143.468C39.2641 143.335 38.95 143.209 38.725 143.012C38.6429 142.758 38.954 142.757 39.1075 142.849C40.1719 143.257 41.2986 143.427 42.3679 143.824C42.3546 143.82 42.3412 143.817 42.3286 143.813C42.8614 143.938 43.3764 144.126 43.9057 144.265C43.8917 144.262 43.8784 144.258 43.865 144.255C43.9533 144.278 44.041 144.3 44.1293 144.323C44.1154 144.32 44.1021 144.316 44.0886 144.313C44.6535 144.467 45.2214 144.606 45.7886 144.75C45.7872 144.75 45.7859 144.749 45.7846 144.749C45.7955 144.752 45.8063 144.755 45.817 144.757C45.8109 144.756 45.8047 144.754 45.7986 144.753C45.8113 144.756 45.824 144.759 45.8367 144.763C45.8317 144.761 45.8265 144.76 45.8214 144.758C45.8232 144.759 45.8249 144.759 45.8266 144.76C45.8262 144.76 45.8258 144.76 45.8254 144.76C45.8758 144.773 45.9263 144.786 45.9766 144.799C45.9626 144.795 45.9486 144.792 45.9347 144.788C46.8251 145.027 47.7227 145.239 48.6229 145.433C48.6155 145.431 48.6084 145.429 48.601 145.428C49.5262 145.714 50.4348 146.049 51.3799 146.27C51.3652 146.266 51.3506 146.263 51.3354 146.259C51.3668 146.267 51.398 146.275 51.4295 146.283C51.4202 146.281 51.4109 146.279 51.4014 146.276C51.4042 146.277 51.407 146.278 51.4098 146.278C51.4046 146.277 51.3994 146.276 51.3944 146.275C51.6811 146.333 52.0927 146.444 51.9537 146.824C51.8962 146.993 51.7185 147.112 51.546 147.056Z" fill="white"/>
<path d="M47.5719 148.563C46.6665 148.346 45.7968 148.012 44.8668 147.916C44.8807 147.92 44.8947 147.924 44.9093 147.928C44.8874 147.922 44.8654 147.916 44.8436 147.911C44.8512 147.913 44.8587 147.915 44.8661 147.916C43.0402 147.166 41.1244 146.744 39.2583 146.124C39.0856 146.187 38.8696 146.016 38.8873 145.829C39.1283 145.206 40.294 146.017 40.7993 145.979C43.0001 146.395 45.0562 147.312 47.2523 147.771C47.2377 147.767 47.223 147.764 47.2084 147.76C47.2256 147.765 47.2427 147.769 47.2597 147.773C47.2566 147.773 47.2535 147.772 47.2503 147.771C47.2648 147.775 47.2793 147.779 47.2935 147.782C47.2846 147.78 47.2754 147.777 47.2661 147.775C47.5717 147.842 48.1212 147.889 47.9702 148.336C47.9131 148.502 47.7404 148.616 47.5719 148.563Z" fill="white"/>
<path d="M43.7796 149.963C42.3393 149.511 40.8395 149.117 39.5241 148.361C39.362 148.389 39.33 148.131 39.4496 148.059C39.674 147.986 39.9025 148.181 40.1282 148.208C40.1276 148.208 40.127 148.208 40.1264 148.207C41.46 148.592 42.9687 148.812 44.1703 149.451C44.2958 149.697 44.0623 150.054 43.7796 149.963Z" fill="white"/>
<path d="M40.8924 151.193C40.6518 151.087 40.4443 150.923 40.2277 150.777C40.2328 150.781 40.2385 150.784 40.2442 150.788C40.1307 150.683 39.6381 150.536 39.928 150.371C39.928 150.371 39.9278 150.371 39.9278 150.371C39.9825 150.378 40.0574 150.356 40.0959 150.404C40.4405 150.567 40.914 150.643 41.1708 150.913C41.2294 151.073 41.0567 151.28 40.8924 151.193Z" fill="white"/>
<path d="M174.181 102.341C174.036 102.337 174.024 102.173 174.03 102.061C174.03 100.599 173.925 99.1383 173.942 97.6755C173.942 97.6798 173.942 97.6842 173.942 97.6885C173.943 97.6588 173.943 97.6292 173.944 97.5996C173.944 97.6097 173.944 97.6199 173.944 97.6304C173.944 97.5993 173.945 97.5688 173.945 97.5377C173.945 97.5523 173.945 97.5676 173.944 97.5821C174.059 97.1152 173.75 96.1907 174.33 96.0271C174.896 96.067 174.337 98.1839 174.477 98.7253C174.477 98.7229 174.477 98.7205 174.477 98.718C174.468 99.1786 174.458 99.6392 174.449 100.1C174.449 100.094 174.449 100.089 174.449 100.084C174.449 100.086 174.448 100.087 174.448 100.089C174.448 100.084 174.448 100.079 174.448 100.074C174.448 100.086 174.448 100.098 174.448 100.11C174.448 100.105 174.448 100.099 174.448 100.093C174.448 100.115 174.448 100.138 174.447 100.16C174.447 100.158 174.447 100.156 174.447 100.153C174.446 100.208 174.445 100.263 174.444 100.317C174.444 100.316 174.444 100.315 174.444 100.313C174.444 100.32 174.444 100.327 174.444 100.333C174.444 100.331 174.444 100.329 174.444 100.328C174.444 100.335 174.443 100.342 174.443 100.349C174.443 100.347 174.443 100.346 174.443 100.344C174.345 100.848 174.588 102.072 174.181 102.341Z" fill="white"/>
<path d="M188.49 127.421C184.805 127.211 181.115 127.314 177.434 127.121C177.435 127.121 177.436 127.121 177.437 127.122C177.433 127.121 177.43 127.121 177.426 127.121C177.427 127.121 177.427 127.121 177.428 127.121C177.134 127.137 176.522 127.002 177.003 126.695C177.003 126.694 177.002 126.694 177.002 126.693C180.045 126.683 183.067 126.118 186.114 126.436C186.76 126.616 189.003 126.051 188.953 126.948C188.934 127.182 188.741 127.429 188.49 127.421Z" fill="white"/>
<path d="M222.805 101.226C221.969 100.867 223.096 99.2146 222.958 98.4776C222.958 98.4846 222.957 98.4915 222.957 98.4983C222.934 95.7647 222.134 93.0457 220.752 90.6943C219.861 89.0343 220.036 87.1224 220.15 85.3095C220.195 85.079 220.083 84.2809 220.486 84.5208C220.585 85.5381 220.558 86.6006 220.675 87.6301C220.674 87.6193 220.673 87.6083 220.671 87.5976C220.777 88.9019 221.311 90.0902 222.047 91.1549C222.717 92.7675 223.438 94.4196 223.643 96.168C223.742 97.3044 223.958 98.4808 223.627 99.5968C223.386 100.105 223.546 101.205 222.805 101.226Z" fill="white"/>
<path d="M189.305 83.4369C187.997 82.9717 190.729 81.8747 191.057 81.4416C191.884 80.7554 192.747 80.1234 193.679 79.5874C194.092 79.4053 194.664 78.5405 195.061 79.1342C195.282 80.0436 193.35 80.5948 192.767 81.1176C191.742 81.8513 190.724 82.586 189.623 83.202C189.57 83.333 189.451 83.4406 189.305 83.4369Z" fill="white"/>
<path d="M206.354 80.641C204.732 80.0109 203.065 79.4945 201.423 78.9161C201.099 79.055 200.95 78.4733 201.275 78.3845C201.761 78.422 202.24 78.648 202.72 78.7556C204.019 79.288 205.563 79.3954 206.737 80.1395C206.86 80.3773 206.629 80.7363 206.354 80.641Z" fill="white"/>
<path d="M200.9 125.58C200.528 119.782 200.157 113.969 200.409 108.158C200.409 108.16 200.409 108.162 200.409 108.164C200.409 108.153 200.409 108.141 200.41 108.13C200.41 108.132 200.409 108.135 200.409 108.137C200.621 100.91 199.812 93.7235 199.579 86.5091C199.478 84.3697 199.138 82.2499 198.955 80.119C199.664 78.8141 199.567 82.2229 199.695 82.5623C199.693 82.5502 199.692 82.538 199.691 82.5261C199.723 82.8101 199.755 83.0948 199.786 83.3794C199.785 83.3673 199.784 83.3552 199.782 83.3432C200.335 92.3701 201.191 101.413 200.737 110.465C200.737 110.461 200.737 110.457 200.737 110.453C200.737 110.464 200.737 110.475 200.737 110.485C200.737 110.484 200.737 110.483 200.737 110.482C200.641 114.629 200.838 118.773 201.063 122.913C201.002 123.219 201.589 126.491 200.9 125.58Z" fill="white"/>
<path d="M240.227 105.343C239.906 104.806 239.292 103.625 240.103 103.28C240.597 103.356 240.164 103.926 240.37 104.221C240.488 104.606 241.089 105.092 240.642 105.452C240.499 105.547 240.306 105.504 240.227 105.343Z" fill="white"/>
<path d="M237.164 108.356C236.778 108.079 238.161 106.777 238.373 107.215C238.599 107.673 237.905 107.881 237.686 108.19C237.561 108.344 237.351 108.55 237.164 108.356Z" fill="white"/>
<path d="M167.238 96.6388C167.084 96.4455 166.36 96.1438 166.873 95.9563C167.116 96.0296 167.672 96.2571 167.5 96.5816C167.445 96.6628 167.32 96.7116 167.238 96.6388Z" fill="white"/>
<path d="M170.735 61.7479C170.382 60.9503 172.425 59.8732 172.976 59.3894C175.419 57.5132 176.169 56.5757 176.209 53.4197C176.304 49.6392 180.107 49.8384 180.612 46.4509C180.61 46.4623 180.609 46.4731 180.607 46.4846C180.688 45.8918 180.774 45.297 180.943 44.7218C180.94 44.7319 180.938 44.7422 180.935 44.7523C180.949 44.7028 180.963 44.6532 180.976 44.603C180.974 44.6131 180.971 44.6234 180.968 44.6335C181.459 42.7541 182.551 43.9032 181.742 43.9551C181.714 43.9644 181.691 43.9837 181.667 44.0014C181.667 44.0011 181.668 44.0008 181.668 44.0006C181.666 44.003 181.663 44.0047 181.66 44.007C181.662 44.0058 181.664 44.0046 181.665 44.0034C181.66 44.0084 181.655 44.0136 181.65 44.0188C181.66 44.0084 181.67 43.9987 181.683 43.9905C181.262 44.4807 181.232 45.1994 181.098 45.8092C181.098 45.8031 181.099 45.797 181.1 45.7907C181.099 45.8014 181.097 45.8119 181.096 45.8225C181.096 45.8198 181.096 45.8172 181.097 45.8145C180.997 47.2912 180.417 48.836 179.189 49.7339C179.193 49.731 179.197 49.7282 179.201 49.7254C179.161 49.7556 179.122 49.7858 179.082 49.8158C179.084 49.8144 179.086 49.8131 179.088 49.8119C179.067 49.8277 179.046 49.8437 179.025 49.8595C179.035 49.8513 179.046 49.8437 179.056 49.8355C175.186 51.9423 178.479 56.5471 174.838 58.8347C173.771 59.8656 172.362 60.4282 171.299 61.4535C171.142 61.5955 170.977 61.9157 170.735 61.7479Z" fill="white"/>
<path d="M174.933 64.6317C174.508 64.4388 174.836 63.9216 174.835 63.5813C174.832 63.601 174.829 63.62 174.827 63.6397C175.203 59.9059 179.995 59.2153 179.923 55.213C180.037 54.0231 180.298 52.8495 181.158 51.966C181.224 51.8764 181.347 51.8269 181.443 51.9036C181.686 52.1681 181.25 52.4358 181.124 52.6533C180.375 53.5724 180.572 54.8332 180.372 55.9298C180.375 55.9145 180.377 55.8993 180.379 55.884C180.369 55.9522 180.359 56.021 180.349 56.0894C180.349 56.087 180.349 56.0846 180.35 56.0822C180.4 59.5406 175.993 60.4637 175.548 63.6809C175.473 64.0355 175.461 64.7481 174.933 64.6317Z" fill="white"/>
<path d="M169.968 69.3635C169.309 69.2256 170.028 67.7291 170.004 67.2259C170.163 66.2991 170.347 65.3007 171.06 64.6252C171.058 64.6269 171.056 64.6288 171.054 64.6307C171.06 64.6247 171.066 64.6184 171.072 64.6123C171.071 64.6139 171.07 64.6154 171.068 64.6168C171.281 64.4815 171.619 63.939 171.866 64.2036C171.941 64.3648 171.788 64.4718 171.668 64.5469C169.891 65.5832 170.971 68.83 169.968 69.3635Z" fill="white"/>
<path d="M165.011 68.2331C164.948 66.584 165.335 64.8708 166.615 63.738C166.706 63.6389 166.862 63.6096 166.96 63.717C167.189 64.2929 166.204 64.6292 166.027 65.1495C166.027 65.1488 166.028 65.1482 166.028 65.1474C165.513 66.054 165.552 67.1339 165.602 68.1429C165.643 68.5322 165.038 68.6774 165.011 68.2331Z" fill="white"/>
<path d="M158.366 82.7128C157.606 82.5044 158.383 81.2595 158.528 80.7772C159.472 78.7934 161.509 77.9105 163.08 76.5489C163.069 76.5596 163.058 76.5711 163.047 76.5819C163.073 76.5565 163.098 76.531 163.123 76.5063C163.121 76.5083 163.119 76.5103 163.117 76.5122C163.144 76.4858 163.17 76.4592 163.197 76.4326C163.193 76.4363 163.19 76.4399 163.186 76.4436C163.198 76.4314 163.211 76.419 163.223 76.4065C163.212 76.4173 163.202 76.4281 163.19 76.439C163.737 75.9229 163.927 75.1757 164.14 74.4804C164.14 74.4817 164.139 74.4829 164.139 74.4843C164.142 74.4725 164.146 74.461 164.149 74.4493C164.147 74.4552 164.145 74.4614 164.143 74.4675C164.413 74.0183 164.234 72.5349 164.666 72.4482C165.018 72.9263 164.461 74.9277 164.302 75.5836C163.414 78.3414 159.595 78.8091 158.887 81.7506C158.755 82.0824 158.844 82.6801 158.366 82.7128Z" fill="white"/>
<path d="M155.253 89.7746C155.107 89.2344 155.74 86.4712 156.459 86.7624C156.591 86.8674 156.583 87.0599 156.501 87.1921C156.107 87.8908 155.843 88.7125 155.88 89.5205C155.878 89.504 155.877 89.4875 155.875 89.471C156.047 89.903 155.391 90.3129 155.253 89.7746Z" fill="white"/>
<path d="M207.304 58.2665C207.19 57.1515 207.623 56.0347 208.027 55.0129C208.395 54.2053 209.248 53.6025 209.187 52.6358C209.212 52.4054 209.166 52.0272 209.485 52.0093C209.633 52.0099 209.72 52.1523 209.71 52.2883C209.823 53.6738 208.671 54.5711 208.334 55.8176C208.143 56.5423 207.927 57.289 208.013 58.0448C208.117 58.4989 207.418 58.7985 207.304 58.2665Z" fill="white"/>
<path d="M211.022 60.4901C209.846 59.208 209.782 57.5145 210.251 55.9097C210.361 55.072 211.122 54.9922 210.876 55.6765C210.878 55.6739 210.88 55.6714 210.882 55.6689C210.446 56.7943 210.206 58.3459 211.1 59.3068C211.09 59.2941 211.08 59.2813 211.07 59.2692C211.104 59.3117 211.137 59.3541 211.17 59.3964C211.168 59.3934 211.166 59.3904 211.163 59.3874C211.315 59.5806 211.468 59.7738 211.617 59.9701C211.888 60.3307 211.325 60.9076 211.022 60.4901Z" fill="white"/>
<path d="M213.776 61.5119C213.766 61.4858 213.755 61.4604 213.745 61.4343C213.749 61.4432 213.753 61.4527 213.757 61.4623C213.752 61.451 213.748 61.4398 213.743 61.4289C213.745 61.4318 213.746 61.4346 213.747 61.4375C213.743 61.4285 213.74 61.4194 213.736 61.4103C213.737 61.4116 213.737 61.4128 213.738 61.4141C213.725 61.3824 213.712 61.3505 213.697 61.3192C213.433 61.1447 213.809 60.7656 213.987 61.0436C214.316 61.2535 214.104 61.8713 213.776 61.5119Z" fill="white"/>
<path d="M208.458 61.292C208.462 60.9717 208.252 60.3816 208.64 60.2378C209.071 60.264 208.788 60.8756 208.915 61.1497C208.988 61.4423 208.527 61.6334 208.458 61.292Z" fill="white"/>
<path d="M190.998 27.7052C190.95 26.5504 193.576 25.3025 194.552 24.9449C194.999 24.8769 195.594 24.0792 195.961 24.5527C196.142 25.6224 192.956 25.823 192.273 26.6847C192.281 26.6784 192.29 26.672 192.299 26.6651C191.975 26.9225 191.632 27.1641 191.355 27.474C191.361 27.4664 191.367 27.4587 191.373 27.4511C191.354 27.4745 191.335 27.4977 191.321 27.5241C191.366 27.6991 191.115 27.8814 190.998 27.7052Z" fill="white"/>
<path d="M193.94 27.6926C193.651 27.2187 196.001 26.1675 196.416 25.8636C196.581 25.7498 196.839 25.6776 196.919 25.9248C197.144 26.4035 194.84 27.0943 194.412 27.4657C194.419 27.4619 194.426 27.4581 194.433 27.4543C194.262 27.507 194.124 27.793 193.94 27.6926Z" fill="white"/>
<path d="M197.432 27.6154C197.695 27.1082 198.528 26.9094 198.964 26.4918C199.076 26.4169 199.224 26.4539 199.282 26.5759C199.404 27.072 198.613 27.1645 198.323 27.4281C198.073 27.5007 197.546 28.0665 197.432 27.6154Z" fill="white"/>
<path d="M209.865 25.7302C209.527 25.441 208.883 25.233 208.851 24.7358C208.875 24.5397 209.172 24.5056 209.191 24.7221C209.435 25.0652 210.308 25.1008 210.17 25.6126C210.121 25.7212 209.975 25.797 209.865 25.7302Z" fill="white"/>
<path d="M208.388 27.2831C208.069 27.0445 207.458 26.3444 208.065 26.0998C208.376 26.0875 208.395 26.6099 208.747 26.7531C209.032 26.9696 208.695 27.5149 208.388 27.2831Z" fill="white"/>
</svg>
