<svg width="24" height="25" viewBox="0 0 24 25" fill="none" xmlns="http://www.w3.org/2000/svg">
    <path fill-rule="evenodd" clip-rule="evenodd"
          d="M9.315 8.084C12.195 4.383 16.695 2 21.75 2C21.9489 2 22.1397 2.07902 22.2803 2.21967C22.421 2.36032 22.5 2.55109 22.5 2.75C22.5 7.806 20.117 12.305 16.416 15.186C16.5699 16.1502 16.5128 17.1364 16.2486 18.0764C15.9844 19.0164 15.5194 19.888 14.8857 20.6308C14.2519 21.3737 13.4646 21.9702 12.5779 22.3792C11.6913 22.7883 10.7264 23.0001 9.75 23C9.55109 23 9.36032 22.921 9.21967 22.7803C9.07902 22.6397 9 22.4489 9 22.25V18.119C8.02793 17.3514 7.14925 16.4724 6.382 15.5H2.25C2.05109 15.5 1.86032 15.421 1.71967 15.2803C1.57902 15.1397 1.5 14.9489 1.5 14.75C1.49992 13.7735 1.71173 12.8085 2.12082 11.9218C2.52991 11.0351 3.12653 10.2477 3.86951 9.61391C4.61249 8.98017 5.48413 8.51519 6.42427 8.25105C7.36442 7.98692 8.35068 7.92992 9.315 8.084ZM15 7.25C14.4033 7.25 13.831 7.48705 13.409 7.90901C12.9871 8.33097 12.75 8.90326 12.75 9.5C12.75 10.0967 12.9871 10.669 13.409 11.091C13.831 11.5129 14.4033 11.75 15 11.75C15.5967 11.75 16.169 11.5129 16.591 11.091C17.0129 10.669 17.25 10.0967 17.25 9.5C17.25 8.90326 17.0129 8.33097 16.591 7.90901C16.169 7.48705 15.5967 7.25 15 7.25Z"
          fill="white"/>
    <path d="M5.25979 17.7419C5.33878 17.683 5.4054 17.6092 5.45584 17.5245C5.50627 17.4399 5.53955 17.3461 5.55375 17.2486C5.56796 17.1511 5.56283 17.0518 5.53864 16.9563C5.51445 16.8607 5.47169 16.7709 5.41279 16.6919C5.35389 16.6129 5.28001 16.5463 5.19537 16.4959C5.11073 16.4455 5.01698 16.4122 4.91948 16.398C4.82198 16.3838 4.72263 16.3889 4.62712 16.4131C4.5316 16.4373 4.44178 16.48 4.36279 16.5389C3.59568 17.1096 2.9992 17.8791 2.63788 18.7642C2.27655 19.6494 2.16413 20.6165 2.31279 21.5609C2.33697 21.7182 2.41056 21.8638 2.52291 21.9765C2.63527 22.0892 2.78057 22.1633 2.93779 22.1879C3.88232 22.3365 4.8495 22.2239 5.73466 21.8624C6.61983 21.5009 7.38929 20.9042 7.95979 20.1369C8.02059 20.0582 8.0651 19.9681 8.09073 19.8719C8.11636 19.7758 8.1226 19.6755 8.10909 19.5769C8.09558 19.4783 8.06258 19.3834 8.01202 19.2977C7.96146 19.212 7.89435 19.1372 7.8146 19.0777C7.73484 19.0181 7.64405 18.9751 7.54749 18.951C7.45094 18.9269 7.35056 18.9223 7.2522 18.9374C7.15384 18.9525 7.05947 18.9871 6.97459 19.039C6.88971 19.0909 6.81601 19.1592 6.75779 19.2399C6.40906 19.7089 5.95537 20.0898 5.43304 20.352C4.91071 20.6142 4.33424 20.7505 3.74979 20.7499C3.74979 19.5199 4.34179 18.4269 5.25979 17.7419Z"
          fill="white"/>
</svg>
