     <svg xmlns="http://www.w3.org/2000/svg" width="21" height="20" viewBox="0 0 21 20" fill="none">
                            <path fillRule="evenodd" clipRule="evenodd"
                                d="M5.10595 12.9701C5.22735 13.1273 5.28141 13.3262 5.25629 13.5233C5.23117 13.7203 5.12891 13.8993 4.97195 14.0211C4.60711 14.3019 4.32711 14.6782 4.16296 15.1083C3.99882 15.5384 3.95693 16.0056 4.04195 16.4581C4.49442 16.5431 4.9616 16.5012 5.39173 16.3371C5.82186 16.1729 6.19816 15.8929 6.47895 15.5281C6.53853 15.4483 6.61341 15.3811 6.69921 15.3306C6.78502 15.28 6.88003 15.2471 6.9787 15.2336C7.07738 15.2202 7.17775 15.2265 7.27395 15.2523C7.37015 15.278 7.46025 15.3227 7.539 15.3837C7.61776 15.4446 7.68358 15.5207 7.73264 15.6073C7.78169 15.694 7.813 15.7896 7.82472 15.8885C7.83644 15.9874 7.82836 16.0876 7.80092 16.1833C7.77349 16.2791 7.72727 16.3684 7.66495 16.4461C7.15249 17.1108 6.4437 17.5972 5.63918 17.8363C4.83465 18.0754 3.97526 18.055 3.18295 17.7781C3.07637 17.7409 2.97956 17.6801 2.89974 17.6003C2.81992 17.5205 2.75915 17.4236 2.72195 17.3171C2.44487 16.5248 2.42443 15.6653 2.66354 14.8608C2.90265 14.0562 3.38914 13.3474 4.05395 12.8351C4.21124 12.7134 4.41042 12.6591 4.6077 12.6842C4.80498 12.7094 4.9842 12.8118 5.10595 12.9691V12.9701Z"
                                fill="white" />
                            <path fillRule="evenodd" clipRule="evenodd"
                                d="M6.252 11.9999C6.90707 12.8379 7.66198 13.5928 8.5 14.2479V18.2499C8.5 18.6639 8.836 18.9999 9.25 18.9999C10.0276 19 10.7944 18.8189 11.4897 18.4707C12.185 18.1226 12.7895 17.6171 13.2551 16.9945C13.7208 16.3718 14.0349 15.6491 14.1724 14.8838C14.3098 14.1185 14.2669 13.3317 14.047 12.5859C15.7706 11.3586 17.1681 9.72871 18.1179 7.83805C19.0678 5.94739 19.5412 3.85325 19.497 1.73786C19.4932 1.54412 19.4145 1.3594 19.2775 1.22238C19.1405 1.08536 18.9557 1.00669 18.762 1.00286C16.6464 0.958476 14.5521 1.43182 12.6613 2.38169C10.7704 3.33155 9.14036 4.72916 7.913 6.45286C7.16725 6.23315 6.38055 6.19038 5.61537 6.32792C4.8502 6.46547 4.12764 6.77956 3.5051 7.24523C2.88255 7.7109 2.37717 8.31532 2.02911 9.01049C1.68104 9.70566 1.49987 10.4724 1.5 11.2499C1.501 11.6639 1.837 11.9999 2.251 11.9999H6.252ZM13.5 8.99986C14.0304 8.99986 14.5391 8.78914 14.9142 8.41407C15.2893 8.039 15.5 7.53029 15.5 6.99986C15.5 6.46942 15.2893 5.96072 14.9142 5.58564C14.5391 5.21057 14.0304 4.99986 13.5 4.99986C12.9696 4.99986 12.4609 5.21057 12.0858 5.58564C11.7107 5.96072 11.5 6.46942 11.5 6.99986C11.5 7.53029 11.7107 8.039 12.0858 8.41407C12.4609 8.78914 12.9696 8.99986 13.5 8.99986Z"
                                fill="white" />
                        </svg>