<svg xmlns="http://www.w3.org/2000/svg" width="128" height="128" viewBox="0 0 128 128" fill="none">
    <path fill-rule="evenodd" clip-rule="evenodd" d="M49.68 40.448C65.04 20.7093 89.04 8 116 8C117.061 8 118.078 8.42143 118.828 9.17157C119.579 9.92172 120 10.9391 120 12C120 38.9653 107.291 62.96 87.552 78.3253C88.3729 83.4679 88.0683 88.7274 86.6592 93.7409C85.2501 98.7544 82.77 103.402 79.3902 107.364C76.0103 111.326 71.8111 114.508 67.0823 116.689C62.3535 118.871 57.2077 120 52 120C50.9391 120 49.9217 119.579 49.1716 118.828C48.4214 118.078 48 117.061 48 116V93.968C42.8156 89.874 38.1294 85.186 34.0373 80H12C10.9391 80 9.92172 79.5786 9.17157 78.8284C8.42143 78.0783 8 77.0609 8 76C7.99958 70.7918 9.12925 65.6454 11.3111 60.9162C13.4929 56.187 16.6748 51.9875 20.6374 48.6075C24.5999 45.2276 29.2487 42.7477 34.2628 41.3389C39.2769 39.9302 44.537 39.6263 49.68 40.448ZM80 36C76.8174 36 73.7652 37.2643 71.5147 39.5147C69.2643 41.7652 68 44.8174 68 48C68 51.1826 69.2643 54.2348 71.5147 56.4853C73.7652 58.7357 76.8174 60 80 60C83.1826 60 86.2348 58.7357 88.4853 56.4853C90.7357 54.2348 92 51.1826 92 48C92 44.8174 90.7357 41.7652 88.4853 39.5147C86.2348 37.2643 83.1826 36 80 36Z" fill="#683DE4"/>
    <path d="M28.0533 91.9574C28.4746 91.6432 28.8298 91.2492 29.0989 90.7978C29.3679 90.3464 29.5453 89.8464 29.6211 89.3264C29.6969 88.8064 29.6695 88.2765 29.5405 87.7671C29.4115 87.2577 29.1834 86.7786 28.8693 86.3574C28.5552 85.9361 28.1611 85.5808 27.7097 85.3118C27.2583 85.0428 26.7583 84.8653 26.2383 84.7896C25.7183 84.7138 25.1884 84.7412 24.679 84.8702C24.1696 84.9992 23.6906 85.2272 23.2693 85.5414C19.178 88.5847 15.9968 92.6887 14.0697 97.4096C12.1427 102.13 11.5431 107.288 12.336 112.325C12.4649 113.164 12.8574 113.94 13.4566 114.542C14.0558 115.143 14.8307 115.538 15.6693 115.669C20.7068 116.462 25.865 115.861 30.5859 113.933C35.3068 112.005 39.4106 108.823 42.4533 104.731C42.7775 104.311 43.0149 103.83 43.1516 103.317C43.2883 102.804 43.3216 102.27 43.2495 101.744C43.1775 101.218 43.0015 100.712 42.7318 100.255C42.4622 99.7975 42.1042 99.3986 41.6789 99.0812C41.2536 98.7637 40.7693 98.5341 40.2543 98.4057C39.7394 98.2773 39.204 98.2527 38.6795 98.3333C38.1549 98.4138 37.6516 98.598 37.1989 98.875C36.7462 99.152 36.3531 99.5163 36.0426 99.9467C34.1827 102.448 31.763 104.479 28.9773 105.878C26.1915 107.276 23.117 108.003 20 108C20 101.44 23.1573 95.6107 28.0533 91.9574Z" fill="#683DE4"/>
</svg>