<svg width="16" height="16" viewBox="0 0 16 16" fill="none" xmlns="http://www.w3.org/2000/svg">
<g opacity="0.8" clip-path="url(#clip0_4_258)">
<path fill-rule="evenodd" clip-rule="evenodd" d="M3.68496 10.3761C3.78207 10.5018 3.82532 10.661 3.80523 10.8186C3.78513 10.9762 3.70332 11.1195 3.57776 11.2169C3.28588 11.4415 3.06188 11.7425 2.93056 12.0866C2.79925 12.4307 2.76574 12.8045 2.83376 13.1665C3.19573 13.2345 3.56947 13.201 3.91358 13.0696C4.25768 12.9383 4.55872 12.7143 4.78336 12.4225C4.83102 12.3586 4.89092 12.3049 4.95957 12.2645C5.02821 12.224 5.10422 12.1976 5.18316 12.1869C5.2621 12.1761 5.34239 12.1812 5.41935 12.2018C5.49631 12.2224 5.5684 12.2582 5.6314 12.3069C5.6944 12.3557 5.74706 12.4165 5.7863 12.4859C5.82555 12.5552 5.85059 12.6317 5.85997 12.7108C5.86935 12.7899 5.86288 12.8701 5.84093 12.9467C5.81899 13.0233 5.78201 13.0947 5.73216 13.1569C5.32219 13.6886 4.75516 14.0777 4.11154 14.269C3.46792 14.4603 2.7804 14.444 2.14656 14.2225C2.06129 14.1927 1.98385 14.1441 1.91999 14.0802C1.85613 14.0164 1.80751 13.9389 1.77776 13.8537C1.55609 13.2198 1.53974 12.5323 1.73103 11.8886C1.92231 11.245 2.31151 10.6779 2.84336 10.2681C2.96919 10.1707 3.12853 10.1273 3.28636 10.1474C3.44418 10.1675 3.58756 10.2495 3.68496 10.3753V10.3761Z" fill="#1E1A26"/>
<path fill-rule="evenodd" clip-rule="evenodd" d="M4.6014 9.59993C5.12546 10.2703 5.72939 10.8743 6.3998 11.3983V14.5999C6.3998 14.9311 6.6686 15.1999 6.9998 15.1999C7.62185 15.2001 8.23535 15.0551 8.79156 14.7766C9.34777 14.4981 9.83137 14.0938 10.2039 13.5956C10.5765 13.0975 10.8277 12.5193 10.9377 11.9071C11.0477 11.2948 11.0133 10.6654 10.8374 10.0687C12.2162 9.08692 13.3343 7.78302 14.0942 6.27049C14.854 4.75796 15.2328 3.08265 15.1974 1.39033C15.1943 1.23535 15.1314 1.08757 15.0218 0.977952C14.9122 0.868339 14.7644 0.805404 14.6094 0.802334C12.917 0.76683 11.2415 1.1455 9.72881 1.9054C8.21613 2.66529 6.91209 3.78338 5.9302 5.16233C5.33361 4.98657 4.70424 4.95235 4.0921 5.06239C3.47996 5.17243 2.90192 5.42369 2.40388 5.79623C1.90585 6.16877 1.50154 6.65231 1.22309 7.20844C0.944637 7.76458 0.799704 8.37798 0.799805 8.99993C0.800605 9.33113 1.0694 9.59993 1.4006 9.59993H4.6014ZM10.3998 7.19993C10.8242 7.19993 11.2311 7.03136 11.5312 6.7313C11.8312 6.43125 11.9998 6.02428 11.9998 5.59993C11.9998 5.17559 11.8312 4.76862 11.5312 4.46856C11.2311 4.1685 10.8242 3.99993 10.3998 3.99993C9.97546 3.99993 9.56849 4.1685 9.26843 4.46856C8.96838 4.76862 8.7998 5.17559 8.7998 5.59993C8.7998 6.02428 8.96838 6.43125 9.26843 6.7313C9.56849 7.03136 9.97546 7.19993 10.3998 7.19993Z" fill="#1E1A26"/>
</g>
<defs>
<clipPath id="clip0_4_258">
<rect width="16" height="16" fill="white"/>
</clipPath>
</defs>
</svg>
