<svg width="16" height="17" viewBox="0 0 16 17" fill="none" xmlns="http://www.w3.org/2000/svg">
    <path fill-rule="evenodd" clip-rule="evenodd"
          d="M7.99998 14.9001C9.69736 14.9001 11.3252 14.2258 12.5255 13.0256C13.7257 11.8253 14.4 10.1975 14.4 8.5001C14.4 6.80271 13.7257 5.17485 12.5255 3.97461C11.3252 2.77438 9.69736 2.1001 7.99998 2.1001C6.30259 2.1001 4.67472 2.77438 3.47449 3.97461C2.27426 5.17485 1.59998 6.80271 1.59998 8.5001C1.59998 10.1975 2.27426 11.8253 3.47449 13.0256C4.67472 14.2258 6.30259 14.9001 7.99998 14.9001ZM8.59998 4.5001C8.59998 4.34097 8.53676 4.18836 8.42424 4.07583C8.31172 3.96331 8.15911 3.9001 7.99998 3.9001C7.84085 3.9001 7.68823 3.96331 7.57571 4.07583C7.46319 4.18836 7.39998 4.34097 7.39998 4.5001V8.5001C7.39998 8.8313 7.66878 9.1001 7.99998 9.1001H11.2C11.3591 9.1001 11.5117 9.03688 11.6242 8.92436C11.7368 8.81184 11.8 8.65923 11.8 8.5001C11.8 8.34097 11.7368 8.18836 11.6242 8.07583C11.5117 7.96331 11.3591 7.9001 11.2 7.9001H8.59998V4.5001Z"
          fill="#1E1A26" fill-opacity="0.3"/>
</svg>
