<svg width="100" height="100" viewBox="0 0 100 100" fill="none" xmlns="http://www.w3.org/2000/svg">
<rect width="100" height="100" rx="50" fill="white"/>
<path d="M10.0869 65.876C10.0276 65.815 10 65.7418 10 65.6482L10.0276 65.5139L13.5496 55.7663C13.6483 55.5141 13.822 55.3879 14.0787 55.3879H15.6936C15.9463 55.3879 16.1239 55.5141 16.2226 55.7663L19.7446 65.5139L19.7722 65.6482C19.7722 65.7377 19.7406 65.815 19.6775 65.876C19.6143 65.9371 19.5432 65.9655 19.4643 65.9655H18.1573C17.952 65.9655 17.8099 65.872 17.7309 65.6767L17.0557 63.8459H12.7125L12.0374 65.6767C11.9584 65.8679 11.8163 65.9655 11.6109 65.9655H10.304C10.2172 65.9655 10.1421 65.9371 10.0829 65.876H10.0869ZM13.2258 62.0966H16.5425L14.8841 57.4424L13.2258 62.0966Z" fill="black"/>
<path d="M21.5571 65.21C21.0399 64.6038 20.7793 63.7738 20.7793 62.7161V58.4688C20.7793 58.3589 20.8148 58.2694 20.882 58.2043C20.9491 58.1392 21.032 58.1067 21.1307 58.1067H22.4495C22.5482 58.1067 22.6311 58.1433 22.6982 58.2125C22.7653 58.2816 22.8009 58.3671 22.8009 58.4688V62.6266C22.8009 63.8674 23.3221 64.4858 24.3723 64.4858C24.8817 64.4858 25.2844 64.319 25.5805 63.9854C25.8806 63.6518 26.0267 63.2002 26.0267 62.6266V58.4688C26.0267 58.3589 26.0622 58.2694 26.1293 58.2043C26.1965 58.1392 26.2794 58.1067 26.3781 58.1067H27.685C27.7916 58.1067 27.8785 58.1392 27.9417 58.2043C28.0048 58.2694 28.0364 58.3589 28.0364 58.4688V65.6046C28.0364 65.7063 28.0048 65.7917 27.9417 65.8609C27.8785 65.93 27.7916 65.9667 27.685 65.9667H26.4689C26.3702 65.9667 26.2873 65.93 26.2202 65.8609C26.153 65.7917 26.1175 65.7063 26.1175 65.6046V64.9862C25.5805 65.7429 24.7672 66.1213 23.6814 66.1213C22.7811 66.1213 22.0744 65.8202 21.5532 65.214L21.5571 65.21Z" fill="black"/>
<path d="M31.4276 65.2467C30.9775 64.7667 30.7525 64.0669 30.7525 63.1393V59.722H29.5916C29.4929 59.722 29.41 59.6853 29.3429 59.6162C29.2758 59.547 29.2402 59.4616 29.2402 59.3599V58.4689C29.2402 58.3672 29.2758 58.2818 29.3429 58.2126C29.41 58.1435 29.4929 58.1068 29.5916 58.1068H30.7525V55.5967C30.7525 55.4869 30.788 55.3974 30.8551 55.3323C30.9222 55.2672 31.0052 55.2346 31.1039 55.2346H32.32C32.4266 55.2346 32.5134 55.2672 32.5766 55.3323C32.6398 55.3974 32.6714 55.4869 32.6714 55.5967V58.1068H34.5034C34.6021 58.1068 34.685 58.1435 34.7522 58.2126C34.8193 58.2818 34.8548 58.3672 34.8548 58.4689V59.3599C34.8548 59.4616 34.8193 59.547 34.7522 59.6162C34.685 59.6853 34.6021 59.722 34.5034 59.722H32.6714V62.9725C32.6714 63.4078 32.7464 63.7333 32.8925 63.9571C33.0386 64.1767 33.2794 64.2907 33.6111 64.2907H34.6377C34.7443 64.2907 34.8311 64.3232 34.8943 64.3883C34.9575 64.4534 34.9891 64.5429 34.9891 64.6527V65.6047C34.9891 65.7064 34.9575 65.7919 34.8943 65.861C34.8311 65.9302 34.7443 65.9668 34.6377 65.9668H33.4334C32.545 65.9668 31.8738 65.7268 31.4237 65.2508L31.4276 65.2467Z" fill="black"/>
<path d="M36.4152 65.857C36.348 65.7878 36.3125 65.7024 36.3125 65.6007V55.5967C36.3125 55.4869 36.348 55.3974 36.4152 55.3323C36.4823 55.2672 36.5652 55.2346 36.6639 55.2346H37.9985C38.1051 55.2346 38.1919 55.2672 38.2551 55.3323C38.3183 55.3974 38.3499 55.4869 38.3499 55.5967V59.0425C38.9382 58.3184 39.7239 57.9563 40.711 57.9563C41.6112 57.9563 42.3298 58.2614 42.8668 58.8717C43.4038 59.4819 43.6723 60.3119 43.6723 61.3574V65.6047C43.6723 65.7064 43.6407 65.7919 43.5775 65.861C43.5143 65.9302 43.4275 65.9668 43.3209 65.9668H41.9863C41.8797 65.9668 41.7889 65.9302 41.7218 65.861C41.6547 65.7919 41.6191 65.7064 41.6191 65.6047V61.4469C41.6191 60.8611 41.4809 60.4054 41.2006 60.08C40.9203 59.7545 40.5215 59.5877 40.0042 59.5877C39.487 59.5877 39.104 59.7545 38.8 60.0881C38.496 60.4217 38.3459 60.8733 38.3459 61.4469V65.6047C38.3459 65.7064 38.3143 65.7919 38.2512 65.861C38.188 65.9302 38.1011 65.9668 37.9945 65.9668H36.66C36.5612 65.9668 36.4783 65.9302 36.4112 65.861L36.4152 65.857Z" fill="black"/>
<path d="M46.258 65.2081C45.6302 64.602 45.2946 63.768 45.2472 62.698L45.2314 62.0349L45.2472 61.3717C45.2946 60.314 45.6381 59.48 46.2738 58.8697C46.9095 58.2595 47.7939 57.9543 48.9271 57.9543C50.0603 57.9543 50.9329 58.2595 51.5686 58.8697C52.2043 59.48 52.5478 60.314 52.5952 61.3717C52.6031 61.4938 52.611 61.7135 52.611 62.0349C52.611 62.3562 52.607 62.58 52.5952 62.698C52.5478 63.768 52.2082 64.602 51.5844 65.2081C50.9566 65.8143 50.0722 66.1154 48.9311 66.1154C47.79 66.1154 46.8858 65.8143 46.262 65.2081H46.258ZM50.1235 64.0893C50.4038 63.7557 50.5499 63.2675 50.5697 62.6248C50.5775 62.523 50.5854 62.3278 50.5854 62.0349C50.5854 61.7419 50.5815 61.5467 50.5697 61.445C50.5499 60.8022 50.3999 60.3099 50.1156 59.9722C49.8313 59.6346 49.4365 59.4678 48.9271 59.4678C48.4178 59.4678 48.0072 59.6386 47.7229 59.9722C47.4386 60.3099 47.2886 60.8022 47.2688 61.445L47.253 62.0349L47.2688 62.6248C47.2886 63.2716 47.4386 63.7598 47.7229 64.0893C48.0072 64.4229 48.4059 64.5897 48.9271 64.5897C49.4483 64.5897 49.8431 64.4229 50.1235 64.0893Z" fill="black"/>
<path d="M54.34 65.8575C54.2728 65.7883 54.2373 65.7029 54.2373 65.6012V58.4816C54.2373 58.3718 54.2728 58.2782 54.34 58.209C54.4071 58.1399 54.49 58.1033 54.5887 58.1033H55.793C55.8996 58.1033 55.9904 58.1399 56.0575 58.209C56.1246 58.2782 56.1602 58.3718 56.1602 58.4816V59.1C56.6498 58.4369 57.3526 58.1033 58.2725 58.1033H58.8885C58.9951 58.1033 59.082 58.1358 59.1451 58.2009C59.2083 58.266 59.2399 58.3555 59.2399 58.4654V59.5679C59.2399 59.6696 59.2083 59.755 59.1451 59.8242C59.082 59.8933 58.9951 59.9299 58.8885 59.9299H57.7277C57.2697 59.9299 56.9064 60.0642 56.6419 60.3368C56.3773 60.6093 56.247 60.9836 56.247 61.4556V65.5971C56.247 65.6988 56.2115 65.7842 56.1444 65.8534C56.0772 65.9226 55.9943 65.9592 55.8956 65.9592H54.5887C54.49 65.9592 54.4071 65.9226 54.34 65.8534V65.8575Z" fill="black"/>
<path d="M60.6612 65.8592C60.5941 65.79 60.5586 65.7046 60.5586 65.6029V55.7617C60.5586 55.6518 60.5902 55.5582 60.6534 55.4891C60.7165 55.4199 60.8034 55.3833 60.91 55.3833H64.8426C66.0271 55.3833 66.955 55.6721 67.6301 56.2458C68.3053 56.8194 68.6409 57.6575 68.6409 58.7559C68.6409 59.8544 68.3053 60.668 67.6301 61.2254C66.955 61.7827 66.0271 62.0635 64.8426 62.0635H62.6868V65.5988C62.6868 65.7087 62.6512 65.7982 62.5841 65.8633C62.517 65.9283 62.4262 65.9609 62.3196 65.9609H60.91C60.8113 65.9609 60.7284 65.9243 60.6612 65.8551V65.8592ZM64.7676 60.371C65.3361 60.371 65.7665 60.2327 66.0666 59.9561C66.3627 59.6794 66.5127 59.2726 66.5127 58.7397C66.5127 58.2067 66.3667 57.808 66.0784 57.5151C65.7902 57.2222 65.3519 57.0757 64.7636 57.0757H62.6512V60.371H64.7636H64.7676Z" fill="black"/>
<path d="M70.1105 56.7171C70.0434 56.648 70.0078 56.5626 70.0078 56.4608V55.3583C70.0078 55.2485 70.0434 55.1549 70.1105 55.0858C70.1776 55.0166 70.2605 54.98 70.3592 54.98H71.7096C71.8162 54.98 71.907 55.0166 71.9741 55.0858C72.0412 55.1549 72.0768 55.2485 72.0768 55.3583V56.4608C72.0768 56.5626 72.0412 56.648 71.9662 56.7171C71.8912 56.7863 71.8083 56.8229 71.7096 56.8229H70.3592C70.2605 56.8229 70.1776 56.7863 70.1105 56.7171ZM70.1697 65.8627C70.1026 65.7935 70.067 65.7081 70.067 65.6064V58.4706C70.067 58.3607 70.1026 58.2712 70.1697 58.2061C70.2368 58.141 70.3197 58.1085 70.4184 58.1085H71.6661C71.7648 58.1085 71.8478 58.1451 71.9149 58.2143C71.982 58.2834 72.0175 58.3689 72.0175 58.4706V65.6064C72.0175 65.7081 71.982 65.7935 71.9149 65.8627C71.8478 65.9319 71.7648 65.9685 71.6661 65.9685H70.4184C70.3197 65.9685 70.2368 65.9319 70.1697 65.8627Z" fill="black"/>
<path d="M74.0704 65.857C74.0033 65.7878 73.9678 65.7024 73.9678 65.6007V55.5967C73.9678 55.4869 74.0033 55.3974 74.0704 55.3323C74.1376 55.2672 74.2205 55.2346 74.3192 55.2346H75.5511C75.6577 55.2346 75.7445 55.2672 75.8077 55.3323C75.8709 55.3974 75.9025 55.4869 75.9025 55.5967V65.6007C75.9025 65.7024 75.8709 65.7878 75.8077 65.857C75.7445 65.9261 75.6577 65.9627 75.5511 65.9627H74.3192C74.2205 65.9627 74.1376 65.9261 74.0704 65.857Z" fill="black"/>
<path d="M78.5715 65.2081C77.9437 64.602 77.6081 63.768 77.5607 62.698L77.5449 62.0349L77.5607 61.3717C77.6081 60.314 77.9516 59.48 78.5873 58.8697C79.223 58.2595 80.1074 57.9543 81.2406 57.9543C82.3738 57.9543 83.2464 58.2595 83.8821 58.8697C84.5178 59.48 84.8613 60.314 84.9086 61.3717C84.9165 61.4938 84.9244 61.7135 84.9244 62.0349C84.9244 62.3562 84.9205 62.58 84.9086 62.698C84.8613 63.768 84.5217 64.602 83.8979 65.2081C83.2701 65.8143 82.3856 66.1154 81.2446 66.1154C80.1035 66.1154 79.1993 65.8143 78.5754 65.2081H78.5715ZM82.437 64.0893C82.7173 63.7557 82.8634 63.2675 82.8831 62.6248C82.891 62.523 82.8989 62.3278 82.8989 62.0349C82.8989 61.7419 82.895 61.5467 82.8831 61.445C82.8634 60.8022 82.7134 60.3099 82.4291 59.9722C82.1448 59.6346 81.7499 59.4678 81.2406 59.4678C80.7313 59.4678 80.3206 59.6386 80.0364 59.9722C79.7521 60.3099 79.602 60.8022 79.5823 61.445L79.5665 62.0349L79.5823 62.6248C79.602 63.2716 79.7521 63.7598 80.0364 64.0893C80.3206 64.4229 80.7194 64.5897 81.2406 64.5897C81.7618 64.5897 82.1566 64.4229 82.437 64.0893Z" fill="black"/>
<path d="M87.9452 65.2467C87.4951 64.7667 87.27 64.0669 87.27 63.1393V59.722H86.1092C86.0105 59.722 85.9276 59.6853 85.8605 59.6162C85.7934 59.547 85.7578 59.4616 85.7578 59.3599V58.4689C85.7578 58.3672 85.7934 58.2818 85.8605 58.2126C85.9276 58.1435 86.0105 58.1068 86.1092 58.1068H87.27V55.5967C87.27 55.4869 87.3056 55.3974 87.3727 55.3323C87.4398 55.2672 87.5227 55.2346 87.6214 55.2346H88.8375C88.9442 55.2346 89.031 55.2672 89.0942 55.3323C89.1574 55.3974 89.189 55.4869 89.189 55.5967V58.1068H91.021C91.1197 58.1068 91.2026 58.1435 91.2697 58.2126C91.3369 58.2818 91.3724 58.3672 91.3724 58.4689V59.3599C91.3724 59.4616 91.3369 59.547 91.2697 59.6162C91.2026 59.6853 91.1197 59.722 91.021 59.722H89.189V62.9725C89.189 63.4078 89.264 63.7333 89.4101 63.9571C89.5562 64.1767 89.797 64.2907 90.1287 64.2907H91.1552C91.2618 64.2907 91.3487 64.3232 91.4119 64.3883C91.4751 64.4534 91.5066 64.5429 91.5066 64.6527V65.6047C91.5066 65.7064 91.4751 65.7919 91.4119 65.861C91.3487 65.9302 91.2618 65.9668 91.1552 65.9668H89.951C89.0626 65.9668 88.3914 65.7268 87.9413 65.2508L87.9452 65.2467Z" fill="black"/>
<path d="M64.156 33.4121C64.6969 32.8548 63.8599 31.9923 63.3189 32.5496L57.9491 38.0825C55.0984 41.0198 52.2477 43.9572 49.397 46.8945C48.7455 47.5657 48.094 48.237 47.4425 48.9083C46.9016 49.4656 47.7386 50.3281 48.2796 49.7708C50.0682 47.9278 51.8568 46.0849 53.6494 44.2379C56.5001 41.3006 59.3508 38.3632 62.2015 35.4259C62.853 34.7547 63.5045 34.0834 64.156 33.4121Z" fill="#FF385C"/>
<path d="M71.3107 40.7825C71.8517 40.2251 71.0146 39.3626 70.4737 39.92L62.8691 47.7556L61.7872 48.8703C61.2463 49.4276 62.0834 50.2901 62.6243 49.7327C65.1592 47.1209 67.694 44.509 70.2289 41.8972C70.5882 41.527 70.9514 41.1527 71.3107 40.7825Z" fill="#FF385C"/>
<path d="M77.3361 25.7046H67.8797C67.323 25.672 66.7663 25.6842 66.2056 25.7453C63.6391 26.0341 61.2662 27.2587 59.5131 29.1992C57.6258 31.1439 55.7424 33.0845 53.8551 35.0291L44.3632 44.8093L42.4285 46.8028C40.3872 48.7637 37.1969 48.719 35.2345 46.6523C35.2069 46.6238 35.1753 46.5994 35.1477 46.575C33.2998 44.671 31.452 42.767 29.6041 40.8631C29.3199 40.5702 29.0316 40.2732 28.7473 39.9803C28.2064 39.4229 27.3694 40.2854 27.9103 40.8427C28.771 41.7296 29.8055 43.239 33.9434 47.0591C34.4251 47.5025 34.8081 47.8687 35.045 48.0965C37.339 49.9273 40.5925 49.8947 42.8746 48.0192C42.9931 47.9094 43.1747 47.7385 43.3919 47.5351C46.0689 45.0168 47.7746 43.0193 49.0025 41.754L58.4944 31.9738L59.9829 30.4401C60.0303 30.4116 60.0738 30.375 60.1172 30.3221C60.2396 30.1756 60.3699 30.0414 60.5002 29.9071L60.6581 29.7444C60.6581 29.7444 60.6739 29.7241 60.6818 29.7159C62.4625 27.9462 64.8355 26.9495 67.2559 26.9129C67.2795 26.9129 67.2993 26.921 67.3269 26.921C69.1906 26.9291 71.0502 27.515 72.602 28.5768C72.8112 28.7192 73.0086 28.8779 73.2061 29.0365C73.2771 29.0975 73.3522 29.1545 73.4232 29.2196C73.5772 29.3579 73.7272 29.5003 73.8733 29.6468C73.972 29.7444 74.0668 29.8461 74.1616 29.9478C74.2958 30.0983 74.4301 30.2489 74.5564 30.4075C74.5959 30.4564 74.6314 30.5052 74.667 30.5499C75.583 31.7501 76.2226 33.174 76.5385 34.6874C76.6727 35.3302 76.7478 35.9852 76.7517 36.6442C76.7517 36.6931 76.7556 36.7378 76.7675 36.7826C76.732 39.2602 75.7646 41.6157 74.1102 43.4017C74.0708 43.4261 74.0313 43.4587 73.9918 43.4953C72.4559 45.0778 70.9199 46.6604 69.384 48.243C69.1669 48.4667 68.9458 48.6946 68.7286 48.9183C68.1877 49.4757 69.0247 50.3382 69.5657 49.7808C71.1016 48.1982 72.6375 46.6157 74.1734 45.0331C74.3511 44.85 74.5327 44.6629 74.7104 44.4798C74.7578 44.4513 74.8012 44.4188 74.8446 44.374C76.807 42.3155 77.8651 39.5694 77.9165 36.7907C77.9283 36.746 77.9323 36.6971 77.9323 36.6402V26.3026C77.9323 25.9731 77.6598 25.6924 77.34 25.6924L77.3361 25.7046ZM76.0726 26.9251H76.7438V31.5995C76.7004 31.5141 76.6648 31.4287 76.6214 31.3473C75.5988 29.4352 74.0273 27.9096 72.1874 26.9291H76.0726V26.9251Z" fill="#FF385C"/>
<path d="M71.3219 33.4841C71.8629 32.9268 71.0258 32.0643 70.4849 32.6217C68.6963 34.4646 66.9076 36.3075 65.119 38.1505C62.2683 41.0878 59.4215 44.021 56.5708 46.9584C55.9193 47.6296 55.2678 48.3009 54.6163 48.9722C54.0754 49.5295 54.9125 50.392 55.4534 49.8346L60.8192 44.3058L69.3675 35.4979L71.3219 33.4841Z" fill="#FF385C"/>
<path d="M44.3587 35.8677L45.7091 37.259C46.25 37.8164 47.087 36.9539 46.5461 36.3966L37.0108 26.5716L35.6604 25.1803C35.1195 24.6229 34.2824 25.4854 34.8234 26.0427L44.3587 35.8677Z" fill="#FF385C"/>
<path d="M38.4245 44.4942C38.9654 45.0515 39.8024 44.189 39.2615 43.6317L29.8367 33.9207L28.5061 32.5496C27.9652 31.9923 27.1282 32.8548 27.6691 33.4121C30.812 36.6505 33.9509 39.8848 37.0939 43.1232C37.5361 43.5788 37.9822 44.0385 38.4245 44.4942Z" fill="#FF385C"/>
<path d="M48.2563 32.6049L49.1447 33.5203C49.6856 34.0777 50.5226 33.2152 49.9817 32.6578L43.7314 26.2177C43.4353 25.9126 43.1392 25.6074 42.843 25.3023C42.3021 24.745 41.4651 25.6074 42.006 26.1648L48.2563 32.6049Z" fill="#FF385C"/>
<path d="M32.5573 31.1567L40.3751 39.2119L42.1795 41.0711C42.7204 41.6285 43.5575 40.766 43.0165 40.2087C41.3819 38.5244 39.7512 36.8442 38.1166 35.1599C35.5107 32.4748 32.9047 29.7897 30.2988 27.1047L28.4944 25.2454C27.9535 24.6881 27.1164 25.5506 27.6574 26.1079L32.5573 31.1567Z" fill="#FF385C"/>
</svg>
